%TF.GenerationSoftware,KiCad,Pcbnew,8.0.5*%
%TF.CreationDate,2024-10-12T16:26:51+02:00*%
%TF.ProjectId,BlockyTypeV0.2.3,426c6f63-6b79-4547-9970-6556302e322e,v1.0.0*%
%TF.SameCoordinates,Original*%
%TF.FileFunction,Legend,Top*%
%TF.FilePolarity,Positive*%
%FSLAX46Y46*%
G04 Gerber Fmt 4.6, Leading zero omitted, Abs format (unit mm)*
G04 Created by KiCad (PCBNEW 8.0.5) date 2024-10-12 16:26:51*
%MOMM*%
%LPD*%
G01*
G04 APERTURE LIST*
%ADD10C,0.100000*%
%ADD11C,0.150000*%
%ADD12C,0.120000*%
%ADD13C,0.350000*%
G04 APERTURE END LIST*
D10*
X110604546Y35418899D02*
X110604546Y36418899D01*
X110604546Y36418899D02*
X110771213Y36418899D01*
X110771213Y36418899D02*
X110871213Y36371280D01*
X110871213Y36371280D02*
X110937880Y36276042D01*
X110937880Y36276042D02*
X110971213Y36180804D01*
X110971213Y36180804D02*
X111004546Y35990328D01*
X111004546Y35990328D02*
X111004546Y35847471D01*
X111004546Y35847471D02*
X110971213Y35656995D01*
X110971213Y35656995D02*
X110937880Y35561757D01*
X110937880Y35561757D02*
X110871213Y35466519D01*
X110871213Y35466519D02*
X110771213Y35418899D01*
X110771213Y35418899D02*
X110604546Y35418899D01*
X111271213Y35704614D02*
X111604546Y35704614D01*
X111204546Y35418899D02*
X111437880Y36418899D01*
X111437880Y36418899D02*
X111671213Y35418899D01*
X115384546Y34518898D02*
X115617880Y33518898D01*
X115617880Y33518898D02*
X115851213Y34518898D01*
X116484546Y33614137D02*
X116451213Y33566518D01*
X116451213Y33566518D02*
X116351213Y33518898D01*
X116351213Y33518898D02*
X116284546Y33518898D01*
X116284546Y33518898D02*
X116184546Y33566518D01*
X116184546Y33566518D02*
X116117880Y33661756D01*
X116117880Y33661756D02*
X116084546Y33756994D01*
X116084546Y33756994D02*
X116051213Y33947470D01*
X116051213Y33947470D02*
X116051213Y34090327D01*
X116051213Y34090327D02*
X116084546Y34280803D01*
X116084546Y34280803D02*
X116117880Y34376041D01*
X116117880Y34376041D02*
X116184546Y34471279D01*
X116184546Y34471279D02*
X116284546Y34518898D01*
X116284546Y34518898D02*
X116351213Y34518898D01*
X116351213Y34518898D02*
X116451213Y34471279D01*
X116451213Y34471279D02*
X116484546Y34423660D01*
X117184546Y33614137D02*
X117151213Y33566518D01*
X117151213Y33566518D02*
X117051213Y33518898D01*
X117051213Y33518898D02*
X116984546Y33518898D01*
X116984546Y33518898D02*
X116884546Y33566518D01*
X116884546Y33566518D02*
X116817880Y33661756D01*
X116817880Y33661756D02*
X116784546Y33756994D01*
X116784546Y33756994D02*
X116751213Y33947470D01*
X116751213Y33947470D02*
X116751213Y34090327D01*
X116751213Y34090327D02*
X116784546Y34280803D01*
X116784546Y34280803D02*
X116817880Y34376041D01*
X116817880Y34376041D02*
X116884546Y34471279D01*
X116884546Y34471279D02*
X116984546Y34518898D01*
X116984546Y34518898D02*
X117051213Y34518898D01*
X117051213Y34518898D02*
X117151213Y34471279D01*
X117151213Y34471279D02*
X117184546Y34423660D01*
X121171213Y35514137D02*
X121137880Y35466518D01*
X121137880Y35466518D02*
X121037880Y35418898D01*
X121037880Y35418898D02*
X120971213Y35418898D01*
X120971213Y35418898D02*
X120871213Y35466518D01*
X120871213Y35466518D02*
X120804547Y35561756D01*
X120804547Y35561756D02*
X120771213Y35656994D01*
X120771213Y35656994D02*
X120737880Y35847470D01*
X120737880Y35847470D02*
X120737880Y35990327D01*
X120737880Y35990327D02*
X120771213Y36180803D01*
X120771213Y36180803D02*
X120804547Y36276041D01*
X120804547Y36276041D02*
X120871213Y36371279D01*
X120871213Y36371279D02*
X120971213Y36418898D01*
X120971213Y36418898D02*
X121037880Y36418898D01*
X121037880Y36418898D02*
X121137880Y36371279D01*
X121137880Y36371279D02*
X121171213Y36323660D01*
X121437880Y35466518D02*
X121537880Y35418898D01*
X121537880Y35418898D02*
X121704547Y35418898D01*
X121704547Y35418898D02*
X121771213Y35466518D01*
X121771213Y35466518D02*
X121804547Y35514137D01*
X121804547Y35514137D02*
X121837880Y35609375D01*
X121837880Y35609375D02*
X121837880Y35704613D01*
X121837880Y35704613D02*
X121804547Y35799851D01*
X121804547Y35799851D02*
X121771213Y35847470D01*
X121771213Y35847470D02*
X121704547Y35895089D01*
X121704547Y35895089D02*
X121571213Y35942708D01*
X121571213Y35942708D02*
X121504547Y35990327D01*
X121504547Y35990327D02*
X121471213Y36037946D01*
X121471213Y36037946D02*
X121437880Y36133184D01*
X121437880Y36133184D02*
X121437880Y36228422D01*
X121437880Y36228422D02*
X121471213Y36323660D01*
X121471213Y36323660D02*
X121504547Y36371279D01*
X121504547Y36371279D02*
X121571213Y36418898D01*
X121571213Y36418898D02*
X121737880Y36418898D01*
X121737880Y36418898D02*
X121837880Y36371279D01*
X113621213Y35514137D02*
X113587880Y35466518D01*
X113587880Y35466518D02*
X113487880Y35418898D01*
X113487880Y35418898D02*
X113421213Y35418898D01*
X113421213Y35418898D02*
X113321213Y35466518D01*
X113321213Y35466518D02*
X113254547Y35561756D01*
X113254547Y35561756D02*
X113221213Y35656994D01*
X113221213Y35656994D02*
X113187880Y35847470D01*
X113187880Y35847470D02*
X113187880Y35990327D01*
X113187880Y35990327D02*
X113221213Y36180803D01*
X113221213Y36180803D02*
X113254547Y36276041D01*
X113254547Y36276041D02*
X113321213Y36371279D01*
X113321213Y36371279D02*
X113421213Y36418898D01*
X113421213Y36418898D02*
X113487880Y36418898D01*
X113487880Y36418898D02*
X113587880Y36371279D01*
X113587880Y36371279D02*
X113621213Y36323660D01*
X114254547Y35418898D02*
X113921213Y35418898D01*
X113921213Y35418898D02*
X113921213Y36418898D01*
X118254547Y36371279D02*
X118187880Y36418898D01*
X118187880Y36418898D02*
X118087880Y36418898D01*
X118087880Y36418898D02*
X117987880Y36371279D01*
X117987880Y36371279D02*
X117921214Y36276041D01*
X117921214Y36276041D02*
X117887880Y36180803D01*
X117887880Y36180803D02*
X117854547Y35990327D01*
X117854547Y35990327D02*
X117854547Y35847470D01*
X117854547Y35847470D02*
X117887880Y35656994D01*
X117887880Y35656994D02*
X117921214Y35561756D01*
X117921214Y35561756D02*
X117987880Y35466518D01*
X117987880Y35466518D02*
X118087880Y35418898D01*
X118087880Y35418898D02*
X118154547Y35418898D01*
X118154547Y35418898D02*
X118254547Y35466518D01*
X118254547Y35466518D02*
X118287880Y35514137D01*
X118287880Y35514137D02*
X118287880Y35847470D01*
X118287880Y35847470D02*
X118154547Y35847470D01*
X118587880Y35418898D02*
X118587880Y36418898D01*
X118587880Y36418898D02*
X118987880Y35418898D01*
X118987880Y35418898D02*
X118987880Y36418898D01*
X119321213Y35418898D02*
X119321213Y36418898D01*
X119321213Y36418898D02*
X119487880Y36418898D01*
X119487880Y36418898D02*
X119587880Y36371279D01*
X119587880Y36371279D02*
X119654547Y36276041D01*
X119654547Y36276041D02*
X119687880Y36180803D01*
X119687880Y36180803D02*
X119721213Y35990327D01*
X119721213Y35990327D02*
X119721213Y35847470D01*
X119721213Y35847470D02*
X119687880Y35656994D01*
X119687880Y35656994D02*
X119654547Y35561756D01*
X119654547Y35561756D02*
X119587880Y35466518D01*
X119587880Y35466518D02*
X119487880Y35418898D01*
X119487880Y35418898D02*
X119321213Y35418898D01*
D11*
X113389786Y47341508D02*
X113389786Y48341508D01*
X113389786Y48341508D02*
X113770738Y48341508D01*
X113770738Y48341508D02*
X113865976Y48293889D01*
X113865976Y48293889D02*
X113913595Y48246270D01*
X113913595Y48246270D02*
X113961214Y48151032D01*
X113961214Y48151032D02*
X113961214Y48008175D01*
X113961214Y48008175D02*
X113913595Y47912937D01*
X113913595Y47912937D02*
X113865976Y47865318D01*
X113865976Y47865318D02*
X113770738Y47817699D01*
X113770738Y47817699D02*
X113389786Y47817699D01*
X114865976Y48341508D02*
X114389786Y48341508D01*
X114389786Y48341508D02*
X114342167Y47865318D01*
X114342167Y47865318D02*
X114389786Y47912937D01*
X114389786Y47912937D02*
X114485024Y47960556D01*
X114485024Y47960556D02*
X114723119Y47960556D01*
X114723119Y47960556D02*
X114818357Y47912937D01*
X114818357Y47912937D02*
X114865976Y47865318D01*
X114865976Y47865318D02*
X114913595Y47770080D01*
X114913595Y47770080D02*
X114913595Y47531985D01*
X114913595Y47531985D02*
X114865976Y47436747D01*
X114865976Y47436747D02*
X114818357Y47389128D01*
X114818357Y47389128D02*
X114723119Y47341508D01*
X114723119Y47341508D02*
X114485024Y47341508D01*
X114485024Y47341508D02*
X114389786Y47389128D01*
X114389786Y47389128D02*
X114342167Y47436747D01*
X113389786Y49881508D02*
X113389786Y50881508D01*
X113389786Y50881508D02*
X113770738Y50881508D01*
X113770738Y50881508D02*
X113865976Y50833889D01*
X113865976Y50833889D02*
X113913595Y50786270D01*
X113913595Y50786270D02*
X113961214Y50691032D01*
X113961214Y50691032D02*
X113961214Y50548175D01*
X113961214Y50548175D02*
X113913595Y50452937D01*
X113913595Y50452937D02*
X113865976Y50405318D01*
X113865976Y50405318D02*
X113770738Y50357699D01*
X113770738Y50357699D02*
X113389786Y50357699D01*
X114818357Y50548175D02*
X114818357Y49881508D01*
X114580262Y50929128D02*
X114342167Y50214842D01*
X114342167Y50214842D02*
X114961214Y50214842D01*
X116927404Y65121508D02*
X116594071Y65597699D01*
X116355976Y65121508D02*
X116355976Y66121508D01*
X116355976Y66121508D02*
X116736928Y66121508D01*
X116736928Y66121508D02*
X116832166Y66073889D01*
X116832166Y66073889D02*
X116879785Y66026270D01*
X116879785Y66026270D02*
X116927404Y65931032D01*
X116927404Y65931032D02*
X116927404Y65788175D01*
X116927404Y65788175D02*
X116879785Y65692937D01*
X116879785Y65692937D02*
X116832166Y65645318D01*
X116832166Y65645318D02*
X116736928Y65597699D01*
X116736928Y65597699D02*
X116355976Y65597699D01*
X117308357Y65407223D02*
X117784547Y65407223D01*
X117213119Y65121508D02*
X117546452Y66121508D01*
X117546452Y66121508D02*
X117879785Y65121508D01*
X118117881Y66121508D02*
X118355976Y65121508D01*
X118355976Y65121508D02*
X118546452Y65835794D01*
X118546452Y65835794D02*
X118736928Y65121508D01*
X118736928Y65121508D02*
X118975024Y66121508D01*
X116403595Y42261508D02*
X116403595Y43261508D01*
X116403595Y43261508D02*
X116784547Y43261508D01*
X116784547Y43261508D02*
X116879785Y43213889D01*
X116879785Y43213889D02*
X116927404Y43166270D01*
X116927404Y43166270D02*
X116975023Y43071032D01*
X116975023Y43071032D02*
X116975023Y42928175D01*
X116975023Y42928175D02*
X116927404Y42832937D01*
X116927404Y42832937D02*
X116879785Y42785318D01*
X116879785Y42785318D02*
X116784547Y42737699D01*
X116784547Y42737699D02*
X116403595Y42737699D01*
X117927404Y42261508D02*
X117355976Y42261508D01*
X117641690Y42261508D02*
X117641690Y43261508D01*
X117641690Y43261508D02*
X117546452Y43118651D01*
X117546452Y43118651D02*
X117451214Y43023413D01*
X117451214Y43023413D02*
X117355976Y42975794D01*
X118784547Y42928175D02*
X118784547Y42261508D01*
X118546452Y43309128D02*
X118308357Y42594842D01*
X118308357Y42594842D02*
X118927404Y42594842D01*
X116403595Y44801508D02*
X116403595Y45801508D01*
X116403595Y45801508D02*
X116784547Y45801508D01*
X116784547Y45801508D02*
X116879785Y45753889D01*
X116879785Y45753889D02*
X116927404Y45706270D01*
X116927404Y45706270D02*
X116975023Y45611032D01*
X116975023Y45611032D02*
X116975023Y45468175D01*
X116975023Y45468175D02*
X116927404Y45372937D01*
X116927404Y45372937D02*
X116879785Y45325318D01*
X116879785Y45325318D02*
X116784547Y45277699D01*
X116784547Y45277699D02*
X116403595Y45277699D01*
X117927404Y44801508D02*
X117355976Y44801508D01*
X117641690Y44801508D02*
X117641690Y45801508D01*
X117641690Y45801508D02*
X117546452Y45658651D01*
X117546452Y45658651D02*
X117451214Y45563413D01*
X117451214Y45563413D02*
X117355976Y45515794D01*
X118832166Y45801508D02*
X118355976Y45801508D01*
X118355976Y45801508D02*
X118308357Y45325318D01*
X118308357Y45325318D02*
X118355976Y45372937D01*
X118355976Y45372937D02*
X118451214Y45420556D01*
X118451214Y45420556D02*
X118689309Y45420556D01*
X118689309Y45420556D02*
X118784547Y45372937D01*
X118784547Y45372937D02*
X118832166Y45325318D01*
X118832166Y45325318D02*
X118879785Y45230080D01*
X118879785Y45230080D02*
X118879785Y44991985D01*
X118879785Y44991985D02*
X118832166Y44896747D01*
X118832166Y44896747D02*
X118784547Y44849128D01*
X118784547Y44849128D02*
X118689309Y44801508D01*
X118689309Y44801508D02*
X118451214Y44801508D01*
X118451214Y44801508D02*
X118355976Y44849128D01*
X118355976Y44849128D02*
X118308357Y44896747D01*
X113389784Y62581508D02*
X113389784Y63581508D01*
X113389784Y63581508D02*
X113770736Y63581508D01*
X113770736Y63581508D02*
X113865974Y63533889D01*
X113865974Y63533889D02*
X113913593Y63486270D01*
X113913593Y63486270D02*
X113961212Y63391032D01*
X113961212Y63391032D02*
X113961212Y63248175D01*
X113961212Y63248175D02*
X113913593Y63152937D01*
X113913593Y63152937D02*
X113865974Y63105318D01*
X113865974Y63105318D02*
X113770736Y63057699D01*
X113770736Y63057699D02*
X113389784Y63057699D01*
X114580260Y63581508D02*
X114675498Y63581508D01*
X114675498Y63581508D02*
X114770736Y63533889D01*
X114770736Y63533889D02*
X114818355Y63486270D01*
X114818355Y63486270D02*
X114865974Y63391032D01*
X114865974Y63391032D02*
X114913593Y63200556D01*
X114913593Y63200556D02*
X114913593Y62962461D01*
X114913593Y62962461D02*
X114865974Y62771985D01*
X114865974Y62771985D02*
X114818355Y62676747D01*
X114818355Y62676747D02*
X114770736Y62629128D01*
X114770736Y62629128D02*
X114675498Y62581508D01*
X114675498Y62581508D02*
X114580260Y62581508D01*
X114580260Y62581508D02*
X114485022Y62629128D01*
X114485022Y62629128D02*
X114437403Y62676747D01*
X114437403Y62676747D02*
X114389784Y62771985D01*
X114389784Y62771985D02*
X114342165Y62962461D01*
X114342165Y62962461D02*
X114342165Y63200556D01*
X114342165Y63200556D02*
X114389784Y63391032D01*
X114389784Y63391032D02*
X114437403Y63486270D01*
X114437403Y63486270D02*
X114485022Y63533889D01*
X114485022Y63533889D02*
X114580260Y63581508D01*
X113389786Y37181508D02*
X113389786Y38181508D01*
X113389786Y38181508D02*
X113770738Y38181508D01*
X113770738Y38181508D02*
X113865976Y38133889D01*
X113865976Y38133889D02*
X113913595Y38086270D01*
X113913595Y38086270D02*
X113961214Y37991032D01*
X113961214Y37991032D02*
X113961214Y37848175D01*
X113961214Y37848175D02*
X113913595Y37752937D01*
X113913595Y37752937D02*
X113865976Y37705318D01*
X113865976Y37705318D02*
X113770738Y37657699D01*
X113770738Y37657699D02*
X113389786Y37657699D01*
X114437405Y37181508D02*
X114627881Y37181508D01*
X114627881Y37181508D02*
X114723119Y37229128D01*
X114723119Y37229128D02*
X114770738Y37276747D01*
X114770738Y37276747D02*
X114865976Y37419604D01*
X114865976Y37419604D02*
X114913595Y37610080D01*
X114913595Y37610080D02*
X114913595Y37991032D01*
X114913595Y37991032D02*
X114865976Y38086270D01*
X114865976Y38086270D02*
X114818357Y38133889D01*
X114818357Y38133889D02*
X114723119Y38181508D01*
X114723119Y38181508D02*
X114532643Y38181508D01*
X114532643Y38181508D02*
X114437405Y38133889D01*
X114437405Y38133889D02*
X114389786Y38086270D01*
X114389786Y38086270D02*
X114342167Y37991032D01*
X114342167Y37991032D02*
X114342167Y37752937D01*
X114342167Y37752937D02*
X114389786Y37657699D01*
X114389786Y37657699D02*
X114437405Y37610080D01*
X114437405Y37610080D02*
X114532643Y37562461D01*
X114532643Y37562461D02*
X114723119Y37562461D01*
X114723119Y37562461D02*
X114818357Y37610080D01*
X114818357Y37610080D02*
X114865976Y37657699D01*
X114865976Y37657699D02*
X114913595Y37752937D01*
X116403597Y37181507D02*
X116403597Y38181507D01*
X116403597Y38181507D02*
X116784549Y38181507D01*
X116784549Y38181507D02*
X116879787Y38133888D01*
X116879787Y38133888D02*
X116927406Y38086269D01*
X116927406Y38086269D02*
X116975025Y37991031D01*
X116975025Y37991031D02*
X116975025Y37848174D01*
X116975025Y37848174D02*
X116927406Y37752936D01*
X116927406Y37752936D02*
X116879787Y37705317D01*
X116879787Y37705317D02*
X116784549Y37657698D01*
X116784549Y37657698D02*
X116403597Y37657698D01*
X117927406Y37181507D02*
X117355978Y37181507D01*
X117641692Y37181507D02*
X117641692Y38181507D01*
X117641692Y38181507D02*
X117546454Y38038650D01*
X117546454Y38038650D02*
X117451216Y37943412D01*
X117451216Y37943412D02*
X117355978Y37895793D01*
X118546454Y38181507D02*
X118641692Y38181507D01*
X118641692Y38181507D02*
X118736930Y38133888D01*
X118736930Y38133888D02*
X118784549Y38086269D01*
X118784549Y38086269D02*
X118832168Y37991031D01*
X118832168Y37991031D02*
X118879787Y37800555D01*
X118879787Y37800555D02*
X118879787Y37562460D01*
X118879787Y37562460D02*
X118832168Y37371984D01*
X118832168Y37371984D02*
X118784549Y37276746D01*
X118784549Y37276746D02*
X118736930Y37229127D01*
X118736930Y37229127D02*
X118641692Y37181507D01*
X118641692Y37181507D02*
X118546454Y37181507D01*
X118546454Y37181507D02*
X118451216Y37229127D01*
X118451216Y37229127D02*
X118403597Y37276746D01*
X118403597Y37276746D02*
X118355978Y37371984D01*
X118355978Y37371984D02*
X118308359Y37562460D01*
X118308359Y37562460D02*
X118308359Y37800555D01*
X118308359Y37800555D02*
X118355978Y37991031D01*
X118355978Y37991031D02*
X118403597Y38086269D01*
X118403597Y38086269D02*
X118451216Y38133888D01*
X118451216Y38133888D02*
X118546454Y38181507D01*
X116403595Y49881508D02*
X116403595Y50881508D01*
X116403595Y50881508D02*
X116784547Y50881508D01*
X116784547Y50881508D02*
X116879785Y50833889D01*
X116879785Y50833889D02*
X116927404Y50786270D01*
X116927404Y50786270D02*
X116975023Y50691032D01*
X116975023Y50691032D02*
X116975023Y50548175D01*
X116975023Y50548175D02*
X116927404Y50452937D01*
X116927404Y50452937D02*
X116879785Y50405318D01*
X116879785Y50405318D02*
X116784547Y50357699D01*
X116784547Y50357699D02*
X116403595Y50357699D01*
X117927404Y49881508D02*
X117355976Y49881508D01*
X117641690Y49881508D02*
X117641690Y50881508D01*
X117641690Y50881508D02*
X117546452Y50738651D01*
X117546452Y50738651D02*
X117451214Y50643413D01*
X117451214Y50643413D02*
X117355976Y50595794D01*
X118403595Y49881508D02*
X118594071Y49881508D01*
X118594071Y49881508D02*
X118689309Y49929128D01*
X118689309Y49929128D02*
X118736928Y49976747D01*
X118736928Y49976747D02*
X118832166Y50119604D01*
X118832166Y50119604D02*
X118879785Y50310080D01*
X118879785Y50310080D02*
X118879785Y50691032D01*
X118879785Y50691032D02*
X118832166Y50786270D01*
X118832166Y50786270D02*
X118784547Y50833889D01*
X118784547Y50833889D02*
X118689309Y50881508D01*
X118689309Y50881508D02*
X118498833Y50881508D01*
X118498833Y50881508D02*
X118403595Y50833889D01*
X118403595Y50833889D02*
X118355976Y50786270D01*
X118355976Y50786270D02*
X118308357Y50691032D01*
X118308357Y50691032D02*
X118308357Y50452937D01*
X118308357Y50452937D02*
X118355976Y50357699D01*
X118355976Y50357699D02*
X118403595Y50310080D01*
X118403595Y50310080D02*
X118498833Y50262461D01*
X118498833Y50262461D02*
X118689309Y50262461D01*
X118689309Y50262461D02*
X118784547Y50310080D01*
X118784547Y50310080D02*
X118832166Y50357699D01*
X118832166Y50357699D02*
X118879785Y50452937D01*
X113389786Y44801508D02*
X113389786Y45801508D01*
X113389786Y45801508D02*
X113770738Y45801508D01*
X113770738Y45801508D02*
X113865976Y45753889D01*
X113865976Y45753889D02*
X113913595Y45706270D01*
X113913595Y45706270D02*
X113961214Y45611032D01*
X113961214Y45611032D02*
X113961214Y45468175D01*
X113961214Y45468175D02*
X113913595Y45372937D01*
X113913595Y45372937D02*
X113865976Y45325318D01*
X113865976Y45325318D02*
X113770738Y45277699D01*
X113770738Y45277699D02*
X113389786Y45277699D01*
X114818357Y45801508D02*
X114627881Y45801508D01*
X114627881Y45801508D02*
X114532643Y45753889D01*
X114532643Y45753889D02*
X114485024Y45706270D01*
X114485024Y45706270D02*
X114389786Y45563413D01*
X114389786Y45563413D02*
X114342167Y45372937D01*
X114342167Y45372937D02*
X114342167Y44991985D01*
X114342167Y44991985D02*
X114389786Y44896747D01*
X114389786Y44896747D02*
X114437405Y44849128D01*
X114437405Y44849128D02*
X114532643Y44801508D01*
X114532643Y44801508D02*
X114723119Y44801508D01*
X114723119Y44801508D02*
X114818357Y44849128D01*
X114818357Y44849128D02*
X114865976Y44896747D01*
X114865976Y44896747D02*
X114913595Y44991985D01*
X114913595Y44991985D02*
X114913595Y45230080D01*
X114913595Y45230080D02*
X114865976Y45325318D01*
X114865976Y45325318D02*
X114818357Y45372937D01*
X114818357Y45372937D02*
X114723119Y45420556D01*
X114723119Y45420556D02*
X114532643Y45420556D01*
X114532643Y45420556D02*
X114437405Y45372937D01*
X114437405Y45372937D02*
X114389786Y45325318D01*
X114389786Y45325318D02*
X114342167Y45230080D01*
X116855976Y63533889D02*
X116760738Y63581508D01*
X116760738Y63581508D02*
X116617881Y63581508D01*
X116617881Y63581508D02*
X116475024Y63533889D01*
X116475024Y63533889D02*
X116379786Y63438651D01*
X116379786Y63438651D02*
X116332167Y63343413D01*
X116332167Y63343413D02*
X116284548Y63152937D01*
X116284548Y63152937D02*
X116284548Y63010080D01*
X116284548Y63010080D02*
X116332167Y62819604D01*
X116332167Y62819604D02*
X116379786Y62724366D01*
X116379786Y62724366D02*
X116475024Y62629128D01*
X116475024Y62629128D02*
X116617881Y62581508D01*
X116617881Y62581508D02*
X116713119Y62581508D01*
X116713119Y62581508D02*
X116855976Y62629128D01*
X116855976Y62629128D02*
X116903595Y62676747D01*
X116903595Y62676747D02*
X116903595Y63010080D01*
X116903595Y63010080D02*
X116713119Y63010080D01*
X117332167Y62581508D02*
X117332167Y63581508D01*
X117332167Y63581508D02*
X117903595Y62581508D01*
X117903595Y62581508D02*
X117903595Y63581508D01*
X118379786Y62581508D02*
X118379786Y63581508D01*
X118379786Y63581508D02*
X118617881Y63581508D01*
X118617881Y63581508D02*
X118760738Y63533889D01*
X118760738Y63533889D02*
X118855976Y63438651D01*
X118855976Y63438651D02*
X118903595Y63343413D01*
X118903595Y63343413D02*
X118951214Y63152937D01*
X118951214Y63152937D02*
X118951214Y63010080D01*
X118951214Y63010080D02*
X118903595Y62819604D01*
X118903595Y62819604D02*
X118855976Y62724366D01*
X118855976Y62724366D02*
X118760738Y62629128D01*
X118760738Y62629128D02*
X118617881Y62581508D01*
X118617881Y62581508D02*
X118379786Y62581508D01*
X113955976Y60993889D02*
X113860738Y61041508D01*
X113860738Y61041508D02*
X113717881Y61041508D01*
X113717881Y61041508D02*
X113575024Y60993889D01*
X113575024Y60993889D02*
X113479786Y60898651D01*
X113479786Y60898651D02*
X113432167Y60803413D01*
X113432167Y60803413D02*
X113384548Y60612937D01*
X113384548Y60612937D02*
X113384548Y60470080D01*
X113384548Y60470080D02*
X113432167Y60279604D01*
X113432167Y60279604D02*
X113479786Y60184366D01*
X113479786Y60184366D02*
X113575024Y60089128D01*
X113575024Y60089128D02*
X113717881Y60041508D01*
X113717881Y60041508D02*
X113813119Y60041508D01*
X113813119Y60041508D02*
X113955976Y60089128D01*
X113955976Y60089128D02*
X114003595Y60136747D01*
X114003595Y60136747D02*
X114003595Y60470080D01*
X114003595Y60470080D02*
X113813119Y60470080D01*
X114432167Y60041508D02*
X114432167Y61041508D01*
X114432167Y61041508D02*
X115003595Y60041508D01*
X115003595Y60041508D02*
X115003595Y61041508D01*
X115479786Y60041508D02*
X115479786Y61041508D01*
X115479786Y61041508D02*
X115717881Y61041508D01*
X115717881Y61041508D02*
X115860738Y60993889D01*
X115860738Y60993889D02*
X115955976Y60898651D01*
X115955976Y60898651D02*
X116003595Y60803413D01*
X116003595Y60803413D02*
X116051214Y60612937D01*
X116051214Y60612937D02*
X116051214Y60470080D01*
X116051214Y60470080D02*
X116003595Y60279604D01*
X116003595Y60279604D02*
X115955976Y60184366D01*
X115955976Y60184366D02*
X115860738Y60089128D01*
X115860738Y60089128D02*
X115717881Y60041508D01*
X115717881Y60041508D02*
X115479786Y60041508D01*
X113389785Y42261507D02*
X113389785Y43261507D01*
X113389785Y43261507D02*
X113770737Y43261507D01*
X113770737Y43261507D02*
X113865975Y43213888D01*
X113865975Y43213888D02*
X113913594Y43166269D01*
X113913594Y43166269D02*
X113961213Y43071031D01*
X113961213Y43071031D02*
X113961213Y42928174D01*
X113961213Y42928174D02*
X113913594Y42832936D01*
X113913594Y42832936D02*
X113865975Y42785317D01*
X113865975Y42785317D02*
X113770737Y42737698D01*
X113770737Y42737698D02*
X113389785Y42737698D01*
X114294547Y43261507D02*
X114961213Y43261507D01*
X114961213Y43261507D02*
X114532642Y42261507D01*
X116403595Y47341508D02*
X116403595Y48341508D01*
X116403595Y48341508D02*
X116784547Y48341508D01*
X116784547Y48341508D02*
X116879785Y48293889D01*
X116879785Y48293889D02*
X116927404Y48246270D01*
X116927404Y48246270D02*
X116975023Y48151032D01*
X116975023Y48151032D02*
X116975023Y48008175D01*
X116975023Y48008175D02*
X116927404Y47912937D01*
X116927404Y47912937D02*
X116879785Y47865318D01*
X116879785Y47865318D02*
X116784547Y47817699D01*
X116784547Y47817699D02*
X116403595Y47817699D01*
X117927404Y47341508D02*
X117355976Y47341508D01*
X117641690Y47341508D02*
X117641690Y48341508D01*
X117641690Y48341508D02*
X117546452Y48198651D01*
X117546452Y48198651D02*
X117451214Y48103413D01*
X117451214Y48103413D02*
X117355976Y48055794D01*
X118498833Y47912937D02*
X118403595Y47960556D01*
X118403595Y47960556D02*
X118355976Y48008175D01*
X118355976Y48008175D02*
X118308357Y48103413D01*
X118308357Y48103413D02*
X118308357Y48151032D01*
X118308357Y48151032D02*
X118355976Y48246270D01*
X118355976Y48246270D02*
X118403595Y48293889D01*
X118403595Y48293889D02*
X118498833Y48341508D01*
X118498833Y48341508D02*
X118689309Y48341508D01*
X118689309Y48341508D02*
X118784547Y48293889D01*
X118784547Y48293889D02*
X118832166Y48246270D01*
X118832166Y48246270D02*
X118879785Y48151032D01*
X118879785Y48151032D02*
X118879785Y48103413D01*
X118879785Y48103413D02*
X118832166Y48008175D01*
X118832166Y48008175D02*
X118784547Y47960556D01*
X118784547Y47960556D02*
X118689309Y47912937D01*
X118689309Y47912937D02*
X118498833Y47912937D01*
X118498833Y47912937D02*
X118403595Y47865318D01*
X118403595Y47865318D02*
X118355976Y47817699D01*
X118355976Y47817699D02*
X118308357Y47722461D01*
X118308357Y47722461D02*
X118308357Y47531985D01*
X118308357Y47531985D02*
X118355976Y47436747D01*
X118355976Y47436747D02*
X118403595Y47389128D01*
X118403595Y47389128D02*
X118498833Y47341508D01*
X118498833Y47341508D02*
X118689309Y47341508D01*
X118689309Y47341508D02*
X118784547Y47389128D01*
X118784547Y47389128D02*
X118832166Y47436747D01*
X118832166Y47436747D02*
X118879785Y47531985D01*
X118879785Y47531985D02*
X118879785Y47722461D01*
X118879785Y47722461D02*
X118832166Y47817699D01*
X118832166Y47817699D02*
X118784547Y47865318D01*
X118784547Y47865318D02*
X118689309Y47912937D01*
X117070261Y60041508D02*
X116736928Y60517699D01*
X116498833Y60041508D02*
X116498833Y61041508D01*
X116498833Y61041508D02*
X116879785Y61041508D01*
X116879785Y61041508D02*
X116975023Y60993889D01*
X116975023Y60993889D02*
X117022642Y60946270D01*
X117022642Y60946270D02*
X117070261Y60851032D01*
X117070261Y60851032D02*
X117070261Y60708175D01*
X117070261Y60708175D02*
X117022642Y60612937D01*
X117022642Y60612937D02*
X116975023Y60565318D01*
X116975023Y60565318D02*
X116879785Y60517699D01*
X116879785Y60517699D02*
X116498833Y60517699D01*
X117451214Y60089128D02*
X117594071Y60041508D01*
X117594071Y60041508D02*
X117832166Y60041508D01*
X117832166Y60041508D02*
X117927404Y60089128D01*
X117927404Y60089128D02*
X117975023Y60136747D01*
X117975023Y60136747D02*
X118022642Y60231985D01*
X118022642Y60231985D02*
X118022642Y60327223D01*
X118022642Y60327223D02*
X117975023Y60422461D01*
X117975023Y60422461D02*
X117927404Y60470080D01*
X117927404Y60470080D02*
X117832166Y60517699D01*
X117832166Y60517699D02*
X117641690Y60565318D01*
X117641690Y60565318D02*
X117546452Y60612937D01*
X117546452Y60612937D02*
X117498833Y60660556D01*
X117498833Y60660556D02*
X117451214Y60755794D01*
X117451214Y60755794D02*
X117451214Y60851032D01*
X117451214Y60851032D02*
X117498833Y60946270D01*
X117498833Y60946270D02*
X117546452Y60993889D01*
X117546452Y60993889D02*
X117641690Y61041508D01*
X117641690Y61041508D02*
X117879785Y61041508D01*
X117879785Y61041508D02*
X118022642Y60993889D01*
X118308357Y61041508D02*
X118879785Y61041508D01*
X118594071Y60041508D02*
X118594071Y61041508D01*
X113389786Y65121508D02*
X113389786Y66121508D01*
X113389786Y66121508D02*
X113770738Y66121508D01*
X113770738Y66121508D02*
X113865976Y66073889D01*
X113865976Y66073889D02*
X113913595Y66026270D01*
X113913595Y66026270D02*
X113961214Y65931032D01*
X113961214Y65931032D02*
X113961214Y65788175D01*
X113961214Y65788175D02*
X113913595Y65692937D01*
X113913595Y65692937D02*
X113865976Y65645318D01*
X113865976Y65645318D02*
X113770738Y65597699D01*
X113770738Y65597699D02*
X113389786Y65597699D01*
X114913595Y65121508D02*
X114342167Y65121508D01*
X114627881Y65121508D02*
X114627881Y66121508D01*
X114627881Y66121508D02*
X114532643Y65978651D01*
X114532643Y65978651D02*
X114437405Y65883413D01*
X114437405Y65883413D02*
X114342167Y65835794D01*
X108477404Y67666508D02*
X108144071Y68142699D01*
X107905976Y67666508D02*
X107905976Y68666508D01*
X107905976Y68666508D02*
X108286928Y68666508D01*
X108286928Y68666508D02*
X108382166Y68618889D01*
X108382166Y68618889D02*
X108429785Y68571270D01*
X108429785Y68571270D02*
X108477404Y68476032D01*
X108477404Y68476032D02*
X108477404Y68333175D01*
X108477404Y68333175D02*
X108429785Y68237937D01*
X108429785Y68237937D02*
X108382166Y68190318D01*
X108382166Y68190318D02*
X108286928Y68142699D01*
X108286928Y68142699D02*
X107905976Y68142699D01*
X109953595Y68666508D02*
X109953595Y67952223D01*
X109953595Y67952223D02*
X109905976Y67809366D01*
X109905976Y67809366D02*
X109810738Y67714128D01*
X109810738Y67714128D02*
X109667881Y67666508D01*
X109667881Y67666508D02*
X109572643Y67666508D01*
X110858357Y68333175D02*
X110858357Y67666508D01*
X110429786Y68333175D02*
X110429786Y67809366D01*
X110429786Y67809366D02*
X110477405Y67714128D01*
X110477405Y67714128D02*
X110572643Y67666508D01*
X110572643Y67666508D02*
X110715500Y67666508D01*
X110715500Y67666508D02*
X110810738Y67714128D01*
X110810738Y67714128D02*
X110858357Y67761747D01*
X111334548Y67666508D02*
X111334548Y68333175D01*
X111334548Y68237937D02*
X111382167Y68285556D01*
X111382167Y68285556D02*
X111477405Y68333175D01*
X111477405Y68333175D02*
X111620262Y68333175D01*
X111620262Y68333175D02*
X111715500Y68285556D01*
X111715500Y68285556D02*
X111763119Y68190318D01*
X111763119Y68190318D02*
X111763119Y67666508D01*
X111763119Y68190318D02*
X111810738Y68285556D01*
X111810738Y68285556D02*
X111905976Y68333175D01*
X111905976Y68333175D02*
X112048833Y68333175D01*
X112048833Y68333175D02*
X112144072Y68285556D01*
X112144072Y68285556D02*
X112191691Y68190318D01*
X112191691Y68190318D02*
X112191691Y67666508D01*
X112667881Y68333175D02*
X112667881Y67333175D01*
X112667881Y68285556D02*
X112763119Y68333175D01*
X112763119Y68333175D02*
X112953595Y68333175D01*
X112953595Y68333175D02*
X113048833Y68285556D01*
X113048833Y68285556D02*
X113096452Y68237937D01*
X113096452Y68237937D02*
X113144071Y68142699D01*
X113144071Y68142699D02*
X113144071Y67856985D01*
X113144071Y67856985D02*
X113096452Y67761747D01*
X113096452Y67761747D02*
X113048833Y67714128D01*
X113048833Y67714128D02*
X112953595Y67666508D01*
X112953595Y67666508D02*
X112763119Y67666508D01*
X112763119Y67666508D02*
X112667881Y67714128D01*
X113953595Y67714128D02*
X113858357Y67666508D01*
X113858357Y67666508D02*
X113667881Y67666508D01*
X113667881Y67666508D02*
X113572643Y67714128D01*
X113572643Y67714128D02*
X113525024Y67809366D01*
X113525024Y67809366D02*
X113525024Y68190318D01*
X113525024Y68190318D02*
X113572643Y68285556D01*
X113572643Y68285556D02*
X113667881Y68333175D01*
X113667881Y68333175D02*
X113858357Y68333175D01*
X113858357Y68333175D02*
X113953595Y68285556D01*
X113953595Y68285556D02*
X114001214Y68190318D01*
X114001214Y68190318D02*
X114001214Y68095080D01*
X114001214Y68095080D02*
X113525024Y67999842D01*
X114429786Y67666508D02*
X114429786Y68333175D01*
X114429786Y68142699D02*
X114477405Y68237937D01*
X114477405Y68237937D02*
X114525024Y68285556D01*
X114525024Y68285556D02*
X114620262Y68333175D01*
X114620262Y68333175D02*
X114715500Y68333175D01*
X115001215Y67714128D02*
X115096453Y67666508D01*
X115096453Y67666508D02*
X115286929Y67666508D01*
X115286929Y67666508D02*
X115382167Y67714128D01*
X115382167Y67714128D02*
X115429786Y67809366D01*
X115429786Y67809366D02*
X115429786Y67856985D01*
X115429786Y67856985D02*
X115382167Y67952223D01*
X115382167Y67952223D02*
X115286929Y67999842D01*
X115286929Y67999842D02*
X115144072Y67999842D01*
X115144072Y67999842D02*
X115048834Y68047461D01*
X115048834Y68047461D02*
X115001215Y68142699D01*
X115001215Y68142699D02*
X115001215Y68190318D01*
X115001215Y68190318D02*
X115048834Y68285556D01*
X115048834Y68285556D02*
X115144072Y68333175D01*
X115144072Y68333175D02*
X115286929Y68333175D01*
X115286929Y68333175D02*
X115382167Y68285556D01*
X115905977Y67714128D02*
X115905977Y67666508D01*
X115905977Y67666508D02*
X115858358Y67571270D01*
X115858358Y67571270D02*
X115810739Y67523651D01*
X117096453Y67666508D02*
X117096453Y68666508D01*
X117096453Y68666508D02*
X117429786Y67952223D01*
X117429786Y67952223D02*
X117763119Y68666508D01*
X117763119Y68666508D02*
X117763119Y67666508D01*
X118810738Y67761747D02*
X118763119Y67714128D01*
X118763119Y67714128D02*
X118620262Y67666508D01*
X118620262Y67666508D02*
X118525024Y67666508D01*
X118525024Y67666508D02*
X118382167Y67714128D01*
X118382167Y67714128D02*
X118286929Y67809366D01*
X118286929Y67809366D02*
X118239310Y67904604D01*
X118239310Y67904604D02*
X118191691Y68095080D01*
X118191691Y68095080D02*
X118191691Y68237937D01*
X118191691Y68237937D02*
X118239310Y68428413D01*
X118239310Y68428413D02*
X118286929Y68523651D01*
X118286929Y68523651D02*
X118382167Y68618889D01*
X118382167Y68618889D02*
X118525024Y68666508D01*
X118525024Y68666508D02*
X118620262Y68666508D01*
X118620262Y68666508D02*
X118763119Y68618889D01*
X118763119Y68618889D02*
X118810738Y68571270D01*
X119239310Y68666508D02*
X119239310Y67856985D01*
X119239310Y67856985D02*
X119286929Y67761747D01*
X119286929Y67761747D02*
X119334548Y67714128D01*
X119334548Y67714128D02*
X119429786Y67666508D01*
X119429786Y67666508D02*
X119620262Y67666508D01*
X119620262Y67666508D02*
X119715500Y67714128D01*
X119715500Y67714128D02*
X119763119Y67761747D01*
X119763119Y67761747D02*
X119810738Y67856985D01*
X119810738Y67856985D02*
X119810738Y68666508D01*
X121048834Y67666508D02*
X121048834Y68666508D01*
X121048834Y68666508D02*
X121286929Y68666508D01*
X121286929Y68666508D02*
X121429786Y68618889D01*
X121429786Y68618889D02*
X121525024Y68523651D01*
X121525024Y68523651D02*
X121572643Y68428413D01*
X121572643Y68428413D02*
X121620262Y68237937D01*
X121620262Y68237937D02*
X121620262Y68095080D01*
X121620262Y68095080D02*
X121572643Y67904604D01*
X121572643Y67904604D02*
X121525024Y67809366D01*
X121525024Y67809366D02*
X121429786Y67714128D01*
X121429786Y67714128D02*
X121286929Y67666508D01*
X121286929Y67666508D02*
X121048834Y67666508D01*
X122191691Y67666508D02*
X122096453Y67714128D01*
X122096453Y67714128D02*
X122048834Y67761747D01*
X122048834Y67761747D02*
X122001215Y67856985D01*
X122001215Y67856985D02*
X122001215Y68142699D01*
X122001215Y68142699D02*
X122048834Y68237937D01*
X122048834Y68237937D02*
X122096453Y68285556D01*
X122096453Y68285556D02*
X122191691Y68333175D01*
X122191691Y68333175D02*
X122334548Y68333175D01*
X122334548Y68333175D02*
X122429786Y68285556D01*
X122429786Y68285556D02*
X122477405Y68237937D01*
X122477405Y68237937D02*
X122525024Y68142699D01*
X122525024Y68142699D02*
X122525024Y67856985D01*
X122525024Y67856985D02*
X122477405Y67761747D01*
X122477405Y67761747D02*
X122429786Y67714128D01*
X122429786Y67714128D02*
X122334548Y67666508D01*
X122334548Y67666508D02*
X122191691Y67666508D01*
X122858358Y68333175D02*
X123048834Y67666508D01*
X123048834Y67666508D02*
X123239310Y68142699D01*
X123239310Y68142699D02*
X123429786Y67666508D01*
X123429786Y67666508D02*
X123620262Y68333175D01*
X124001215Y68333175D02*
X124001215Y67666508D01*
X124001215Y68237937D02*
X124048834Y68285556D01*
X124048834Y68285556D02*
X124144072Y68333175D01*
X124144072Y68333175D02*
X124286929Y68333175D01*
X124286929Y68333175D02*
X124382167Y68285556D01*
X124382167Y68285556D02*
X124429786Y68190318D01*
X124429786Y68190318D02*
X124429786Y67666508D01*
X113389786Y52421508D02*
X113389786Y53421508D01*
X113389786Y53421508D02*
X113770738Y53421508D01*
X113770738Y53421508D02*
X113865976Y53373889D01*
X113865976Y53373889D02*
X113913595Y53326270D01*
X113913595Y53326270D02*
X113961214Y53231032D01*
X113961214Y53231032D02*
X113961214Y53088175D01*
X113961214Y53088175D02*
X113913595Y52992937D01*
X113913595Y52992937D02*
X113865976Y52945318D01*
X113865976Y52945318D02*
X113770738Y52897699D01*
X113770738Y52897699D02*
X113389786Y52897699D01*
X114294548Y53421508D02*
X114913595Y53421508D01*
X114913595Y53421508D02*
X114580262Y53040556D01*
X114580262Y53040556D02*
X114723119Y53040556D01*
X114723119Y53040556D02*
X114818357Y52992937D01*
X114818357Y52992937D02*
X114865976Y52945318D01*
X114865976Y52945318D02*
X114913595Y52850080D01*
X114913595Y52850080D02*
X114913595Y52611985D01*
X114913595Y52611985D02*
X114865976Y52516747D01*
X114865976Y52516747D02*
X114818357Y52469128D01*
X114818357Y52469128D02*
X114723119Y52421508D01*
X114723119Y52421508D02*
X114437405Y52421508D01*
X114437405Y52421508D02*
X114342167Y52469128D01*
X114342167Y52469128D02*
X114294548Y52516747D01*
X116403595Y52421506D02*
X116403595Y53421506D01*
X116403595Y53421506D02*
X116784547Y53421506D01*
X116784547Y53421506D02*
X116879785Y53373887D01*
X116879785Y53373887D02*
X116927404Y53326268D01*
X116927404Y53326268D02*
X116975023Y53231030D01*
X116975023Y53231030D02*
X116975023Y53088173D01*
X116975023Y53088173D02*
X116927404Y52992935D01*
X116927404Y52992935D02*
X116879785Y52945316D01*
X116879785Y52945316D02*
X116784547Y52897697D01*
X116784547Y52897697D02*
X116403595Y52897697D01*
X117355976Y53326268D02*
X117403595Y53373887D01*
X117403595Y53373887D02*
X117498833Y53421506D01*
X117498833Y53421506D02*
X117736928Y53421506D01*
X117736928Y53421506D02*
X117832166Y53373887D01*
X117832166Y53373887D02*
X117879785Y53326268D01*
X117879785Y53326268D02*
X117927404Y53231030D01*
X117927404Y53231030D02*
X117927404Y53135792D01*
X117927404Y53135792D02*
X117879785Y52992935D01*
X117879785Y52992935D02*
X117308357Y52421506D01*
X117308357Y52421506D02*
X117927404Y52421506D01*
X118546452Y53421506D02*
X118641690Y53421506D01*
X118641690Y53421506D02*
X118736928Y53373887D01*
X118736928Y53373887D02*
X118784547Y53326268D01*
X118784547Y53326268D02*
X118832166Y53231030D01*
X118832166Y53231030D02*
X118879785Y53040554D01*
X118879785Y53040554D02*
X118879785Y52802459D01*
X118879785Y52802459D02*
X118832166Y52611983D01*
X118832166Y52611983D02*
X118784547Y52516745D01*
X118784547Y52516745D02*
X118736928Y52469126D01*
X118736928Y52469126D02*
X118641690Y52421506D01*
X118641690Y52421506D02*
X118546452Y52421506D01*
X118546452Y52421506D02*
X118451214Y52469126D01*
X118451214Y52469126D02*
X118403595Y52516745D01*
X118403595Y52516745D02*
X118355976Y52611983D01*
X118355976Y52611983D02*
X118308357Y52802459D01*
X118308357Y52802459D02*
X118308357Y53040554D01*
X118308357Y53040554D02*
X118355976Y53231030D01*
X118355976Y53231030D02*
X118403595Y53326268D01*
X118403595Y53326268D02*
X118451214Y53373887D01*
X118451214Y53373887D02*
X118546452Y53421506D01*
X116403598Y54961507D02*
X116403598Y55961507D01*
X116403598Y55961507D02*
X116784550Y55961507D01*
X116784550Y55961507D02*
X116879788Y55913888D01*
X116879788Y55913888D02*
X116927407Y55866269D01*
X116927407Y55866269D02*
X116975026Y55771031D01*
X116975026Y55771031D02*
X116975026Y55628174D01*
X116975026Y55628174D02*
X116927407Y55532936D01*
X116927407Y55532936D02*
X116879788Y55485317D01*
X116879788Y55485317D02*
X116784550Y55437698D01*
X116784550Y55437698D02*
X116403598Y55437698D01*
X117355979Y55866269D02*
X117403598Y55913888D01*
X117403598Y55913888D02*
X117498836Y55961507D01*
X117498836Y55961507D02*
X117736931Y55961507D01*
X117736931Y55961507D02*
X117832169Y55913888D01*
X117832169Y55913888D02*
X117879788Y55866269D01*
X117879788Y55866269D02*
X117927407Y55771031D01*
X117927407Y55771031D02*
X117927407Y55675793D01*
X117927407Y55675793D02*
X117879788Y55532936D01*
X117879788Y55532936D02*
X117308360Y54961507D01*
X117308360Y54961507D02*
X117927407Y54961507D01*
X118879788Y54961507D02*
X118308360Y54961507D01*
X118594074Y54961507D02*
X118594074Y55961507D01*
X118594074Y55961507D02*
X118498836Y55818650D01*
X118498836Y55818650D02*
X118403598Y55723412D01*
X118403598Y55723412D02*
X118308360Y55675793D01*
X116403596Y39721512D02*
X116403596Y40721512D01*
X116403596Y40721512D02*
X116784548Y40721512D01*
X116784548Y40721512D02*
X116879786Y40673893D01*
X116879786Y40673893D02*
X116927405Y40626274D01*
X116927405Y40626274D02*
X116975024Y40531036D01*
X116975024Y40531036D02*
X116975024Y40388179D01*
X116975024Y40388179D02*
X116927405Y40292941D01*
X116927405Y40292941D02*
X116879786Y40245322D01*
X116879786Y40245322D02*
X116784548Y40197703D01*
X116784548Y40197703D02*
X116403596Y40197703D01*
X117927405Y39721512D02*
X117355977Y39721512D01*
X117641691Y39721512D02*
X117641691Y40721512D01*
X117641691Y40721512D02*
X117546453Y40578655D01*
X117546453Y40578655D02*
X117451215Y40483417D01*
X117451215Y40483417D02*
X117355977Y40435798D01*
X118784548Y40721512D02*
X118594072Y40721512D01*
X118594072Y40721512D02*
X118498834Y40673893D01*
X118498834Y40673893D02*
X118451215Y40626274D01*
X118451215Y40626274D02*
X118355977Y40483417D01*
X118355977Y40483417D02*
X118308358Y40292941D01*
X118308358Y40292941D02*
X118308358Y39911989D01*
X118308358Y39911989D02*
X118355977Y39816751D01*
X118355977Y39816751D02*
X118403596Y39769132D01*
X118403596Y39769132D02*
X118498834Y39721512D01*
X118498834Y39721512D02*
X118689310Y39721512D01*
X118689310Y39721512D02*
X118784548Y39769132D01*
X118784548Y39769132D02*
X118832167Y39816751D01*
X118832167Y39816751D02*
X118879786Y39911989D01*
X118879786Y39911989D02*
X118879786Y40150084D01*
X118879786Y40150084D02*
X118832167Y40245322D01*
X118832167Y40245322D02*
X118784548Y40292941D01*
X118784548Y40292941D02*
X118689310Y40340560D01*
X118689310Y40340560D02*
X118498834Y40340560D01*
X118498834Y40340560D02*
X118403596Y40292941D01*
X118403596Y40292941D02*
X118355977Y40245322D01*
X118355977Y40245322D02*
X118308358Y40150084D01*
X113955976Y58453889D02*
X113860738Y58501508D01*
X113860738Y58501508D02*
X113717881Y58501508D01*
X113717881Y58501508D02*
X113575024Y58453889D01*
X113575024Y58453889D02*
X113479786Y58358651D01*
X113479786Y58358651D02*
X113432167Y58263413D01*
X113432167Y58263413D02*
X113384548Y58072937D01*
X113384548Y58072937D02*
X113384548Y57930080D01*
X113384548Y57930080D02*
X113432167Y57739604D01*
X113432167Y57739604D02*
X113479786Y57644366D01*
X113479786Y57644366D02*
X113575024Y57549128D01*
X113575024Y57549128D02*
X113717881Y57501508D01*
X113717881Y57501508D02*
X113813119Y57501508D01*
X113813119Y57501508D02*
X113955976Y57549128D01*
X113955976Y57549128D02*
X114003595Y57596747D01*
X114003595Y57596747D02*
X114003595Y57930080D01*
X114003595Y57930080D02*
X113813119Y57930080D01*
X114432167Y57501508D02*
X114432167Y58501508D01*
X114432167Y58501508D02*
X115003595Y57501508D01*
X115003595Y57501508D02*
X115003595Y58501508D01*
X115479786Y57501508D02*
X115479786Y58501508D01*
X115479786Y58501508D02*
X115717881Y58501508D01*
X115717881Y58501508D02*
X115860738Y58453889D01*
X115860738Y58453889D02*
X115955976Y58358651D01*
X115955976Y58358651D02*
X116003595Y58263413D01*
X116003595Y58263413D02*
X116051214Y58072937D01*
X116051214Y58072937D02*
X116051214Y57930080D01*
X116051214Y57930080D02*
X116003595Y57739604D01*
X116003595Y57739604D02*
X115955976Y57644366D01*
X115955976Y57644366D02*
X115860738Y57549128D01*
X115860738Y57549128D02*
X115717881Y57501508D01*
X115717881Y57501508D02*
X115479786Y57501508D01*
X113389786Y39721508D02*
X113389786Y40721508D01*
X113389786Y40721508D02*
X113770738Y40721508D01*
X113770738Y40721508D02*
X113865976Y40673889D01*
X113865976Y40673889D02*
X113913595Y40626270D01*
X113913595Y40626270D02*
X113961214Y40531032D01*
X113961214Y40531032D02*
X113961214Y40388175D01*
X113961214Y40388175D02*
X113913595Y40292937D01*
X113913595Y40292937D02*
X113865976Y40245318D01*
X113865976Y40245318D02*
X113770738Y40197699D01*
X113770738Y40197699D02*
X113389786Y40197699D01*
X114532643Y40292937D02*
X114437405Y40340556D01*
X114437405Y40340556D02*
X114389786Y40388175D01*
X114389786Y40388175D02*
X114342167Y40483413D01*
X114342167Y40483413D02*
X114342167Y40531032D01*
X114342167Y40531032D02*
X114389786Y40626270D01*
X114389786Y40626270D02*
X114437405Y40673889D01*
X114437405Y40673889D02*
X114532643Y40721508D01*
X114532643Y40721508D02*
X114723119Y40721508D01*
X114723119Y40721508D02*
X114818357Y40673889D01*
X114818357Y40673889D02*
X114865976Y40626270D01*
X114865976Y40626270D02*
X114913595Y40531032D01*
X114913595Y40531032D02*
X114913595Y40483413D01*
X114913595Y40483413D02*
X114865976Y40388175D01*
X114865976Y40388175D02*
X114818357Y40340556D01*
X114818357Y40340556D02*
X114723119Y40292937D01*
X114723119Y40292937D02*
X114532643Y40292937D01*
X114532643Y40292937D02*
X114437405Y40245318D01*
X114437405Y40245318D02*
X114389786Y40197699D01*
X114389786Y40197699D02*
X114342167Y40102461D01*
X114342167Y40102461D02*
X114342167Y39911985D01*
X114342167Y39911985D02*
X114389786Y39816747D01*
X114389786Y39816747D02*
X114437405Y39769128D01*
X114437405Y39769128D02*
X114532643Y39721508D01*
X114532643Y39721508D02*
X114723119Y39721508D01*
X114723119Y39721508D02*
X114818357Y39769128D01*
X114818357Y39769128D02*
X114865976Y39816747D01*
X114865976Y39816747D02*
X114913595Y39911985D01*
X114913595Y39911985D02*
X114913595Y40102461D01*
X114913595Y40102461D02*
X114865976Y40197699D01*
X114865976Y40197699D02*
X114818357Y40245318D01*
X114818357Y40245318D02*
X114723119Y40292937D01*
X116284548Y58501508D02*
X116617881Y57501508D01*
X116617881Y57501508D02*
X116951214Y58501508D01*
X117855976Y57596747D02*
X117808357Y57549128D01*
X117808357Y57549128D02*
X117665500Y57501508D01*
X117665500Y57501508D02*
X117570262Y57501508D01*
X117570262Y57501508D02*
X117427405Y57549128D01*
X117427405Y57549128D02*
X117332167Y57644366D01*
X117332167Y57644366D02*
X117284548Y57739604D01*
X117284548Y57739604D02*
X117236929Y57930080D01*
X117236929Y57930080D02*
X117236929Y58072937D01*
X117236929Y58072937D02*
X117284548Y58263413D01*
X117284548Y58263413D02*
X117332167Y58358651D01*
X117332167Y58358651D02*
X117427405Y58453889D01*
X117427405Y58453889D02*
X117570262Y58501508D01*
X117570262Y58501508D02*
X117665500Y58501508D01*
X117665500Y58501508D02*
X117808357Y58453889D01*
X117808357Y58453889D02*
X117855976Y58406270D01*
X118855976Y57596747D02*
X118808357Y57549128D01*
X118808357Y57549128D02*
X118665500Y57501508D01*
X118665500Y57501508D02*
X118570262Y57501508D01*
X118570262Y57501508D02*
X118427405Y57549128D01*
X118427405Y57549128D02*
X118332167Y57644366D01*
X118332167Y57644366D02*
X118284548Y57739604D01*
X118284548Y57739604D02*
X118236929Y57930080D01*
X118236929Y57930080D02*
X118236929Y58072937D01*
X118236929Y58072937D02*
X118284548Y58263413D01*
X118284548Y58263413D02*
X118332167Y58358651D01*
X118332167Y58358651D02*
X118427405Y58453889D01*
X118427405Y58453889D02*
X118570262Y58501508D01*
X118570262Y58501508D02*
X118665500Y58501508D01*
X118665500Y58501508D02*
X118808357Y58453889D01*
X118808357Y58453889D02*
X118855976Y58406270D01*
X113389786Y54961508D02*
X113389786Y55961508D01*
X113389786Y55961508D02*
X113770738Y55961508D01*
X113770738Y55961508D02*
X113865976Y55913889D01*
X113865976Y55913889D02*
X113913595Y55866270D01*
X113913595Y55866270D02*
X113961214Y55771032D01*
X113961214Y55771032D02*
X113961214Y55628175D01*
X113961214Y55628175D02*
X113913595Y55532937D01*
X113913595Y55532937D02*
X113865976Y55485318D01*
X113865976Y55485318D02*
X113770738Y55437699D01*
X113770738Y55437699D02*
X113389786Y55437699D01*
X114342167Y55866270D02*
X114389786Y55913889D01*
X114389786Y55913889D02*
X114485024Y55961508D01*
X114485024Y55961508D02*
X114723119Y55961508D01*
X114723119Y55961508D02*
X114818357Y55913889D01*
X114818357Y55913889D02*
X114865976Y55866270D01*
X114865976Y55866270D02*
X114913595Y55771032D01*
X114913595Y55771032D02*
X114913595Y55675794D01*
X114913595Y55675794D02*
X114865976Y55532937D01*
X114865976Y55532937D02*
X114294548Y54961508D01*
X114294548Y54961508D02*
X114913595Y54961508D01*
D10*
%TO.C,D4*%
X5071704Y17455713D02*
X5859550Y17594631D01*
X5465627Y17525173D02*
X5378803Y18017576D01*
X5569816Y16934288D02*
X5028172Y16838781D01*
X5569816Y16934288D02*
X5071704Y17455713D01*
X5569816Y16934288D02*
X6111460Y17029791D01*
X5639275Y16540364D02*
X5569816Y16934288D01*
X5859550Y17594631D02*
X5569816Y16934288D01*
%TO.C,D15*%
X66167883Y65826321D02*
X66967883Y65826321D01*
X66567881Y65826323D02*
X66567883Y66326321D01*
X66567883Y64826321D02*
X66567884Y65226322D01*
X66567884Y65226322D02*
X66017887Y65226322D01*
X66567884Y65226322D02*
X66167883Y65826321D01*
X66567884Y65226322D02*
X67117880Y65226318D01*
X66967883Y65826321D02*
X66567884Y65226322D01*
D12*
%TO.C,DISP1*%
X109757880Y33006318D02*
X109757880Y30346317D01*
X122577880Y33006318D02*
X109757880Y33006318D01*
X122577880Y33006318D02*
X122577880Y30346319D01*
X122577880Y30346319D02*
X109757880Y30346317D01*
D11*
%TO.C,S16*%
X87167878Y31576318D02*
X91667878Y31576319D01*
X87167878Y31376318D02*
X87167880Y32376315D01*
X87167878Y30976318D02*
X87167878Y31576318D01*
X87167878Y26876318D02*
X87167878Y27376318D01*
X87167881Y18376320D02*
X87167878Y19376318D01*
X87167881Y18376320D02*
X88167878Y18376318D01*
X88167878Y32376318D02*
X87167880Y32376315D01*
X91667878Y27576318D02*
X91667878Y26876318D01*
X91667878Y26876318D02*
X87167878Y26876318D01*
X92167878Y32076318D02*
X92167878Y33076318D01*
X92667878Y33576318D02*
X92167878Y33076318D01*
X95667878Y33576318D02*
X92667878Y33576318D01*
X95667878Y29076318D02*
X93167878Y29076318D01*
X96167878Y33076318D02*
X95667878Y33576318D01*
X96167879Y29576317D02*
X95667878Y29076318D01*
X100167878Y18376318D02*
X101167876Y18376321D01*
X101167875Y32376316D02*
X100167878Y32376318D01*
X101167875Y32376316D02*
X101167878Y31376318D01*
X101167878Y19376318D02*
X101167876Y18376321D01*
X91667879Y27596318D02*
G75*
G02*
X93367878Y29076318I1590001J-110001D01*
G01*
X92167878Y32156318D02*
G75*
G02*
X91647878Y31576318I-549999J-30001D01*
G01*
D10*
%TO.C,D13*%
X66167882Y29826315D02*
X66967882Y29826315D01*
X66567880Y29826317D02*
X66567882Y30326315D01*
X66567882Y28826315D02*
X66567883Y29226316D01*
X66567883Y29226316D02*
X66017886Y29226316D01*
X66567883Y29226316D02*
X66167882Y29826315D01*
X66567883Y29226316D02*
X67117879Y29226312D01*
X66967882Y29826315D02*
X66567883Y29226316D01*
%TO.C,D10*%
X46167885Y39826322D02*
X46967885Y39826322D01*
X46567883Y39826324D02*
X46567885Y40326322D01*
X46567885Y38826322D02*
X46567886Y39226323D01*
X46567886Y39226323D02*
X46017889Y39226323D01*
X46567886Y39226323D02*
X46167885Y39826322D01*
X46567886Y39226323D02*
X47117882Y39226319D01*
X46967885Y39826322D02*
X46567886Y39226323D01*
%TO.C,D18*%
X86167885Y60826323D02*
X86967885Y60826323D01*
X86567883Y60826325D02*
X86567885Y61326323D01*
X86567885Y59826323D02*
X86567886Y60226324D01*
X86567886Y60226324D02*
X86017889Y60226324D01*
X86567886Y60226324D02*
X86167885Y60826323D01*
X86567886Y60226324D02*
X87117882Y60226320D01*
X86967885Y60826323D02*
X86567886Y60226324D01*
D11*
%TO.C,S7*%
X27167884Y36576331D02*
X31667884Y36576332D01*
X27167884Y36376331D02*
X27167886Y37376328D01*
X27167884Y35976331D02*
X27167884Y36576331D01*
X27167884Y31876331D02*
X27167884Y32376331D01*
X27167887Y23376333D02*
X27167884Y24376331D01*
X27167887Y23376333D02*
X28167884Y23376331D01*
X28167884Y37376331D02*
X27167886Y37376328D01*
X31667884Y32576331D02*
X31667884Y31876331D01*
X31667884Y31876331D02*
X27167884Y31876331D01*
X32167884Y37076331D02*
X32167884Y38076331D01*
X32667884Y38576331D02*
X32167884Y38076331D01*
X35667884Y38576331D02*
X32667884Y38576331D01*
X35667884Y34076331D02*
X33167884Y34076331D01*
X36167884Y38076331D02*
X35667884Y38576331D01*
X36167885Y34576330D02*
X35667884Y34076331D01*
X40167884Y23376331D02*
X41167882Y23376334D01*
X41167881Y37376329D02*
X40167884Y37376331D01*
X41167881Y37376329D02*
X41167884Y36376331D01*
X41167884Y24376331D02*
X41167882Y23376334D01*
X31667885Y32596331D02*
G75*
G02*
X33367884Y34076331I1590001J-110001D01*
G01*
X32167884Y37156331D02*
G75*
G02*
X31647884Y36576331I-549999J-30001D01*
G01*
%TO.C,S18*%
X87167884Y67576320D02*
X91667884Y67576321D01*
X87167884Y67376320D02*
X87167886Y68376317D01*
X87167884Y66976320D02*
X87167884Y67576320D01*
X87167884Y62876320D02*
X87167884Y63376320D01*
X87167887Y54376322D02*
X87167884Y55376320D01*
X87167887Y54376322D02*
X88167884Y54376320D01*
X88167884Y68376320D02*
X87167886Y68376317D01*
X91667884Y63576320D02*
X91667884Y62876320D01*
X91667884Y62876320D02*
X87167884Y62876320D01*
X92167884Y68076320D02*
X92167884Y69076320D01*
X92667884Y69576320D02*
X92167884Y69076320D01*
X95667884Y69576320D02*
X92667884Y69576320D01*
X95667884Y65076320D02*
X93167884Y65076320D01*
X96167884Y69076320D02*
X95667884Y69576320D01*
X96167885Y65576319D02*
X95667884Y65076320D01*
X100167884Y54376320D02*
X101167882Y54376323D01*
X101167881Y68376318D02*
X100167884Y68376320D01*
X101167881Y68376318D02*
X101167884Y67376320D01*
X101167884Y55376320D02*
X101167882Y54376323D01*
X91667885Y63596320D02*
G75*
G02*
X93367884Y65076320I1590001J-110001D01*
G01*
X92167884Y68156320D02*
G75*
G02*
X91647884Y67576320I-549999J-30001D01*
G01*
D10*
%TO.C,D2*%
X-16881875Y26785251D02*
X-16094029Y26924169D01*
X-16487952Y26854711D02*
X-16574776Y27347114D01*
X-16383763Y26263826D02*
X-16925407Y26168319D01*
X-16383763Y26263826D02*
X-16881875Y26785251D01*
X-16383763Y26263826D02*
X-15842119Y26359329D01*
X-16314304Y25869902D02*
X-16383763Y26263826D01*
X-16094029Y26924169D02*
X-16383763Y26263826D01*
%TO.C,D17*%
X86167875Y42826313D02*
X86967875Y42826313D01*
X86567873Y42826315D02*
X86567875Y43326313D01*
X86567875Y41826313D02*
X86567876Y42226314D01*
X86567876Y42226314D02*
X86017879Y42226314D01*
X86567876Y42226314D02*
X86167875Y42826313D01*
X86567876Y42226314D02*
X87117872Y42226310D01*
X86967875Y42826313D02*
X86567876Y42226314D01*
%TO.C,D16*%
X86167878Y24826327D02*
X86967878Y24826327D01*
X86567876Y24826329D02*
X86567878Y25326327D01*
X86567878Y23826327D02*
X86567879Y24226328D01*
X86567879Y24226328D02*
X86017882Y24226328D01*
X86567879Y24226328D02*
X86167878Y24826327D01*
X86567879Y24226328D02*
X87117875Y24226324D01*
X86967878Y24826327D02*
X86567879Y24226328D01*
D11*
%TO.C,S15*%
X67167879Y72576328D02*
X71667879Y72576329D01*
X67167879Y72376328D02*
X67167881Y73376325D01*
X67167879Y71976328D02*
X67167879Y72576328D01*
X67167879Y67876328D02*
X67167879Y68376328D01*
X67167882Y59376330D02*
X67167879Y60376328D01*
X67167882Y59376330D02*
X68167879Y59376328D01*
X68167879Y73376328D02*
X67167881Y73376325D01*
X71667879Y68576328D02*
X71667879Y67876328D01*
X71667879Y67876328D02*
X67167879Y67876328D01*
X72167879Y73076328D02*
X72167879Y74076328D01*
X72667879Y74576328D02*
X72167879Y74076328D01*
X75667879Y74576328D02*
X72667879Y74576328D01*
X75667879Y70076328D02*
X73167879Y70076328D01*
X76167879Y74076328D02*
X75667879Y74576328D01*
X76167880Y70576327D02*
X75667879Y70076328D01*
X80167879Y59376328D02*
X81167877Y59376331D01*
X81167876Y73376326D02*
X80167879Y73376328D01*
X81167876Y73376326D02*
X81167879Y72376328D01*
X81167879Y60376328D02*
X81167877Y59376331D01*
X71667880Y68596328D02*
G75*
G02*
X73367879Y70076328I1590001J-110001D01*
G01*
X72167879Y73156328D02*
G75*
G02*
X71647879Y72576328I-549999J-30001D01*
G01*
D10*
%TO.C,D5*%
X1946040Y35182257D02*
X2733886Y35321175D01*
X2339963Y35251717D02*
X2253139Y35744120D01*
X2444152Y34660832D02*
X1902508Y34565325D01*
X2444152Y34660832D02*
X1946040Y35182257D01*
X2444152Y34660832D02*
X2985796Y34756335D01*
X2513611Y34266908D02*
X2444152Y34660832D01*
X2733886Y35321175D02*
X2444152Y34660832D01*
D12*
%TO.C,JST1*%
X112507888Y7736330D02*
X112507885Y6736328D01*
X112507888Y-83670D02*
X112507888Y916330D01*
X113427888Y7736330D02*
X112507888Y7736330D01*
X113427888Y-83670D02*
X112507888Y-83670D01*
D10*
X114067884Y8776330D02*
X115067888Y8776330D01*
X114567885Y8276332D02*
X114567890Y9276329D01*
X117067888Y8776330D02*
X116067888Y8776330D01*
D12*
X117627889Y-83669D02*
X118627888Y-83670D01*
X117707888Y7736331D02*
X118627888Y7736330D01*
X118627888Y7736330D02*
X118627886Y6736328D01*
X118627888Y-83670D02*
X118627888Y916330D01*
%TO.C,SW3*%
X123242881Y21776315D02*
X123242881Y23476315D01*
X123242885Y24776315D02*
X123242881Y24976315D01*
X124292881Y19926315D02*
X125082877Y19926315D01*
X125082877Y26826315D02*
X124292880Y26826315D01*
X126092881Y20526315D02*
X126092881Y26226315D01*
D11*
%TO.C,S14*%
X67167876Y54576320D02*
X71667876Y54576321D01*
X67167876Y54376320D02*
X67167878Y55376317D01*
X67167876Y53976320D02*
X67167876Y54576320D01*
X67167876Y49876320D02*
X67167876Y50376320D01*
X67167879Y41376322D02*
X67167876Y42376320D01*
X67167879Y41376322D02*
X68167876Y41376320D01*
X68167876Y55376320D02*
X67167878Y55376317D01*
X71667876Y50576320D02*
X71667876Y49876320D01*
X71667876Y49876320D02*
X67167876Y49876320D01*
X72167876Y55076320D02*
X72167876Y56076320D01*
X72667876Y56576320D02*
X72167876Y56076320D01*
X75667876Y56576320D02*
X72667876Y56576320D01*
X75667876Y52076320D02*
X73167876Y52076320D01*
X76167876Y56076320D02*
X75667876Y56576320D01*
X76167877Y52576319D02*
X75667876Y52076320D01*
X80167876Y41376320D02*
X81167874Y41376323D01*
X81167873Y55376318D02*
X80167876Y55376320D01*
X81167873Y55376318D02*
X81167876Y54376320D01*
X81167876Y42376320D02*
X81167874Y41376323D01*
X71667877Y50596320D02*
G75*
G02*
X73367876Y52076320I1590001J-110001D01*
G01*
X72167876Y55156320D02*
G75*
G02*
X71647876Y54576320I-549999J-30001D01*
G01*
D10*
%TO.C,D1*%
X-13756215Y9058706D02*
X-12968369Y9197624D01*
X-13362292Y9128166D02*
X-13449116Y9620569D01*
X-13258103Y8537281D02*
X-13799747Y8441774D01*
X-13258103Y8537281D02*
X-13756215Y9058706D01*
X-13258103Y8537281D02*
X-12716459Y8632784D01*
X-13188644Y8143357D02*
X-13258103Y8537281D01*
X-12968369Y9197624D02*
X-13258103Y8537281D01*
D11*
%TO.C,S19*%
X92794818Y-1414906D02*
X93053637Y-448981D01*
X92794818Y-1414906D02*
X93760744Y-1673726D01*
X94994780Y6795463D02*
X95124188Y7278425D01*
X96055938Y10755759D02*
X96211229Y11335313D01*
X96159465Y11142129D02*
X96418285Y12108055D01*
X96211229Y11335313D02*
X100557896Y10170629D01*
X97384210Y11849236D02*
X96418285Y12108055D01*
X99341446Y5630777D02*
X94994780Y6795463D01*
X99522619Y6306924D02*
X99341446Y5630777D01*
X101170268Y10524182D02*
X101429087Y11490108D01*
X102041459Y11843661D02*
X101429087Y11490108D01*
X103774551Y6720538D02*
X101359737Y7367586D01*
X104386926Y7074091D02*
X103774551Y6720538D01*
X104939237Y11067204D02*
X102041459Y11843661D01*
X105292790Y10454832D02*
X104939237Y11067204D01*
X105351854Y-4779554D02*
X106317779Y-5038373D01*
X106576599Y-4072447D02*
X106317779Y-5038373D01*
X109941246Y8484588D02*
X108975320Y8743408D01*
X109941246Y8484588D02*
X109682427Y7518663D01*
X99527796Y6326243D02*
G75*
G02*
X101552922Y7315822I1507354J-517777D01*
G01*
X101190976Y10601458D02*
G75*
G02*
X100538577Y10175806I-539022J113368D01*
G01*
D10*
%TO.C,D6*%
X-1179635Y52908792D02*
X-391789Y53047710D01*
X-785712Y52978252D02*
X-872536Y53470655D01*
X-681523Y52387367D02*
X-1223167Y52291860D01*
X-681523Y52387367D02*
X-1179635Y52908792D01*
X-681523Y52387367D02*
X-139879Y52482870D01*
X-612064Y51993443D02*
X-681523Y52387367D01*
X-391789Y53047710D02*
X-681523Y52387367D01*
%TO.C,D12*%
X46167881Y75826321D02*
X46967881Y75826321D01*
X46567879Y75826323D02*
X46567881Y76326321D01*
X46567881Y74826321D02*
X46567882Y75226322D01*
X46567882Y75226322D02*
X46017885Y75226322D01*
X46567882Y75226322D02*
X46167881Y75826321D01*
X46567882Y75226322D02*
X47117878Y75226318D01*
X46967881Y75826321D02*
X46567882Y75226322D01*
D11*
%TO.C,S11*%
X47167870Y64576323D02*
X51667870Y64576324D01*
X47167870Y64376323D02*
X47167872Y65376320D01*
X47167870Y63976323D02*
X47167870Y64576323D01*
X47167870Y59876323D02*
X47167870Y60376323D01*
X47167873Y51376325D02*
X47167870Y52376323D01*
X47167873Y51376325D02*
X48167870Y51376323D01*
X48167870Y65376323D02*
X47167872Y65376320D01*
X51667870Y60576323D02*
X51667870Y59876323D01*
X51667870Y59876323D02*
X47167870Y59876323D01*
X52167870Y65076323D02*
X52167870Y66076323D01*
X52667870Y66576323D02*
X52167870Y66076323D01*
X55667870Y66576323D02*
X52667870Y66576323D01*
X55667870Y62076323D02*
X53167870Y62076323D01*
X56167870Y66076323D02*
X55667870Y66576323D01*
X56167871Y62576322D02*
X55667870Y62076323D01*
X60167870Y51376323D02*
X61167868Y51376326D01*
X61167867Y65376321D02*
X60167870Y65376323D01*
X61167867Y65376321D02*
X61167870Y64376323D01*
X61167870Y52376323D02*
X61167868Y51376326D01*
X51667871Y60596323D02*
G75*
G02*
X53367870Y62076323I1590001J-110001D01*
G01*
X52167870Y65156323D02*
G75*
G02*
X51647870Y64576323I-549999J-30001D01*
G01*
%TO.C,S12*%
X47167882Y82576324D02*
X51667882Y82576325D01*
X47167882Y82376324D02*
X47167884Y83376321D01*
X47167882Y81976324D02*
X47167882Y82576324D01*
X47167882Y77876324D02*
X47167882Y78376324D01*
X47167885Y69376326D02*
X47167882Y70376324D01*
X47167885Y69376326D02*
X48167882Y69376324D01*
X48167882Y83376324D02*
X47167884Y83376321D01*
X51667882Y78576324D02*
X51667882Y77876324D01*
X51667882Y77876324D02*
X47167882Y77876324D01*
X52167882Y83076324D02*
X52167882Y84076324D01*
X52667882Y84576324D02*
X52167882Y84076324D01*
X55667882Y84576324D02*
X52667882Y84576324D01*
X55667882Y80076324D02*
X53167882Y80076324D01*
X56167882Y84076324D02*
X55667882Y84576324D01*
X56167883Y80576323D02*
X55667882Y80076324D01*
X60167882Y69376324D02*
X61167880Y69376327D01*
X61167879Y83376322D02*
X60167882Y83376324D01*
X61167879Y83376322D02*
X61167882Y82376324D01*
X61167882Y70376324D02*
X61167880Y69376327D01*
X51667883Y78596324D02*
G75*
G02*
X53367882Y80076324I1590001J-110001D01*
G01*
X52167882Y83156324D02*
G75*
G02*
X51647882Y82576324I-549999J-30001D01*
G01*
%TO.C,S6*%
X-1366951Y59729887D02*
X3064684Y60511305D01*
X-1332221Y59532925D02*
X-1505870Y60517733D01*
X-1262762Y59139002D02*
X-1366951Y59729887D01*
X-550807Y55101290D02*
X-637625Y55593694D01*
X-521062Y60691381D02*
X-1505870Y60517733D01*
X925205Y46730424D02*
X751557Y47715232D01*
X925205Y46730424D02*
X1910013Y46904073D01*
X3470264Y61090532D02*
X3296616Y62075339D01*
X3702195Y62654567D02*
X3296616Y62075339D01*
X3759277Y56572073D02*
X3880830Y55882707D01*
X3880830Y55882707D02*
X-550807Y55101290D01*
X6656619Y63175512D02*
X3702195Y62654567D01*
X7235847Y62769932D02*
X6656619Y63175512D01*
X7438035Y58743877D02*
X4976016Y58309757D01*
X7843615Y59323105D02*
X7438035Y58743877D01*
X12281439Y62948808D02*
X11296631Y62775159D01*
X12281439Y62948808D02*
X12455087Y61964000D01*
X13727706Y48987851D02*
X14712514Y49161499D01*
X14538865Y50146307D02*
X14712514Y49161499D01*
X3456372Y61169316D02*
G75*
G02*
X3044988Y60507831I-536434J-125051D01*
G01*
X3755805Y56591769D02*
G75*
G02*
X5172978Y58344486I1584946J167771D01*
G01*
%TO.C,S2*%
X-17069191Y33606348D02*
X-12637556Y34387766D01*
X-17034461Y33409386D02*
X-17208110Y34394194D01*
X-16965002Y33015463D02*
X-17069191Y33606348D01*
X-16253047Y28977751D02*
X-16339865Y29470155D01*
X-16223302Y34567842D02*
X-17208110Y34394194D01*
X-14777035Y20606885D02*
X-14950683Y21591693D01*
X-14777035Y20606885D02*
X-13792227Y20780534D01*
X-12231976Y34966993D02*
X-12405624Y35951800D01*
X-12000045Y36531028D02*
X-12405624Y35951800D01*
X-11942963Y30448534D02*
X-11821410Y29759168D01*
X-11821410Y29759168D02*
X-16253047Y28977751D01*
X-9045621Y37051973D02*
X-12000045Y36531028D01*
X-8466393Y36646393D02*
X-9045621Y37051973D01*
X-8264205Y32620338D02*
X-10726224Y32186218D01*
X-7858625Y33199566D02*
X-8264205Y32620338D01*
X-3420801Y36825269D02*
X-4405609Y36651620D01*
X-3420801Y36825269D02*
X-3247153Y35840461D01*
X-1974534Y22864312D02*
X-989726Y23037960D01*
X-1163375Y24022768D02*
X-989726Y23037960D01*
X-12245868Y35045777D02*
G75*
G02*
X-12657252Y34384292I-536434J-125051D01*
G01*
X-11946435Y30468230D02*
G75*
G02*
X-10529262Y32220947I1584946J167771D01*
G01*
D10*
%TO.C,D20*%
X118649601Y-4368587D02*
X118879031Y-4040926D01*
X118879031Y-4040926D02*
X118428498Y-3725459D01*
X118879031Y-4040926D02*
X118895517Y-3320002D01*
X118879031Y-4040926D02*
X119329564Y-4356391D01*
X118895517Y-3320002D02*
X119550838Y-3778866D01*
X119223180Y-3549434D02*
X119509965Y-3139859D01*
X119550838Y-3778866D02*
X118879031Y-4040926D01*
D11*
%TO.C,S5*%
X1758715Y42003345D02*
X6190350Y42784763D01*
X1793445Y41806383D02*
X1619796Y42791191D01*
X1862904Y41412460D02*
X1758715Y42003345D01*
X2574859Y37374748D02*
X2488041Y37867152D01*
X2604604Y42964839D02*
X1619796Y42791191D01*
X4050871Y29003882D02*
X3877223Y29988690D01*
X4050871Y29003882D02*
X5035679Y29177531D01*
X6595930Y43363990D02*
X6422282Y44348797D01*
X6827861Y44928025D02*
X6422282Y44348797D01*
X6884943Y38845531D02*
X7006496Y38156165D01*
X7006496Y38156165D02*
X2574859Y37374748D01*
X9782285Y45448970D02*
X6827861Y44928025D01*
X10361513Y45043390D02*
X9782285Y45448970D01*
X10563701Y41017335D02*
X8101682Y40583215D01*
X10969281Y41596563D02*
X10563701Y41017335D01*
X15407105Y45222266D02*
X14422297Y45048617D01*
X15407105Y45222266D02*
X15580753Y44237458D01*
X16853372Y31261309D02*
X17838180Y31434957D01*
X17664531Y32419765D02*
X17838180Y31434957D01*
X6582038Y43442774D02*
G75*
G02*
X6170654Y42781289I-536434J-125051D01*
G01*
X6881471Y38865227D02*
G75*
G02*
X8298644Y40617944I1584946J167771D01*
G01*
D10*
%TO.C,D14*%
X66167878Y47826322D02*
X66967878Y47826322D01*
X66567876Y47826324D02*
X66567878Y48326322D01*
X66567878Y46826322D02*
X66567879Y47226323D01*
X66567879Y47226323D02*
X66017882Y47226323D01*
X66567879Y47226323D02*
X66167878Y47826322D01*
X66567879Y47226323D02*
X67117875Y47226319D01*
X66967878Y47826322D02*
X66567879Y47226323D01*
D11*
%TO.C,S20*%
X116015102Y-9177101D02*
X116588679Y-8357949D01*
X116015102Y-9177101D02*
X116834255Y-9750678D01*
X120890502Y-2214309D02*
X121177291Y-1804733D01*
X123242166Y1144215D02*
X123586312Y1635706D01*
X123471596Y1471875D02*
X124045173Y2291028D01*
X123586312Y1635706D02*
X127272496Y-945388D01*
X124576687Y-4795403D02*
X120890502Y-2214309D01*
X124864325Y1717451D02*
X124045173Y2291028D01*
X124978190Y-4221996D02*
X124576687Y-4795403D01*
X126664079Y-16633595D02*
X127483231Y-17207172D01*
X127968860Y-822604D02*
X128542436Y-3448D01*
X128056808Y-16388019D02*
X127483231Y-17207172D01*
X129115163Y-5287574D02*
X127067283Y-3853633D01*
X129238801Y119339D02*
X128542436Y-3448D01*
X129811531Y-5164784D02*
X129115163Y-5287574D01*
X131696257Y-1601390D02*
X129238801Y119339D01*
X131819045Y-2297754D02*
X131696257Y-1601390D01*
X135513302Y-5739043D02*
X134694149Y-5165466D01*
X135513302Y-5739043D02*
X134939725Y-6558195D01*
X124989664Y-4205613D02*
G75*
G02*
X127231112Y-3968349I1239357J-1002098D01*
G01*
X128014750Y-757067D02*
G75*
G02*
X127256113Y-933917I-467743J290891D01*
G01*
D12*
%TO.C,SW1*%
X123242881Y12776330D02*
X123242881Y14476330D01*
X123242885Y15776330D02*
X123242881Y15976330D01*
X124292881Y10926330D02*
X125082877Y10926330D01*
X125082877Y17826330D02*
X124292880Y17826330D01*
X126092881Y11526330D02*
X126092881Y17226330D01*
D11*
%TO.C,S9*%
X27167881Y72576325D02*
X31667881Y72576326D01*
X27167881Y72376325D02*
X27167883Y73376322D01*
X27167881Y71976325D02*
X27167881Y72576325D01*
X27167881Y67876325D02*
X27167881Y68376325D01*
X27167884Y59376327D02*
X27167881Y60376325D01*
X27167884Y59376327D02*
X28167881Y59376325D01*
X28167881Y73376325D02*
X27167883Y73376322D01*
X31667881Y68576325D02*
X31667881Y67876325D01*
X31667881Y67876325D02*
X27167881Y67876325D01*
X32167881Y73076325D02*
X32167881Y74076325D01*
X32667881Y74576325D02*
X32167881Y74076325D01*
X35667881Y74576325D02*
X32667881Y74576325D01*
X35667881Y70076325D02*
X33167881Y70076325D01*
X36167881Y74076325D02*
X35667881Y74576325D01*
X36167882Y70576324D02*
X35667881Y70076325D01*
X40167881Y59376325D02*
X41167879Y59376328D01*
X41167878Y73376323D02*
X40167881Y73376325D01*
X41167878Y73376323D02*
X41167881Y72376325D01*
X41167881Y60376325D02*
X41167879Y59376328D01*
X31667882Y68596325D02*
G75*
G02*
X33367881Y70076325I1590001J-110001D01*
G01*
X32167881Y73156325D02*
G75*
G02*
X31647881Y72576325I-549999J-30001D01*
G01*
D10*
%TO.C,D3*%
X-20007549Y44511788D02*
X-19219703Y44650706D01*
X-19613626Y44581248D02*
X-19700450Y45073651D01*
X-19509437Y43990363D02*
X-20051081Y43894856D01*
X-19509437Y43990363D02*
X-20007549Y44511788D01*
X-19509437Y43990363D02*
X-18967793Y44085866D01*
X-19439978Y43596439D02*
X-19509437Y43990363D01*
X-19219703Y44650706D02*
X-19509437Y43990363D01*
%TO.C,D8*%
X26167883Y47826313D02*
X26967883Y47826313D01*
X26567881Y47826315D02*
X26567883Y48326313D01*
X26567883Y46826313D02*
X26567884Y47226314D01*
X26567884Y47226314D02*
X26017887Y47226314D01*
X26567884Y47226314D02*
X26167883Y47826313D01*
X26567884Y47226314D02*
X27117880Y47226310D01*
X26967883Y47826313D02*
X26567884Y47226314D01*
D12*
%TO.C,MCU1*%
X107217881Y66906332D02*
X107217881Y36306328D01*
X107217881Y66906332D02*
X109877881Y66906328D01*
X107217881Y36306328D02*
X109877882Y36306328D01*
X109877881Y66906328D02*
X109877882Y36306328D01*
X122457880Y64306326D02*
X125117879Y64306327D01*
X122457881Y66906328D02*
X122457881Y36306328D01*
X122457881Y66906328D02*
X125117881Y66906332D01*
X122457881Y36306328D02*
X125117881Y36306328D01*
X125117881Y66906332D02*
X125117881Y36306328D01*
D11*
%TO.C,S1*%
X-13943525Y15879811D02*
X-9511890Y16661229D01*
X-13908795Y15682849D02*
X-14082444Y16667657D01*
X-13839336Y15288926D02*
X-13943525Y15879811D01*
X-13127381Y11251214D02*
X-13214199Y11743618D01*
X-13097636Y16841305D02*
X-14082444Y16667657D01*
X-11651369Y2880348D02*
X-11825017Y3865156D01*
X-11651369Y2880348D02*
X-10666561Y3053997D01*
X-9106310Y17240456D02*
X-9279958Y18225263D01*
X-8874379Y18804491D02*
X-9279958Y18225263D01*
X-8817297Y12721997D02*
X-8695744Y12032631D01*
X-8695744Y12032631D02*
X-13127381Y11251214D01*
X-5919955Y19325436D02*
X-8874379Y18804491D01*
X-5340727Y18919856D02*
X-5919955Y19325436D01*
X-5138539Y14893801D02*
X-7600558Y14459681D01*
X-4732959Y15473029D02*
X-5138539Y14893801D01*
X-295135Y19098732D02*
X-1279943Y18925083D01*
X-295135Y19098732D02*
X-121487Y18113924D01*
X1151132Y5137775D02*
X2135940Y5311423D01*
X1962291Y6296231D02*
X2135940Y5311423D01*
X-9120202Y17319240D02*
G75*
G02*
X-9531586Y16657755I-536434J-125051D01*
G01*
X-8820769Y12741693D02*
G75*
G02*
X-7403596Y14494410I1584946J167771D01*
G01*
%TO.C,S3*%
X-20194865Y51332893D02*
X-15763230Y52114311D01*
X-20160135Y51135931D02*
X-20333784Y52120739D01*
X-20090676Y50742008D02*
X-20194865Y51332893D01*
X-19378721Y46704296D02*
X-19465539Y47196700D01*
X-19348976Y52294387D02*
X-20333784Y52120739D01*
X-17902709Y38333430D02*
X-18076357Y39318238D01*
X-17902709Y38333430D02*
X-16917901Y38507079D01*
X-15357650Y52693538D02*
X-15531298Y53678345D01*
X-15125719Y54257573D02*
X-15531298Y53678345D01*
X-15068637Y48175079D02*
X-14947084Y47485713D01*
X-14947084Y47485713D02*
X-19378721Y46704296D01*
X-12171295Y54778518D02*
X-15125719Y54257573D01*
X-11592067Y54372938D02*
X-12171295Y54778518D01*
X-11389879Y50346883D02*
X-13851898Y49912763D01*
X-10984299Y50926111D02*
X-11389879Y50346883D01*
X-6546475Y54551814D02*
X-7531283Y54378165D01*
X-6546475Y54551814D02*
X-6372827Y53567006D01*
X-5100208Y40590857D02*
X-4115400Y40764505D01*
X-4289049Y41749313D02*
X-4115400Y40764505D01*
X-15371542Y52772322D02*
G75*
G02*
X-15782926Y52110837I-536434J-125051D01*
G01*
X-15072109Y48194775D02*
G75*
G02*
X-13654936Y49947492I1584946J167771D01*
G01*
D10*
%TO.C,D11*%
X46167881Y57826313D02*
X46967881Y57826313D01*
X46567879Y57826315D02*
X46567881Y58326313D01*
X46567881Y56826313D02*
X46567882Y57226314D01*
X46567882Y57226314D02*
X46017885Y57226314D01*
X46567882Y57226314D02*
X46167881Y57826313D01*
X46567882Y57226314D02*
X47117878Y57226310D01*
X46967881Y57826313D02*
X46567882Y57226314D01*
D11*
%TO.C,S8*%
X27167875Y54576321D02*
X31667875Y54576322D01*
X27167875Y54376321D02*
X27167877Y55376318D01*
X27167875Y53976321D02*
X27167875Y54576321D01*
X27167875Y49876321D02*
X27167875Y50376321D01*
X27167878Y41376323D02*
X27167875Y42376321D01*
X27167878Y41376323D02*
X28167875Y41376321D01*
X28167875Y55376321D02*
X27167877Y55376318D01*
X31667875Y50576321D02*
X31667875Y49876321D01*
X31667875Y49876321D02*
X27167875Y49876321D01*
X32167875Y55076321D02*
X32167875Y56076321D01*
X32667875Y56576321D02*
X32167875Y56076321D01*
X35667875Y56576321D02*
X32667875Y56576321D01*
X35667875Y52076321D02*
X33167875Y52076321D01*
X36167875Y56076321D02*
X35667875Y56576321D01*
X36167876Y52576320D02*
X35667875Y52076321D01*
X40167875Y41376321D02*
X41167873Y41376324D01*
X41167872Y55376319D02*
X40167875Y55376321D01*
X41167872Y55376319D02*
X41167875Y54376321D01*
X41167875Y42376321D02*
X41167873Y41376324D01*
X31667876Y50596321D02*
G75*
G02*
X33367875Y52076321I1590001J-110001D01*
G01*
X32167875Y55156321D02*
G75*
G02*
X31647875Y54576321I-549999J-30001D01*
G01*
D12*
%TO.C,SW2*%
X122617881Y4626313D02*
X122617883Y8126315D01*
X125717883Y8126315D02*
X125717881Y4626313D01*
D11*
%TO.C,S10*%
X47167887Y46576337D02*
X51667887Y46576338D01*
X47167887Y46376337D02*
X47167889Y47376334D01*
X47167887Y45976337D02*
X47167887Y46576337D01*
X47167887Y41876337D02*
X47167887Y42376337D01*
X47167890Y33376339D02*
X47167887Y34376337D01*
X47167890Y33376339D02*
X48167887Y33376337D01*
X48167887Y47376337D02*
X47167889Y47376334D01*
X51667887Y42576337D02*
X51667887Y41876337D01*
X51667887Y41876337D02*
X47167887Y41876337D01*
X52167887Y47076337D02*
X52167887Y48076337D01*
X52667887Y48576337D02*
X52167887Y48076337D01*
X55667887Y48576337D02*
X52667887Y48576337D01*
X55667887Y44076337D02*
X53167887Y44076337D01*
X56167887Y48076337D02*
X55667887Y48576337D01*
X56167888Y44576336D02*
X55667887Y44076337D01*
X60167887Y33376337D02*
X61167885Y33376340D01*
X61167884Y47376335D02*
X60167887Y47376337D01*
X61167884Y47376335D02*
X61167887Y46376337D01*
X61167887Y34376337D02*
X61167885Y33376340D01*
X51667888Y42596337D02*
G75*
G02*
X53367887Y44076337I1590001J-110001D01*
G01*
X52167887Y47156337D02*
G75*
G02*
X51647887Y46576337I-549999J-30001D01*
G01*
D10*
%TO.C,D19*%
X93498274Y5074129D02*
X94271015Y4867074D01*
X93625826Y4004676D02*
X93729353Y4391046D01*
X93729353Y4391046D02*
X93198094Y4533396D01*
X93729353Y4391046D02*
X93498274Y5074129D01*
X93729353Y4391046D02*
X94260614Y4248695D01*
X93884645Y4970603D02*
X94014054Y5453564D01*
X94271015Y4867074D02*
X93729353Y4391046D01*
D11*
%TO.C,S13*%
X67167882Y36576324D02*
X71667882Y36576325D01*
X67167882Y36376324D02*
X67167884Y37376321D01*
X67167882Y35976324D02*
X67167882Y36576324D01*
X67167882Y31876324D02*
X67167882Y32376324D01*
X67167885Y23376326D02*
X67167882Y24376324D01*
X67167885Y23376326D02*
X68167882Y23376324D01*
X68167882Y37376324D02*
X67167884Y37376321D01*
X71667882Y32576324D02*
X71667882Y31876324D01*
X71667882Y31876324D02*
X67167882Y31876324D01*
X72167882Y37076324D02*
X72167882Y38076324D01*
X72667882Y38576324D02*
X72167882Y38076324D01*
X75667882Y38576324D02*
X72667882Y38576324D01*
X75667882Y34076324D02*
X73167882Y34076324D01*
X76167882Y38076324D02*
X75667882Y38576324D01*
X76167883Y34576323D02*
X75667882Y34076324D01*
X80167882Y23376324D02*
X81167880Y23376327D01*
X81167879Y37376322D02*
X80167882Y37376324D01*
X81167879Y37376322D02*
X81167882Y36376324D01*
X81167882Y24376324D02*
X81167880Y23376327D01*
X71667883Y32596324D02*
G75*
G02*
X73367882Y34076324I1590001J-110001D01*
G01*
X72167882Y37156324D02*
G75*
G02*
X71647882Y36576324I-549999J-30001D01*
G01*
%TO.C,S17*%
X87167883Y49576318D02*
X91667883Y49576319D01*
X87167883Y49376318D02*
X87167885Y50376315D01*
X87167883Y48976318D02*
X87167883Y49576318D01*
X87167883Y44876318D02*
X87167883Y45376318D01*
X87167886Y36376320D02*
X87167883Y37376318D01*
X87167886Y36376320D02*
X88167883Y36376318D01*
X88167883Y50376318D02*
X87167885Y50376315D01*
X91667883Y45576318D02*
X91667883Y44876318D01*
X91667883Y44876318D02*
X87167883Y44876318D01*
X92167883Y50076318D02*
X92167883Y51076318D01*
X92667883Y51576318D02*
X92167883Y51076318D01*
X95667883Y51576318D02*
X92667883Y51576318D01*
X95667883Y47076318D02*
X93167883Y47076318D01*
X96167883Y51076318D02*
X95667883Y51576318D01*
X96167884Y47576317D02*
X95667883Y47076318D01*
X100167883Y36376318D02*
X101167881Y36376321D01*
X101167880Y50376316D02*
X100167883Y50376318D01*
X101167880Y50376316D02*
X101167883Y49376318D01*
X101167883Y37376318D02*
X101167881Y36376321D01*
X91667884Y45596318D02*
G75*
G02*
X93367883Y47076318I1590001J-110001D01*
G01*
X92167883Y50156318D02*
G75*
G02*
X91647883Y49576318I-549999J-30001D01*
G01*
%TO.C,S4*%
X4884374Y24276813D02*
X9316009Y25058231D01*
X4919104Y24079851D02*
X4745455Y25064659D01*
X4988563Y23685928D02*
X4884374Y24276813D01*
X5700518Y19648216D02*
X5613700Y20140620D01*
X5730263Y25238307D02*
X4745455Y25064659D01*
X7176530Y11277350D02*
X7002882Y12262158D01*
X7176530Y11277350D02*
X8161338Y11450999D01*
X9721589Y25637458D02*
X9547941Y26622265D01*
X9953520Y27201493D02*
X9547941Y26622265D01*
X10010602Y21118999D02*
X10132155Y20429633D01*
X10132155Y20429633D02*
X5700518Y19648216D01*
X12907944Y27722438D02*
X9953520Y27201493D01*
X13487172Y27316858D02*
X12907944Y27722438D01*
X13689360Y23290803D02*
X11227341Y22856683D01*
X14094940Y23870031D02*
X13689360Y23290803D01*
X18532764Y27495734D02*
X17547956Y27322085D01*
X18532764Y27495734D02*
X18706412Y26510926D01*
X19979031Y13534777D02*
X20963839Y13708425D01*
X20790190Y14693233D02*
X20963839Y13708425D01*
X9707697Y25716242D02*
G75*
G02*
X9296313Y25054757I-536434J-125051D01*
G01*
X10007130Y21138695D02*
G75*
G02*
X11424303Y22891412I1584946J167771D01*
G01*
D10*
%TO.C,D9*%
X26167869Y65826325D02*
X26967869Y65826325D01*
X26567867Y65826327D02*
X26567869Y66326325D01*
X26567869Y64826325D02*
X26567870Y65226326D01*
X26567870Y65226326D02*
X26017873Y65226326D01*
X26567870Y65226326D02*
X26167869Y65826325D01*
X26567870Y65226326D02*
X27117866Y65226322D01*
X26967869Y65826325D02*
X26567870Y65226326D01*
%TO.C,D7*%
X26167876Y29826319D02*
X26967876Y29826319D01*
X26567874Y29826321D02*
X26567876Y30326319D01*
X26567876Y28826319D02*
X26567877Y29226320D01*
X26567877Y29226320D02*
X26017880Y29226320D01*
X26567877Y29226320D02*
X26167876Y29826319D01*
X26567877Y29226320D02*
X27117873Y29226316D01*
X26967876Y29826319D02*
X26567877Y29226320D01*
D12*
%TO.C,LED1*%
X-8847285Y5405630D02*
X-8569448Y3829938D01*
X-8569448Y3829938D02*
X-6993756Y4107775D01*
%TO.C,LED3*%
X-15098620Y40858717D02*
X-14820783Y39283025D01*
X-14820783Y39283025D02*
X-13245091Y39560862D01*
%TO.C,LED8*%
X30367886Y43376316D02*
X30367886Y41776316D01*
X30367886Y41776316D02*
X31967886Y41776316D01*
%TO.C,LED14*%
X70367885Y43376316D02*
X70367885Y41776316D01*
X70367885Y41776316D02*
X71967885Y41776316D01*
%TO.C,LED16*%
X90367877Y20376326D02*
X90367877Y18776326D01*
X90367877Y18776326D02*
X91967877Y18776326D01*
%TO.C,LED12*%
X50367877Y71376330D02*
X50367877Y69776330D01*
X50367877Y69776330D02*
X51967877Y69776330D01*
%TO.C,LED15*%
X70367884Y61376324D02*
X70367884Y59776324D01*
X70367884Y59776324D02*
X71967884Y59776324D01*
%TO.C,LED19*%
X95989313Y-1856759D02*
X97534795Y-2270869D01*
X96403424Y-311278D02*
X95989313Y-1856759D01*
%TO.C,LED10*%
X50367880Y35376325D02*
X50367880Y33776325D01*
X50367880Y33776325D02*
X51967880Y33776325D01*
%TO.C,LED9*%
X30367885Y61376324D02*
X30367885Y59776324D01*
X30367885Y59776324D02*
X31967885Y59776324D01*
%TO.C,LED20*%
X118865818Y-10684893D02*
X120176460Y-11602611D01*
X119783539Y-9374246D02*
X118865818Y-10684893D01*
%TO.C,LED5*%
X6854960Y31529178D02*
X7132797Y29953486D01*
X7132797Y29953486D02*
X8708489Y30231323D01*
%TO.C,LED6*%
X3729305Y49255726D02*
X4007142Y47680034D01*
X4007142Y47680034D02*
X5582834Y47957871D01*
%TO.C,LED7*%
X30367894Y25376315D02*
X30367894Y23776315D01*
X30367894Y23776315D02*
X31967894Y23776315D01*
%TO.C,LED11*%
X50367885Y53376314D02*
X50367885Y51776314D01*
X50367885Y51776314D02*
X51967885Y51776314D01*
%TO.C,LED2*%
X-11972956Y23132188D02*
X-11695119Y21556496D01*
X-11695119Y21556496D02*
X-10119427Y21834333D01*
%TO.C,LED13*%
X70367879Y25376322D02*
X70367879Y23776322D01*
X70367879Y23776322D02*
X71967879Y23776322D01*
%TO.C,LED17*%
X90367891Y38376325D02*
X90367891Y36776325D01*
X90367891Y36776325D02*
X91967891Y36776325D01*
%TO.C,LED4*%
X9980627Y13802638D02*
X10258464Y12226946D01*
X10258464Y12226946D02*
X11834156Y12504783D01*
%TO.C,LED18*%
X90367886Y56376322D02*
X90367886Y54776322D01*
X90367886Y54776322D02*
X91967886Y54776322D01*
%TD*%
D13*
X111087880Y31676318D03*
X113627880Y31676318D03*
X116167887Y31676316D03*
X118707880Y31676318D03*
X121247879Y31676322D03*
X88667878Y25376318D03*
X89167875Y29126318D03*
X94167878Y31326320D03*
X94167878Y25376318D03*
X99167877Y29126319D03*
X99667878Y25376318D03*
X113394487Y-2459037D03*
X3961644Y12233623D03*
X28667884Y30376331D03*
X29167881Y34126331D03*
X34167884Y36326333D03*
X34167884Y30376331D03*
X39167883Y34126332D03*
X39667884Y30376331D03*
X88667884Y61376320D03*
X89167881Y65126320D03*
X94167884Y67326322D03*
X94167884Y61376320D03*
X99167883Y65126321D03*
X99667884Y61376320D03*
X89167878Y9376318D03*
X68667879Y66376328D03*
X69167876Y70126328D03*
X74167879Y72326330D03*
X74167879Y66376328D03*
X79167878Y70126329D03*
X79667879Y66376328D03*
X116567887Y1376326D03*
X114567889Y1376334D03*
X124692881Y24876315D03*
X124692881Y21876315D03*
X68667876Y48376320D03*
X69167873Y52126320D03*
X74167876Y54326322D03*
X74167876Y48376320D03*
X79167875Y52126321D03*
X79667876Y48376320D03*
X96055440Y4958346D03*
X97508971Y8451158D03*
X102908005Y9282100D03*
X101368032Y3534841D03*
X107168236Y5862966D03*
X106680624Y2111336D03*
X107167881Y26376321D03*
X48667870Y58376323D03*
X49167867Y62126323D03*
X54167870Y64326325D03*
X54167870Y58376323D03*
X59167869Y62126324D03*
X59667870Y58376323D03*
X44167882Y66376320D03*
X48667882Y76376324D03*
X49167879Y80126324D03*
X54167882Y82326326D03*
X54167882Y76376324D03*
X59167881Y80126325D03*
X59667882Y76376324D03*
X103167879Y58376320D03*
X1186879Y53884551D03*
X1028099Y57664403D03*
X5570115Y60699224D03*
X6603322Y54839616D03*
X10876179Y59400887D03*
X12019765Y55794681D03*
X-14515361Y27761012D03*
X-14674141Y31540864D03*
X-10132125Y34575685D03*
X-9098918Y28716077D03*
X-4826061Y33277348D03*
X-3682475Y29671142D03*
X4312545Y36158009D03*
X4153765Y39937861D03*
X8695781Y42972682D03*
X9728988Y37113074D03*
X14001845Y41674345D03*
X15145431Y38068139D03*
X121258866Y-4303402D03*
X123819353Y-1518369D03*
X129176981Y-2584115D03*
X125764202Y-7458072D03*
X132010874Y-7254134D03*
X130269538Y-10612742D03*
X124692881Y15876330D03*
X124692881Y12876330D03*
X-1768741Y44732272D03*
X28667881Y66376325D03*
X29167878Y70126325D03*
X34167881Y72326327D03*
X34167881Y66376325D03*
X39167880Y70126326D03*
X39667881Y66376325D03*
X120167882Y18876329D03*
X44167891Y38876324D03*
X123787881Y65576328D03*
X123787881Y63036328D03*
X123787879Y60496323D03*
X123787881Y57956328D03*
X123787881Y55416328D03*
X123787881Y52876328D03*
X123787876Y50336330D03*
X123787881Y47796328D03*
X123787876Y45256330D03*
X123787881Y42716329D03*
X123787878Y40176326D03*
X123787881Y37636328D03*
X108547881Y37636328D03*
X108547881Y40176328D03*
X108547881Y42716328D03*
X108547883Y45256333D03*
X108547881Y47796328D03*
X108547881Y50336328D03*
X108547881Y52876328D03*
X108547886Y55416326D03*
X108547881Y57956328D03*
X108547886Y60496326D03*
X108547881Y63036327D03*
X108547884Y65576330D03*
X119567881Y65576328D03*
X119567882Y63036328D03*
X119567881Y60496328D03*
X119567881Y57956328D03*
X119567877Y55416330D03*
X119567886Y52876327D03*
X119567881Y50336328D03*
X119567880Y47796330D03*
X119567881Y45256328D03*
X119567874Y42716329D03*
X119567882Y40176331D03*
X119567879Y37636328D03*
X112767883Y37636328D03*
X112767881Y40176328D03*
X112767880Y42716328D03*
X112767881Y45256328D03*
X112767881Y47796328D03*
X112767885Y50336326D03*
X112767876Y52876329D03*
X112767881Y55416328D03*
X112767882Y57956326D03*
X112767881Y60496328D03*
X112767888Y63036327D03*
X112767880Y65576325D03*
X-11389695Y10034475D03*
X-11548475Y13814327D03*
X-7006459Y16849148D03*
X-5973252Y10989540D03*
X-1700395Y15550811D03*
X-556809Y11944605D03*
X-17641035Y45487557D03*
X-17799815Y49267409D03*
X-13257799Y52302230D03*
X-12224592Y46442622D03*
X-7951735Y51003893D03*
X-6808149Y47397687D03*
X28667875Y48376321D03*
X29167872Y52126321D03*
X34167875Y54326323D03*
X34167875Y48376321D03*
X39167874Y52126322D03*
X39667875Y48376321D03*
X48667887Y40376337D03*
X49167884Y44126337D03*
X54167887Y46326339D03*
X54167887Y40376337D03*
X59167886Y44126338D03*
X59667887Y40376337D03*
X68667882Y30376324D03*
X69167879Y34126324D03*
X74167882Y36326326D03*
X74167882Y30376324D03*
X79167881Y34126325D03*
X79667882Y30376324D03*
X88667883Y43376318D03*
X89167880Y47126318D03*
X94167883Y49326320D03*
X94167883Y43376318D03*
X99167882Y47126319D03*
X99667883Y43376318D03*
X7438204Y18431477D03*
X7279424Y22211329D03*
X11821440Y25246150D03*
X12854647Y19386542D03*
X17127504Y23947813D03*
X18271090Y20341607D03*
M02*
