%TF.GenerationSoftware,KiCad,Pcbnew,8.0.5*%
%TF.CreationDate,2024-10-13T17:07:22+02:00*%
%TF.ProjectId,BlockyTypeV0.2.3-rounded,426c6f63-6b79-4547-9970-6556302e322e,v1.0.0*%
%TF.SameCoordinates,Original*%
%TF.FileFunction,Copper,L2,Bot*%
%TF.FilePolarity,Positive*%
%FSLAX46Y46*%
G04 Gerber Fmt 4.6, Leading zero omitted, Abs format (unit mm)*
G04 Created by KiCad (PCBNEW 8.0.5) date 2024-10-13 17:07:22*
%MOMM*%
%LPD*%
G01*
G04 APERTURE LIST*
G04 Aperture macros list*
%AMRotRect*
0 Rectangle, with rotation*
0 The origin of the aperture is its center*
0 $1 length*
0 $2 width*
0 $3 Rotation angle, in degrees counterclockwise*
0 Add horizontal line*
21,1,$1,$2,0,0,$3*%
%AMFreePoly0*
4,1,6,1.300000,-1.300000,-0.050000,-1.300000,-1.300000,-0.250000,-1.300000,1.300000,1.300000,1.300000,1.300000,-1.300000,1.300000,-1.300000,$1*%
%AMFreePoly1*
4,1,6,0.600000,-1.000000,0.000000,-0.400000,-0.600000,-1.000000,-0.600000,0.250000,0.600000,0.250000,0.600000,-1.000000,0.600000,-1.000000,$1*%
%AMFreePoly2*
4,1,6,0.600000,-0.200000,0.600000,-0.400000,-0.600000,-0.400000,-0.600000,-0.200000,0.000000,0.400000,0.600000,-0.200000,0.600000,-0.200000,$1*%
%AMFreePoly3*
4,1,6,0.250000,0.000000,-0.250000,-0.625000,-0.500000,-0.625000,-0.500000,0.625000,-0.250000,0.625000,0.250000,0.000000,0.250000,0.000000,$1*%
%AMFreePoly4*
4,1,6,0.500000,-0.625000,-0.650000,-0.625000,-0.150000,0.000000,-0.650000,0.625000,0.500000,0.625000,0.500000,-0.625000,0.500000,-0.625000,$1*%
G04 Aperture macros list end*
%ADD10C,0.150000*%
%TA.AperFunction,NonConductor*%
%ADD11C,0.150000*%
%TD*%
%TA.AperFunction,SMDPad,CuDef*%
%ADD12RotRect,0.900000X1.200000X100.000000*%
%TD*%
%TA.AperFunction,SMDPad,CuDef*%
%ADD13R,1.200000X0.900000*%
%TD*%
%TA.AperFunction,ComponentPad*%
%ADD14O,1.700000X1.700000*%
%TD*%
%TA.AperFunction,ComponentPad*%
%ADD15C,1.700000*%
%TD*%
%TA.AperFunction,SMDPad,CuDef*%
%ADD16R,1.200000X0.600000*%
%TD*%
%TA.AperFunction,SMDPad,CuDef*%
%ADD17FreePoly0,0.000000*%
%TD*%
%TA.AperFunction,SMDPad,CuDef*%
%ADD18R,2.600000X2.600000*%
%TD*%
%TA.AperFunction,SMDPad,CuDef*%
%ADD19FreePoly1,0.000000*%
%TD*%
%TA.AperFunction,ComponentPad*%
%ADD20O,1.200000X1.750000*%
%TD*%
%TA.AperFunction,SMDPad,CuDef*%
%ADD21FreePoly2,0.000000*%
%TD*%
%TA.AperFunction,SMDPad,CuDef*%
%ADD22R,0.800000X1.000000*%
%TD*%
%TA.AperFunction,SMDPad,CuDef*%
%ADD23R,1.500000X0.700000*%
%TD*%
%TA.AperFunction,SMDPad,CuDef*%
%ADD24FreePoly0,345.000000*%
%TD*%
%TA.AperFunction,SMDPad,CuDef*%
%ADD25RotRect,2.600000X2.600000X345.000000*%
%TD*%
%TA.AperFunction,SMDPad,CuDef*%
%ADD26FreePoly0,10.000000*%
%TD*%
%TA.AperFunction,SMDPad,CuDef*%
%ADD27RotRect,2.600000X2.600000X10.000000*%
%TD*%
%TA.AperFunction,SMDPad,CuDef*%
%ADD28RotRect,0.900000X1.200000X55.000000*%
%TD*%
%TA.AperFunction,SMDPad,CuDef*%
%ADD29FreePoly0,325.000000*%
%TD*%
%TA.AperFunction,SMDPad,CuDef*%
%ADD30RotRect,2.600000X2.600000X325.000000*%
%TD*%
%TA.AperFunction,SMDPad,CuDef*%
%ADD31FreePoly3,180.000000*%
%TD*%
%TA.AperFunction,SMDPad,CuDef*%
%ADD32FreePoly3,0.000000*%
%TD*%
%TA.AperFunction,SMDPad,CuDef*%
%ADD33FreePoly4,0.000000*%
%TD*%
%TA.AperFunction,ComponentPad*%
%ADD34C,0.800000*%
%TD*%
%TA.AperFunction,SMDPad,CuDef*%
%ADD35FreePoly4,180.000000*%
%TD*%
%TA.AperFunction,SMDPad,CuDef*%
%ADD36R,1.050000X1.400000*%
%TD*%
%TA.AperFunction,SMDPad,CuDef*%
%ADD37RotRect,0.900000X1.200000X75.000000*%
%TD*%
%TA.AperFunction,SMDPad,CuDef*%
%ADD38RotRect,1.400000X1.000000X10.000000*%
%TD*%
%TA.AperFunction,SMDPad,CuDef*%
%ADD39R,1.400000X1.000000*%
%TD*%
%TA.AperFunction,SMDPad,CuDef*%
%ADD40RotRect,1.400000X1.000000X345.000000*%
%TD*%
%TA.AperFunction,SMDPad,CuDef*%
%ADD41RotRect,1.400000X1.000000X325.000000*%
%TD*%
%TA.AperFunction,ViaPad*%
%ADD42C,0.800000*%
%TD*%
%TA.AperFunction,Conductor*%
%ADD43C,0.250000*%
%TD*%
%TA.AperFunction,Conductor*%
%ADD44C,0.200000*%
%TD*%
%ADD45C,0.350000*%
G04 APERTURE END LIST*
D10*
D11*
G36*
X114378800Y17314833D02*
G01*
X113375060Y17314833D01*
X113137020Y17641629D01*
X113137020Y17695851D01*
X113636741Y17695851D01*
X113879616Y17695851D01*
X113879616Y18909250D01*
X113636741Y18909250D01*
X113636741Y17695851D01*
X113137020Y17695851D01*
X113137020Y18802271D01*
X113379358Y19121008D01*
X113261189Y19284407D01*
X113636741Y19284407D01*
X113879616Y19284407D01*
X113879616Y20540304D01*
X113636741Y20540304D01*
X113636741Y19284407D01*
X113261189Y19284407D01*
X113149379Y19439013D01*
X113149379Y20590129D01*
X113386881Y20925719D01*
X114378800Y20925719D01*
X114378800Y17314833D01*
G37*
G36*
X111859777Y17689990D02*
G01*
X112426665Y17689990D01*
X112426665Y20925719D01*
X112925848Y20925719D01*
X112925848Y17306772D01*
X111859777Y17306772D01*
X111859777Y17689990D01*
G37*
G36*
X111748011Y20628964D02*
G01*
X111748011Y17561029D01*
X111568542Y17314833D01*
X110685702Y17314833D01*
X110506232Y17561029D01*
X110506232Y17699515D01*
X111005953Y17699515D01*
X111248828Y17699515D01*
X111248828Y20550562D01*
X111005953Y20550562D01*
X111005953Y17699515D01*
X110506232Y17699515D01*
X110506232Y20628964D01*
X110684627Y20925719D01*
X111569616Y20925719D01*
X111748011Y20628964D01*
G37*
G36*
X109050056Y18956144D02*
G01*
X109549777Y18956144D01*
X109549777Y17689990D01*
X109792652Y17689990D01*
X109792652Y20550562D01*
X109549777Y20550562D01*
X109549777Y19425091D01*
X109050056Y19425091D01*
X109050056Y20630429D01*
X109251019Y20925719D01*
X110094634Y20925719D01*
X110295060Y20630429D01*
X110295060Y17583011D01*
X110094097Y17314833D01*
X109251556Y17314833D01*
X109050056Y17583011D01*
X109050056Y18956144D01*
G37*
G36*
X107896399Y19189152D02*
G01*
X107524564Y20925719D01*
X108053838Y20925719D01*
X108357970Y19236047D01*
X108340775Y20925719D01*
X108839958Y20925719D01*
X108839958Y17314833D01*
X108340775Y17314833D01*
X108357970Y19113681D01*
X108053838Y17314833D01*
X107525101Y17314833D01*
X107896399Y19189152D01*
G37*
G36*
X106179616Y20925719D02*
G01*
X106679337Y20925719D01*
X106679337Y19237512D01*
X106922212Y19237512D01*
X106922212Y20925719D01*
X107421396Y20925719D01*
X107421396Y19082174D01*
X107229030Y18862355D01*
X106679337Y18862355D01*
X106679337Y17689990D01*
X106922212Y17689990D01*
X106922212Y18674777D01*
X107421396Y18674777D01*
X107421396Y17591071D01*
X107217209Y17314833D01*
X106390251Y17314833D01*
X106179616Y17590338D01*
X106179616Y20925719D01*
G37*
G36*
X104751382Y20925719D02*
G01*
X106064090Y20925719D01*
X106064090Y20550562D01*
X105654104Y20550562D01*
X105654104Y17314833D01*
X105154920Y17314833D01*
X105154920Y20550562D01*
X104751382Y20550562D01*
X104751382Y20925719D01*
G37*
G36*
X103394076Y20925719D02*
G01*
X103893796Y20925719D01*
X103893796Y19237512D01*
X104136672Y19237512D01*
X104136672Y20925719D01*
X104635855Y20925719D01*
X104635855Y19082174D01*
X104443489Y18862355D01*
X103893796Y18862355D01*
X103893796Y17689990D01*
X104136672Y17689990D01*
X104136672Y18674777D01*
X104635855Y18674777D01*
X104635855Y17591071D01*
X104431668Y17314833D01*
X103604711Y17314833D01*
X103394076Y17590338D01*
X103394076Y20925719D01*
G37*
G36*
X103182903Y17314833D02*
G01*
X102683720Y17314833D01*
X102683720Y18815461D01*
X102145311Y18815461D01*
X101941124Y19090966D01*
X101941124Y19205272D01*
X102440845Y19205272D01*
X102683720Y19205272D01*
X102683720Y20550562D01*
X102440845Y20550562D01*
X102440845Y19205272D01*
X101941124Y19205272D01*
X101941124Y20657540D01*
X102145311Y20925719D01*
X103182903Y20925719D01*
X103182903Y17314833D01*
G37*
G36*
X101764341Y20630429D02*
G01*
X101764341Y17590338D01*
X101547795Y17314833D01*
X100729972Y17314833D01*
X100522561Y17591071D01*
X100522561Y18815461D01*
X101022282Y18815461D01*
X101022282Y17689990D01*
X101265157Y17689990D01*
X101265157Y18956144D01*
X100522561Y18956144D01*
X100522561Y19347421D01*
X101022282Y19347421D01*
X101265157Y19347421D01*
X101265157Y20550562D01*
X101022282Y20550562D01*
X101022282Y19347421D01*
X100522561Y19347421D01*
X100522561Y20630429D01*
X100729435Y20925719D01*
X101547795Y20925719D01*
X101764341Y20630429D01*
G37*
D12*
%TO.P,D4,1*%
%TO.N,P6*%
X2095807Y17337552D03*
%TO.P,D4,2*%
%TO.N,pinky_down*%
X1522771Y20587418D03*
%TD*%
D13*
%TO.P,D15,1*%
%TO.N,P4*%
X62868129Y65609835D03*
%TO.P,D15,2*%
%TO.N,index_up*%
X62868133Y68909835D03*
%TD*%
D14*
%TO.P,DISP1,1*%
%TO.N,DISP1_1*%
X107388133Y33359830D03*
%TO.P,DISP1,2*%
%TO.N,DISP1_2*%
X109928133Y33359830D03*
%TO.P,DISP1,3*%
%TO.N,VCC*%
X112468141Y33359828D03*
%TO.P,DISP1,4*%
%TO.N,DISP1_4*%
X115008133Y33359830D03*
D15*
%TO.P,DISP1,5*%
%TO.N,DISP1_5*%
X117548136Y33359834D03*
D16*
%TO.P,DISP1,20*%
X117548133Y35709830D03*
%TO.P,DISP1,21*%
%TO.N,DISP1_4*%
X115008130Y35709829D03*
%TO.P,DISP1,22*%
%TO.N,DISP1_2*%
X109928133Y35709830D03*
%TO.P,DISP1,23*%
%TO.N,DISP1_1*%
X107388132Y35709829D03*
%TO.P,DISP1,24*%
%TO.N,P2*%
X117548133Y36609830D03*
%TO.P,DISP1,25*%
%TO.N,P3*%
X115008133Y36609830D03*
%TO.P,DISP1,26*%
%TO.N,GND*%
X109928133Y36609830D03*
%TO.P,DISP1,27*%
%TO.N,P1*%
X107388133Y36609830D03*
%TD*%
D17*
%TO.P,S16,1*%
%TO.N,P14*%
X87193129Y33009827D03*
D18*
%TO.P,S16,2*%
%TO.N,inner_down*%
X98743128Y30809830D03*
%TD*%
D13*
%TO.P,D13,1*%
%TO.N,P6*%
X62868131Y29609829D03*
%TO.P,D13,2*%
%TO.N,index_down*%
X62868135Y32909829D03*
%TD*%
%TO.P,D10,1*%
%TO.N,P6*%
X42868137Y39609834D03*
%TO.P,D10,2*%
%TO.N,middle_down*%
X42868141Y42909834D03*
%TD*%
%TO.P,D18,1*%
%TO.N,P4*%
X82868134Y60609838D03*
%TO.P,D18,2*%
%TO.N,inner_up*%
X82868138Y63909838D03*
%TD*%
D17*
%TO.P,S7,1*%
%TO.N,P18*%
X27193137Y38009842D03*
D18*
%TO.P,S7,2*%
%TO.N,ring_down*%
X38743136Y35809845D03*
%TD*%
D17*
%TO.P,S18,1*%
%TO.N,P14*%
X87193134Y69009831D03*
D18*
%TO.P,S18,2*%
%TO.N,inner_up*%
X98743133Y66809834D03*
%TD*%
D12*
%TO.P,D2,1*%
%TO.N,P5*%
X-19857772Y26667089D03*
%TO.P,D2,2*%
%TO.N,outer_home*%
X-20430808Y29916955D03*
%TD*%
D13*
%TO.P,D17,1*%
%TO.N,P5*%
X82868127Y42609831D03*
%TO.P,D17,2*%
%TO.N,inner_home*%
X82868131Y45909831D03*
%TD*%
%TO.P,D16,1*%
%TO.N,P6*%
X82868126Y24609845D03*
%TO.P,D16,2*%
%TO.N,inner_down*%
X82868130Y27909845D03*
%TD*%
D17*
%TO.P,S15,1*%
%TO.N,P15*%
X67193137Y74009840D03*
D18*
%TO.P,S15,2*%
%TO.N,index_up*%
X78743136Y71809843D03*
%TD*%
D12*
%TO.P,D5,1*%
%TO.N,P5*%
X-1029856Y35064098D03*
%TO.P,D5,2*%
%TO.N,pinky_home*%
X-1602892Y38313964D03*
%TD*%
D19*
%TO.P,JST1,1*%
%TO.N,BAT_P*%
X110868137Y5875843D03*
%TO.P,JST1,2*%
%TO.N,GND*%
X112868137Y5875843D03*
D20*
%TO.P,JST1,11*%
%TO.N,JST1_1*%
X112868136Y3059839D03*
%TO.P,JST1,12*%
%TO.N,JST1_2*%
X110868138Y3059847D03*
D21*
%TO.P,JST1,31*%
%TO.N,JST1_1*%
X112868136Y4859841D03*
%TO.P,JST1,32*%
%TO.N,JST1_2*%
X110868137Y4859843D03*
%TD*%
D22*
%TO.P,SW3,*%
%TO.N,*%
X119883131Y28709832D03*
X119883131Y21409830D03*
X122093128Y21409831D03*
X122093131Y28709830D03*
D23*
%TO.P,SW3,4*%
%TO.N,N/C*%
X119233131Y22809830D03*
%TO.P,SW3,5*%
%TO.N,BAT_P*%
X119233131Y24309830D03*
%TO.P,SW3,6*%
%TO.N,RAW*%
X119233128Y27309826D03*
%TD*%
D17*
%TO.P,S14,1*%
%TO.N,P15*%
X67193132Y56009833D03*
D18*
%TO.P,S14,2*%
%TO.N,index_home*%
X78743131Y53809836D03*
%TD*%
D12*
%TO.P,D1,1*%
%TO.N,P6*%
X-16732108Y8940543D03*
%TO.P,D1,2*%
%TO.N,outer_down*%
X-17305144Y12190409D03*
%TD*%
D24*
%TO.P,S19,1*%
%TO.N,P14*%
X96044850Y11813243D03*
D25*
%TO.P,S19,2*%
%TO.N,home_home*%
X106631891Y6698850D03*
%TD*%
D12*
%TO.P,D6,1*%
%TO.N,P4*%
X-4155531Y52790630D03*
%TO.P,D6,2*%
%TO.N,pinky_up*%
X-4728567Y56040496D03*
%TD*%
D13*
%TO.P,D12,1*%
%TO.N,P4*%
X42868135Y75609838D03*
%TO.P,D12,2*%
%TO.N,middle_up*%
X42868139Y78909838D03*
%TD*%
D17*
%TO.P,S11,1*%
%TO.N,P19*%
X47193125Y66009833D03*
D18*
%TO.P,S11,2*%
%TO.N,middle_home*%
X58743124Y63809836D03*
%TD*%
D17*
%TO.P,S12,1*%
%TO.N,P19*%
X47193138Y84009836D03*
D18*
%TO.P,S12,2*%
%TO.N,middle_up*%
X58743137Y81809839D03*
%TD*%
D26*
%TO.P,S6,1*%
%TO.N,P21*%
X-1354878Y61814036D03*
D27*
%TO.P,S6,2*%
%TO.N,pinky_up*%
X10401675Y61653097D03*
%TD*%
D26*
%TO.P,S2,1*%
%TO.N,P20*%
X-17057117Y35690499D03*
D27*
%TO.P,S2,2*%
%TO.N,outer_home*%
X-5300564Y35529560D03*
%TD*%
D28*
%TO.P,D20,1*%
%TO.N,P7*%
X114433637Y-3422306D03*
%TO.P,D20,2*%
%TO.N,innermost_home*%
X116326439Y-719108D03*
%TD*%
D26*
%TO.P,S5,1*%
%TO.N,P21*%
X1770791Y44087494D03*
D27*
%TO.P,S5,2*%
%TO.N,pinky_home*%
X13527344Y43926555D03*
%TD*%
D13*
%TO.P,D14,1*%
%TO.N,P5*%
X62868128Y47609836D03*
%TO.P,D14,2*%
%TO.N,index_home*%
X62868132Y50909836D03*
%TD*%
D29*
%TO.P,S20,1*%
%TO.N,P16*%
X122794510Y977851D03*
D30*
%TO.P,S20,2*%
%TO.N,innermost_home*%
X130993848Y-7449086D03*
%TD*%
D22*
%TO.P,SW1,*%
%TO.N,*%
X119883133Y19709848D03*
X119883133Y12409846D03*
X122093130Y12409847D03*
X122093133Y19709846D03*
D23*
%TO.P,SW1,4*%
%TO.N,N/C*%
X119233133Y13809846D03*
%TO.P,SW1,5*%
%TO.N,VCC_LED*%
X119233133Y15309846D03*
%TO.P,SW1,6*%
%TO.N,VCC*%
X119233130Y18309842D03*
%TD*%
D17*
%TO.P,S9,1*%
%TO.N,P18*%
X27193137Y74009838D03*
D18*
%TO.P,S9,2*%
%TO.N,ring_up*%
X38743136Y71809841D03*
%TD*%
D12*
%TO.P,D3,1*%
%TO.N,P4*%
X-22983445Y44393626D03*
%TO.P,D3,2*%
%TO.N,outer_up*%
X-23556481Y47643492D03*
%TD*%
D13*
%TO.P,D8,1*%
%TO.N,P5*%
X22868133Y47609828D03*
%TO.P,D8,2*%
%TO.N,ring_home*%
X22868137Y50909828D03*
%TD*%
D31*
%TO.P,MCU1,1*%
%TO.N,MCU1_1*%
X117968129Y67259841D03*
D15*
X120088133Y67259842D03*
D31*
%TO.P,MCU1,2*%
%TO.N,MCU1_2*%
X117968136Y64719846D03*
D15*
X120088133Y64719842D03*
D31*
%TO.P,MCU1,3*%
%TO.N,MCU1_3*%
X117968133Y62179842D03*
D15*
X120088131Y62179837D03*
D31*
%TO.P,MCU1,4*%
%TO.N,MCU1_4*%
X117968133Y59639842D03*
D15*
X120088133Y59639842D03*
D31*
%TO.P,MCU1,5*%
%TO.N,MCU1_5*%
X117968135Y57099842D03*
D15*
X120088133Y57099842D03*
D31*
%TO.P,MCU1,6*%
%TO.N,MCU1_6*%
X117968133Y54559842D03*
D15*
X120088133Y54559842D03*
D31*
%TO.P,MCU1,7*%
%TO.N,MCU1_7*%
X117968133Y52019842D03*
D15*
X120088128Y52019844D03*
D31*
%TO.P,MCU1,8*%
%TO.N,MCU1_8*%
X117968133Y49479842D03*
D15*
X120088133Y49479842D03*
D31*
%TO.P,MCU1,9*%
%TO.N,MCU1_9*%
X117968133Y46939842D03*
D15*
X120088128Y46939844D03*
D31*
%TO.P,MCU1,10*%
%TO.N,MCU1_10*%
X117968133Y44399842D03*
D15*
X120088133Y44399843D03*
D31*
%TO.P,MCU1,11*%
%TO.N,MCU1_11*%
X117968133Y41859842D03*
D15*
X120088130Y41859840D03*
D31*
%TO.P,MCU1,12*%
%TO.N,MCU1_12*%
X117968131Y39319842D03*
D15*
X120088133Y39319842D03*
%TO.P,MCU1,13*%
%TO.N,MCU1_13*%
X104848133Y39319842D03*
D32*
X106968133Y39319842D03*
D15*
%TO.P,MCU1,14*%
%TO.N,MCU1_14*%
X104848133Y41859842D03*
D32*
X106968137Y41859843D03*
D15*
%TO.P,MCU1,15*%
%TO.N,MCU1_15*%
X104848133Y44399842D03*
D32*
X106968130Y44399838D03*
D15*
%TO.P,MCU1,16*%
%TO.N,MCU1_16*%
X104848135Y46939847D03*
D32*
X106968133Y46939842D03*
D15*
%TO.P,MCU1,17*%
%TO.N,MCU1_17*%
X104848133Y49479842D03*
D32*
X106968133Y49479842D03*
D15*
%TO.P,MCU1,18*%
%TO.N,MCU1_18*%
X104848133Y52019842D03*
D32*
X106968131Y52019842D03*
D15*
%TO.P,MCU1,19*%
%TO.N,MCU1_19*%
X104848133Y54559842D03*
D32*
X106968133Y54559842D03*
D15*
%TO.P,MCU1,20*%
%TO.N,MCU1_20*%
X104848138Y57099840D03*
D32*
X106968133Y57099842D03*
D15*
%TO.P,MCU1,21*%
%TO.N,MCU1_21*%
X104848133Y59639842D03*
D32*
X106968133Y59639842D03*
D15*
%TO.P,MCU1,22*%
%TO.N,MCU1_22*%
X104848138Y62179840D03*
D32*
X106968133Y62179842D03*
D15*
%TO.P,MCU1,23*%
%TO.N,MCU1_23*%
X104848133Y64719841D03*
D32*
X106968133Y64719842D03*
D15*
%TO.P,MCU1,24*%
%TO.N,MCU1_24*%
X104848136Y67259844D03*
D32*
X106968133Y67259842D03*
D33*
%TO.P,MCU1,101*%
%TO.N,P1*%
X107693133Y67259842D03*
D34*
X115868133Y67259842D03*
D33*
%TO.P,MCU1,102*%
%TO.N,P0*%
X107693133Y64719842D03*
D34*
X115868134Y64719842D03*
D33*
%TO.P,MCU1,103*%
%TO.N,GND*%
X107693133Y62179842D03*
D34*
X115868133Y62179842D03*
D33*
%TO.P,MCU1,104*%
X107693130Y59639842D03*
D34*
X115868133Y59639842D03*
D33*
%TO.P,MCU1,105*%
%TO.N,P2*%
X107693133Y57099842D03*
D34*
X115868129Y57099844D03*
D33*
%TO.P,MCU1,106*%
%TO.N,P3*%
X107693133Y54559842D03*
D34*
X115868138Y54559841D03*
D33*
%TO.P,MCU1,107*%
%TO.N,P4*%
X107693133Y52019842D03*
D34*
X115868133Y52019842D03*
D33*
%TO.P,MCU1,108*%
%TO.N,P5*%
X107693130Y49479842D03*
D34*
X115868132Y49479844D03*
D33*
%TO.P,MCU1,109*%
%TO.N,P6*%
X107693133Y46939842D03*
D34*
X115868133Y46939842D03*
D33*
%TO.P,MCU1,110*%
%TO.N,P7*%
X107693133Y44399842D03*
D34*
X115868126Y44399843D03*
D33*
%TO.P,MCU1,111*%
%TO.N,P8*%
X107693133Y41859842D03*
D34*
X115868134Y41859845D03*
D33*
%TO.P,MCU1,112*%
%TO.N,P9*%
X107693134Y39319841D03*
D34*
X115868131Y39319842D03*
%TO.P,MCU1,113*%
%TO.N,P10*%
X109068135Y39319842D03*
D35*
X117243133Y39319842D03*
D34*
%TO.P,MCU1,114*%
%TO.N,P16*%
X109068133Y41859842D03*
D35*
X117243133Y41859842D03*
D34*
%TO.P,MCU1,115*%
%TO.N,P14*%
X109068132Y44399842D03*
D35*
X117243133Y44399842D03*
D34*
%TO.P,MCU1,116*%
%TO.N,P15*%
X109068133Y46939842D03*
D35*
X117243133Y46939842D03*
D34*
%TO.P,MCU1,117*%
%TO.N,P18*%
X109068133Y49479842D03*
D35*
X117243136Y49479842D03*
D34*
%TO.P,MCU1,118*%
%TO.N,P19*%
X109068137Y52019840D03*
D35*
X117243133Y52019842D03*
D34*
%TO.P,MCU1,119*%
%TO.N,P20*%
X109068128Y54559843D03*
D35*
X117243133Y54559842D03*
D34*
%TO.P,MCU1,120*%
%TO.N,P21*%
X109068133Y57099842D03*
D35*
X117243133Y57099842D03*
D34*
%TO.P,MCU1,121*%
%TO.N,VCC*%
X109068134Y59639840D03*
D35*
X117243136Y59639842D03*
D34*
%TO.P,MCU1,122*%
%TO.N,RST*%
X109068133Y62179842D03*
D35*
X117243133Y62179842D03*
D34*
%TO.P,MCU1,123*%
%TO.N,GND*%
X109068140Y64719841D03*
D35*
X117243133Y64719842D03*
D34*
%TO.P,MCU1,124*%
%TO.N,RAW*%
X109068132Y67259839D03*
D35*
X117243133Y67259842D03*
%TD*%
D26*
%TO.P,S1,1*%
%TO.N,P20*%
X-13931448Y17963961D03*
D27*
%TO.P,S1,2*%
%TO.N,outer_down*%
X-2174895Y17803022D03*
%TD*%
D26*
%TO.P,S3,1*%
%TO.N,P20*%
X-20182790Y53417044D03*
D27*
%TO.P,S3,2*%
%TO.N,outer_up*%
X-8426237Y53256105D03*
%TD*%
D13*
%TO.P,D11,1*%
%TO.N,P5*%
X42868128Y57609829D03*
%TO.P,D11,2*%
%TO.N,middle_home*%
X42868132Y60909829D03*
%TD*%
D17*
%TO.P,S8,1*%
%TO.N,P18*%
X27193129Y56009833D03*
D18*
%TO.P,S8,2*%
%TO.N,ring_home*%
X38743128Y53809836D03*
%TD*%
D36*
%TO.P,SW2,1*%
%TO.N,GND*%
X119748131Y9859828D03*
X119748131Y6259828D03*
%TO.P,SW2,2*%
%TO.N,RST*%
X121188135Y9859828D03*
X121188135Y6259828D03*
%TD*%
D17*
%TO.P,S10,1*%
%TO.N,P19*%
X47193137Y48009851D03*
D18*
%TO.P,S10,2*%
%TO.N,middle_down*%
X58743136Y45809854D03*
%TD*%
D37*
%TO.P,D19,1*%
%TO.N,P7*%
X89693145Y4818858D03*
%TO.P,D19,2*%
%TO.N,home_home*%
X90547245Y8006414D03*
%TD*%
D17*
%TO.P,S13,1*%
%TO.N,P15*%
X67193137Y38009836D03*
D18*
%TO.P,S13,2*%
%TO.N,index_down*%
X78743136Y35809839D03*
%TD*%
D17*
%TO.P,S17,1*%
%TO.N,P14*%
X87193139Y51009830D03*
D18*
%TO.P,S17,2*%
%TO.N,inner_home*%
X98743138Y48809833D03*
%TD*%
D26*
%TO.P,S4,1*%
%TO.N,P21*%
X4896450Y26360964D03*
D27*
%TO.P,S4,2*%
%TO.N,pinky_down*%
X16653003Y26200025D03*
%TD*%
D13*
%TO.P,D9,1*%
%TO.N,P4*%
X22868122Y65609842D03*
%TO.P,D9,2*%
%TO.N,ring_up*%
X22868126Y68909842D03*
%TD*%
%TO.P,D7,1*%
%TO.N,P6*%
X22868124Y29609834D03*
%TO.P,D7,2*%
%TO.N,ring_down*%
X22868128Y32909834D03*
%TD*%
D38*
%TO.P,LED1,1*%
%TO.N,VCC_LED*%
X-6024225Y7528493D03*
%TO.P,LED1,2*%
%TO.N,led_20*%
X-6267333Y8907224D03*
%TO.P,LED1,3*%
%TO.N,GND*%
X-11585295Y7969523D03*
%TO.P,LED1,4*%
%TO.N,led_x*%
X-11342187Y6590792D03*
%TD*%
%TO.P,LED3,1*%
%TO.N,VCC_LED*%
X-12275567Y42981577D03*
%TO.P,LED3,2*%
%TO.N,led_18*%
X-12518675Y44360308D03*
%TO.P,LED3,3*%
%TO.N,GND*%
X-17836637Y43422607D03*
%TO.P,LED3,4*%
%TO.N,led_19*%
X-17593529Y42043876D03*
%TD*%
D39*
%TO.P,LED8,1*%
%TO.N,VCC_LED*%
X33168138Y44359829D03*
%TO.P,LED8,2*%
%TO.N,led_13*%
X33168138Y45759829D03*
%TO.P,LED8,3*%
%TO.N,GND*%
X27768138Y45759829D03*
%TO.P,LED8,4*%
%TO.N,led_14*%
X27768138Y44359829D03*
%TD*%
%TO.P,LED14,1*%
%TO.N,VCC_LED*%
X73168137Y44359834D03*
%TO.P,LED14,2*%
%TO.N,led_7*%
X73168137Y45759834D03*
%TO.P,LED14,3*%
%TO.N,GND*%
X67768137Y45759834D03*
%TO.P,LED14,4*%
%TO.N,led_8*%
X67768137Y44359834D03*
%TD*%
%TO.P,LED16,1*%
%TO.N,VCC_LED*%
X93168127Y21359842D03*
%TO.P,LED16,2*%
%TO.N,led_3*%
X93168127Y22759842D03*
%TO.P,LED16,3*%
%TO.N,GND*%
X87768127Y22759842D03*
%TO.P,LED16,4*%
%TO.N,led_4*%
X87768127Y21359842D03*
%TD*%
%TO.P,LED12,1*%
%TO.N,VCC_LED*%
X53168127Y72359844D03*
%TO.P,LED12,2*%
%TO.N,led_11*%
X53168127Y73759844D03*
%TO.P,LED12,3*%
%TO.N,GND*%
X47768127Y73759844D03*
%TO.P,LED12,4*%
%TO.N,led_12*%
X47768127Y72359844D03*
%TD*%
%TO.P,LED15,1*%
%TO.N,VCC_LED*%
X73168137Y62359838D03*
%TO.P,LED15,2*%
%TO.N,led_6*%
X73168137Y63759838D03*
%TO.P,LED15,3*%
%TO.N,GND*%
X67768137Y63759838D03*
%TO.P,LED15,4*%
%TO.N,led_7*%
X67768137Y62359838D03*
%TD*%
D40*
%TO.P,LED19,1*%
%TO.N,VCC_LED*%
X98801017Y-986237D03*
%TO.P,LED19,2*%
%TO.N,led_2*%
X99163364Y366060D03*
%TO.P,LED19,3*%
%TO.N,GND*%
X93947365Y1763683D03*
%TO.P,LED19,4*%
%TO.N,led_3*%
X93585018Y411386D03*
%TD*%
D39*
%TO.P,LED10,1*%
%TO.N,VCC_LED*%
X53168132Y36359837D03*
%TO.P,LED10,2*%
%TO.N,led_9*%
X53168132Y37759837D03*
%TO.P,LED10,3*%
%TO.N,GND*%
X47768132Y37759837D03*
%TO.P,LED10,4*%
%TO.N,led_10*%
X47768132Y36359837D03*
%TD*%
%TO.P,LED9,1*%
%TO.N,VCC_LED*%
X33168136Y62359840D03*
%TO.P,LED9,2*%
%TO.N,led_12*%
X33168136Y63759840D03*
%TO.P,LED9,3*%
%TO.N,GND*%
X27768136Y63759840D03*
%TO.P,LED9,4*%
%TO.N,led_13*%
X27768136Y62359840D03*
%TD*%
D41*
%TO.P,LED20,1*%
%TO.N,VCC_LED*%
X121006776Y-11992384D03*
%TO.P,LED20,2*%
%TO.N,P0*%
X121809783Y-10845571D03*
%TO.P,LED20,3*%
%TO.N,GND*%
X117386362Y-7748258D03*
%TO.P,LED20,4*%
%TO.N,led_2*%
X116583355Y-8895071D03*
%TD*%
D38*
%TO.P,LED5,1*%
%TO.N,VCC_LED*%
X9678021Y33652039D03*
%TO.P,LED5,2*%
%TO.N,led_16*%
X9434913Y35030770D03*
%TO.P,LED5,3*%
%TO.N,GND*%
X4116951Y34093069D03*
%TO.P,LED5,4*%
%TO.N,led_17*%
X4360059Y32714338D03*
%TD*%
%TO.P,LED6,1*%
%TO.N,VCC_LED*%
X6552364Y51378587D03*
%TO.P,LED6,2*%
%TO.N,led_17*%
X6309256Y52757318D03*
%TO.P,LED6,3*%
%TO.N,GND*%
X991294Y51819617D03*
%TO.P,LED6,4*%
%TO.N,led_18*%
X1234402Y50440886D03*
%TD*%
D39*
%TO.P,LED7,1*%
%TO.N,VCC_LED*%
X33168149Y26359831D03*
%TO.P,LED7,2*%
%TO.N,led_14*%
X33168149Y27759831D03*
%TO.P,LED7,3*%
%TO.N,GND*%
X27768149Y27759831D03*
%TO.P,LED7,4*%
%TO.N,led_15*%
X27768149Y26359831D03*
%TD*%
%TO.P,LED11,1*%
%TO.N,VCC_LED*%
X53168138Y54359832D03*
%TO.P,LED11,2*%
%TO.N,led_10*%
X53168138Y55759832D03*
%TO.P,LED11,3*%
%TO.N,GND*%
X47768138Y55759832D03*
%TO.P,LED11,4*%
%TO.N,led_11*%
X47768138Y54359832D03*
%TD*%
D38*
%TO.P,LED2,1*%
%TO.N,VCC_LED*%
X-9149903Y25255053D03*
%TO.P,LED2,2*%
%TO.N,led_19*%
X-9393011Y26633784D03*
%TO.P,LED2,3*%
%TO.N,GND*%
X-14710973Y25696083D03*
%TO.P,LED2,4*%
%TO.N,led_20*%
X-14467865Y24317352D03*
%TD*%
D39*
%TO.P,LED13,1*%
%TO.N,VCC_LED*%
X73168130Y26359834D03*
%TO.P,LED13,2*%
%TO.N,led_8*%
X73168130Y27759834D03*
%TO.P,LED13,3*%
%TO.N,GND*%
X67768130Y27759834D03*
%TO.P,LED13,4*%
%TO.N,led_9*%
X67768130Y26359834D03*
%TD*%
%TO.P,LED17,1*%
%TO.N,VCC_LED*%
X93168143Y39359840D03*
%TO.P,LED17,2*%
%TO.N,led_4*%
X93168143Y40759840D03*
%TO.P,LED17,3*%
%TO.N,GND*%
X87768143Y40759840D03*
%TO.P,LED17,4*%
%TO.N,led_5*%
X87768143Y39359840D03*
%TD*%
D38*
%TO.P,LED4,1*%
%TO.N,VCC_LED*%
X12803681Y15925501D03*
%TO.P,LED4,2*%
%TO.N,led_15*%
X12560573Y17304232D03*
%TO.P,LED4,3*%
%TO.N,GND*%
X7242611Y16366531D03*
%TO.P,LED4,4*%
%TO.N,led_16*%
X7485719Y14987800D03*
%TD*%
D39*
%TO.P,LED18,1*%
%TO.N,VCC_LED*%
X93168139Y57359837D03*
%TO.P,LED18,2*%
%TO.N,led_5*%
X93168139Y58759837D03*
%TO.P,LED18,3*%
%TO.N,GND*%
X87768139Y58759837D03*
%TO.P,LED18,4*%
%TO.N,led_6*%
X87768139Y57359837D03*
%TD*%
D42*
%TO.N,P20*%
X-7922380Y17119602D03*
X-11048058Y34846136D03*
X-14173725Y52572671D03*
%TO.N,outer_down*%
X-17305149Y12190411D03*
%TO.N,outer_home*%
X-20430817Y29916946D03*
%TO.N,outer_up*%
X-23556471Y47643502D03*
%TO.N,P21*%
X7779857Y43243146D03*
X4654179Y60969680D03*
X10905531Y25516606D03*
%TO.N,pinky_down*%
X1522768Y20587418D03*
%TO.N,pinky_home*%
X-1602892Y38313948D03*
%TO.N,pinky_up*%
X-4728558Y56040491D03*
%TO.N,P18*%
X33026996Y53973053D03*
X32988776Y72134841D03*
X32988776Y36134833D03*
%TO.N,ring_down*%
X22868126Y32909838D03*
%TO.N,ring_home*%
X22868123Y50909838D03*
%TO.N,ring_up*%
X22868140Y68909837D03*
%TO.N,P19*%
X52988780Y46134850D03*
X52988776Y82134828D03*
X102626989Y50673054D03*
X52988773Y64134833D03*
%TO.N,middle_down*%
X42868138Y42909839D03*
%TO.N,middle_home*%
X42868139Y60909834D03*
%TO.N,middle_up*%
X42868135Y78909840D03*
%TO.N,P15*%
X101300250Y53383516D03*
X72988787Y54134828D03*
X72988772Y72134837D03*
X72988777Y36134837D03*
%TO.N,index_down*%
X62868116Y32909836D03*
%TO.N,index_home*%
X62868141Y50909843D03*
%TO.N,index_up*%
X62868140Y68909839D03*
%TO.N,P14*%
X101212468Y8473893D03*
X92988779Y31134846D03*
X92988778Y67134831D03*
X92988772Y49134843D03*
%TO.N,inner_down*%
X82868137Y27909835D03*
%TO.N,inner_home*%
X82868143Y45909823D03*
%TO.N,inner_up*%
X82868127Y63909834D03*
%TO.N,home_home*%
X90547240Y8006409D03*
%TO.N,P16*%
X88723533Y5882417D03*
X101530089Y43034841D03*
X86809717Y6395225D03*
X126474383Y-3887767D03*
%TO.N,innermost_home*%
X116326448Y-719097D03*
%TO.N,P6*%
X22868137Y29609834D03*
X-16732105Y8940542D03*
X2095805Y17337552D03*
X62868134Y29609837D03*
X42868140Y39609838D03*
X82868142Y24609838D03*
%TO.N,P5*%
X-1029850Y35064089D03*
X82868135Y42609829D03*
X22868134Y47609831D03*
X-19857768Y26667087D03*
X62868128Y47609828D03*
X42868132Y57609831D03*
%TO.N,P4*%
X62868131Y65609836D03*
X-4155529Y52790621D03*
X42868127Y75609836D03*
X22868131Y65609839D03*
X-22983426Y44393628D03*
X82868135Y60609837D03*
%TO.N,P7*%
X101570976Y41693149D03*
X89693149Y4818861D03*
X114433638Y-3422302D03*
X99063783Y22941828D03*
%TO.N,VCC_LED*%
X57613779Y72359830D03*
X97613772Y39359830D03*
X122120825Y-12772443D03*
X74528141Y26359841D03*
X-4684900Y7764670D03*
X7891690Y51614743D03*
X57613775Y54359844D03*
X54528132Y72359836D03*
X74528136Y44359844D03*
X11017360Y33888203D03*
X100114674Y-1338228D03*
X14143015Y16161665D03*
X77613773Y44359837D03*
X54528132Y54359833D03*
X-7810567Y25491202D03*
X10906337Y52146304D03*
X-4793396Y26026340D03*
X94528137Y21359834D03*
X94528134Y57359843D03*
X77613776Y62359834D03*
X117940034Y16004409D03*
X34528132Y26359839D03*
X74528133Y62359830D03*
X94528135Y39359837D03*
X34528140Y44359828D03*
X97613780Y57359833D03*
X37613780Y62359829D03*
X37613777Y44359840D03*
X-7921571Y43749307D03*
X34528132Y62359839D03*
X14032006Y34419767D03*
X54528132Y36359832D03*
X-10936228Y43217741D03*
%TO.N,led_20*%
X-4051524Y9297937D03*
X-3741765Y24669236D03*
X-16926788Y25305374D03*
%TO.N,GND*%
X86408140Y21359825D03*
X-12681520Y6354646D03*
X-15807198Y24081175D03*
X66408133Y26359836D03*
X46408132Y54359840D03*
X26408133Y62359838D03*
X3020711Y32478176D03*
X95937622Y15281789D03*
X117868776Y9859828D03*
X108626996Y37173064D03*
X46408137Y36359831D03*
X-18932871Y41807715D03*
X86408120Y39359841D03*
X110868142Y11377129D03*
X26408130Y26359839D03*
X26408135Y44359844D03*
X115469310Y-8115020D03*
X92271352Y763380D03*
X86408130Y57359827D03*
X46408145Y72359831D03*
X66408138Y62359835D03*
X-104949Y50204713D03*
X6146388Y14751641D03*
X66408138Y44359827D03*
%TO.N,led_x*%
X-13801115Y7578834D03*
%TO.N,led_19*%
X-6867434Y42395774D03*
X-20052450Y43031900D03*
X-7177181Y27024478D03*
%TO.N,led_18*%
X-10302848Y44751019D03*
X-1224540Y51428919D03*
%TO.N,led_15*%
X14776399Y17694934D03*
X25518146Y27759840D03*
%TO.N,led_16*%
X11650718Y35421471D03*
X5026805Y15975828D03*
%TO.N,led_17*%
X8525055Y53148011D03*
X1901135Y33702370D03*
%TO.N,led_14*%
X25518125Y45759838D03*
X38426996Y42883514D03*
X35418137Y27759836D03*
%TO.N,led_13*%
X25518134Y63759825D03*
X35418132Y45759832D03*
X38426997Y60883517D03*
%TO.N,led_12*%
X35418122Y63759837D03*
X45518133Y73759839D03*
%TO.N,led_9*%
X55418123Y37759832D03*
X65518133Y27759833D03*
%TO.N,led_10*%
X55418131Y55759829D03*
X45518131Y37759838D03*
%TO.N,led_11*%
X45518139Y55759836D03*
X55418130Y73759838D03*
%TO.N,led_8*%
X75418129Y27759843D03*
X65518129Y45759830D03*
X78427000Y42883515D03*
%TO.N,led_7*%
X75418143Y45759836D03*
X65518132Y63759834D03*
X78426992Y60883514D03*
%TO.N,led_6*%
X85518131Y58759835D03*
X75418132Y63759835D03*
%TO.N,led_3*%
X95418131Y22759837D03*
X91774025Y2346023D03*
%TO.N,led_4*%
X95418143Y40759828D03*
X85518128Y22759841D03*
%TO.N,led_5*%
X85518139Y40759845D03*
X95418128Y58759819D03*
%TO.N,led_2*%
X115543278Y-6457708D03*
X101336698Y-216279D03*
%TO.N,P0*%
X123652878Y-12136120D03*
%TO.N,VCC*%
X117912022Y18309839D03*
X111575170Y37464842D03*
%TO.N,RST*%
X118153093Y8675512D03*
X116735230Y13495572D03*
X114993134Y26378783D03*
%TO.N,BAT_P*%
X112868132Y11377138D03*
X117653096Y22975518D03*
X116612014Y18321009D03*
%TO.N,RAW*%
X117853093Y29775512D03*
%TO.N,P1*%
X115327002Y37673060D03*
X112627005Y37773052D03*
%TO.N,P2*%
X114227006Y38364842D03*
X110145373Y38346462D03*
%TO.N,P3*%
X116439656Y37585715D03*
X113526999Y35873045D03*
%TD*%
D43*
%TO.N,P9*%
X108608447Y38754219D02*
G75*
G03*
X108993222Y38594857I384753J384781D01*
G01*
X109143042Y38594835D02*
G75*
G03*
X109527846Y38754180I58J544165D01*
G01*
X108166471Y39196197D02*
G75*
G03*
X107867983Y39319820I-298471J-298497D01*
G01*
X110088838Y39089831D02*
G75*
G03*
X109704048Y38930466I-38J-544131D01*
G01*
%TO.N,P8*%
X108608449Y41294205D02*
G75*
G03*
X108993224Y41134849I384751J384795D01*
G01*
X110088836Y41629840D02*
G75*
G03*
X109704047Y41470477I-36J-544140D01*
G01*
X109527811Y41294211D02*
G75*
G02*
X109143036Y41134811I-384811J384789D01*
G01*
X107867975Y41859831D02*
G75*
G02*
X108166467Y41736216I25J-422131D01*
G01*
%TO.N,P3*%
X110088829Y54329826D02*
G75*
G03*
X109704045Y54170456I-29J-544126D01*
G01*
X114489172Y36609842D02*
G75*
G03*
X114104415Y36450448I28J-544142D01*
G01*
X107867988Y54559831D02*
G75*
G02*
X108166488Y54436196I12J-422131D01*
G01*
X109143042Y53834829D02*
G75*
G03*
X109527846Y53994172I58J544171D01*
G01*
X115623159Y36769223D02*
G75*
G02*
X115238383Y36609856I-384759J384777D01*
G01*
X108608454Y53994218D02*
G75*
G03*
X108993231Y53834862I384746J384782D01*
G01*
%TO.N,P2*%
X115670974Y38354386D02*
G75*
G03*
X115776410Y38310714I105426J105414D01*
G01*
X109143037Y56374832D02*
G75*
G03*
X109527795Y56534226I-37J544168D01*
G01*
X117388756Y37661906D02*
G75*
G02*
X117548163Y37277132I-384756J-384806D01*
G01*
X107867981Y57099842D02*
G75*
G02*
X108166479Y56976220I19J-422142D01*
G01*
X108608449Y56534216D02*
G75*
G03*
X108993224Y56374857I384751J384784D01*
G01*
X115565537Y38398058D02*
G75*
G02*
X115670965Y38354377I-37J-149158D01*
G01*
X116514559Y38310704D02*
G75*
G02*
X116899366Y38151354I41J-544204D01*
G01*
X113757547Y38639834D02*
G75*
G02*
X114089472Y38502307I-47J-469434D01*
G01*
X114283693Y38398059D02*
G75*
G03*
X114243616Y38381443I7J-56659D01*
G01*
X110646188Y38639839D02*
G75*
G03*
X110292057Y38493151I12J-500839D01*
G01*
X110088834Y56869830D02*
G75*
G03*
X109704046Y56710462I-34J-544130D01*
G01*
%TO.N,P1*%
X108351736Y37898049D02*
G75*
G03*
X107966944Y37738686I-36J-544149D01*
G01*
X112693611Y37706448D02*
G75*
G03*
X112854412Y37639865I160789J160852D01*
G01*
X109706767Y37759761D02*
G75*
G03*
X110040637Y37621485I333833J333839D01*
G01*
X107867977Y67259837D02*
G75*
G02*
X108166473Y67136219I23J-422137D01*
G01*
X109143044Y66534831D02*
G75*
G03*
X109527824Y66694195I56J544069D01*
G01*
X109706767Y37759761D02*
G75*
G03*
X109372897Y37898055I-333867J-333861D01*
G01*
X107547515Y37319212D02*
G75*
G03*
X107388113Y36934435I384785J-384812D01*
G01*
X110088843Y67029834D02*
G75*
G03*
X109704051Y66870473I-43J-544134D01*
G01*
X115270279Y37639827D02*
G75*
G03*
X115310390Y37656442I21J56673D01*
G01*
X110605057Y37780845D02*
G75*
G02*
X110220279Y37621473I-384757J384755D01*
G01*
X108608451Y66694222D02*
G75*
G03*
X108993231Y66534862I384749J384778D01*
G01*
X111239451Y38189832D02*
G75*
G03*
X110854704Y38030423I49J-544132D01*
G01*
X112369597Y38030459D02*
G75*
G03*
X111984823Y38189858I-384797J-384759D01*
G01*
%TO.N,P10*%
X116327816Y39885455D02*
G75*
G03*
X115943043Y40044869I-384816J-384755D01*
G01*
X116769794Y39443471D02*
G75*
G03*
X117068282Y39319803I298506J298429D01*
G01*
X115222204Y39699216D02*
G75*
G02*
X114837427Y39539819I-384804J384784D01*
G01*
X115793224Y40044835D02*
G75*
G03*
X115408440Y39885464I-24J-544135D01*
G01*
%TO.N,RAW*%
X117853089Y28915277D02*
G75*
G03*
X118012487Y28530523I544111J23D01*
G01*
X116769801Y67383478D02*
G75*
G03*
X117068285Y67259842I298499J298522D01*
G01*
X120349448Y68434829D02*
G75*
G02*
X120734194Y68275420I-48J-544129D01*
G01*
X115793227Y67984840D02*
G75*
G03*
X115408443Y67825473I-27J-544140D01*
G01*
X120538939Y29775511D02*
G75*
G03*
X120923701Y29934902I-39J544189D01*
G01*
X117284377Y67417725D02*
G75*
G03*
X117243152Y67318162I99523J-99525D01*
G01*
X121852742Y67156931D02*
G75*
G02*
X122012100Y66772157I-384742J-384731D01*
G01*
X118526876Y68434830D02*
G75*
G03*
X118142118Y68275435I24J-544130D01*
G01*
X122012128Y31209699D02*
G75*
G02*
X121880333Y30891498I-450028J1D01*
G01*
X115943041Y67984840D02*
G75*
G02*
X116327794Y67825437I-41J-544140D01*
G01*
X115222217Y67639215D02*
G75*
G02*
X114837446Y67479809I-384817J384785D01*
G01*
X122012122Y62978263D02*
X122012122Y62509635D01*
X122012127Y31582486D02*
X122012128Y31209699D01*
%TO.N,BAT_P*%
X119110276Y24309835D02*
G75*
G03*
X118900546Y24222952I24J-296635D01*
G01*
X112302515Y10811514D02*
G75*
G02*
X111917742Y10652110I-384815J384786D01*
G01*
X111068137Y10652128D02*
G75*
G03*
X110868072Y10452128I-37J-200028D01*
G01*
X117943135Y19877528D02*
G75*
G02*
X117783766Y19492743I-544135J-28D01*
G01*
X117798115Y22830497D02*
G75*
G02*
X117943125Y22480387I-350115J-350097D01*
G01*
%TO.N,RST*%
X121070973Y8558348D02*
G75*
G03*
X120788123Y8675525I-282873J-282848D01*
G01*
X121070979Y8792673D02*
G75*
G03*
X121070965Y8558340I117121J-117173D01*
G01*
X120788123Y8675511D02*
G75*
G03*
X121070961Y8792691I-23J399989D01*
G01*
X121070973Y8558348D02*
G75*
G02*
X121188125Y8275495I-282873J-282848D01*
G01*
X116769801Y62303473D02*
G75*
G03*
X117068289Y62179839I298499J298527D01*
G01*
X121188143Y9075530D02*
G75*
G02*
X121070999Y8792653I-400043J-30D01*
G01*
X115222199Y62559209D02*
G75*
G02*
X114837424Y62399818I-384799J384791D01*
G01*
X114993136Y15463060D02*
G75*
G03*
X115152533Y15078302I544164J40D01*
G01*
X115793221Y62904832D02*
G75*
G03*
X115408443Y62745461I-21J-544132D01*
G01*
X115943041Y62904831D02*
G75*
G02*
X116327793Y62745424I-41J-544131D01*
G01*
%TO.N,VCC*%
X111526998Y34526364D02*
G75*
G03*
X111686386Y34141596I544202J36D01*
G01*
X111551081Y37440753D02*
G75*
G03*
X111526983Y37382598I58119J-58153D01*
G01*
X116769801Y59763472D02*
G75*
G03*
X117068290Y59639838I298499J298528D01*
G01*
X115793220Y60364832D02*
G75*
G03*
X115408441Y60205459I-20J-544132D01*
G01*
X115943029Y60364831D02*
G75*
G02*
X116327786Y60205432I-29J-544131D01*
G01*
X114837439Y59859828D02*
G75*
G03*
X115222198Y60019222I-39J544172D01*
G01*
%TO.N,P0*%
X89861460Y14951447D02*
G75*
G03*
X89848350Y14934364I14040J-24347D01*
G01*
X100584722Y25445042D02*
G75*
G03*
X100199938Y25285671I-22J-544142D01*
G01*
X121562129Y31435094D02*
G75*
G02*
X121402742Y31050327I-544129J6D01*
G01*
X89879796Y14965513D02*
G75*
G02*
X89861460Y14951447I-62496J62487D01*
G01*
X116667062Y63704221D02*
G75*
G03*
X117051837Y63544869I384738J384779D01*
G01*
X119697902Y-13774012D02*
G75*
G03*
X120104506Y-13864148I312098J445712D01*
G01*
X119371667Y-13545602D02*
X119371667Y-13545599D01*
X119371667Y-13545597D01*
X119371667Y-13545595D01*
X121095326Y30742895D02*
G75*
G02*
X120710551Y30583559I-384726J384805D01*
G01*
X112656704Y25604422D02*
G75*
G02*
X112271929Y25445023I-384804J384778D01*
G01*
X115868130Y64611498D02*
G75*
G03*
X115944745Y64426540I261570J2D01*
G01*
X120382889Y63544844D02*
G75*
G03*
X120001914Y63511513I11J-2194044D01*
G01*
X121402743Y62716932D02*
G75*
G02*
X121562101Y62332157I-384743J-384732D01*
G01*
X110088840Y64489829D02*
G75*
G03*
X109704049Y64330464I-40J-544129D01*
G01*
X119765255Y63511512D02*
G75*
G03*
X119870092Y63488285I80445J114888D01*
G01*
X109527821Y64154215D02*
G75*
G02*
X109143043Y63994806I-384821J384785D01*
G01*
X120710560Y63409118D02*
G75*
G03*
X120382889Y63544822I-327660J-327718D01*
G01*
X106947543Y-4943213D02*
G75*
G02*
X107362627Y-5136784I-341343J-1273787D01*
G01*
X117861195Y30583516D02*
G75*
G03*
X117476430Y30424127I5J-544116D01*
G01*
X108608458Y64154212D02*
G75*
G03*
X108993233Y63994860I384742J384788D01*
G01*
X107867983Y64719833D02*
G75*
G02*
X108166484Y64596203I17J-422133D01*
G01*
X91064571Y-522384D02*
G75*
G03*
X91394989Y-775903I471229J272084D01*
G01*
X87463430Y6033728D02*
G75*
G03*
X87517801Y5620819I525570J-140828D01*
G01*
X119765255Y63511512D02*
G75*
G03*
X119659532Y63544860I-105755J-151012D01*
G01*
X122901543Y-13209137D02*
G75*
G02*
X122550288Y-13432900I-445743J312137D01*
G01*
X119371686Y-13545601D02*
X119371688Y-13545601D01*
X119371690Y-13545601D01*
X119371691Y-13545600D01*
X119371693Y-13545601D01*
X119371695Y-13545601D01*
X119371697Y-13545601D01*
X119371698Y-13545602D01*
X119371700Y-13545603D01*
X119371702Y-13545603D01*
X119371703Y-13545604D01*
X119371704Y-13545606D01*
X119371705Y-13545606D01*
X88956447Y11605750D02*
X88835158Y11153091D01*
X90736090Y15821806D02*
X90404719Y15490436D01*
%TO.N,led_2*%
X102241270Y-458658D02*
G75*
G02*
X102269494Y-471800I-23170J-86642D01*
G01*
X114311810Y-7938554D02*
G75*
G03*
X114663119Y-7714688I-94610J536054D01*
G01*
X114567543Y-8096342D02*
G75*
G03*
X114311808Y-7938547I-206943J-49258D01*
G01*
X114663124Y-7714692D02*
G75*
G03*
X114567517Y-8096346I417576J-307408D01*
G01*
X114596797Y-8266980D02*
G75*
G03*
X114819405Y-8618257I532503J91280D01*
G01*
X113025821Y-8003475D02*
G75*
G03*
X113432421Y-8093587I312079J445775D01*
G01*
X115308756Y-8960888D02*
G75*
G03*
X115715161Y-9050455I310944J444088D01*
G01*
X102269485Y-471813D02*
X102295379Y-489942D01*
X114089511Y-7977753D02*
X113628003Y-8059131D01*
%TO.N,led_5*%
X85518135Y39225339D02*
G75*
G03*
X85676814Y38839614I548065J-39D01*
G01*
X86761805Y38574837D02*
G75*
G03*
X87146072Y38734582I-5J542063D01*
G01*
X85780586Y38734898D02*
G75*
G03*
X86164427Y38574853I383814J380202D01*
G01*
%TO.N,led_4*%
X85780587Y20734892D02*
G75*
G03*
X86164427Y20574850I383813J380208D01*
G01*
X85518131Y21225339D02*
G75*
G03*
X85676810Y20839612I548069J-39D01*
G01*
X87146080Y20734583D02*
G75*
G02*
X86761811Y20574832I-384280J382317D01*
G01*
%TO.N,led_3*%
X91503447Y322157D02*
G75*
G03*
X91832789Y68227I469153J267943D01*
G01*
X91376870Y863814D02*
G75*
G03*
X91430362Y450193I529330J-141814D01*
G01*
X92409797Y-86401D02*
G75*
G03*
X92822321Y-31563I140303J523601D01*
G01*
%TO.N,led_6*%
X87146071Y56734575D02*
G75*
G02*
X86761801Y56574833I-384271J382325D01*
G01*
X77667963Y63759832D02*
G75*
G02*
X78052752Y63600467I37J-544132D01*
G01*
X85780586Y56734889D02*
G75*
G03*
X86164420Y56574847I383814J380211D01*
G01*
X85518134Y57225351D02*
G75*
G03*
X85676859Y56839667I548066J49D01*
G01*
X82733973Y58919213D02*
G75*
G03*
X83118747Y58759871I384727J384787D01*
G01*
%TO.N,led_7*%
X66761794Y61574832D02*
G75*
G03*
X67128245Y61716713I12006J513168D01*
G01*
X67146511Y61415454D02*
G75*
G03*
X66761794Y61574794I-384711J-384754D01*
G01*
X67128267Y61716690D02*
G75*
G03*
X67146526Y61415470I161233J-141390D01*
G01*
X65780581Y61734886D02*
G75*
G03*
X66164417Y61574841I383819J380214D01*
G01*
X67519073Y61042893D02*
G75*
G03*
X67903847Y60883557I384727J384807D01*
G01*
X65518136Y62225334D02*
G75*
G03*
X65676820Y61839610I548064J-34D01*
G01*
%TO.N,led_8*%
X65780584Y43734889D02*
G75*
G03*
X66164424Y43574845I383816J380211D01*
G01*
X65518127Y44225337D02*
G75*
G03*
X65676806Y43839611I548073J-37D01*
G01*
X67519077Y43042892D02*
G75*
G03*
X67903854Y42883559I384723J384808D01*
G01*
X66773744Y43574838D02*
G75*
G03*
X67128260Y43716702I6456J497762D01*
G01*
X67138020Y43423949D02*
G75*
G03*
X66773744Y43574876I-364320J-364249D01*
G01*
X67128266Y43716696D02*
G75*
G03*
X67137998Y43423926I151934J-141496D01*
G01*
X67138020Y43423949D02*
X67439797Y43122172D01*
%TO.N,led_11*%
X45780598Y53734891D02*
G75*
G03*
X46164438Y53574857I383802J380209D01*
G01*
X46761796Y53574836D02*
G75*
G03*
X47146068Y53734577I4J542064D01*
G01*
X45518138Y54225343D02*
G75*
G03*
X45676816Y53839616I548062J-43D01*
G01*
%TO.N,led_10*%
X46761796Y35574831D02*
G75*
G03*
X47146068Y35734570I4J542069D01*
G01*
X45780574Y35734899D02*
G75*
G03*
X46164416Y35574845I383826J380201D01*
G01*
X45518134Y36225330D02*
G75*
G03*
X45676818Y35839608I548066J-30D01*
G01*
%TO.N,led_9*%
X60883754Y32705828D02*
G75*
G02*
X61043177Y32321052I-384754J-384828D01*
G01*
X61475013Y28639975D02*
G75*
G03*
X61634398Y28255206I544187J25D01*
G01*
X61043135Y31835454D02*
G75*
G03*
X61202536Y31450699I544165J46D01*
G01*
X61970377Y27919224D02*
G75*
G03*
X62355154Y27759811I384823J384776D01*
G01*
X65780592Y25734890D02*
G75*
G03*
X66164431Y25574852I383808J380210D01*
G01*
X55975296Y37614306D02*
G75*
G03*
X55623942Y37759815I-351296J-351306D01*
G01*
X66761801Y25574831D02*
G75*
G03*
X67146071Y25734573I-1J542069D01*
G01*
X61315632Y31337562D02*
G75*
G02*
X61475014Y30952788I-384732J-384762D01*
G01*
X65518144Y26225333D02*
G75*
G03*
X65676829Y25839611I548056J-33D01*
G01*
%TO.N,led_12*%
X45518138Y72225331D02*
G75*
G03*
X45676822Y71839610I548062J-31D01*
G01*
X47146067Y71734580D02*
G75*
G02*
X46761800Y71574839I-384267J382320D01*
G01*
X41223763Y63919217D02*
G75*
G02*
X40838989Y63759849I-384763J384783D01*
G01*
X45939137Y68859986D02*
G75*
G02*
X45779747Y68475221I-544137J14D01*
G01*
X45939140Y71349330D02*
G75*
G03*
X45780579Y71734874I-547840J70D01*
G01*
X46139140Y71574832D02*
G75*
G03*
X45939178Y71349332I13560J-213432D01*
G01*
X45780591Y71734886D02*
G75*
G03*
X46139140Y71574841I371809J351314D01*
G01*
%TO.N,led_13*%
X25518139Y62225342D02*
G75*
G03*
X25676818Y61839615I548061J-42D01*
G01*
X27519086Y61042894D02*
G75*
G03*
X27903861Y60883496I384814J384806D01*
G01*
X27146520Y61415461D02*
G75*
G03*
X26761802Y61574805I-384720J-384761D01*
G01*
X27128274Y61716696D02*
G75*
G03*
X27146528Y61415470I161226J-141396D01*
G01*
X26761802Y61574840D02*
G75*
G03*
X27128295Y61716673I12098J513160D01*
G01*
X25780586Y61734900D02*
G75*
G03*
X26164424Y61574854I383814J380200D01*
G01*
%TO.N,led_14*%
X27519079Y43042891D02*
G75*
G03*
X27903854Y42883560I384721J384809D01*
G01*
X25780580Y43734889D02*
G75*
G03*
X26164418Y43574842I383820J380211D01*
G01*
X25518132Y44225332D02*
G75*
G03*
X25676815Y43839608I548068J-32D01*
G01*
X26773740Y43574845D02*
G75*
G03*
X27128263Y43716715I6460J497755D01*
G01*
X27138029Y43423950D02*
G75*
G03*
X26773740Y43574883I-364329J-364250D01*
G01*
X27128273Y43716705D02*
G75*
G03*
X27138002Y43423921I151927J-141505D01*
G01*
X27138029Y43423950D02*
X27439815Y43122156D01*
%TO.N,led_17*%
X2167599Y32191174D02*
G75*
G03*
X2390866Y31838889I539721J95166D01*
G01*
X2511224Y31753766D02*
G75*
G03*
X2917028Y31662806I311976J441134D01*
G01*
X3856019Y31990561D02*
G75*
G02*
X3505332Y31766501I-444819J309739D01*
G01*
%TO.N,led_16*%
X6981673Y14264030D02*
G75*
G02*
X6630988Y14039948I-444873J309770D01*
G01*
X5636892Y14027212D02*
G75*
G03*
X6042695Y13936219I312008J441088D01*
G01*
X5293253Y14464647D02*
G75*
G03*
X5516508Y14112347I539747J95153D01*
G01*
%TO.N,led_15*%
X14698605Y19053911D02*
G75*
G03*
X14608473Y18647308I445795J-312111D01*
G01*
X18319090Y21857750D02*
G75*
G02*
X17931819Y21656178I-513290J513350D01*
G01*
X25780586Y25734890D02*
G75*
G03*
X26164422Y25574847I383814J380210D01*
G01*
X22686585Y25999837D02*
G75*
G03*
X22301821Y25840446I15J-544137D01*
G01*
X16543917Y21411424D02*
G75*
G03*
X16192647Y21187663I94483J-535924D01*
G01*
X25318130Y25999847D02*
G75*
G03*
X25518142Y26225350I-13530J213453D01*
G01*
X25676677Y25839790D02*
G75*
G03*
X25318131Y25999890I-371877J-351290D01*
G01*
X25518132Y26225349D02*
G75*
G03*
X25676668Y25839781I547768J-149D01*
G01*
X27146064Y25734580D02*
G75*
G02*
X26761795Y25574842I-384264J382320D01*
G01*
%TO.N,led_18*%
X730352Y49717103D02*
G75*
G02*
X379661Y49493059I-444812J309767D01*
G01*
X-614443Y49480294D02*
G75*
G03*
X-208645Y49389321I311980J441085D01*
G01*
X-958068Y49917717D02*
G75*
G03*
X-734804Y49565425I539757J95177D01*
G01*
X-8955956Y45150353D02*
G75*
G02*
X-9307209Y44926579I-445748J312117D01*
G01*
X-4807474Y50797143D02*
G75*
G03*
X-5158727Y50573369I94495J-535891D01*
G01*
%TO.N,led_19*%
X-18448260Y41096052D02*
G75*
G03*
X-18111989Y41299390I-77235J507452D01*
G01*
X-18041711Y41005898D02*
G75*
G03*
X-18448260Y41096052I-312103J-445685D01*
G01*
X-18111989Y41299390D02*
G75*
G03*
X-18041711Y41005898I183301J-111268D01*
G01*
X-19442361Y41083298D02*
G75*
G03*
X-19036561Y40992325I311984J441102D01*
G01*
X-19785986Y41520718D02*
G75*
G03*
X-19562721Y41168427I539754J95177D01*
G01*
X-17564132Y40671494D02*
G75*
G03*
X-17157527Y40581352I312112J445739D01*
G01*
%TO.N,led_x*%
X-13191025Y5630216D02*
G75*
G03*
X-12785223Y5539245I311984J441110D01*
G01*
X-11846241Y5867021D02*
G75*
G02*
X-12196933Y5642975I-444816J309769D01*
G01*
X-13534652Y6067634D02*
G75*
G03*
X-13311388Y5715345I539738J95168D01*
G01*
%TO.N,GND*%
X-106842Y51175042D02*
G75*
G03*
X-205964Y50777629I396662J-310002D01*
G01*
X24528605Y28484836D02*
G75*
G03*
X24143832Y28325456I-5J-544136D01*
G01*
X-15177238Y25613858D02*
G75*
G03*
X-15539825Y25396033I102481J-581278D01*
G01*
X115793234Y65444837D02*
G75*
G03*
X115408444Y65285470I-34J-544137D01*
G01*
X104392051Y63514222D02*
G75*
G03*
X104776827Y63354862I384749J384778D01*
G01*
X119850616Y10873030D02*
G75*
G03*
X119748114Y10625632I247384J-247430D01*
G01*
X18093233Y22274855D02*
G75*
G02*
X17705968Y22073259I-513333J513345D01*
G01*
X46574755Y73315729D02*
G75*
G03*
X46408142Y72941568I336745J-374129D01*
G01*
X116769815Y64843473D02*
G75*
G03*
X117068291Y64719849I298485J298527D01*
G01*
X3018827Y33448488D02*
G75*
G03*
X2919719Y33051075I396673J-309988D01*
G01*
X92679709Y1643592D02*
G75*
G03*
X92421925Y1325304I228491J-448592D01*
G01*
X113274609Y10758300D02*
G75*
G02*
X113018289Y10652131I-256309J256300D01*
G01*
X14352063Y19343528D02*
G75*
G02*
X14000815Y19119726I-445763J312072D01*
G01*
X100212060Y1441796D02*
G75*
G02*
X100538544Y1289552I-268460J-1001896D01*
G01*
X112943042Y12102123D02*
G75*
G02*
X113327790Y11942716I-42J-544123D01*
G01*
X27927517Y29095761D02*
G75*
G03*
X27768150Y28710984I384783J-384761D01*
G01*
X27294673Y63759839D02*
G75*
G03*
X26899784Y63608261I27J-590239D01*
G01*
X104586830Y65894843D02*
G75*
G03*
X104202043Y65735477I-30J-544143D01*
G01*
X120098015Y10975505D02*
G75*
G03*
X119850603Y10873043I-15J-349905D01*
G01*
X43641987Y38484843D02*
G75*
G03*
X43257222Y38325457I13J-544143D01*
G01*
X94383712Y2776369D02*
G75*
G03*
X94130171Y2445956I272088J-471269D01*
G01*
X113433754Y10917450D02*
G75*
G03*
X113593121Y11302228I-384754J384750D01*
G01*
X113734550Y10935411D02*
G75*
G03*
X113433760Y10917445I-141350J-160411D01*
G01*
X113593131Y11302228D02*
G75*
G03*
X113734553Y10935413I514969J-12128D01*
G01*
X4232756Y16571992D02*
G75*
G03*
X3881528Y16348200I94544J-535892D01*
G01*
X119748130Y5496095D02*
G75*
G03*
X119900613Y5127989I520570J5D01*
G01*
X28375368Y29318219D02*
G75*
G03*
X27990616Y29158817I32J-544119D01*
G01*
X46117740Y38484830D02*
G75*
G02*
X46502491Y38325425I-40J-544130D01*
G01*
X87294668Y58759832D02*
G75*
G03*
X86899767Y58608270I32J-590332D01*
G01*
X67294673Y63759831D02*
G75*
G03*
X66899768Y63608271I27J-590331D01*
G01*
X109139523Y37173057D02*
G75*
G02*
X109524290Y37013665I-23J-544157D01*
G01*
X113433752Y11836812D02*
G75*
G02*
X113593164Y11452038I-384752J-384812D01*
G01*
X26574747Y63315725D02*
G75*
G03*
X26408139Y62941563I336753J-374125D01*
G01*
X47294678Y55759831D02*
G75*
G03*
X46899773Y55608275I22J-590331D01*
G01*
X113678939Y-7490697D02*
G75*
G02*
X113456465Y-7632434I-282339J197697D01*
G01*
X6144486Y15721946D02*
G75*
G03*
X6045399Y15324539I396614J-309946D01*
G01*
X116327814Y65285462D02*
G75*
G03*
X115943036Y65444872I-384814J-384762D01*
G01*
X119900609Y5127985D02*
G75*
G03*
X120268720Y4975524I368091J368115D01*
G01*
X103832512Y65365923D02*
G75*
G03*
X103673103Y64981149I384788J-384823D01*
G01*
X61765633Y31523951D02*
G75*
G02*
X61924978Y31139173I-384833J-384751D01*
G01*
X116450276Y-6207745D02*
G75*
G02*
X116674071Y-6558996I-312076J-445755D01*
G01*
X99663360Y1865891D02*
G75*
G02*
X99940763Y1653016I-118260J-441291D01*
G01*
X47927528Y38795763D02*
G75*
G03*
X47768157Y38410987I384772J-384763D01*
G01*
X67927509Y28918492D02*
G75*
G03*
X67768123Y28533716I384791J-384792D01*
G01*
X67202520Y28325458D02*
G75*
G03*
X66817748Y28484874I-384820J-384758D01*
G01*
X108608454Y61614217D02*
G75*
G03*
X108993230Y61454861I384746J384783D01*
G01*
X68652630Y29418218D02*
G75*
G03*
X68267847Y29258846I-30J-544118D01*
G01*
X86574763Y40315732D02*
G75*
G03*
X86408178Y39941565I336837J-374132D01*
G01*
X96178245Y15041165D02*
G75*
G03*
X96563020Y14881788I384755J384735D01*
G01*
X104797004Y14722413D02*
G75*
G03*
X104412230Y14881801I-384804J-384813D01*
G01*
X106409433Y63354841D02*
G75*
G02*
X106794189Y63195443I-33J-544141D01*
G01*
X114650750Y10019205D02*
G75*
G03*
X115035524Y9859850I384750J384795D01*
G01*
X122719523Y10509082D02*
G75*
G02*
X122878893Y10124308I-384823J-384782D01*
G01*
X46574765Y37315735D02*
G75*
G03*
X46408177Y36941571I336835J-374135D01*
G01*
X107693134Y59639847D02*
X107693133Y59639843D01*
X115897756Y-5820862D02*
G75*
G03*
X115491147Y-5730687I-312156J-445738D01*
G01*
X82281770Y23644209D02*
G75*
G03*
X82666544Y23484866I384730J384791D01*
G01*
X110088835Y61949849D02*
G75*
G03*
X109704045Y61790487I-35J-544149D01*
G01*
X122412470Y10816136D02*
G75*
G03*
X122027695Y10975523I-384770J-384736D01*
G01*
X27294666Y45759833D02*
G75*
G03*
X26899782Y45608251I34J-590233D01*
G01*
X61333749Y32892235D02*
G75*
G02*
X61493107Y32507459I-384749J-384735D01*
G01*
X93490039Y1886232D02*
G75*
G03*
X93069378Y1842025I-152739J-570132D01*
G01*
X7846525Y18034590D02*
G75*
G03*
X7495262Y17810824I94475J-535890D01*
G01*
X3650685Y34010859D02*
G75*
G03*
X3288117Y33793014I102515J-581259D01*
G01*
X116616630Y-7370833D02*
G75*
G03*
X116773743Y-7124802I-39230J198233D01*
G01*
X116998522Y-7476692D02*
G75*
G03*
X116616631Y-7370848I-329422J-446708D01*
G01*
X116773815Y-7124785D02*
G75*
G03*
X116998510Y-7476710I537185J95285D01*
G01*
X5898003Y16703790D02*
G75*
G03*
X5491400Y16793934I-312103J-445690D01*
G01*
X86502523Y23325453D02*
G75*
G03*
X86117749Y23484872I-384823J-384753D01*
G01*
X-15809084Y25051491D02*
G75*
G03*
X-15908203Y24654073I396685J-310006D01*
G01*
X95197902Y3062407D02*
G75*
G03*
X94785001Y3008022I-140802J-525607D01*
G01*
X76667141Y29258839D02*
G75*
G03*
X76282367Y29418205I-384741J-384739D01*
G01*
X7219284Y17416666D02*
G75*
G03*
X7129172Y17010066I445716J-312066D01*
G01*
X122212481Y5134891D02*
G75*
G02*
X121827705Y4975518I-384781J384809D01*
G01*
X109143047Y61454836D02*
G75*
G03*
X109527799Y61614235I-47J544164D01*
G01*
X61983087Y28542897D02*
G75*
G03*
X62123271Y28484816I140213J140203D01*
G01*
X54967143Y39258841D02*
G75*
G03*
X54582368Y39418207I-384743J-384741D01*
G01*
X61925021Y28683083D02*
G75*
G03*
X61983091Y28542901I198279J17D01*
G01*
X42838938Y36244636D02*
G75*
G02*
X42679575Y35859847I-544138J-36D01*
G01*
X36297297Y29477599D02*
G75*
G02*
X35912522Y29318212I-384797J384801D01*
G01*
X86921123Y22627510D02*
G75*
G03*
X86908714Y22919171I-145823J139890D01*
G01*
X87294670Y22759837D02*
G75*
G03*
X86921120Y22627513I-13670J-554837D01*
G01*
X86908756Y22919219D02*
G75*
G03*
X87294670Y22759849I385344J386181D01*
G01*
X67294663Y45759841D02*
G75*
G03*
X66899779Y45608259I37J-590241D01*
G01*
X87294662Y40759836D02*
G75*
G03*
X86899779Y40608252I38J-590236D01*
G01*
X99943947Y1647527D02*
G75*
G03*
X100212066Y1441820I382353J220773D01*
G01*
X66574762Y27315735D02*
G75*
G03*
X66408142Y26941574I336738J-374135D01*
G01*
X46921122Y37627504D02*
G75*
G03*
X46908718Y37919172I-145822J139896D01*
G01*
X47294668Y37759833D02*
G75*
G03*
X46921119Y37627507I-13668J-554833D01*
G01*
X46908753Y37919212D02*
G75*
G03*
X47294668Y37759842I385347J386188D01*
G01*
X108166466Y59516200D02*
G75*
G03*
X107867986Y59639819I-298466J-298500D01*
G01*
X108991527Y65013132D02*
G75*
G02*
X109068130Y64828183I-184927J-184932D01*
G01*
X110088837Y59409837D02*
G75*
G03*
X109704048Y59250474I-37J-544137D01*
G01*
X-10981373Y9637589D02*
G75*
G03*
X-11332626Y9413816I94491J-535885D01*
G01*
X113198932Y-7575343D02*
G75*
G03*
X113456463Y-7632421I197668J282343D01*
G01*
X116154086Y-7427558D02*
G75*
G03*
X115803018Y-7638508I61314J-499642D01*
G01*
X108608447Y59074219D02*
G75*
G03*
X108993223Y58914857I384753J384781D01*
G01*
X112793220Y12102124D02*
G75*
G03*
X112408442Y11942750I-20J-544124D01*
G01*
X46574750Y55315735D02*
G75*
G03*
X46408134Y54941577I336750J-374135D01*
G01*
X26117742Y28484836D02*
G75*
G02*
X26502492Y28325432I-42J-544136D01*
G01*
X66574753Y63315720D02*
G75*
G03*
X66408147Y62941557I336747J-374120D01*
G01*
X107878246Y11641172D02*
G75*
G03*
X108263022Y11481794I384754J384728D01*
G01*
X-12683424Y7324959D02*
G75*
G03*
X-12782543Y6927551I396638J-309992D01*
G01*
X86574745Y58315731D02*
G75*
G03*
X86408133Y57941570I336755J-374131D01*
G01*
X6431447Y16089127D02*
G75*
G03*
X6368610Y16374251I-167947J112473D01*
G01*
X6776340Y16284313D02*
G75*
G03*
X6431469Y16089109I82960J-548813D01*
G01*
X6368614Y16374258D02*
G75*
G03*
X6776335Y16284341I312386J447142D01*
G01*
X26921124Y27627498D02*
G75*
G03*
X26908729Y27919170I-145824J139902D01*
G01*
X27294673Y27759830D02*
G75*
G03*
X26921104Y27627522I-13673J-554930D01*
G01*
X26908759Y27919204D02*
G75*
G03*
X27294673Y27759812I385341J386096D01*
G01*
X110689466Y11481789D02*
G75*
G02*
X110815827Y11429478I34J-178689D01*
G01*
X114837429Y64939829D02*
G75*
G03*
X115222193Y65099219I-29J544171D01*
G01*
X113018289Y10652124D02*
G75*
G03*
X112868176Y10501971I11J-150124D01*
G01*
X115051589Y-5808222D02*
G75*
G03*
X114700350Y-6032004I94511J-535878D01*
G01*
X110896197Y11349067D02*
G75*
G03*
X110963932Y11321032I67703J67733D01*
G01*
X47294672Y73759830D02*
G75*
G03*
X46899766Y73608267I28J-590330D01*
G01*
X16282225Y21822218D02*
G75*
G03*
X15930953Y21598459I94475J-535918D01*
G01*
X109143046Y58914835D02*
G75*
G03*
X109527848Y59074182I54J544165D01*
G01*
X-18302897Y43340398D02*
G75*
G03*
X-18665489Y43122569I102508J-581326D01*
G01*
X-12051567Y7887313D02*
G75*
G03*
X-12414161Y7669483I102513J-581338D01*
G01*
X66574755Y45315731D02*
G75*
G03*
X66408173Y44941566I336845J-374131D01*
G01*
X26574759Y45315728D02*
G75*
G03*
X26408178Y44941563I336841J-374128D01*
G01*
X67294675Y27759827D02*
G75*
G03*
X66899771Y27608268I25J-590327D01*
G01*
X107651878Y62337787D02*
G75*
G02*
X107693131Y62238188I-99578J-99587D01*
G01*
X42998310Y38066558D02*
G75*
G03*
X42838947Y37681783I384790J-384758D01*
G01*
X743622Y11866859D02*
G75*
G02*
X392369Y11643087I-445742J312111D01*
G01*
X103673136Y64458535D02*
G75*
G03*
X103832496Y64073740I544164J-35D01*
G01*
X111946085Y11480390D02*
G75*
G02*
X111561309Y11321014I-384785J384810D01*
G01*
X48775377Y39418217D02*
G75*
G03*
X48390621Y39258818I23J-544117D01*
G01*
X-18934762Y42778028D02*
G75*
G03*
X-19033883Y42380616I396657J-310000D01*
G01*
X525014Y51737401D02*
G75*
G03*
X162421Y51519577I102486J-581301D01*
G01*
X107884429Y65894843D02*
G75*
G02*
X108269187Y65735447I-29J-544143D01*
G01*
X-11608620Y9019655D02*
G75*
G03*
X-11698763Y8613050I445757J-312118D01*
G01*
X107751480Y62179840D02*
G75*
G03*
X107693160Y62121501I20J-58340D01*
G01*
X107693133Y62238188D02*
G75*
G03*
X107751480Y62179833I58367J12D01*
G01*
X61493136Y32021850D02*
G75*
G03*
X61652540Y31637096I544164J50D01*
G01*
X122878904Y6026709D02*
G75*
G02*
X122719520Y5641940I-544104J-9D01*
G01*
X26574756Y27315731D02*
G75*
G03*
X26408141Y26941571I336744J-374131D01*
G01*
X107867985Y62179838D02*
G75*
G02*
X108166482Y62056212I15J-422138D01*
G01*
X86574752Y22315732D02*
G75*
G03*
X86408137Y21941569I336748J-374132D01*
G01*
X107693133Y62121501D02*
X107693133Y62238188D01*
%TO.N,led_20*%
X-14438457Y22944956D02*
G75*
G03*
X-14031852Y22854814I312112J445739D01*
G01*
X-16660318Y23794176D02*
G75*
G03*
X-16437053Y23441886I539749J95175D01*
G01*
X-16316690Y23356757D02*
G75*
G03*
X-15910890Y23265788I311977J441094D01*
G01*
X-15317879Y23370355D02*
G75*
G03*
X-14986316Y23572863I-78336J500944D01*
G01*
X-14920010Y23282148D02*
G75*
G03*
X-15317879Y23370355I-305407J-436153D01*
G01*
X-14986316Y23572863D02*
G75*
G03*
X-14920010Y23282148I179570J-111963D01*
G01*
X-14920010Y23282148D02*
X-14558676Y23029135D01*
%TO.N,VCC_LED*%
X72638282Y24890664D02*
G75*
G02*
X72253507Y24731269I-384782J384736D01*
G01*
X33168132Y25645909D02*
G75*
G02*
X33008752Y25261134I-544132J-9D01*
G01*
X32638283Y24890665D02*
G75*
G02*
X32253508Y24731269I-384783J384735D01*
G01*
X60865625Y31151162D02*
G75*
G02*
X61024980Y30766385I-384825J-384762D01*
G01*
X92814708Y19990664D02*
G75*
G02*
X92429933Y19831250I-384808J384736D01*
G01*
X893509Y11296376D02*
G75*
G02*
X542256Y11072600I-445749J312114D01*
G01*
X16805632Y21000629D02*
G75*
G03*
X16454352Y20776875I94468J-535929D01*
G01*
X53168139Y35561774D02*
G75*
G02*
X53008745Y35177016I-544139J26D01*
G01*
X-3609050Y8116199D02*
G75*
G02*
X-3960303Y7892428I-445734J312102D01*
G01*
X104337072Y-2469603D02*
G75*
G03*
X104337555Y-2469520I128J703D01*
G01*
X12576851Y14419203D02*
G75*
G02*
X12225600Y14195419I-445751J312097D01*
G01*
X-1610143Y10693077D02*
G75*
G03*
X-1961396Y10469304I94491J-535885D01*
G01*
X15218858Y16513206D02*
G75*
G02*
X14867608Y16289416I-445758J312094D01*
G01*
X61025006Y28453572D02*
G75*
G03*
X61184391Y28068802I544194J28D01*
G01*
X34818040Y26359834D02*
G75*
G03*
X35202845Y26519179I60J544166D01*
G01*
X36165925Y27707711D02*
G75*
G02*
X36006546Y27322937I-544125J-11D01*
G01*
X22061019Y24731285D02*
G75*
G03*
X21676228Y24571922I-19J-544185D01*
G01*
X64362519Y24890664D02*
G75*
G03*
X64747293Y24731269I384781J384736D01*
G01*
X73168127Y25645903D02*
G75*
G02*
X73008744Y25261133I-544127J-3D01*
G01*
X36325302Y28869215D02*
G75*
G03*
X36165901Y28484441I384798J-384815D01*
G01*
X104338024Y-2469570D02*
G75*
G03*
X104337582Y-2469566I-224J-330D01*
G01*
X12931086Y15202972D02*
G75*
G02*
X12840932Y14796375I-535886J-94472D01*
G01*
X60593135Y31649057D02*
G75*
G03*
X60752483Y31264252I544165J-57D01*
G01*
X15397204Y19267064D02*
G75*
G03*
X15307091Y18860464I445696J-312064D01*
G01*
X14033259Y34421557D02*
G75*
G03*
X14032351Y34423021I-759J543D01*
G01*
X52822426Y34990665D02*
G75*
G02*
X52437651Y34831309I-384726J384735D01*
G01*
X78704367Y26359838D02*
G75*
G02*
X79089156Y26200472I33J-544138D01*
G01*
X93168136Y20569488D02*
G75*
G02*
X93008746Y20184722I-544136J12D01*
G01*
X60433761Y32519443D02*
G75*
G02*
X60593121Y32134669I-384761J-384743D01*
G01*
X119292468Y-12940785D02*
G75*
G03*
X119699074Y-13030934I312132J445785D01*
G01*
X118475231Y15469213D02*
G75*
G03*
X118860007Y15309842I384769J384787D01*
G01*
X85298936Y19990664D02*
G75*
G03*
X85683711Y19831281I384764J384736D01*
G01*
X18544964Y21440624D02*
G75*
G02*
X18157705Y21238993I-513364J513276D01*
G01*
X56752737Y36200468D02*
G75*
G03*
X56367963Y36359822I-384737J-384768D01*
G01*
X120490633Y-12729518D02*
G75*
G02*
X120139377Y-12953282I-445733J312118D01*
G01*
X-7805890Y25495167D02*
G75*
G03*
X-7809307Y25492994I925J-5227D01*
G01*
X1835153Y12363313D02*
G75*
G03*
X1483899Y12139541I94487J-535883D01*
G01*
X15580807Y17307992D02*
G75*
G02*
X15490668Y16901385I-535907J-94492D01*
G01*
X42512768Y34831285D02*
G75*
G03*
X42128003Y34671896I32J-544185D01*
G01*
%TO.N,P7*%
X109527820Y43834213D02*
G75*
G02*
X109143047Y43674806I-384820J384787D01*
G01*
X100121734Y2260708D02*
G75*
G02*
X100431852Y2022793I-132134J-493308D01*
G01*
X87946340Y6097304D02*
G75*
G03*
X88000719Y5684400I525660J-140804D01*
G01*
X99063780Y22934333D02*
G75*
G02*
X99058493Y22921523I-18080J-33D01*
G01*
X110088836Y44169838D02*
G75*
G03*
X109704047Y44010474I-36J-544138D01*
G01*
X111183104Y-5614493D02*
G75*
G03*
X111589706Y-5704614I312096J445793D01*
G01*
X103138074Y43034846D02*
G75*
G03*
X102753313Y42875452I26J-544146D01*
G01*
X107117511Y43194227D02*
G75*
G02*
X106732736Y43034822I-384811J384773D01*
G01*
X100490980Y1920296D02*
G75*
G03*
X100613933Y1786141I364020J210204D01*
G01*
X88169432Y5392138D02*
G75*
G03*
X88499840Y5138586I471268J272062D01*
G01*
X90128351Y4938423D02*
G75*
G03*
X89832854Y4899496I-100751J-376223D01*
G01*
X107867978Y44399837D02*
G75*
G02*
X108166477Y44276215I22J-422137D01*
G01*
X112456375Y-5417988D02*
G75*
G02*
X112165893Y-5603023I-368575J258088D01*
G01*
X107693131Y43995241D02*
G75*
G02*
X107533768Y43610450I-544131J-41D01*
G01*
X113994063Y-3499818D02*
G75*
G03*
X113642833Y-3723612I94537J-535882D01*
G01*
X108608452Y43834212D02*
G75*
G03*
X108993229Y43674856I384748J384788D01*
G01*
X112670201Y-5112609D02*
X112456375Y-5417988D01*
X100613923Y1786126D02*
X100766611Y1679212D01*
%TO.N,P4*%
X55840643Y75158841D02*
G75*
G03*
X55455869Y75318207I-384743J-384741D01*
G01*
X82664296Y60813674D02*
G75*
G03*
X82279521Y60973068I-384796J-384774D01*
G01*
X95840088Y60158838D02*
G75*
G03*
X95455313Y60318237I-384788J-384738D01*
G01*
X41760985Y65318216D02*
G75*
G03*
X42145773Y65477581I15J544184D01*
G01*
D44*
X12741148Y55586317D02*
G75*
G02*
X12353887Y55384696I-513348J513283D01*
G01*
D43*
X58267617Y72731865D02*
G75*
G02*
X58426977Y72347090I-384817J-384765D01*
G01*
X-3974727Y52664021D02*
G75*
G03*
X-3576559Y52575749I305636J436487D01*
G01*
X62664285Y65813675D02*
G75*
G03*
X62279507Y65973061I-384785J-384775D01*
G01*
X108608450Y51454220D02*
G75*
G03*
X108993226Y51294860I384750J384780D01*
G01*
X43188927Y66746160D02*
G75*
G02*
X43029523Y66361411I-544127J40D01*
G01*
X43013933Y75464028D02*
G75*
G03*
X43365942Y75318240I351967J351972D01*
G01*
X107533761Y52809215D02*
G75*
G02*
X107693172Y52424442I-384761J-384815D01*
G01*
X107867982Y52019842D02*
G75*
G02*
X108166477Y51896222I18J-422142D01*
G01*
X110088839Y51789833D02*
G75*
G03*
X109704048Y51630469I-39J-544133D01*
G01*
X43029547Y75448413D02*
G75*
G02*
X43188961Y75063636I-384747J-384813D01*
G01*
X102566490Y53432437D02*
G75*
G03*
X102951265Y53273030I384810J384763D01*
G01*
X59167610Y66132430D02*
G75*
G03*
X59552384Y65973039I384790J384770D01*
G01*
X23013941Y65464029D02*
G75*
G03*
X23365957Y65318176I352059J351971D01*
G01*
X-8335250Y46821370D02*
G75*
G02*
X-8686503Y46597597I-445744J312112D01*
G01*
X83013944Y60464026D02*
G75*
G03*
X83365959Y60318176I352056J351974D01*
G01*
X81157151Y61132427D02*
G75*
G03*
X81541925Y60973066I384749J384773D01*
G01*
X63013940Y65464027D02*
G75*
G03*
X63365955Y65318173I352060J351973D01*
G01*
X58426991Y67098455D02*
G75*
G03*
X58586352Y66713662I544109J-55D01*
G01*
X109143042Y51294840D02*
G75*
G03*
X109527797Y51454238I-42J544160D01*
G01*
X106844525Y53273052D02*
G75*
G02*
X107229288Y53113660I-25J-544152D01*
G01*
X107693138Y52194689D02*
G75*
G03*
X107867982Y52019838I174862J11D01*
G01*
D44*
X22816398Y65609841D02*
G75*
G03*
X22728109Y65573261I2J-124841D01*
G01*
D43*
X-22802620Y44267026D02*
G75*
G03*
X-22404444Y44178753I305642J436500D01*
G01*
X77130738Y65158840D02*
G75*
G03*
X76745963Y65318203I-384738J-384740D01*
G01*
%TO.N,P5*%
X83013942Y42464023D02*
G75*
G03*
X83365951Y42318243I351958J351977D01*
G01*
X58426996Y48698453D02*
G75*
G03*
X58586339Y48313641I544204J-53D01*
G01*
X22963940Y47514024D02*
G75*
G03*
X23195236Y47418238I231260J231276D01*
G01*
X103388786Y48273048D02*
G75*
G03*
X103004019Y48113661I14J-544148D01*
G01*
X55840084Y57158838D02*
G75*
G03*
X55455309Y57318234I-384784J-384738D01*
G01*
X107867979Y49479831D02*
G75*
G03*
X107693169Y49304983I21J-174831D01*
G01*
D44*
X15669856Y37825045D02*
G75*
G02*
X15282592Y37623440I-513356J513355D01*
G01*
D43*
X-5209569Y29094834D02*
G75*
G02*
X-5560822Y28871061I-445744J312112D01*
G01*
X43013939Y57464024D02*
G75*
G03*
X43365949Y57318241I351961J351976D01*
G01*
X107275732Y48432428D02*
G75*
G02*
X106890958Y48273079I-384732J384772D01*
G01*
X75456422Y47318215D02*
G75*
G02*
X75841199Y47158838I-22J-544215D01*
G01*
D44*
X22868132Y45248718D02*
G75*
G02*
X22708757Y44863938I-544132J-18D01*
G01*
D43*
X108608445Y48914223D02*
G75*
G03*
X108993222Y48754859I384755J384777D01*
G01*
X107693130Y49075226D02*
G75*
G02*
X107533759Y48690442I-544130J-26D01*
G01*
X58267616Y54731307D02*
G75*
G02*
X58427006Y54346533I-384816J-384807D01*
G01*
X63013935Y47464023D02*
G75*
G03*
X63365942Y47318238I351965J351977D01*
G01*
X110088824Y49249834D02*
G75*
G03*
X109704041Y49090463I-24J-544134D01*
G01*
X107867979Y49479831D02*
G75*
G02*
X108166477Y49356207I21J-422131D01*
G01*
X42326989Y51912055D02*
G75*
G02*
X42167594Y51527295I-544189J45D01*
G01*
X-19676962Y26540486D02*
G75*
G03*
X-19278788Y26452214I305640J436501D01*
G01*
X58767607Y48132437D02*
G75*
G03*
X59152380Y47973042I384793J384763D01*
G01*
X-849045Y34937487D02*
G75*
G03*
X-450870Y34849214I305641J436496D01*
G01*
X42486382Y57228076D02*
G75*
G03*
X42327015Y56843299I384818J-384776D01*
G01*
X82664289Y42813683D02*
G75*
G03*
X82279519Y42973070I-384789J-384783D01*
G01*
X109143045Y48754836D02*
G75*
G03*
X109527847Y48914182I55J544164D01*
G01*
X38217930Y47577597D02*
G75*
G02*
X37833156Y47418258I-384730J384803D01*
G01*
X62664286Y47813680D02*
G75*
G03*
X62279516Y47973065I-384786J-384780D01*
G01*
X79867612Y43132427D02*
G75*
G03*
X80252387Y42973038I384788J384773D01*
G01*
X97367942Y42477600D02*
G75*
G02*
X96983167Y42318252I-384742J384800D01*
G01*
%TO.N,P6*%
X903628Y17127342D02*
G75*
G03*
X552374Y16903571I94492J-535892D01*
G01*
X42388927Y36431025D02*
G75*
G02*
X42229554Y36046243I-544127J-25D01*
G01*
X62215633Y31710345D02*
G75*
G02*
X62374974Y31325568I-384833J-384745D01*
G01*
X13764978Y23307677D02*
G75*
G03*
X13413744Y23083890I94522J-535877D01*
G01*
X108166465Y46816205D02*
G75*
G03*
X107867981Y46939822I-298465J-298505D01*
G01*
X101326963Y45574843D02*
G75*
G03*
X100942210Y45415444I37J-544143D01*
G01*
X62467381Y30010589D02*
G75*
G03*
X62690377Y29918209I223019J223011D01*
G01*
X-16448904Y9181232D02*
G75*
G03*
X-16655913Y9049354I55690J-315827D01*
G01*
X110088838Y46709831D02*
G75*
G03*
X109704048Y46550466I-38J-544131D01*
G01*
X83013951Y24464028D02*
G75*
G03*
X83365965Y24318182I352049J351972D01*
G01*
X43394579Y39918219D02*
G75*
G03*
X43022345Y39764013I21J-526419D01*
G01*
X109527820Y46374223D02*
G75*
G02*
X109143040Y46214813I-384820J384777D01*
G01*
X10699186Y19207142D02*
G75*
G02*
X10347934Y18983361I-445786J312158D01*
G01*
X36160896Y29977597D02*
G75*
G02*
X35776122Y29818211I-384796J384803D01*
G01*
X-3092492Y11698162D02*
G75*
G02*
X-3443745Y11474389I-445744J312112D01*
G01*
X17861790Y24163371D02*
G75*
G02*
X17474522Y23961793I-513290J513329D01*
G01*
X107693134Y46881513D02*
G75*
G02*
X107651890Y46781963I-140734J-13D01*
G01*
X76482364Y29918217D02*
G75*
G02*
X76867149Y29758848I36J-544117D01*
G01*
X61783753Y33078628D02*
G75*
G02*
X61943176Y32693852I-384753J-384828D01*
G01*
X23223870Y29818216D02*
G75*
G03*
X22972348Y29714006I30J-355716D01*
G01*
X61943136Y32208243D02*
G75*
G03*
X62102492Y31823443I544164J-43D01*
G01*
X95701616Y24477598D02*
G75*
G02*
X95316841Y24318198I-384816J384802D01*
G01*
X106219397Y45574834D02*
G75*
G03*
X106604175Y45734209I3J544166D01*
G01*
X81856761Y24769209D02*
G75*
G03*
X82241535Y24609860I384739J384791D01*
G01*
X2378981Y17578228D02*
G75*
G03*
X2171996Y17446353I55719J-315828D01*
G01*
X108608441Y46374208D02*
G75*
G03*
X108993210Y46214816I384759J384692D01*
G01*
X100368123Y29369499D02*
G75*
G02*
X100208737Y28984731I-544123J1D01*
G01*
X62375013Y30233589D02*
G75*
G03*
X62467384Y30010592I315387J11D01*
G01*
X100527518Y45000781D02*
G75*
G03*
X100368137Y44616004I384782J-384781D01*
G01*
X42548311Y39290009D02*
G75*
G03*
X42388912Y38905233I384789J-384809D01*
G01*
X22868131Y29389776D02*
G75*
G02*
X22712509Y29014134I-531231J24D01*
G01*
X55103540Y39758841D02*
G75*
G03*
X54718765Y39918205I-384740J-384741D01*
G01*
%TO.N,innermost_home*%
X118751921Y2466971D02*
G75*
G03*
X118400667Y2243199I94479J-535871D01*
G01*
X129808504Y-1644432D02*
G75*
G02*
X130032296Y-1995682I-312104J-445768D01*
G01*
X123078425Y3068009D02*
G75*
G03*
X122671817Y3158165I-312125J-445709D01*
G01*
%TO.N,P16*%
X112217045Y-4975242D02*
G75*
G02*
X111865790Y-5199004I-445745J312142D01*
G01*
X123125692Y-1818140D02*
G75*
G03*
X123215846Y-1411533I-445792J312140D01*
G01*
X123418803Y-1748222D02*
G75*
G03*
X123125738Y-1818169I-111303J-182578D01*
G01*
X123215833Y-1411535D02*
G75*
G03*
X123418822Y-1748196I509267J77535D01*
G01*
X116596130Y-3872655D02*
G75*
G03*
X117002729Y-3962763I312070J445755D01*
G01*
X94679483Y4286522D02*
G75*
G03*
X95005616Y4329473I111217J415178D01*
G01*
X101500935Y43034840D02*
G75*
G03*
X101451158Y43014233I-35J-70340D01*
G01*
X89089013Y14889686D02*
G75*
G03*
X89084068Y14883265I5287J-9186D01*
G01*
X100845977Y26870442D02*
G75*
G02*
X100686624Y26485641I-544177J-42D01*
G01*
X89095908Y14894976D02*
G75*
G02*
X89089019Y14889675I-23508J23424D01*
G01*
X95976166Y6849396D02*
G75*
G03*
X95722585Y6518995I272034J-471296D01*
G01*
X97590856Y7597596D02*
G75*
G03*
X97177936Y7543246I-140856J-525596D01*
G01*
X114187602Y-2245062D02*
G75*
G03*
X114081328Y-2312775I28598J-162138D01*
G01*
X114310633Y-2272339D02*
G75*
G03*
X114187603Y-2245066I-94433J-134861D01*
G01*
X99989054Y5670614D02*
G75*
G02*
X100043442Y5257693I-471254J-272114D01*
G01*
X111288532Y-5138966D02*
G75*
G03*
X111695131Y-5229071I312068J445766D01*
G01*
X116769799Y41983477D02*
G75*
G03*
X117068286Y41859840I298501J298523D01*
G01*
X100832606Y2301802D02*
G75*
G03*
X101138035Y1968476I904494J522198D01*
G01*
X115793229Y42584834D02*
G75*
G03*
X115408446Y42425467I-29J-544134D01*
G01*
X99638417Y3166667D02*
G75*
G03*
X99949390Y2928058I443483J256033D01*
G01*
X95205881Y4590435D02*
G75*
G02*
X95005624Y4329460I-415181J111265D01*
G01*
X99587255Y3555284D02*
G75*
G03*
X99638398Y3166656I494645J-132584D01*
G01*
X100348795Y2821030D02*
G75*
G02*
X100679238Y2567512I-140795J-525630D01*
G01*
X115222213Y42239219D02*
G75*
G02*
X114837437Y42079815I-384813J384781D01*
G01*
X122404201Y-2848544D02*
G75*
G02*
X122052941Y-3072277I-445701J312144D01*
G01*
X101005356Y42568413D02*
G75*
G03*
X100845941Y42183639I384744J-384813D01*
G01*
X115943047Y42584833D02*
G75*
G02*
X116327796Y42425424I-47J-544133D01*
G01*
X98894089Y7248393D02*
G75*
G02*
X99224468Y6994837I-140889J-525593D01*
G01*
X90398962Y5433487D02*
X90851621Y5312197D01*
%TO.N,home_home*%
X103532718Y11748022D02*
G75*
G02*
X103863146Y11494495I-140818J-525622D01*
G01*
X91736746Y11829901D02*
G75*
G03*
X91483171Y11499498I272054J-471301D01*
G01*
X95596771Y13874459D02*
G75*
G03*
X95183841Y13820124I-140871J-525659D01*
G01*
%TO.N,inner_up*%
X83027512Y68073561D02*
G75*
G03*
X82868147Y67688787I384788J-384761D01*
G01*
X86064181Y70884822D02*
G75*
G03*
X85679422Y70725426I19J-544122D01*
G01*
X94827515Y70725456D02*
G75*
G03*
X94442740Y70884869I-384815J-384756D01*
G01*
%TO.N,inner_home*%
X83027509Y49910908D02*
G75*
G03*
X82868111Y49526134I384791J-384808D01*
G01*
X86226834Y52884833D02*
G75*
G03*
X85842046Y52725467I-34J-544133D01*
G01*
X94827518Y52725455D02*
G75*
G03*
X94442744Y52884870I-384818J-384755D01*
G01*
%TO.N,inner_down*%
X86164174Y34884837D02*
G75*
G03*
X85779416Y34725442I26J-544137D01*
G01*
X94442728Y34884833D02*
G75*
G02*
X94827485Y34725436I-28J-544133D01*
G01*
X83027517Y31973575D02*
G75*
G03*
X82868140Y31588800I384783J-384775D01*
G01*
%TO.N,P14*%
X115943041Y45124836D02*
G75*
G02*
X116327794Y44965431I-41J-544136D01*
G01*
X88908760Y67294213D02*
G75*
G03*
X89293536Y67134862I384740J384787D01*
G01*
X114837429Y44619834D02*
G75*
G03*
X115222191Y44779225I-29J544166D01*
G01*
X88908758Y49294211D02*
G75*
G03*
X89293532Y49134859I384742J384789D01*
G01*
X97267234Y9696013D02*
G75*
G03*
X97597646Y9442474I471266J272087D01*
G01*
X88908754Y31294212D02*
G75*
G03*
X89293529Y31134857I384746J384788D01*
G01*
X115793221Y45124839D02*
G75*
G03*
X115408442Y44965470I-21J-544139D01*
G01*
X116769794Y44523475D02*
G75*
G03*
X117068285Y44399835I298506J298525D01*
G01*
%TO.N,index_up*%
X74442744Y75884836D02*
G75*
G02*
X74827493Y75725431I-44J-544136D01*
G01*
X63027516Y72910916D02*
G75*
G03*
X62868111Y72526142I384784J-384816D01*
G01*
X66226853Y75884849D02*
G75*
G03*
X65842103Y75725446I47J-544149D01*
G01*
%TO.N,index_home*%
X63027507Y55373567D02*
G75*
G03*
X62868139Y54988792I384793J-384767D01*
G01*
X74827500Y57725465D02*
G75*
G03*
X74442725Y57884865I-384800J-384765D01*
G01*
X65764168Y57884842D02*
G75*
G03*
X65379412Y57725444I32J-544142D01*
G01*
%TO.N,index_down*%
X63027522Y37073571D02*
G75*
G03*
X62868147Y36688795I384778J-384771D01*
G01*
X74827517Y39725459D02*
G75*
G03*
X74442743Y39884872I-384817J-384759D01*
G01*
X66064170Y39884837D02*
G75*
G03*
X65679414Y39725439I30J-544137D01*
G01*
%TO.N,P15*%
X74532101Y52094213D02*
G75*
G03*
X74916876Y51934821I384799J384787D01*
G01*
X84574421Y52094214D02*
G75*
G02*
X84189646Y51934806I-384821J384786D01*
G01*
X68908752Y72294215D02*
G75*
G03*
X69293526Y72134858I384748J384785D01*
G01*
X115793217Y47664845D02*
G75*
G03*
X115408437Y47505474I-17J-544145D01*
G01*
X72988785Y53862922D02*
G75*
G03*
X73148160Y53478145I544115J-22D01*
G01*
X101287896Y53395868D02*
G75*
G03*
X101258073Y53408189I-29796J-29868D01*
G01*
X68908762Y54294211D02*
G75*
G03*
X69293538Y54134862I384738J384789D01*
G01*
X116769807Y47063469D02*
G75*
G03*
X117068286Y46939811I298493J298431D01*
G01*
X68908756Y36294222D02*
G75*
G03*
X69293532Y36134866I384744J384778D01*
G01*
X86113826Y53408220D02*
G75*
G03*
X85729045Y53248847I-26J-544120D01*
G01*
X115943053Y47664844D02*
G75*
G02*
X116327800Y47505436I-53J-544144D01*
G01*
X114837435Y47159838D02*
G75*
G03*
X115222193Y47319232I-35J544162D01*
G01*
%TO.N,middle_up*%
X46226842Y85884835D02*
G75*
G03*
X45842050Y85725473I-42J-544135D01*
G01*
X43027509Y82910901D02*
G75*
G03*
X42868116Y82526127I384791J-384801D01*
G01*
X54827509Y85725465D02*
G75*
G03*
X54442735Y85884871I-384809J-384765D01*
G01*
%TO.N,middle_home*%
X46164178Y67884834D02*
G75*
G03*
X45779419Y67725440I22J-544134D01*
G01*
X43027506Y64973566D02*
G75*
G03*
X42868139Y64588792I384794J-384766D01*
G01*
X54442745Y67884831D02*
G75*
G02*
X54827493Y67725425I-45J-544131D01*
G01*
%TO.N,middle_down*%
X43027510Y46910907D02*
G75*
G03*
X42868113Y46526133I384790J-384807D01*
G01*
X46226837Y49884839D02*
G75*
G03*
X45842047Y49725476I-37J-544139D01*
G01*
X54442742Y49884832D02*
G75*
G02*
X54827491Y49725427I-42J-544132D01*
G01*
%TO.N,P19*%
X68227233Y48843615D02*
G75*
G02*
X68067857Y48458836I-544133J-15D01*
G01*
X61969800Y49132428D02*
G75*
G03*
X62354576Y48973030I384800J384772D01*
G01*
X72917855Y48427597D02*
G75*
G03*
X73302631Y48268247I384745J384803D01*
G01*
X87451842Y43268218D02*
G75*
G03*
X87836601Y43427612I-42J544182D01*
G01*
X97045139Y43427597D02*
G75*
G02*
X96660364Y43268252I-384739J384803D01*
G01*
X88386613Y46177596D02*
G75*
G03*
X88227223Y45792822I384787J-384796D01*
G01*
X48908756Y46294218D02*
G75*
G03*
X49293530Y46134863I384744J384782D01*
G01*
X115793222Y52744841D02*
G75*
G03*
X115408439Y52585471I-22J-544141D01*
G01*
X63615900Y48973048D02*
G75*
G02*
X64000674Y48813668I0J-544148D01*
G01*
X72567857Y51177597D02*
G75*
G02*
X72727257Y50792822I-384757J-384797D01*
G01*
X52988772Y61508333D02*
G75*
G03*
X53148139Y61123547I544128J-33D01*
G01*
X92567851Y46177599D02*
G75*
G02*
X92727254Y45792823I-384751J-384799D01*
G01*
X72727236Y48843612D02*
G75*
G03*
X72886606Y48458829I544164J-12D01*
G01*
X80213466Y44059378D02*
G75*
G03*
X80598241Y43900012I384734J384722D01*
G01*
X114837434Y52239831D02*
G75*
G03*
X115222194Y52399223I-34J544169D01*
G01*
X91586612Y47158839D02*
G75*
G03*
X91201838Y47318255I-384812J-384739D01*
G01*
X92727238Y44043617D02*
G75*
G03*
X92886607Y43658831I544162J-17D01*
G01*
X59326997Y52000621D02*
G75*
G03*
X59486376Y51615847I544103J-21D01*
G01*
X116769805Y52143461D02*
G75*
G03*
X117068290Y52019804I298495J298439D01*
G01*
X48908760Y64294211D02*
G75*
G03*
X49293534Y64134861I384740J384789D01*
G01*
X48908755Y82294217D02*
G75*
G03*
X49293529Y82134862I384745J384783D01*
G01*
X93117859Y43427599D02*
G75*
G03*
X93502633Y43268252I384741J384801D01*
G01*
X102626994Y49234845D02*
G75*
G02*
X102467646Y48850040I-544194J-45D01*
G01*
X64386744Y48427596D02*
G75*
G03*
X64771518Y48268239I384756J384804D01*
G01*
X68036615Y48427597D02*
G75*
G02*
X67651842Y48268198I-384815J384803D01*
G01*
X68386614Y51177598D02*
G75*
G03*
X68227222Y50792823I384786J-384798D01*
G01*
X89752630Y47318216D02*
G75*
G03*
X89367847Y47158844I-30J-544116D01*
G01*
X88227239Y44043613D02*
G75*
G02*
X88067864Y43658835I-544139J-13D01*
G01*
X59167619Y55104092D02*
G75*
G02*
X59326997Y54719318I-384819J-384792D01*
G01*
X84386709Y43427598D02*
G75*
G03*
X84771484Y43268216I384791J384802D01*
G01*
X69752629Y52318216D02*
G75*
G03*
X69367847Y52158843I-29J-544116D01*
G01*
X115943051Y52744841D02*
G75*
G02*
X116327798Y52585434I-51J-544141D01*
G01*
X71586615Y52158840D02*
G75*
G03*
X71201841Y52318258I-384815J-384740D01*
G01*
X84073688Y43740620D02*
G75*
G03*
X83688913Y43899995I-384788J-384820D01*
G01*
X76164005Y48108840D02*
G75*
G03*
X75779230Y48268250I-384805J-384740D01*
G01*
%TO.N,ring_up*%
X34442738Y75884828D02*
G75*
G02*
X34827489Y75725424I-38J-544128D01*
G01*
X23027511Y72910910D02*
G75*
G03*
X22868111Y72526135I384789J-384810D01*
G01*
X26226830Y75884834D02*
G75*
G03*
X25842045Y75725466I-30J-544134D01*
G01*
%TO.N,ring_home*%
X26064170Y57884837D02*
G75*
G03*
X25679414Y57725439I30J-544137D01*
G01*
X34827519Y57725457D02*
G75*
G03*
X34442745Y57884872I-384819J-384757D01*
G01*
X23027514Y55073578D02*
G75*
G03*
X22868136Y54688803I384786J-384778D01*
G01*
%TO.N,ring_down*%
X34442733Y39884837D02*
G75*
G02*
X34827488Y39725438I-33J-544137D01*
G01*
X26226836Y39884840D02*
G75*
G03*
X25842046Y39725477I-36J-544140D01*
G01*
X23027526Y36910907D02*
G75*
G03*
X22868124Y36526131I384774J-384807D01*
G01*
%TO.N,P18*%
X33026995Y48743851D02*
G75*
G03*
X33186408Y48359111I544105J49D01*
G01*
X83727892Y43423055D02*
G75*
G02*
X83774033Y43403952I8J-65255D01*
G01*
X44067857Y57977597D02*
G75*
G03*
X44452632Y57818249I384743J384803D01*
G01*
X83774023Y43403942D02*
G75*
G02*
X83793141Y43357805I-46123J-46142D01*
G01*
X83793128Y43018219D02*
G75*
G03*
X83993127Y42818228I199972J-19D01*
G01*
X108991532Y49773140D02*
G75*
G02*
X109068139Y49588178I-184932J-184940D01*
G01*
X38081533Y48077597D02*
G75*
G02*
X37696758Y47918256I-384733J384803D01*
G01*
X80054012Y43582436D02*
G75*
G03*
X80438787Y43423045I384788J384764D01*
G01*
X116769811Y49603470D02*
G75*
G03*
X117068289Y49479815I298489J298430D01*
G01*
X63774024Y48403940D02*
G75*
G02*
X63793141Y48357804I-46124J-46140D01*
G01*
X75977609Y47658839D02*
G75*
G03*
X75592834Y47818253I-384809J-384739D01*
G01*
X41876993Y52098445D02*
G75*
G02*
X41717645Y51713639I-544193J-45D01*
G01*
X58995193Y48541252D02*
G75*
G03*
X59280534Y48423086I285307J285348D01*
G01*
X58877001Y48826595D02*
G75*
G03*
X58995204Y48541263I403499J5D01*
G01*
X116327821Y50045460D02*
G75*
G03*
X115943047Y50204876I-384821J-384760D01*
G01*
X63727892Y48423052D02*
G75*
G02*
X63774032Y48403948I8J-65252D01*
G01*
X63793132Y48018217D02*
G75*
G03*
X63993132Y47818232I199968J-17D01*
G01*
X107884431Y50654826D02*
G75*
G02*
X108269185Y50495425I-31J-544126D01*
G01*
X115222214Y49859216D02*
G75*
G02*
X114837442Y49699812I-384814J384784D01*
G01*
X29070540Y54132432D02*
G75*
G03*
X29455316Y53973062I384760J384768D01*
G01*
X41917645Y58359352D02*
G75*
G03*
X41876990Y58261219I98155J-98152D01*
G01*
X28908749Y72294221D02*
G75*
G03*
X29293525Y72134860I384751J384779D01*
G01*
X33467856Y48077598D02*
G75*
G03*
X33852632Y47918249I384744J384802D01*
G01*
X104134178Y50654833D02*
G75*
G03*
X103749418Y50495439I22J-544133D01*
G01*
X42015777Y58400000D02*
G75*
G03*
X41917652Y58359345I23J-138800D01*
G01*
X103286380Y50032437D02*
G75*
G03*
X103127012Y49647663I384720J-384737D01*
G01*
X28908767Y36294216D02*
G75*
G03*
X29293543Y36134869I384733J384784D01*
G01*
X58717613Y54917697D02*
G75*
G02*
X58876996Y54532922I-384813J-384797D01*
G01*
X96846772Y42818219D02*
G75*
G03*
X97231566Y42977578I28J544181D01*
G01*
X103126998Y49098450D02*
G75*
G02*
X102967603Y48713690I-544198J50D01*
G01*
X43804835Y58240620D02*
G75*
G03*
X43420060Y58399958I-384735J-384820D01*
G01*
X55591696Y57818218D02*
G75*
G02*
X55976466Y57658834I4J-544118D01*
G01*
X115793221Y50204838D02*
G75*
G03*
X115408439Y50045466I-21J-544138D01*
G01*
%TO.N,pinky_up*%
X5865613Y64829294D02*
G75*
G03*
X5459010Y64919428I-312113J-445794D01*
G01*
X-2717920Y63477618D02*
G75*
G03*
X-3069174Y63253845I94493J-535890D01*
G01*
X-5281519Y60094296D02*
G75*
G03*
X-5371661Y59687691I445751J-312115D01*
G01*
%TO.N,pinky_home*%
X8991269Y47102766D02*
G75*
G03*
X8584670Y47192872I-312069J-445766D01*
G01*
X493588Y45766233D02*
G75*
G03*
X142336Y45542459I94492J-535883D01*
G01*
X-2140713Y42281918D02*
G75*
G03*
X-2230855Y41875313I445751J-312115D01*
G01*
%TO.N,pinky_down*%
X3619252Y28039678D02*
G75*
G03*
X3267979Y27815919I94448J-535878D01*
G01*
X984951Y24555380D02*
G75*
G03*
X894834Y24148779I445749J-312080D01*
G01*
X12116940Y29376214D02*
G75*
G03*
X11710331Y29466380I-312140J-445714D01*
G01*
%TO.N,P21*%
X84386770Y61427597D02*
G75*
G03*
X84771545Y61268258I384730J384803D01*
G01*
X28229151Y67016124D02*
G75*
G02*
X28069784Y66631338I-544151J-24D01*
G01*
X5875255Y55421239D02*
G75*
G03*
X6288862Y55305959I370245J528761D01*
G01*
X31611041Y70131348D02*
G75*
G03*
X31226267Y70290711I-384741J-384748D01*
G01*
X93014792Y61427596D02*
G75*
G03*
X93399569Y61268202I384808J384804D01*
G01*
X68411041Y69150108D02*
G75*
G03*
X68251634Y68765333I384759J-384808D01*
G01*
X59327006Y67355530D02*
G75*
G03*
X59404552Y67168273I264794J-30D01*
G01*
X51611039Y80131351D02*
G75*
G03*
X51226265Y80290712I-384739J-384751D01*
G01*
X21533463Y66703024D02*
G75*
G03*
X21401654Y66384826I318237J-318224D01*
G01*
X92592279Y64050111D02*
G75*
G02*
X92751682Y63665336I-384779J-384811D01*
G01*
X6883934Y24969320D02*
G75*
G03*
X7290532Y24879219I312066J445780D01*
G01*
X72592282Y69150106D02*
G75*
G02*
X72751681Y68765331I-384782J-384806D01*
G01*
X56163428Y76108837D02*
G75*
G03*
X55778654Y76268194I-384728J-384737D01*
G01*
X29677060Y70290726D02*
G75*
G03*
X29292310Y70131321I40J-544126D01*
G01*
X33114792Y66427597D02*
G75*
G03*
X33499567Y66268203I384808J384803D01*
G01*
X41358710Y66268218D02*
G75*
G03*
X41743485Y66427596I-10J544182D01*
G01*
X21665264Y66834821D02*
X21665270Y66834828D01*
X21665268Y66834825D02*
X21665264Y66834821D01*
X21665270Y66834828D02*
X21665268Y66834825D01*
X6757218Y55362529D02*
G75*
G02*
X6294566Y55306338I-754318J4277971D01*
G01*
X21665266Y66834823D02*
X21665270Y66834828D01*
X21665268Y66834825D02*
X21665266Y66834823D01*
X21665270Y66834828D02*
X21665268Y66834825D01*
X59404565Y67168286D02*
G75*
G03*
X59591807Y67090725I187235J187214D01*
G01*
X64386748Y66427594D02*
G75*
G03*
X64771522Y66268240I384752J384806D01*
G01*
X49727059Y80290727D02*
G75*
G03*
X49342310Y80131321I41J-544127D01*
G01*
X32592282Y69150108D02*
G75*
G02*
X32751682Y68765333I-384782J-384808D01*
G01*
X44386780Y76427595D02*
G75*
G03*
X44771554Y76268193I384820J384805D01*
G01*
X23754140Y66834837D02*
G75*
G02*
X24138891Y66675434I-40J-544137D01*
G01*
X41943148Y76834840D02*
G75*
G03*
X41624913Y76703065I-48J-450040D01*
G01*
X115943036Y57824838D02*
G75*
G02*
X116327792Y57665435I-36J-544138D01*
G01*
X73214793Y66427594D02*
G75*
G03*
X73599568Y66268201I384807J384806D01*
G01*
X115793226Y57824841D02*
G75*
G03*
X115408443Y57665475I-26J-544141D01*
G01*
X24386775Y66427597D02*
G75*
G03*
X24771550Y66268262I384725J384803D01*
G01*
X3758258Y42695869D02*
G75*
G03*
X4164867Y42605704I312142J445731D01*
G01*
X69777059Y70290730D02*
G75*
G03*
X69392310Y70131327I41J-544130D01*
G01*
X89677057Y65290728D02*
G75*
G03*
X89292308Y65131322I43J-544128D01*
G01*
X27866018Y66427597D02*
G75*
G02*
X27481242Y66268196I-384818J384803D01*
G01*
X84073748Y61740620D02*
G75*
G03*
X83688973Y61899967I-384748J-384820D01*
G01*
X71226266Y70290729D02*
G75*
G02*
X71611053Y70131362I34J-544129D01*
G01*
X21401661Y65850077D02*
G75*
G02*
X21242272Y65465313I-544161J23D01*
G01*
X632598Y60422392D02*
G75*
G03*
X1039203Y60332250I312112J445738D01*
G01*
X98837503Y58434206D02*
G75*
G03*
X99222278Y58274817I384797J384794D01*
G01*
X108269198Y58115450D02*
G75*
G03*
X107884422Y58274853I-384798J-384750D01*
G01*
X77517139Y66108839D02*
G75*
G03*
X77132365Y66268203I-384739J-384739D01*
G01*
X59167622Y73104640D02*
G75*
G02*
X59326963Y72719865I-384822J-384740D01*
G01*
X88251662Y61916127D02*
G75*
G02*
X88092297Y61531336I-544162J-27D01*
G01*
X68251661Y67116125D02*
G75*
G02*
X68092296Y66731336I-544161J-25D01*
G01*
X28388530Y69227596D02*
G75*
G03*
X28229135Y68842822I384770J-384796D01*
G01*
X42188930Y67098442D02*
G75*
G02*
X42029567Y66713651I-544130J-42D01*
G01*
X41624942Y76703036D02*
G75*
G03*
X41493101Y76384831I318158J-318236D01*
G01*
X91511042Y65131349D02*
G75*
G03*
X91126268Y65290712I-384742J-384749D01*
G01*
X88411040Y64250106D02*
G75*
G03*
X88251635Y63865331I384760J-384806D01*
G01*
X63882995Y66931348D02*
G75*
G03*
X63498221Y67090749I-384795J-384748D01*
G01*
X41493134Y74873838D02*
G75*
G03*
X41652491Y74489042I544166J-38D01*
G01*
X114837429Y57319826D02*
G75*
G03*
X115222193Y57479214I-29J544174D01*
G01*
X47888530Y76427595D02*
G75*
G02*
X47503754Y76268257I-384730J384805D01*
G01*
X108991526Y57393118D02*
G75*
G02*
X109068119Y57208179I-184926J-184918D01*
G01*
X92751660Y61916121D02*
G75*
G03*
X92911031Y61531339I544140J-21D01*
G01*
X87988532Y61427598D02*
G75*
G02*
X87603758Y61268257I-384732J384802D01*
G01*
X21665270Y66834828D02*
X21665273Y66834830D01*
X21665276Y66834832D01*
X21665279Y66834834D01*
X21665282Y66834836D01*
X21665285Y66834838D01*
X21665286Y66834838D01*
X53014795Y76427595D02*
G75*
G03*
X53399570Y76268204I384805J384805D01*
G01*
X48311040Y79100107D02*
G75*
G03*
X48151634Y78715333I384760J-384807D01*
G01*
X5559194Y55837117D02*
G75*
G03*
X5782960Y55485853I535906J94483D01*
G01*
X67788530Y66427600D02*
G75*
G02*
X67403754Y66268260I-384730J384800D01*
G01*
X43754144Y76834838D02*
G75*
G02*
X44138894Y76675434I-44J-544138D01*
G01*
X72751662Y67116121D02*
G75*
G03*
X72911034Y66731338I544138J-21D01*
G01*
X42029551Y74112025D02*
G75*
G02*
X42188972Y73727250I-384751J-384825D01*
G01*
X96162869Y61108840D02*
G75*
G03*
X95778094Y61268225I-384769J-384740D01*
G01*
X32751663Y67016124D02*
G75*
G03*
X32911034Y66631340I544137J-24D01*
G01*
X116769799Y57223468D02*
G75*
G03*
X117068284Y57099805I298501J298432D01*
G01*
X48151663Y76916123D02*
G75*
G02*
X47992298Y76531335I-544163J-23D01*
G01*
X81566600Y62059379D02*
G75*
G03*
X81951375Y61899966I384800J384721D01*
G01*
X52592283Y79150108D02*
G75*
G02*
X52751683Y78765333I-384783J-384808D01*
G01*
X52751662Y76916124D02*
G75*
G03*
X52911033Y76531340I544138J-24D01*
G01*
X12239487Y56462515D02*
G75*
G02*
X11852220Y56260927I-513287J513285D01*
G01*
X108357449Y58027199D02*
X108688819Y57695829D01*
%TO.N,outer_up*%
X-24094300Y51611450D02*
G75*
G03*
X-24184441Y51204845I445745J-312112D01*
G01*
X-12962311Y56432305D02*
G75*
G03*
X-13368916Y56522448I-312114J-445742D01*
G01*
X-21459997Y55095763D02*
G75*
G03*
X-21811250Y54871990I94491J-535885D01*
G01*
%TO.N,outer_home*%
X-18715613Y37301991D02*
G75*
G03*
X-19066866Y37078218I94491J-535885D01*
G01*
X-21035866Y34266191D02*
G75*
G03*
X-21126008Y33859586I445751J-312115D01*
G01*
X-9836641Y38705767D02*
G75*
G03*
X-10243246Y38795910I-312114J-445742D01*
G01*
%TO.N,outer_down*%
X-15392969Y19610180D02*
G75*
G03*
X-15744223Y19386407I94493J-535890D01*
G01*
X-6710964Y20979215D02*
G75*
G03*
X-7117569Y21069357I-312114J-445749D01*
G01*
X-17875467Y16342697D02*
G75*
G03*
X-17965610Y15936092I445745J-312115D01*
G01*
%TO.N,P20*%
X12457362Y56043988D02*
G75*
G02*
X12070101Y55842368I-513362J513312D01*
G01*
X42009357Y65977598D02*
G75*
G02*
X41624583Y65818240I-384757J384802D01*
G01*
X-5083321Y53493284D02*
G75*
G03*
X-5169374Y53438461I23151J-131287D01*
G01*
X42688927Y66882567D02*
G75*
G02*
X42529526Y66497815I-544127J33D01*
G01*
X-8475296Y47405932D02*
G75*
G02*
X-8826549Y47182159I-445744J312112D01*
G01*
X58717614Y72918252D02*
G75*
G02*
X58876965Y72533476I-384814J-384752D01*
G01*
X59354015Y66582439D02*
G75*
G03*
X59738791Y66423049I384785J384761D01*
G01*
X-18195326Y52025404D02*
G75*
G03*
X-17788721Y51935260I312115J445738D01*
G01*
X22051662Y66384829D02*
G75*
G03*
X21851671Y66184828I38J-200029D01*
G01*
X83793128Y61018215D02*
G75*
G03*
X83993128Y60818228I199972J-15D01*
G01*
X43793142Y76184840D02*
G75*
G03*
X43593147Y76384842I-200042J-40D01*
G01*
X43793140Y76018216D02*
G75*
G03*
X43993135Y75818240I199960J-16D01*
G01*
X-15069645Y34298860D02*
G75*
G03*
X-14663040Y34208718I312112J445739D01*
G01*
X-5169374Y53438461D02*
G75*
G03*
X-5191456Y53338844I109228J-76468D01*
G01*
X83774015Y61403946D02*
G75*
G03*
X83727874Y61423038I-46115J-46146D01*
G01*
X63774027Y66403944D02*
G75*
G02*
X63793145Y66357804I-46127J-46144D01*
G01*
X21851663Y65663682D02*
G75*
G02*
X21692277Y65278914I-544163J18D01*
G01*
X100741103Y55894213D02*
G75*
G03*
X101125878Y55734822I384797J384787D01*
G01*
X115793226Y55284837D02*
G75*
G03*
X115408439Y55125465I-26J-544137D01*
G01*
X42488921Y74834831D02*
G75*
G02*
X42688931Y74634830I-21J-200031D01*
G01*
X23793135Y66018216D02*
G75*
G03*
X23993131Y65818235I199965J-16D01*
G01*
X-12446284Y46705739D02*
G75*
G03*
X-12039679Y46615597I312112J445739D01*
G01*
X-11943979Y16572320D02*
G75*
G03*
X-11537374Y16482178I312112J445739D01*
G01*
X55977029Y75658840D02*
G75*
G03*
X55592255Y75818197I-384729J-384740D01*
G01*
X114837432Y54779834D02*
G75*
G03*
X115222193Y54939226I-32J544166D01*
G01*
X63793138Y66018216D02*
G75*
G03*
X63993135Y65818238I199962J-16D01*
G01*
X83774015Y61403946D02*
G75*
G02*
X83793138Y61357809I-46115J-46146D01*
G01*
X116327814Y55125466D02*
G75*
G03*
X115943040Y55284805I-384714J-384766D01*
G01*
X-3424394Y53746146D02*
G75*
G02*
X-3369571Y53660091I-76459J-109200D01*
G01*
X23793138Y66184842D02*
G75*
G03*
X23593143Y66384838I-200038J-42D01*
G01*
X77267143Y65658841D02*
G75*
G03*
X76882369Y65818207I-384743J-384741D01*
G01*
X81343559Y61582426D02*
G75*
G03*
X81728333Y61423071I384741J384774D01*
G01*
X-13275977Y47481260D02*
G75*
G03*
X-13052204Y47130007I535885J94491D01*
G01*
X42143132Y76384835D02*
G75*
G03*
X41943065Y76184835I-32J-200035D01*
G01*
X-5055500Y52567772D02*
G75*
G02*
X-5145643Y52161166I-535886J-94491D01*
G01*
X41943133Y75034837D02*
G75*
G03*
X42143132Y74834833I199967J-37D01*
G01*
X-3424394Y53746146D02*
G75*
G03*
X-3524009Y53768230I-76466J-109208D01*
G01*
X108991520Y54853135D02*
G75*
G02*
X109068098Y54668174I-185020J-184935D01*
G01*
X116769808Y54683471D02*
G75*
G03*
X117068284Y54559842I298492J298529D01*
G01*
X63727882Y66423054D02*
G75*
G02*
X63774033Y66403950I18J-65254D01*
G01*
X58877003Y67284847D02*
G75*
G03*
X59036371Y66900060I544097J-47D01*
G01*
X-3311933Y53333208D02*
G75*
G03*
X-3080242Y53170976I196961J34729D01*
G01*
X95976476Y60658840D02*
G75*
G03*
X95591701Y60818230I-384776J-384740D01*
G01*
X107884428Y55734831D02*
G75*
G02*
X108269184Y55575433I-28J-544131D01*
G01*
X59738791Y66423060D02*
X63727882Y66423054D01*
X58876993Y72533476D02*
X58877003Y67284847D01*
X-12446284Y46705739D02*
X-13052204Y47130007D01*
X-14173725Y52572671D02*
X-13275977Y47481260D01*
X42488921Y74834831D02*
X42143132Y74834835D01*
X114837432Y54779834D02*
X109288127Y54779840D01*
X101125878Y55734834D02*
X107884428Y55734831D01*
X-5083321Y53493284D02*
X-3524009Y53768230D01*
X12457362Y56043988D02*
X21692283Y65278908D01*
X115408450Y55125454D02*
X115222207Y54939212D01*
X-8475296Y47405932D02*
X-5145643Y52161166D01*
X-5191456Y53338844D02*
X-5055500Y52567772D01*
X-14663040Y34208718D02*
X-11048058Y34846136D01*
X-8826549Y47182159D02*
X-12039679Y46615597D01*
X59354015Y66582439D02*
X59036383Y66900072D01*
X100741103Y55894213D02*
X95976476Y60658840D01*
X63993135Y65818217D02*
X76882369Y65818220D01*
X116327814Y55125466D02*
X116769808Y54683471D01*
X83727874Y61423054D02*
X81728333Y61423048D01*
X43993135Y75818218D02*
X55592255Y75818219D01*
X63793141Y66357804D02*
X63793138Y66018216D01*
X43793142Y76184840D02*
X43793140Y76018216D01*
X83993128Y60818216D02*
X95591701Y60818218D01*
X108991520Y54853135D02*
X108269203Y55575452D01*
X-18195326Y52025404D02*
X-20182790Y53417046D01*
X77267143Y65658841D02*
X81343559Y61582426D01*
X109068135Y54668174D02*
X109068137Y54559826D01*
X-15069645Y34298860D02*
X-17057128Y35690509D01*
X41943133Y76184835D02*
X41943133Y75034837D01*
X-11537374Y16482178D02*
X-7922380Y17119602D01*
X58717614Y72918252D02*
X55977029Y75658840D01*
X12070097Y55842391D02*
X-3080242Y53170976D01*
X21851663Y66184828D02*
X21851663Y65663682D01*
X41624583Y65818218D02*
X23993131Y65818218D01*
X-11943979Y16572320D02*
X-13931452Y17963963D01*
X22051662Y66384829D02*
X23593143Y66384839D01*
X42009357Y65977598D02*
X42529549Y66497792D01*
X42688927Y66882567D02*
X42688921Y74634830D01*
X83793128Y61018215D02*
X83793128Y61357809D01*
X43593147Y76384838D02*
X42143132Y76384835D01*
X-3369571Y53660091D02*
X-3311933Y53333208D01*
X117068284Y54559835D02*
X117243127Y54559832D01*
X-17788721Y51935260D02*
X-14173725Y52572671D01*
X23793135Y66018216D02*
X23793138Y66184842D01*
X115793226Y55284837D02*
X115943040Y55284840D01*
%TO.N,outer_down*%
X-17305149Y12190411D02*
X-17965610Y15936092D01*
X-15744223Y19386407D02*
X-17875467Y16342697D01*
X-6710964Y20979215D02*
X-2174889Y17803024D01*
X-15392969Y19610180D02*
X-7117569Y21069357D01*
%TO.N,outer_home*%
X-19066866Y37078218D02*
X-21035866Y34266191D01*
X-9836641Y38705767D02*
X-5300568Y35529559D01*
X-18715613Y37301991D02*
X-10243246Y38795910D01*
X-20430817Y29916946D02*
X-21126008Y33859586D01*
%TO.N,outer_up*%
X-24094300Y51611450D02*
X-21811250Y54871990D01*
X-24184441Y51204845D02*
X-23556471Y47643502D01*
X-13368916Y56522448D02*
X-21459997Y55095763D01*
X-12962311Y56432305D02*
X-8426236Y53256099D01*
%TO.N,P21*%
X92592279Y64050111D02*
X91511042Y65131349D01*
X44386780Y76427595D02*
X44138918Y76675458D01*
X21533463Y66703024D02*
X21665264Y66834821D01*
X117068284Y57099835D02*
X117243132Y57099838D01*
X114837429Y57319826D02*
X109288128Y57319847D01*
X73214793Y66427594D02*
X72911042Y66731346D01*
X5559194Y55837117D02*
X4654179Y60969680D01*
X31226267Y70290727D02*
X29677060Y70290726D01*
X83688973Y61900000D02*
X81951375Y61900000D01*
X116327812Y57665455D02*
X116769799Y57223468D01*
X88251662Y61916127D02*
X88251662Y63865331D01*
X24771550Y66268219D02*
X27481242Y66268219D01*
X68411041Y69150108D02*
X69392285Y70131352D01*
X84771545Y61268219D02*
X87603758Y61268219D01*
X99222278Y58274828D02*
X107884422Y58274828D01*
X49342283Y80131348D02*
X48311040Y79100107D01*
X88092283Y61531350D02*
X87988532Y61427598D01*
X29292284Y70131347D02*
X28388530Y69227596D01*
X42188930Y67098442D02*
X42188930Y73727250D01*
X41493136Y76384831D02*
X41493134Y74873838D01*
X55778654Y76268217D02*
X53399570Y76268217D01*
X69777059Y70290730D02*
X71226266Y70290729D01*
X52751662Y78765333D02*
X52751662Y76916124D01*
X109068133Y57208179D02*
X109068136Y57099844D01*
X108688819Y57695829D02*
X108991526Y57393118D01*
X3758258Y42695869D02*
X1770800Y44087506D01*
X89677057Y65290728D02*
X91126268Y65290728D01*
X6757218Y55362529D02*
X11852222Y56260918D01*
X44771554Y76268216D02*
X47503754Y76268216D01*
X51226265Y80290730D02*
X49727059Y80290727D01*
X28069772Y66631350D02*
X27866018Y66427597D01*
X24138914Y66675457D02*
X24386775Y66427597D01*
X4164863Y42605727D02*
X7779857Y43243146D01*
X93014792Y61427596D02*
X92911040Y61531348D01*
X56163428Y76108837D02*
X59167622Y73104640D01*
X64386748Y66427594D02*
X63882995Y66931348D01*
X84386770Y61427597D02*
X84073748Y61740620D01*
X632598Y60422392D02*
X-1354876Y61814041D01*
X59327006Y67355530D02*
X59327001Y72719865D01*
X72751662Y68765331D02*
X72751662Y67116121D01*
X21401658Y66384826D02*
X21401661Y65850077D01*
X1039203Y60332251D02*
X4654179Y60969680D01*
X64771522Y66268216D02*
X67403754Y66268221D01*
X23754140Y66834837D02*
X21665286Y66834838D01*
X47888530Y76427595D02*
X47992284Y76531349D01*
X28229151Y67016124D02*
X28229151Y68842822D01*
X31611041Y70131348D02*
X32592282Y69150108D01*
X41743484Y66427597D02*
X42029552Y66713666D01*
X5875255Y55421239D02*
X5782966Y55485862D01*
X33499567Y66268218D02*
X41358710Y66268218D01*
X72592282Y69150106D02*
X71611040Y70131349D01*
X53014795Y76427595D02*
X52911042Y76531349D01*
X51611039Y80131351D02*
X52592283Y79150108D01*
X33114792Y66427597D02*
X32911042Y66631348D01*
X73599568Y66268216D02*
X77132365Y66268218D01*
X41943148Y76834840D02*
X43754144Y76834838D01*
X115408454Y57665464D02*
X115222201Y57479206D01*
X115943036Y57824838D02*
X115793226Y57824841D01*
X32751661Y68765333D02*
X32751663Y67016124D01*
X6288862Y55305953D02*
X6294566Y55306337D01*
X59591807Y67090727D02*
X63498221Y67090727D01*
X108357449Y58027199D02*
X108269198Y58115450D01*
X68092281Y66731351D02*
X67788530Y66427600D01*
X48151661Y78715333D02*
X48151663Y76916123D01*
X21242282Y65465303D02*
X12239487Y56462515D01*
X77517139Y66108839D02*
X81566600Y62059379D01*
X93399569Y61268219D02*
X95778094Y61268219D01*
X6883934Y24969320D02*
X4896462Y26360971D01*
X92751659Y63665336D02*
X92751660Y61916121D01*
X98837503Y58434206D02*
X96162869Y61108840D01*
X89292282Y65131348D02*
X88411040Y64250106D01*
X7290539Y24879178D02*
X10905531Y25516606D01*
X68251661Y68765333D02*
X68251661Y67116125D01*
X41652512Y74489063D02*
X42029551Y74112025D01*
%TO.N,pinky_down*%
X3267999Y27815905D02*
X984951Y24555380D01*
X12116940Y29376214D02*
X16653020Y26200022D01*
X3619252Y28039678D02*
X11710335Y29466356D01*
X894809Y24148775D02*
X1522768Y20587418D01*
%TO.N,pinky_home*%
X8584664Y47192908D02*
X493588Y45766233D01*
X142335Y45542460D02*
X-2140713Y42281918D01*
X-1602892Y38313948D02*
X-2230855Y41875313D01*
X8991269Y47102766D02*
X13527340Y43926575D01*
%TO.N,pinky_up*%
X-5371661Y59687691D02*
X-4728558Y56040491D01*
X5865613Y64829294D02*
X10401684Y61653093D01*
X-3069174Y63253845D02*
X-5281519Y60094296D01*
X5459008Y64919437D02*
X-2717920Y63477618D01*
%TO.N,P18*%
X97231546Y42977598D02*
X102967619Y48713674D01*
X28908749Y72294221D02*
X27193123Y74009843D01*
X44067857Y57977597D02*
X43804835Y58240620D01*
X107884431Y50654826D02*
X104134178Y50654833D01*
X114837442Y49699834D02*
X109288130Y49699832D01*
X29293543Y36134837D02*
X32988776Y36134833D01*
X117068289Y49479839D02*
X117243134Y49479841D01*
X29070540Y54132432D02*
X27193129Y56009830D01*
X109068140Y49588178D02*
X109068134Y49479830D01*
X58717613Y54917697D02*
X55976471Y57658839D01*
X33026996Y53973053D02*
X29455316Y53973053D01*
X80054012Y43582436D02*
X75977609Y47658839D01*
X28908767Y36294216D02*
X27193129Y38009836D01*
X33026995Y48743851D02*
X33026996Y53973053D01*
X37696758Y47918219D02*
X33852632Y47918219D01*
X33186374Y48359077D02*
X33467856Y48077598D01*
X59280534Y48423058D02*
X63727892Y48423052D01*
X103127000Y49647663D02*
X103126998Y49098450D01*
X29293525Y72134842D02*
X32988776Y72134841D01*
X115222214Y49859216D02*
X115408449Y50045456D01*
X83793128Y43357805D02*
X83793128Y43018219D01*
X58877001Y48826595D02*
X58876993Y54532922D01*
X44452632Y57818218D02*
X55591696Y57818218D01*
X83993127Y42818219D02*
X96846772Y42818219D01*
X38081533Y48077597D02*
X41717613Y51713671D01*
X41876993Y52098445D02*
X41876996Y58261219D01*
X63793132Y48357804D02*
X63793132Y48018217D01*
X115943047Y50204838D02*
X115793221Y50204838D01*
X75592834Y47818218D02*
X63993132Y47818218D01*
X108991532Y49773140D02*
X108269208Y50495448D01*
X83727892Y43423055D02*
X80438787Y43423057D01*
X116769811Y49603470D02*
X116327821Y50045460D01*
X103749402Y50495455D02*
X103286380Y50032437D01*
X42015777Y58400000D02*
X43420060Y58400000D01*
%TO.N,ring_down*%
X34442733Y39884837D02*
X26226836Y39884840D01*
X25842062Y39725461D02*
X23027526Y36910907D01*
X22868126Y32909838D02*
X22868146Y36526131D01*
X34827508Y39725458D02*
X38743135Y35809832D01*
%TO.N,ring_home*%
X34827519Y57725457D02*
X38743127Y53809832D01*
X25679395Y57725458D02*
X23027514Y55073578D01*
X26064170Y57884837D02*
X34442745Y57884837D01*
X22868123Y50909838D02*
X22868134Y54688803D01*
%TO.N,ring_up*%
X22868133Y72526135D02*
X22868140Y68909837D01*
X34442738Y75884828D02*
X26226830Y75884834D01*
X34827514Y75725449D02*
X38743143Y71809836D01*
X23027511Y72910910D02*
X25842056Y75725455D01*
%TO.N,P19*%
X91201838Y47318218D02*
X89752630Y47318216D01*
X80598241Y43900000D02*
X83688913Y43900000D01*
X87836617Y43427596D02*
X88067860Y43658839D01*
X49293530Y46134839D02*
X52988780Y46134850D01*
X80213466Y44059378D02*
X76164005Y48108840D01*
X73302631Y48268219D02*
X75779230Y48268219D01*
X96660364Y43268219D02*
X93502633Y43268219D01*
X72727236Y50792822D02*
X72727236Y48843612D01*
X52988776Y82134828D02*
X49293529Y82134837D01*
X53148151Y61123559D02*
X59167619Y55104092D01*
X117068290Y52019823D02*
X117243140Y52019824D01*
X92886617Y43658841D02*
X93117859Y43427599D01*
X87451842Y43268218D02*
X84771484Y43268219D01*
X48908760Y64294211D02*
X47193137Y66009845D01*
X116769805Y52143461D02*
X116327823Y52585459D01*
X69752629Y52318216D02*
X71201841Y52318219D01*
X88227234Y45792822D02*
X88227239Y44043613D01*
X64000674Y48813668D02*
X64386744Y48427596D01*
X52988772Y61508333D02*
X52988773Y64134833D01*
X102626989Y50673054D02*
X102626994Y49234845D01*
X49293534Y64134832D02*
X52988773Y64134833D01*
X115408450Y52585460D02*
X115222206Y52399211D01*
X88386613Y46177596D02*
X89367854Y47158837D01*
X59326997Y52000621D02*
X59326998Y54719318D01*
X84386709Y43427598D02*
X84073688Y43740620D01*
X48908755Y82294217D02*
X47193138Y84009846D01*
X68067855Y48458838D02*
X68036615Y48427597D01*
X68386614Y51177598D02*
X69367853Y52158837D01*
X92727231Y45792823D02*
X92727238Y44043617D01*
X92567851Y46177599D02*
X91586612Y47158839D01*
X61969800Y49132428D02*
X59486376Y51615847D01*
X48908756Y46294218D02*
X47193145Y48009835D01*
X68227233Y48843615D02*
X68227234Y50792823D01*
X64771518Y48268217D02*
X67651842Y48268217D01*
X115793222Y52744841D02*
X115943051Y52744841D01*
X97045139Y43427597D02*
X102467615Y48850071D01*
X114837434Y52239831D02*
X109288132Y52239843D01*
X72917855Y48427597D02*
X72886615Y48458838D01*
X72567857Y51177597D02*
X71586615Y52158840D01*
X62354576Y48973049D02*
X63615900Y48973048D01*
%TO.N,middle_down*%
X43027510Y46910907D02*
X45842063Y49725460D01*
X54827516Y49725452D02*
X58743132Y45809829D01*
X46226837Y49884839D02*
X54442742Y49884832D01*
X42868132Y46526133D02*
X42868138Y42909839D01*
%TO.N,middle_home*%
X54827520Y67725452D02*
X58743140Y63809836D01*
X42868127Y64588792D02*
X42868139Y60909834D01*
X45779403Y67725456D02*
X43027506Y64973566D01*
X46164178Y67884834D02*
X54442745Y67884831D01*
%TO.N,middle_up*%
X45842067Y85725456D02*
X43027509Y82910901D01*
X46226842Y85884835D02*
X54442735Y85884844D01*
X54827509Y85725465D02*
X58743129Y81809825D01*
X42868130Y82526127D02*
X42868135Y78909840D01*
%TO.N,P15*%
X69293526Y72134836D02*
X72988772Y72134837D01*
X117068286Y46939836D02*
X117243132Y46939839D01*
X114837435Y47159838D02*
X109288135Y47159845D01*
X116769807Y47063469D02*
X116327826Y47505462D01*
X72988787Y54134828D02*
X72988785Y53862922D01*
X101258073Y53408220D02*
X86113826Y53408220D01*
X68908756Y36294222D02*
X67193136Y38009830D01*
X72988777Y36134837D02*
X69293532Y36134843D01*
X68908762Y54294211D02*
X67193129Y56009840D01*
X74916876Y51934835D02*
X84189646Y51934835D01*
X115793217Y47664845D02*
X115943053Y47664844D01*
X68908752Y72294215D02*
X67193145Y74009841D01*
X74532101Y52094213D02*
X73148163Y53478148D01*
X115408446Y47505465D02*
X115222206Y47319219D01*
X84574421Y52094214D02*
X85729051Y53248841D01*
X72988787Y54134828D02*
X69293538Y54134832D01*
X101287896Y53395868D02*
X101300250Y53383516D01*
%TO.N,index_down*%
X74827517Y39725459D02*
X78743138Y35809833D01*
X74442743Y39884838D02*
X66064170Y39884837D01*
X62868142Y36688795D02*
X62868116Y32909836D01*
X63027522Y37073571D02*
X65679396Y39725457D01*
%TO.N,index_home*%
X74827500Y57725465D02*
X78743138Y53809834D01*
X74442725Y57884843D02*
X65764168Y57884842D01*
X63027507Y55373567D02*
X65379394Y57725462D01*
X62868129Y54988792D02*
X62868141Y50909843D01*
%TO.N,index_up*%
X63027516Y72910916D02*
X65842078Y75725471D01*
X74442744Y75884836D02*
X66226853Y75884849D01*
X62868137Y72526142D02*
X62868140Y68909839D01*
X74827519Y75725457D02*
X78743136Y71809842D01*
%TO.N,P14*%
X115943041Y45124836D02*
X115793221Y45124839D01*
X117068285Y44399837D02*
X117243137Y44399839D01*
X97267234Y9696013D02*
X96044852Y11813247D01*
X89293532Y49134832D02*
X92988772Y49134843D01*
X115222202Y44779214D02*
X115408448Y44965464D01*
X88908754Y31294212D02*
X87193126Y33009840D01*
X92988779Y31134846D02*
X89293529Y31134834D01*
X114837429Y44619834D02*
X109288136Y44619837D01*
X88908758Y49294211D02*
X87193145Y51009829D01*
X89293536Y67134834D02*
X92988778Y67134831D01*
X88908760Y67294213D02*
X87193135Y69009828D01*
X116327816Y44965453D02*
X116769794Y44523475D01*
X101212468Y8473893D02*
X97597647Y9442478D01*
%TO.N,inner_down*%
X86164174Y34884837D02*
X94442728Y34884833D01*
X85779400Y34725458D02*
X83027517Y31973575D01*
X94827503Y34725454D02*
X98743137Y30809828D01*
X82868137Y27909835D02*
X82868138Y31588800D01*
%TO.N,inner_home*%
X86226834Y52884833D02*
X94442744Y52884834D01*
X83027509Y49910908D02*
X85842059Y52725454D01*
X82868130Y49526134D02*
X82868143Y45909823D01*
X94827518Y52725455D02*
X98743130Y48809833D01*
%TO.N,inner_up*%
X83027512Y68073561D02*
X85679405Y70725443D01*
X86064181Y70884822D02*
X94442740Y70884834D01*
X94827515Y70725456D02*
X98743142Y66809831D01*
X82868132Y67688787D02*
X82868127Y63909834D01*
%TO.N,home_home*%
X103863132Y11494487D02*
X106631899Y6698850D01*
X91483211Y11499487D02*
X90547240Y8006409D01*
X103532718Y11748022D02*
X95596771Y13874459D01*
X91736746Y11829901D02*
X95183857Y13820097D01*
%TO.N,P16*%
X112217045Y-4975242D02*
X114081320Y-2312769D01*
X90398962Y5433487D02*
X88723533Y5882417D01*
X97590856Y7597596D02*
X98894089Y7248393D01*
X126474383Y-3887767D02*
X123418803Y-1748222D01*
X115793229Y42584834D02*
X115943047Y42584833D01*
X123215833Y-1411535D02*
X122794510Y977859D01*
X101500935Y43034840D02*
X101530089Y43034841D01*
X95976166Y6849396D02*
X97177942Y7543236D01*
X90851621Y5312197D02*
X94679483Y4286522D01*
X99949388Y2928050D02*
X100348795Y2821030D01*
X111865792Y-5199015D02*
X111695137Y-5229107D01*
X89084082Y14883261D02*
X86809717Y6395225D01*
X100043416Y5257700D02*
X99587255Y3555284D01*
X117002735Y-3962797D02*
X122052948Y-3072317D01*
X101451167Y43014224D02*
X101005356Y42568413D01*
X111288532Y-5138966D02*
X101138038Y1968481D01*
X116596130Y-3872655D02*
X114310633Y-2272339D01*
X115408454Y42425459D02*
X115222213Y42239219D01*
X95722631Y6518983D02*
X95205881Y4590435D01*
X114837437Y42079840D02*
X109288133Y42079838D01*
X100686598Y26485667D02*
X89095908Y14894976D01*
X116769799Y41983477D02*
X116327823Y42425451D01*
X99989054Y5670614D02*
X99224503Y6994857D01*
X100845977Y26870442D02*
X100845977Y42183639D01*
X123125692Y-1818140D02*
X122404201Y-2848544D01*
X117068286Y41859836D02*
X117243136Y41859832D01*
X100832606Y2301802D02*
X100679208Y2567495D01*
%TO.N,innermost_home*%
X129808504Y-1644432D02*
X123078425Y3068009D01*
X118751921Y2466971D02*
X122671820Y3158151D01*
X118400668Y2243198D02*
X116326448Y-719097D01*
X130032277Y-1995685D02*
X130993861Y-7449080D01*
%TO.N,P6*%
X108166465Y46816205D02*
X108608441Y46374208D01*
X43394579Y39918219D02*
X54718765Y39918220D01*
X35776122Y29818217D02*
X23223870Y29818216D01*
X109143040Y46214839D02*
X108993210Y46214834D01*
X22868137Y29609834D02*
X22972329Y29714025D01*
X42868140Y39609838D02*
X43022330Y39764028D01*
X107867981Y46939841D02*
X107693132Y46939836D01*
X2171989Y17446358D02*
X2095805Y17337552D01*
X62375011Y31325568D02*
X62375013Y30233589D01*
X107651901Y46781952D02*
X106604171Y45734213D01*
X101326963Y45574843D02*
X106219397Y45574834D01*
X903628Y17127342D02*
X2095805Y17337552D01*
X42229547Y36046250D02*
X36160896Y29977597D01*
X61943133Y32693852D02*
X61943136Y32208243D01*
X-16655913Y9049354D02*
X-16732105Y8940542D01*
X61783753Y33078628D02*
X55103540Y39758841D01*
X42868140Y39609838D02*
X42548311Y39290009D01*
X62215633Y31710345D02*
X62102515Y31823466D01*
X107693134Y46881513D02*
X107693127Y46939835D01*
X83365965Y24318218D02*
X95316841Y24318219D01*
X82241535Y24609829D02*
X82868127Y24609828D01*
X13413725Y23083904D02*
X10699186Y19207142D01*
X95701616Y24477598D02*
X100208743Y28984725D01*
X62690377Y29918218D02*
X76482364Y29918217D01*
X82868142Y24609838D02*
X83013951Y24464028D01*
X552375Y16903570D02*
X-3092492Y11698162D01*
X17861790Y24163371D02*
X22712532Y29014111D01*
X13764978Y23307677D02*
X17474525Y23961774D01*
X100368123Y29369499D02*
X100368140Y44616004D01*
X76867138Y29758837D02*
X81856761Y24769209D01*
X110088838Y46709831D02*
X115638145Y46709831D01*
X109704059Y46550455D02*
X109527820Y46374223D01*
X100942191Y45415463D02*
X100527518Y45000781D01*
X42388927Y36431025D02*
X42388932Y38905233D01*
X22868131Y29389776D02*
X22868125Y29609835D01*
X-16448904Y9181232D02*
X-3443745Y11474389D01*
X10347933Y18983369D02*
X2378981Y17578228D01*
%TO.N,P5*%
X63013935Y47464023D02*
X62868128Y47609828D01*
X110088824Y49249834D02*
X115638144Y49249843D01*
X108608445Y48914223D02*
X108166465Y49356195D01*
X-5209569Y29094834D02*
X-1029850Y35064089D01*
D44*
X22868134Y47609829D02*
X22868132Y45248718D01*
D43*
X55840084Y57158838D02*
X58267616Y54731307D01*
X-5560822Y28871061D02*
X-19278788Y26452214D01*
X108993222Y48754839D02*
X109143045Y48754836D01*
X75841197Y47158836D02*
X79867612Y43132427D01*
X-19676962Y26540486D02*
X-19857768Y26667087D01*
X59152380Y47973057D02*
X62279516Y47973062D01*
X58586373Y48313675D02*
X58767607Y48132437D01*
X103388786Y48273048D02*
X106890958Y48273048D01*
X107275732Y48432428D02*
X107533751Y48690450D01*
X107693130Y49304983D02*
X107693130Y49075226D01*
X22963940Y47514024D02*
X22868134Y47609831D01*
X42868132Y57609831D02*
X42486382Y57228076D01*
X103004011Y48113669D02*
X97367942Y42477600D01*
X42167610Y51527279D02*
X38217930Y47577597D01*
X75456422Y47318215D02*
X63365942Y47318218D01*
X22868126Y47609842D02*
X22346831Y47088527D01*
X-1029850Y35064089D02*
X-849045Y34937487D01*
X23195236Y47418218D02*
X37833156Y47418218D01*
X83365951Y42318218D02*
X96983167Y42318221D01*
X82279519Y42973064D02*
X80252387Y42973050D01*
X58426996Y48698453D02*
X58426996Y54346533D01*
X83013942Y42464023D02*
X82868135Y42609829D01*
X82868135Y42609829D02*
X82664289Y42813683D01*
X62868128Y47609828D02*
X62664286Y47813680D01*
D44*
X15669856Y37825045D02*
X22708752Y44863943D01*
D43*
X43013939Y57464024D02*
X42868132Y57609831D01*
X15282591Y37623448D02*
X-450870Y34849214D01*
X55455309Y57318217D02*
X43365949Y57318217D01*
X109704052Y49090452D02*
X109527817Y48914212D01*
X42326989Y51912055D02*
X42327003Y56843299D01*
%TO.N,P4*%
X107693139Y52424442D02*
X107693138Y52194689D01*
X43188927Y66746160D02*
X43188925Y75063636D01*
X22868137Y65609841D02*
X22816895Y65609836D01*
X55840643Y75158841D02*
X58267617Y72731865D01*
X12353883Y55384720D02*
X-3576559Y52575749D01*
X43029547Y75448413D02*
X42868127Y75609836D01*
X110088839Y51789833D02*
X115638131Y51789839D01*
X-8686503Y46597597D02*
X-22404444Y44178753D01*
X-4155529Y52790621D02*
X-8335250Y46821370D01*
D44*
X22816398Y65609841D02*
X22868120Y65609842D01*
D43*
X107533761Y52809215D02*
X107229301Y53113673D01*
X22868131Y65609839D02*
X23013941Y65464029D01*
X43013933Y75464028D02*
X42868127Y75609836D01*
X58426995Y72347090D02*
X58426991Y67098455D01*
X102951265Y53273057D02*
X106844525Y53273052D01*
X55455869Y75318220D02*
X43365942Y75318220D01*
X108993226Y51294840D02*
X109143042Y51294840D01*
X42145759Y65477595D02*
X43029549Y66361385D01*
X95840088Y60158838D02*
X102566490Y53432437D01*
X-4155529Y52790621D02*
X-3974727Y52664021D01*
X95455313Y60318217D02*
X83365959Y60318215D01*
X83013944Y60464026D02*
X82868135Y60609837D01*
X82279521Y60973052D02*
X81541925Y60973049D01*
D44*
X12741148Y55586317D02*
X22728103Y65573267D01*
D43*
X63013940Y65464027D02*
X62868131Y65609836D01*
X-22983426Y44393628D02*
X-22802620Y44267026D01*
X108608450Y51454220D02*
X108166461Y51896206D01*
X63365955Y65318218D02*
X76745963Y65318218D01*
X62664285Y65813675D02*
X62868131Y65609836D01*
X62279507Y65973051D02*
X59552384Y65973051D01*
X82664296Y60813674D02*
X82868135Y60609837D01*
X41760985Y65318216D02*
X23365957Y65318218D01*
X109704062Y51630455D02*
X109527819Y51454216D01*
X81157151Y61132427D02*
X77130738Y65158840D01*
X59167610Y66132430D02*
X58586369Y66713679D01*
%TO.N,P7*%
X107117511Y43194227D02*
X107533751Y43610467D01*
X99063783Y22941828D02*
X99063780Y22934333D01*
X107693131Y43995241D02*
X107693132Y44399845D01*
X101570976Y41693149D02*
X102753298Y42875467D01*
X100431816Y2022772D02*
X100490980Y1920296D01*
X88000701Y5684389D02*
X88169432Y5392138D01*
X103138074Y43034846D02*
X106732736Y43034848D01*
X109143047Y43674834D02*
X108993229Y43674834D01*
X114433638Y-3422302D02*
X113994063Y-3499818D01*
X100121734Y2260708D02*
X90128351Y4938423D01*
X111589710Y-5704636D02*
X112165897Y-5603044D01*
X99058478Y22921538D02*
X90060256Y13923314D01*
X108166459Y44276197D02*
X108608452Y43834212D01*
X89693149Y4818861D02*
X88499845Y5138603D01*
X111183104Y-5614493D02*
X100766611Y1679212D01*
X107867978Y44399837D02*
X107693132Y44399844D01*
X110088836Y44169838D02*
X115638136Y44169838D01*
X109527820Y43834213D02*
X109704063Y44010458D01*
X112670201Y-5112609D02*
X113642809Y-3723595D01*
X87946340Y6097304D02*
X90040215Y13911742D01*
X89693144Y4818863D02*
X89832841Y4899518D01*
%TO.N,VCC_LED*%
X104338024Y-2469570D02*
X119292468Y-12940785D01*
X35202815Y26519209D02*
X36006546Y27322937D01*
X11017360Y33888203D02*
X9678007Y33652040D01*
X60593135Y31649057D02*
X60593138Y32134669D01*
X542255Y11072603D02*
X-1610143Y10693077D01*
X93168136Y20569488D02*
X93168140Y21359834D01*
X16454378Y20776857D02*
X15397204Y19267064D01*
X54528132Y72359836D02*
X53168142Y72359833D01*
X-4684900Y7764670D02*
X-6024224Y7528499D01*
X118860007Y15309835D02*
X119233142Y15309835D01*
X33168132Y25645909D02*
X33168132Y26359832D01*
X-7810567Y25491202D02*
X-9149901Y25255034D01*
X60433761Y32519443D02*
X56752737Y36200468D01*
X73168127Y25645903D02*
X73168127Y26359833D01*
X78704367Y26359838D02*
X74528141Y26359841D01*
X117940034Y16004409D02*
X118475231Y15469213D01*
X12225598Y14195430D02*
X1835153Y12363313D01*
X37613780Y62359829D02*
X34528132Y62359839D01*
X61184386Y28068797D02*
X64362519Y24890664D01*
X54528132Y36359832D02*
X56367963Y36359845D01*
X34528132Y62359839D02*
X33168138Y62359840D01*
X893509Y11296376D02*
X1483900Y12139540D01*
X21676245Y24571905D02*
X18544964Y21440624D01*
X34528140Y44359828D02*
X33168138Y44359843D01*
X74528136Y44359844D02*
X73168135Y44359828D01*
X53008761Y35177000D02*
X52822426Y34990665D01*
X94528134Y57359843D02*
X93168132Y57359842D01*
X36325302Y28869215D02*
X42127993Y34671906D01*
X61025003Y30766385D02*
X61025006Y28453572D01*
X14032006Y34419767D02*
X14033259Y34421557D01*
X34528132Y26359839D02*
X34818040Y26359834D01*
X53168139Y35561774D02*
X53168137Y36359832D01*
X-4793396Y26026340D02*
X-7805890Y25495167D01*
X-7921571Y43749307D02*
X-10936228Y43217741D01*
X12931086Y15202972D02*
X12803683Y15925507D01*
X120490633Y-12729518D02*
X121006780Y-11992390D01*
X74528141Y26359841D02*
X73168122Y26359828D01*
X12576851Y14419203D02*
X12840944Y14796367D01*
X15218858Y16513206D02*
X15490666Y16901387D01*
X54528132Y36359832D02*
X53168143Y36359841D01*
X52437651Y34831285D02*
X42512768Y34831285D01*
X7891690Y51614743D02*
X6552355Y51378596D01*
X79089142Y26200458D02*
X85298936Y19990664D01*
X14032360Y34422966D02*
X11017360Y33888203D01*
X100114674Y-1338228D02*
X98801023Y-986233D01*
X104337072Y-2469603D02*
X100114674Y-1338228D01*
X60865625Y31151162D02*
X60752511Y31264280D01*
X94528137Y21359834D02*
X93168147Y21359833D01*
X54528132Y54359833D02*
X53168139Y54359831D01*
X74528133Y62359830D02*
X77613776Y62359834D01*
X119699073Y-13030927D02*
X120139379Y-12953291D01*
X94528135Y39359837D02*
X97613772Y39359830D01*
X34528140Y44359828D02*
X37613777Y44359840D01*
X94528134Y57359843D02*
X97613780Y57359833D01*
X36165925Y27707711D02*
X36165924Y28484441D01*
X72253507Y24731285D02*
X64747293Y24731285D01*
X-3960303Y7892428D02*
X-4684900Y7764670D01*
X33008752Y25261134D02*
X32638283Y24890665D01*
X34528132Y26359839D02*
X33168126Y26359841D01*
X94528135Y39359837D02*
X93168140Y39359837D01*
X10906337Y52146304D02*
X7891690Y51614743D01*
X92814708Y19990664D02*
X93008756Y20184712D01*
X-10936228Y43217741D02*
X-12275567Y42981575D01*
X92429933Y19831285D02*
X85683711Y19831285D01*
X-7810567Y25491202D02*
X-7809307Y25492994D01*
X54528132Y54359833D02*
X57613775Y54359844D01*
X72638282Y24890664D02*
X73008748Y25261129D01*
X77613773Y44359837D02*
X74528136Y44359844D01*
X32253508Y24731285D02*
X22061019Y24731285D01*
X14143015Y16161665D02*
X14867605Y16289432D01*
X16805632Y21000629D02*
X18157699Y21239028D01*
X122120825Y-12772443D02*
X121006776Y-11992385D01*
X-3609050Y8116199D02*
X-1961396Y10469304D01*
X74528133Y62359830D02*
X73168132Y62359836D01*
X57613779Y72359830D02*
X54528132Y72359836D01*
X14143015Y16161665D02*
X12803690Y15925508D01*
X15307062Y18860459D02*
X15580807Y17307992D01*
%TO.N,led_20*%
X-16926788Y25305374D02*
X-16660318Y23794176D01*
X-4051524Y9297937D02*
X-6267334Y8907240D01*
X-16437053Y23441886D02*
X-16316690Y23356757D01*
X-14438457Y22944956D02*
X-14558676Y23029135D01*
X-15910890Y23265788D02*
X-15317879Y23370355D01*
X-14986316Y23572863D02*
X-14467848Y24317330D01*
X-14031852Y22854814D02*
X-3741765Y24669236D01*
%TO.N,GND*%
X67294663Y45759841D02*
X67768134Y45759840D01*
X109524300Y37013675D02*
X109928141Y36609842D01*
X107867986Y59639832D02*
X107693140Y59639830D01*
X46574765Y37315735D02*
X46921122Y37627504D01*
X112943042Y12102123D02*
X112793220Y12102124D01*
X43257214Y38325465D02*
X42998310Y38066558D01*
X66899766Y63608273D02*
X66574753Y63315720D01*
X24528605Y28484836D02*
X26117742Y28484836D01*
X122719523Y10509082D02*
X122412470Y10816136D01*
X4232756Y16571992D02*
X5491400Y16793933D01*
X120268720Y4975509D02*
X121827705Y4975512D01*
X7495272Y17810817D02*
X7219284Y17416666D01*
X86502523Y23325453D02*
X86908756Y22919219D01*
X67294675Y27759827D02*
X67768129Y27759824D01*
X43641987Y38484843D02*
X46117740Y38484830D01*
X27294673Y63759839D02*
X27768142Y63759842D01*
X-11332626Y9413816D02*
X-11608620Y9019655D01*
X115793234Y65444837D02*
X115943036Y65444838D01*
X-12051567Y7887313D02*
X-11585302Y7969536D01*
X14000810Y19119755D02*
X7846525Y18034590D01*
X94130173Y2445955D02*
X93947351Y1763695D01*
X28375368Y29318219D02*
X35912522Y29318219D01*
X115469310Y-8115020D02*
X115802985Y-7638485D01*
X93490039Y1886232D02*
X93947359Y1763685D01*
X108263022Y11481793D02*
X110689466Y11481789D01*
X109068136Y64828183D02*
X109068137Y64719843D01*
X54582368Y39418219D02*
X48775377Y39418217D01*
X109139523Y37173057D02*
X108626996Y37173064D01*
X3018827Y33448488D02*
X3288095Y33793031D01*
X96178245Y15041165D02*
X95937622Y15281789D01*
X46899768Y55608281D02*
X46574750Y55315735D01*
X108991527Y65013132D02*
X108269203Y65735463D01*
X82281770Y23644209D02*
X76667141Y29258839D01*
X26921124Y27627498D02*
X26574756Y27315731D01*
X116998522Y-7476692D02*
X117386360Y-7748261D01*
X26502515Y28325455D02*
X26908759Y27919204D01*
X47294672Y73759830D02*
X47768143Y73759837D01*
X-10981373Y9637589D02*
X392369Y11643086D01*
X120098015Y10975505D02*
X122027695Y10975514D01*
X103673133Y64981149D02*
X103673136Y64458535D01*
X6045369Y15324534D02*
X6146388Y14751641D01*
X100538545Y1289553D02*
X113198932Y-7575343D01*
X26899760Y45608276D02*
X26574759Y45315728D01*
X27927517Y29095761D02*
X27990594Y29158839D01*
X46408135Y72941568D02*
X46408145Y72359831D01*
X-15539825Y25396033D02*
X-15809084Y25051491D01*
X92679709Y1643592D02*
X93069363Y1842054D01*
X47927528Y38795763D02*
X48390602Y39258837D01*
X116674049Y-6559000D02*
X116773815Y-7124785D01*
X108993223Y58914836D02*
X109143046Y58914835D01*
X-18302897Y43340398D02*
X-17836630Y43422616D01*
X82666544Y23484830D02*
X86117749Y23484832D01*
X24143831Y28325457D02*
X18093233Y22274855D01*
X108166466Y59516200D02*
X108608447Y59074219D01*
X86921123Y22627510D02*
X86574752Y22315732D01*
X46502515Y38325449D02*
X46908753Y37919212D01*
X109704064Y59250458D02*
X109527819Y59074211D01*
X119748140Y9859832D02*
X117868776Y9859828D01*
X47294668Y37759833D02*
X47768136Y37759833D01*
X-205963Y50777629D02*
X-104949Y50204713D01*
X14352063Y19343528D02*
X15930972Y21598446D01*
X117068291Y64719843D02*
X117243133Y64719844D01*
X115491152Y-5730717D02*
X115051589Y-5808222D01*
X67202520Y28325458D02*
X67768127Y27759836D01*
X3650685Y34010859D02*
X4116954Y34093074D01*
X94383712Y2776369D02*
X94784988Y3008045D01*
X110868142Y11377129D02*
X110896197Y11349067D01*
X67768129Y28533716D02*
X67768127Y27759836D01*
X86899759Y58608279D02*
X86574745Y58315731D01*
X122878903Y10124308D02*
X122878904Y6026709D01*
X5898003Y16703790D02*
X6368614Y16374258D01*
X46408142Y36941571D02*
X46408137Y36359831D01*
X116450276Y-6207745D02*
X115897756Y-5820862D01*
X86408135Y39941565D02*
X86408120Y39359841D01*
X6144486Y15721946D02*
X6431447Y16089127D01*
X112868138Y10501971D02*
X112868127Y5875830D01*
X68652630Y29418218D02*
X76282367Y29418218D01*
X99663360Y1865891D02*
X95197902Y3062407D01*
X104202055Y65735465D02*
X103832512Y65365923D01*
X67927509Y28918492D02*
X68267855Y29258838D01*
X-15177238Y25613858D02*
X-14710954Y25696064D01*
X86408140Y21359825D02*
X86408133Y21941569D01*
X61493131Y32507459D02*
X61493136Y32021850D01*
X104776827Y63354843D02*
X106409433Y63354841D01*
X110963932Y11321005D02*
X111561309Y11321010D01*
X108608454Y61614217D02*
X108166469Y62056199D01*
X27294666Y45759833D02*
X27768134Y45759831D01*
X61333749Y32892235D02*
X54967143Y39258841D01*
X17705968Y22073258D02*
X16282225Y21822218D01*
X122212481Y5134891D02*
X122719525Y5641935D01*
X-12683424Y7324959D02*
X-12414161Y7669483D01*
X116616630Y-7370833D02*
X116154086Y-7427558D01*
X-11698763Y8613050D02*
X-11585298Y7969538D01*
X66408138Y44359827D02*
X66408135Y44941566D01*
X47294678Y55759831D02*
X47768132Y55759824D01*
X66899758Y45608283D02*
X66574755Y45315731D01*
X86408130Y57359827D02*
X86408124Y57941570D01*
X525014Y51737401D02*
X991285Y51819611D01*
X104392051Y63514222D02*
X103832515Y64073759D01*
X87294670Y22759837D02*
X87768139Y22759832D01*
X46574755Y73315729D02*
X46899762Y73608272D01*
X-18665489Y43122569D02*
X-18934762Y42778028D01*
X108993230Y61454837D02*
X109143047Y61454836D01*
X112408445Y11942747D02*
X111946085Y11480390D01*
X104586830Y65894843D02*
X107884429Y65894843D01*
X115035524Y9859826D02*
X117868776Y9859828D01*
X113274609Y10758300D02*
X113433754Y10917450D01*
X27768138Y28710984D02*
X27768137Y27759835D01*
X46408127Y54941577D02*
X46408132Y54359840D01*
X27294673Y27759830D02*
X27768126Y27759842D01*
X26899765Y63608282D02*
X26574747Y63315725D01*
X42838938Y36244636D02*
X42838932Y37681783D01*
X6776340Y16284313D02*
X7242618Y16366532D01*
X7129143Y17010061D02*
X7242614Y16366547D01*
X26408130Y26359839D02*
X26408131Y26941571D01*
X2919705Y33051073D02*
X3020711Y32478176D01*
X110088835Y61949849D02*
X115638130Y61949838D01*
X92421922Y1325305D02*
X92271352Y763380D01*
X61765633Y31523951D02*
X61652516Y31637072D01*
X96563020Y14881787D02*
X104412230Y14881791D01*
X99940774Y1653022D02*
X99943947Y1647527D01*
X113678939Y-7490697D02*
X114700336Y-6031994D01*
X66817748Y28484838D02*
X62123271Y28484830D01*
X47768143Y38410987D02*
X47768133Y37992680D01*
X42679560Y35859862D02*
X36297297Y29477599D01*
X66408138Y62359835D02*
X66408132Y62941557D01*
X-106842Y51175042D02*
X162423Y51519576D01*
X119748140Y9859832D02*
X119748140Y10625632D01*
X87294668Y58759832D02*
X87768140Y58759830D01*
X107693134Y59639847D02*
X107693133Y62121501D01*
X113593131Y11302228D02*
X113593131Y11452038D01*
X110868142Y11377129D02*
X110815808Y11429459D01*
X104797004Y14722413D02*
X107878246Y11641172D01*
X87294662Y40759836D02*
X87768150Y40759841D01*
X115408457Y65285457D02*
X115222205Y65099207D01*
X109704064Y61790468D02*
X109527818Y61614216D01*
X-15807198Y24081175D02*
X-15908203Y24654073D01*
X26408127Y62941563D02*
X26408133Y62359838D01*
X107751480Y62179840D02*
X107867985Y62179838D01*
X3881503Y16348218D02*
X743622Y11866859D01*
X116769815Y64843473D02*
X116327814Y65285462D01*
X61925010Y31139173D02*
X61925021Y28683083D01*
X106794207Y63195461D02*
X107651878Y62337787D01*
X-12782543Y6927551D02*
X-12681520Y6354646D01*
X66574762Y27315735D02*
X66899766Y27608274D01*
X67294673Y63759831D02*
X67768133Y63759836D01*
X119748130Y5496095D02*
X119748123Y6259834D01*
X113327818Y11942744D02*
X113433752Y11836812D01*
X-18932871Y41807715D02*
X-19033883Y42380616D01*
X110088837Y59409837D02*
X115638134Y59409831D01*
X114837429Y64939829D02*
X109288127Y64939840D01*
X86574763Y40315732D02*
X86899757Y40608276D01*
X26408137Y44941563D02*
X26408135Y44359844D01*
X113734550Y10935411D02*
X114650750Y10019205D01*
X66408137Y26941574D02*
X66408133Y26359836D01*
%TO.N,led_x*%
X-13191025Y5630216D02*
X-13311388Y5715345D01*
X-12785223Y5539245D02*
X-12196933Y5642975D01*
X-11846241Y5867021D02*
X-11342197Y6590805D01*
X-13801115Y7578834D02*
X-13534652Y6067634D01*
%TO.N,led_19*%
X-18041711Y41005898D02*
X-17564132Y40671494D01*
X-18111989Y41299390D02*
X-17593524Y42043889D01*
X-18448260Y41096052D02*
X-19036561Y40992325D01*
X-19442361Y41083298D02*
X-19562721Y41168427D01*
X-7177181Y27024478D02*
X-9393001Y26633765D01*
X-6867434Y42395774D02*
X-17157527Y40581352D01*
X-19785986Y41520718D02*
X-20052450Y43031900D01*
%TO.N,led_18*%
X730352Y49717103D02*
X1234389Y50440881D01*
X-958068Y49917717D02*
X-1224540Y51428919D01*
X-1224540Y51428919D02*
X-4807474Y50797143D01*
X-10302848Y44751019D02*
X-12518664Y44360309D01*
X379661Y49493056D02*
X-208645Y49389321D01*
X-614443Y49480294D02*
X-734804Y49565425D01*
X-8955956Y45150353D02*
X-5158727Y50573369D01*
X-10302848Y44751019D02*
X-9307209Y44926579D01*
%TO.N,led_15*%
X25780586Y25734890D02*
X25676677Y25839790D01*
X26164422Y25574833D02*
X26761795Y25574835D01*
X14608464Y18647306D02*
X14776399Y17694934D01*
X22686585Y25999837D02*
X25318130Y25999847D01*
X14698605Y19053911D02*
X16192664Y21187651D01*
X27146064Y25734580D02*
X27768129Y26359831D01*
X17931824Y21656152D02*
X16543917Y21411424D01*
X25518132Y26225349D02*
X25518146Y27759840D01*
X18319090Y21857750D02*
X22301809Y25840458D01*
X14776399Y17694934D02*
X12560590Y17304236D01*
%TO.N,led_16*%
X11650718Y35421471D02*
X9434914Y35030768D01*
X6981673Y14264030D02*
X7485717Y14987809D01*
X5026805Y15975828D02*
X5293253Y14464647D01*
X6630982Y14039981D02*
X6042691Y13936243D01*
X5636892Y14027212D02*
X5516514Y14112355D01*
%TO.N,led_17*%
X2390865Y31838888D02*
X2511224Y31753766D01*
X8525055Y53148011D02*
X6309247Y52757314D01*
X2917030Y31662795D02*
X3505329Y31766519D01*
X3856019Y31990561D02*
X4360055Y32714341D01*
X2167599Y32191174D02*
X1901135Y33702370D01*
%TO.N,led_14*%
X27519079Y43042891D02*
X27439815Y43122156D01*
X27128273Y43716705D02*
X27768136Y44359838D01*
X25518125Y45759838D02*
X25518132Y44225332D01*
X25780580Y43734889D02*
X25676831Y43839624D01*
X35418137Y27759836D02*
X33168135Y27759848D01*
X38426996Y42883514D02*
X27903854Y42883513D01*
X26164418Y43574836D02*
X26773740Y43574845D01*
%TO.N,led_13*%
X27903861Y60883516D02*
X38426997Y60883517D01*
X27128274Y61716696D02*
X27768133Y62359831D01*
X26761802Y61574840D02*
X26164424Y61574843D01*
X35418132Y45759832D02*
X33168134Y45759826D01*
X27519086Y61042894D02*
X27146520Y61415461D01*
X25518139Y62225342D02*
X25518134Y63759825D01*
X25676837Y61839634D02*
X25780586Y61734900D01*
%TO.N,led_12*%
X47146067Y71734580D02*
X47768128Y72359842D01*
X45676837Y71839624D02*
X45780591Y71734886D01*
X35418122Y63759837D02*
X40838989Y63759837D01*
X45518133Y73759839D02*
X45518138Y72225331D01*
X35418122Y63759837D02*
X33168135Y63759836D01*
X46761800Y71574833D02*
X46139140Y71574832D01*
X45939137Y68859986D02*
X45939140Y71349330D01*
X41223763Y63919217D02*
X45779757Y68475211D01*
%TO.N,led_9*%
X55418123Y37759832D02*
X53168132Y37759837D01*
X55623942Y37759837D02*
X55418123Y37759832D01*
X65780592Y25734890D02*
X65676843Y25839625D01*
X61634394Y28255202D02*
X61970377Y27919224D01*
X61202515Y31450678D02*
X61315632Y31337562D01*
X66164431Y25574833D02*
X66761801Y25574831D01*
X61043133Y32321052D02*
X61043135Y31835454D01*
X67146067Y25734577D02*
X67768129Y26359845D01*
X65518133Y27759833D02*
X65518144Y26225333D01*
X60883754Y32705828D02*
X55975296Y37614306D01*
X61475013Y28639975D02*
X61475012Y30952788D01*
X62355154Y27759846D02*
X65518133Y27759833D01*
%TO.N,led_10*%
X46761796Y35574831D02*
X46164416Y35574842D01*
X45518131Y37759838D02*
X45518134Y36225330D01*
X45780574Y35734899D02*
X45676834Y35839624D01*
X55418131Y55759829D02*
X53168128Y55759836D01*
X47146065Y35734573D02*
X47768137Y36359835D01*
%TO.N,led_11*%
X45518139Y55759836D02*
X45518138Y54225343D01*
X46164438Y53574837D02*
X46761796Y53574836D01*
X55418130Y73759838D02*
X53168130Y73759840D01*
X47146063Y53734582D02*
X47768121Y54359840D01*
X45780598Y53734891D02*
X45676837Y53839637D01*
%TO.N,led_8*%
X67903854Y42883515D02*
X78427000Y42883515D01*
X67128266Y43716696D02*
X67768123Y44359836D01*
X65518127Y44225337D02*
X65518129Y45759830D01*
X65780584Y43734889D02*
X65676826Y43839631D01*
X67519077Y43042892D02*
X67439797Y43122172D01*
X75418129Y27759843D02*
X73168129Y27759833D01*
X66164424Y43574836D02*
X66773744Y43574838D01*
%TO.N,led_7*%
X75418143Y45759836D02*
X73168136Y45759839D01*
X65518132Y63759834D02*
X65518136Y62225334D01*
X78426992Y60883514D02*
X67903847Y60883514D01*
X67146511Y61415454D02*
X67519073Y61042893D01*
X66761794Y61574832D02*
X66164417Y61574830D01*
X65780581Y61734886D02*
X65676833Y61839623D01*
X67128267Y61716690D02*
X67768144Y62359840D01*
%TO.N,led_6*%
X85518131Y58759835D02*
X85518134Y57225351D01*
X75418132Y63759835D02*
X73168132Y63759833D01*
X75418132Y63759835D02*
X77667963Y63759832D01*
X86761801Y56574831D02*
X86164420Y56574831D01*
X85518131Y58759835D02*
X83118747Y58759834D01*
X78052737Y63600452D02*
X82733973Y58919213D01*
X87146071Y56734575D02*
X87768143Y57359833D01*
X85780586Y56734889D02*
X85676829Y56839638D01*
%TO.N,led_3*%
X91774025Y2346023D02*
X91376870Y863814D01*
X95418131Y22759837D02*
X93168140Y22759841D01*
X91832785Y68211D02*
X92409797Y-86401D01*
X92822317Y-31556D02*
X93585025Y411396D01*
X91503447Y322157D02*
X91430336Y450178D01*
%TO.N,led_4*%
X85780587Y20734892D02*
X85676831Y20839633D01*
X86164427Y20574838D02*
X86761811Y20574838D01*
X95418143Y40759828D02*
X93168134Y40759838D01*
X85518128Y22759841D02*
X85518131Y21225339D01*
X87146080Y20734583D02*
X87768140Y21359829D01*
%TO.N,led_5*%
X85676834Y38839633D02*
X85780586Y38734898D01*
X87146072Y38734582D02*
X87768129Y39359844D01*
X95418128Y58759819D02*
X93168127Y58759837D01*
X86761805Y38574837D02*
X86164427Y38574842D01*
X85518135Y39225339D02*
X85518139Y40759845D01*
%TO.N,led_2*%
X101336698Y-216279D02*
X99163363Y366059D01*
X114819411Y-8618249D02*
X115308756Y-8960888D01*
X102295379Y-489942D02*
X113025821Y-8003475D01*
X114311810Y-7938554D02*
X114089511Y-7977753D01*
X102241270Y-458658D02*
X101336698Y-216279D01*
X114567543Y-8096342D02*
X114596797Y-8266980D01*
X114663124Y-7714692D02*
X115543278Y-6457708D01*
X113628003Y-8059131D02*
X113432426Y-8093617D01*
X115715159Y-9050442D02*
X116583357Y-8895076D01*
%TO.N,P0*%
X110088840Y64489829D02*
X115638140Y64489829D01*
X116667062Y63704221D02*
X115944744Y64426539D01*
X119697902Y-13774012D02*
X119371705Y-13545606D01*
X121402743Y62716932D02*
X120710560Y63409118D01*
X108608458Y64154212D02*
X108166474Y64596193D01*
X109143043Y63994836D02*
X108993233Y63994835D01*
X88835158Y11153091D02*
X87463430Y6033728D01*
X120104507Y-13864156D02*
X122550290Y-13432909D01*
X120001914Y63511513D02*
X119870095Y63488270D01*
X123652878Y-12136120D02*
X121809789Y-10845566D01*
X100199947Y25285662D02*
X90736090Y15821806D01*
X109704062Y64330451D02*
X109527821Y64154215D01*
X123652878Y-12136120D02*
X122901543Y-13209137D01*
X112656704Y25604422D02*
X117476420Y30424137D01*
X107867983Y64719833D02*
X107693131Y64719835D01*
X120710551Y30583516D02*
X117861195Y30583516D01*
X106947543Y-4943213D02*
X91394985Y-775919D01*
X117051837Y63544843D02*
X119659532Y63544845D01*
X89879796Y14965513D02*
X90404719Y15490436D01*
X100584722Y25445042D02*
X112271929Y25445043D01*
X121562129Y31435094D02*
X121562122Y62332157D01*
X119371667Y-13545595D02*
X107362634Y-5136774D01*
X91064571Y-522384D02*
X87517792Y5620814D01*
X115868130Y64611498D02*
X115868129Y64719844D01*
X89848348Y14934365D02*
X88956447Y11605750D01*
X121402750Y31050319D02*
X121095326Y30742895D01*
%TO.N,VCC*%
X117912022Y18309839D02*
X119233132Y18309839D01*
X116769801Y59763472D02*
X116327807Y60205453D01*
X111686377Y34141587D02*
X112468131Y33359825D01*
X114837439Y59859828D02*
X109288116Y59859843D01*
X111526998Y34526364D02*
X111526993Y37382598D01*
X117068290Y59639842D02*
X117243140Y59639847D01*
X111551081Y37440753D02*
X111575170Y37464842D01*
X115408448Y60205452D02*
X115222211Y60019209D01*
X115793220Y60364832D02*
X115943029Y60364831D01*
%TO.N,RST*%
X115222199Y62559209D02*
X115408447Y62745457D01*
X114993134Y26378783D02*
X114993136Y15463060D01*
X120788123Y8675511D02*
X118153093Y8675512D01*
X114837424Y62399829D02*
X109288137Y62399828D01*
X116769801Y62303473D02*
X116327818Y62745449D01*
X121188143Y9075530D02*
X121188141Y9859828D01*
X116735230Y13495572D02*
X115152516Y15078285D01*
X117068289Y62179833D02*
X117243139Y62179829D01*
X115793221Y62904832D02*
X115943041Y62904831D01*
X121188132Y8275495D02*
X121188132Y6259835D01*
%TO.N,BAT_P*%
X112302515Y10811514D02*
X112868132Y11377138D01*
X119110276Y24309835D02*
X119233137Y24309835D01*
X116612014Y18321009D02*
X117783756Y19492753D01*
X117943135Y19877528D02*
X117943135Y22480387D01*
X111917742Y10652132D02*
X111068137Y10652128D01*
X118900539Y24222959D02*
X117653096Y22975518D01*
X117653096Y22975518D02*
X117798115Y22830497D01*
X110868137Y10452128D02*
X110868131Y5875843D01*
%TO.N,RAW*%
X120538939Y29775511D02*
X117853093Y29775512D01*
X120734223Y68275449D02*
X121852742Y67156931D01*
X122012122Y62978263D02*
X122012122Y66772157D01*
X117243139Y67318162D02*
X117243141Y67259839D01*
X115408456Y67825460D02*
X115222217Y67639215D01*
X118012466Y28530502D02*
X119233135Y27309833D01*
X120349448Y68434829D02*
X118526876Y68434830D01*
X122012122Y62509635D02*
X122012127Y31582486D01*
X117284377Y67417725D02*
X118142102Y68275451D01*
X115793227Y67984840D02*
X115943041Y67984840D01*
X114837446Y67479834D02*
X109288138Y67479834D01*
X117853089Y28915277D02*
X117853093Y29775512D01*
X120923713Y29934890D02*
X121880327Y30891504D01*
X116769801Y67383478D02*
X116327817Y67825460D01*
X117068285Y67259842D02*
X117243132Y67259841D01*
%TO.N,JST1_1*%
X112868137Y4859843D02*
X112868140Y3059840D01*
%TO.N,JST1_2*%
X110868136Y4859831D02*
X110868137Y3059839D01*
%TO.N,P10*%
X115943043Y40044835D02*
X115793224Y40044835D01*
X117068282Y39319834D02*
X117243133Y39319836D01*
X114837427Y39539838D02*
X109288133Y39539833D01*
X116327816Y39885455D02*
X116769794Y39443471D01*
X115222204Y39699216D02*
X115408447Y39885457D01*
%TO.N,P1*%
X109527817Y66694202D02*
X109704069Y66870455D01*
X109143044Y66534831D02*
X108993231Y66534837D01*
X107388134Y36934435D02*
X107388130Y36609826D01*
X107966963Y37738667D02*
X107547515Y37319212D01*
X111239451Y38189832D02*
X111984823Y38189836D01*
X112627005Y37773052D02*
X112369597Y38030459D01*
X108166457Y67136203D02*
X108608451Y66694222D01*
X110605057Y37780845D02*
X110854673Y38030454D01*
X112627005Y37773052D02*
X112693611Y37706448D01*
X108351736Y37898049D02*
X109372897Y37898056D01*
X115327002Y37673060D02*
X115310389Y37656443D01*
X107867977Y67259837D02*
X107693132Y67259839D01*
X110088843Y67029834D02*
X115638146Y67029834D01*
X110040637Y37621465D02*
X110220279Y37621466D01*
X112854412Y37639843D02*
X115270279Y37639827D01*
%TO.N,P2*%
X114089503Y38502338D02*
X114227006Y38364842D01*
X108166462Y56976203D02*
X108608449Y56534216D01*
X117548134Y37277132D02*
X117548129Y36609839D01*
X109527812Y56534209D02*
X109704057Y56710451D01*
X115776410Y38310714D02*
X116514559Y38310704D01*
X110145373Y38346462D02*
X110292057Y38493151D01*
X114243608Y38381451D02*
X114227006Y38364842D01*
X117388756Y37661906D02*
X116899335Y38151323D01*
X107867981Y57099842D02*
X107693135Y57099845D01*
X110088834Y56869830D02*
X115638144Y56869839D01*
X113757547Y38639834D02*
X110646188Y38639839D01*
X109143037Y56374832D02*
X108993224Y56374834D01*
X115565537Y38398058D02*
X114283693Y38398059D01*
%TO.N,P3*%
X108166480Y54436188D02*
X108608454Y53994218D01*
X115623159Y36769223D02*
X116439656Y37585715D01*
X109704055Y54170446D02*
X109527815Y53994203D01*
X115238383Y36609841D02*
X115008143Y36609837D01*
X110088829Y54329826D02*
X115638135Y54329851D01*
X114489172Y36609842D02*
X115763770Y36609833D01*
X107867988Y54559831D02*
X107693136Y54559835D01*
X109143042Y53834829D02*
X108993231Y53834833D01*
X114104400Y36450463D02*
X113526999Y35873045D01*
%TO.N,P8*%
X107867975Y41859831D02*
X107693133Y41859832D01*
X108993224Y41134828D02*
X109143036Y41134830D01*
X109704062Y41470462D02*
X109527811Y41294211D01*
X108608449Y41294205D02*
X108166450Y41736199D01*
X110088836Y41629840D02*
X115638132Y41629836D01*
%TO.N,P9*%
X110088838Y39089831D02*
X115638143Y39089836D01*
X108993222Y38594836D02*
X109143042Y38594835D01*
X108608447Y38754219D02*
X108166471Y39196197D01*
X107867983Y39319834D02*
X107693133Y39319833D01*
X109527817Y38754209D02*
X109704062Y38930452D01*
%TO.N,MCU1_24*%
X104848122Y67259828D02*
X106968144Y67259833D01*
%TO.N,MCU1_1*%
X120088140Y67259836D02*
X117968142Y67259833D01*
%TO.N,MCU1_23*%
X104848133Y64719837D02*
X106968131Y64719833D01*
%TO.N,MCU1_2*%
X120088135Y64719841D02*
X117968130Y64719832D01*
%TO.N,MCU1_22*%
X104848132Y62179841D02*
X106968131Y62179842D01*
%TO.N,MCU1_3*%
X120088130Y62179840D02*
X117968135Y62179847D01*
%TO.N,MCU1_21*%
X104848139Y59639832D02*
X106968135Y59639841D01*
%TO.N,MCU1_4*%
X120088136Y59639839D02*
X117968144Y59639830D01*
%TO.N,MCU1_20*%
X104848136Y57099846D02*
X106968134Y57099839D01*
%TO.N,MCU1_5*%
X120088128Y57099839D02*
X117968130Y57099833D01*
%TO.N,MCU1_19*%
X104848133Y54559838D02*
X106968135Y54559826D01*
%TO.N,MCU1_6*%
X120088136Y54559828D02*
X117968137Y54559835D01*
%TO.N,MCU1_18*%
X104848138Y52019834D02*
X106968135Y52019830D01*
%TO.N,MCU1_7*%
X120088130Y52019838D02*
X117968133Y52019828D01*
%TO.N,MCU1_17*%
X104848140Y49479840D02*
X106968134Y49479833D01*
%TO.N,MCU1_8*%
X120088134Y49479839D02*
X117968128Y49479837D01*
%TO.N,MCU1_16*%
X104848137Y46939842D02*
X106968124Y46939831D01*
%TO.N,MCU1_9*%
X120088147Y46939835D02*
X117968136Y46939840D01*
%TO.N,MCU1_15*%
X104848137Y44399843D02*
X106968132Y44399841D01*
%TO.N,MCU1_10*%
X120088134Y44399837D02*
X117968145Y44399832D01*
%TO.N,MCU1_14*%
X104848132Y41859831D02*
X106968126Y41859834D01*
%TO.N,MCU1_11*%
X120088137Y41859841D02*
X117968140Y41859837D01*
%TO.N,MCU1_13*%
X104848143Y39319838D02*
X106968136Y39319845D01*
%TO.N,MCU1_12*%
X120088134Y39319830D02*
X117968134Y39319836D01*
%TO.N,DISP1_1*%
X107388134Y35709833D02*
X107388135Y33359832D01*
%TO.N,DISP1_2*%
X109928149Y33359831D02*
X109928133Y35709830D01*
%TO.N,DISP1_4*%
X115008140Y35709841D02*
X115008137Y33359836D01*
%TO.N,DISP1_5*%
X117548132Y33359832D02*
X117548125Y35709842D01*
%TD*%
D45*
X-7922380Y17119602D03*
X-11048058Y34846136D03*
X-14173725Y52572671D03*
X-17305149Y12190411D03*
X-20430817Y29916946D03*
X-23556471Y47643502D03*
X7779857Y43243146D03*
X4654179Y60969680D03*
X10905531Y25516606D03*
X1522768Y20587418D03*
X-1602892Y38313948D03*
X-4728558Y56040491D03*
X33026996Y53973053D03*
X32988776Y72134841D03*
X32988776Y36134833D03*
X22868126Y32909838D03*
X22868123Y50909838D03*
X22868140Y68909837D03*
X52988780Y46134850D03*
X52988776Y82134828D03*
X102626989Y50673054D03*
X52988773Y64134833D03*
X42868138Y42909839D03*
X42868139Y60909834D03*
X42868135Y78909840D03*
X101300250Y53383516D03*
X72988787Y54134828D03*
X72988772Y72134837D03*
X72988777Y36134837D03*
X62868116Y32909836D03*
X62868141Y50909843D03*
X62868140Y68909839D03*
X101212468Y8473893D03*
X92988779Y31134846D03*
X92988778Y67134831D03*
X92988772Y49134843D03*
X82868137Y27909835D03*
X82868143Y45909823D03*
X82868127Y63909834D03*
X90547240Y8006409D03*
X88723533Y5882417D03*
X101530089Y43034841D03*
X86809717Y6395225D03*
X126474383Y-3887767D03*
X116326448Y-719097D03*
X22868137Y29609834D03*
X-16732105Y8940542D03*
X2095805Y17337552D03*
X62868134Y29609837D03*
X42868140Y39609838D03*
X82868142Y24609838D03*
X-1029850Y35064089D03*
X82868135Y42609829D03*
X22868134Y47609831D03*
X-19857768Y26667087D03*
X62868128Y47609828D03*
X42868132Y57609831D03*
X62868131Y65609836D03*
X-4155529Y52790621D03*
X42868127Y75609836D03*
X22868131Y65609839D03*
X-22983426Y44393628D03*
X82868135Y60609837D03*
X101570976Y41693149D03*
X89693149Y4818861D03*
X114433638Y-3422302D03*
X99063783Y22941828D03*
X57613779Y72359830D03*
X97613772Y39359830D03*
X122120825Y-12772443D03*
X74528141Y26359841D03*
X-4684900Y7764670D03*
X7891690Y51614743D03*
X57613775Y54359844D03*
X54528132Y72359836D03*
X74528136Y44359844D03*
X11017360Y33888203D03*
X100114674Y-1338228D03*
X14143015Y16161665D03*
X77613773Y44359837D03*
X54528132Y54359833D03*
X-7810567Y25491202D03*
X10906337Y52146304D03*
X-4793396Y26026340D03*
X94528137Y21359834D03*
X94528134Y57359843D03*
X77613776Y62359834D03*
X117940034Y16004409D03*
X34528132Y26359839D03*
X74528133Y62359830D03*
X94528135Y39359837D03*
X34528140Y44359828D03*
X97613780Y57359833D03*
X37613780Y62359829D03*
X37613777Y44359840D03*
X-7921571Y43749307D03*
X34528132Y62359839D03*
X14032006Y34419767D03*
X54528132Y36359832D03*
X-10936228Y43217741D03*
X-4051524Y9297937D03*
X-3741765Y24669236D03*
X-16926788Y25305374D03*
X86408140Y21359825D03*
X-12681520Y6354646D03*
X-15807198Y24081175D03*
X66408133Y26359836D03*
X46408132Y54359840D03*
X26408133Y62359838D03*
X3020711Y32478176D03*
X95937622Y15281789D03*
X117868776Y9859828D03*
X108626996Y37173064D03*
X46408137Y36359831D03*
X-18932871Y41807715D03*
X86408120Y39359841D03*
X110868142Y11377129D03*
X26408130Y26359839D03*
X26408135Y44359844D03*
X115469310Y-8115020D03*
X92271352Y763380D03*
X86408130Y57359827D03*
X46408145Y72359831D03*
X66408138Y62359835D03*
X-104949Y50204713D03*
X6146388Y14751641D03*
X66408138Y44359827D03*
X-13801115Y7578834D03*
X-6867434Y42395774D03*
X-20052450Y43031900D03*
X-7177181Y27024478D03*
X-10302848Y44751019D03*
X-1224540Y51428919D03*
X14776399Y17694934D03*
X25518146Y27759840D03*
X11650718Y35421471D03*
X5026805Y15975828D03*
X8525055Y53148011D03*
X1901135Y33702370D03*
X25518125Y45759838D03*
X38426996Y42883514D03*
X35418137Y27759836D03*
X25518134Y63759825D03*
X35418132Y45759832D03*
X38426997Y60883517D03*
X35418122Y63759837D03*
X45518133Y73759839D03*
X55418123Y37759832D03*
X65518133Y27759833D03*
X55418131Y55759829D03*
X45518131Y37759838D03*
X45518139Y55759836D03*
X55418130Y73759838D03*
X75418129Y27759843D03*
X65518129Y45759830D03*
X78427000Y42883515D03*
X75418143Y45759836D03*
X65518132Y63759834D03*
X78426992Y60883514D03*
X85518131Y58759835D03*
X75418132Y63759835D03*
X95418131Y22759837D03*
X91774025Y2346023D03*
X95418143Y40759828D03*
X85518128Y22759841D03*
X85518139Y40759845D03*
X95418128Y58759819D03*
X115543278Y-6457708D03*
X101336698Y-216279D03*
X123652878Y-12136120D03*
X117912022Y18309839D03*
X111575170Y37464842D03*
X118153093Y8675512D03*
X116735230Y13495572D03*
X114993134Y26378783D03*
X112868132Y11377138D03*
X117653096Y22975518D03*
X116612014Y18321009D03*
X117853093Y29775512D03*
X115327002Y37673060D03*
X112627005Y37773052D03*
X114227006Y38364842D03*
X110145373Y38346462D03*
X116439656Y37585715D03*
X113526999Y35873045D03*
X107388133Y33359830D03*
X109928133Y33359830D03*
X112468141Y33359828D03*
X115008133Y33359830D03*
X117548136Y33359834D03*
X84968128Y27059830D03*
X85468125Y30809830D03*
X90468128Y33009832D03*
X90468128Y27059830D03*
X95468127Y30809831D03*
X95968128Y27059830D03*
X109694740Y-775521D03*
X261897Y13917137D03*
X24968136Y32059845D03*
X25468133Y35809845D03*
X30468136Y38009847D03*
X30468136Y32059845D03*
X35468135Y35809846D03*
X35968136Y32059845D03*
X84968133Y63059834D03*
X85468130Y66809834D03*
X90468133Y69009836D03*
X90468133Y63059834D03*
X95468132Y66809835D03*
X95968133Y63059834D03*
X85468130Y11059839D03*
X64968136Y68059843D03*
X65468133Y71809843D03*
X70468136Y74009845D03*
X70468136Y68059843D03*
X75468135Y71809844D03*
X75968136Y68059843D03*
X112868136Y3059839D03*
X110868138Y3059847D03*
X120993131Y26559830D03*
X120993131Y23559830D03*
X64968131Y50059836D03*
X65468128Y53809836D03*
X70468131Y56009838D03*
X70468131Y50059836D03*
X75468130Y53809837D03*
X75968131Y50059836D03*
X92355691Y6641861D03*
X93809222Y10134673D03*
X99208256Y10965615D03*
X97668283Y5218356D03*
X103468487Y7546481D03*
X102980875Y3794851D03*
X103468132Y28059839D03*
X44968124Y60059836D03*
X45468121Y63809836D03*
X50468124Y66009838D03*
X50468124Y60059836D03*
X55468123Y63809837D03*
X55968124Y60059836D03*
X40468135Y68059834D03*
X44968137Y78059839D03*
X45468134Y81809839D03*
X50468137Y84009841D03*
X50468137Y78059839D03*
X55468136Y81809840D03*
X55968137Y78059839D03*
X99468134Y60059834D03*
X-2512871Y55568064D03*
X-2671651Y59347916D03*
X1870365Y62382737D03*
X2903572Y56523129D03*
X7176429Y61084400D03*
X8320015Y57478194D03*
X-18215110Y29444527D03*
X-18373890Y33224379D03*
X-13831874Y36259200D03*
X-12798667Y30399592D03*
X-8525810Y34960863D03*
X-7382224Y31354657D03*
X612798Y37841522D03*
X454018Y41621374D03*
X4996034Y44656195D03*
X6029241Y38796587D03*
X10302098Y43357858D03*
X11445684Y39751652D03*
X117559117Y-2619891D03*
X120119604Y165142D03*
X125477232Y-900604D03*
X122064453Y-5774561D03*
X128311125Y-5570623D03*
X126569789Y-8929231D03*
X120993133Y17559846D03*
X120993133Y14559846D03*
X-5468486Y46415785D03*
X24968136Y68059841D03*
X25468133Y71809841D03*
X30468136Y74009843D03*
X30468136Y68059841D03*
X35468135Y71809842D03*
X35968136Y68059841D03*
X116468137Y20559846D03*
X40468141Y40559839D03*
X120088133Y67259842D03*
X120088133Y64719842D03*
X120088131Y62179837D03*
X120088133Y59639842D03*
X120088133Y57099842D03*
X120088133Y54559842D03*
X120088128Y52019844D03*
X120088133Y49479842D03*
X120088128Y46939844D03*
X120088133Y44399843D03*
X120088130Y41859840D03*
X120088133Y39319842D03*
X104848133Y39319842D03*
X104848133Y41859842D03*
X104848133Y44399842D03*
X104848135Y46939847D03*
X104848133Y49479842D03*
X104848133Y52019842D03*
X104848133Y54559842D03*
X104848138Y57099840D03*
X104848133Y59639842D03*
X104848138Y62179840D03*
X104848133Y64719841D03*
X104848136Y67259844D03*
X115868133Y67259842D03*
X115868134Y64719842D03*
X115868133Y62179842D03*
X115868133Y59639842D03*
X115868129Y57099844D03*
X115868138Y54559841D03*
X115868133Y52019842D03*
X115868132Y49479844D03*
X115868133Y46939842D03*
X115868126Y44399843D03*
X115868134Y41859845D03*
X115868131Y39319842D03*
X109068135Y39319842D03*
X109068133Y41859842D03*
X109068132Y44399842D03*
X109068133Y46939842D03*
X109068133Y49479842D03*
X109068137Y52019840D03*
X109068128Y54559843D03*
X109068133Y57099842D03*
X109068134Y59639840D03*
X109068133Y62179842D03*
X109068140Y64719841D03*
X109068132Y67259839D03*
X-15089441Y11717989D03*
X-15248221Y15497841D03*
X-10706205Y18532662D03*
X-9672998Y12673054D03*
X-5400141Y17234325D03*
X-4256555Y13628119D03*
X-21340783Y47171072D03*
X-21499563Y50950924D03*
X-16957547Y53985745D03*
X-15924340Y48126137D03*
X-11651483Y52687408D03*
X-10507897Y49081202D03*
X24968128Y50059836D03*
X25468125Y53809836D03*
X30468128Y56009838D03*
X30468128Y50059836D03*
X35468127Y53809837D03*
X35968128Y50059836D03*
X44968136Y42059854D03*
X45468133Y45809854D03*
X50468136Y48009856D03*
X50468136Y42059854D03*
X55468135Y45809855D03*
X55968136Y42059854D03*
X64968136Y32059839D03*
X65468133Y35809839D03*
X70468136Y38009841D03*
X70468136Y32059839D03*
X75468135Y35809840D03*
X75968136Y32059839D03*
X84968138Y45059833D03*
X85468135Y48809833D03*
X90468138Y51009835D03*
X90468138Y45059833D03*
X95468137Y48809834D03*
X95968138Y45059833D03*
X3738457Y20114992D03*
X3579677Y23894844D03*
X8121693Y26929665D03*
X9154900Y21070057D03*
X13427757Y25631328D03*
X14571343Y22025122D03*
M02*
