M48
METRIC,TZ
T1C0.400
T2C0.400
T3C0.750
T4C1.000
%
G90
G05
T1
X-19857Y45960
X-19284Y42710
X-16731Y28233
X-16353Y41348
X-16158Y24984
X-15233Y40124
X-13605Y10507
X-13227Y23622
X-13032Y7257
X-12107Y22398
X-10474Y50889
X-10101Y5895
X-8982Y4671
X-7348Y33163
X-7236Y41534
X-6603Y43068
X-4223Y15436
X-4222Y42066
X-4111Y23808
X-3477Y25341
X-3240Y41125
X-1094Y24343
X-1029Y54357
X-985Y6081
X-456Y51107
X-352Y7614
X-115Y23398
X2097Y36630
X2475Y49745
X2670Y33381
X3595Y48521
X5223Y18904
X5601Y32019
X5796Y15654
X6720Y30795
X8354Y59286
X8727Y14292
X9846Y13068
X11480Y41560
X11591Y49931
X12225Y51464
X14605Y23833
X14606Y50463
X14717Y32205
X15350Y33738
X17732Y32736
X17843Y14478
X18476Y16011
X26568Y49226
X26568Y31226
X26568Y63926
X26568Y45926
X26568Y27926
X26568Y67226
X29218Y44076
X29218Y62076
X29218Y26076
X30108Y60676
X30108Y24676
X30108Y42676
X36689Y70451
X36689Y34451
X36727Y52290
X38228Y60676
X38228Y24676
X38228Y42676
X39118Y62076
X39118Y44076
X39118Y26076
X41314Y60676
X41314Y42676
X42127Y41590
X42127Y59590
X46568Y73926
X46568Y55926
X46568Y77226
X46568Y41226
X46568Y59226
X46568Y37926
X49218Y72076
X49218Y36076
X49218Y54076
X50108Y34676
X50108Y52676
X50108Y70676
X56689Y62451
X56689Y80451
X56689Y44451
X58228Y52676
X58228Y34676
X58228Y70676
X59118Y36076
X59118Y72076
X59118Y54076
X61314Y52676
X61314Y70676
X66568Y31226
X66568Y63926
X66568Y45926
X66568Y27926
X66568Y67226
X66568Y49226
X69218Y44076
X69218Y62076
X69218Y26076
X70108Y42676
X70108Y24676
X70108Y60676
X76689Y70451
X76689Y34451
X76689Y52451
X78228Y60676
X78228Y42676
X78228Y24676
X79118Y62076
X79118Y26076
X79118Y44076
X81314Y42676
X81314Y60676
X82127Y41590
X82127Y59590
X86568Y62226
X86568Y58926
X86568Y26226
X86568Y40926
X86568Y44226
X86568Y22926
X89218Y21076
X89218Y57076
X89218Y39076
X90108Y37676
X90108Y55676
X90108Y19676
X90509Y4712
X92423Y4199
X93393Y3135
X94247Y6323
X95474Y663
X95971Y-920
X96689Y47451
X96689Y29451
X96689Y65451
X98228Y55676
X98228Y37676
X98228Y19676
X99118Y57076
X99118Y21076
X99118Y39076
X99637Y13598
X101314Y37676
X101314Y55676
X102764Y21258
X102872Y51375
X103814Y-3022
X104912Y6790
X105036Y-1900
X105230Y41351
X105271Y40010
X106327Y48990
X112327Y35490
X113845Y36663
X114568Y9694
X115275Y35781
X116327Y36090
X116568Y9694
X117227Y34190
X117927Y36681
X118133Y-5106
X118693Y24695
X119027Y35990
X119169Y-9799
X119243Y-8141
X120026Y-2403
X120139Y35902
X120312Y16637
X120435Y11812
X121353Y21292
X121553Y28092
X121569Y8176
X121612Y16626
X121640Y14321
X121853Y6992
X125821Y-14456
X127353Y-13820
X130174Y-5571
T2
X112768Y52876
X112768Y65576
X112768Y42716
X112768Y60496
X112768Y55416
X112768Y47796
X112768Y45256
X112768Y40176
X112768Y57956
X112768Y37636
X112768Y50336
X112768Y63036
X119568Y42716
X119568Y55416
X119568Y37636
X119568Y47796
X119568Y65576
X119568Y60496
X119568Y57956
X119568Y50336
X119568Y45256
X119568Y63036
X119568Y40176
X119568Y52876
T3
X114568Y1376
X116568Y1376
T4
X108548Y63036
X108548Y57956
X108548Y52876
X108548Y50336
X108548Y47796
X108548Y42716
X108548Y40176
X108548Y37636
X108548Y45256
X108548Y65576
X108548Y60496
X108548Y55416
X111088Y31676
X113628Y31676
X116168Y31676
X118708Y31676
X121248Y31676
X123788Y50336
X123788Y45256
X123788Y40176
X123788Y60496
X123788Y65576
X123788Y63036
X123788Y57956
X123788Y55416
X123788Y52876
X123788Y47796
X123788Y42716
X123788Y37636
M30
