M48
METRIC,TZ
T1C0.900
T2C1.702
T3C2.200
T4C3.000
T5C3.429
%
G90
G05
T1
X124693Y24876
X124693Y21876
X124693Y15876
X124693Y12876
T2
X-17641Y45488
X-14515Y27761
X-11390Y10034
X-6808Y47398
X-3682Y29671
X-557Y11945
X1187Y53885
X4313Y36158
X7438Y18431
X12020Y55795
X15145Y38068
X18271Y20342
X28668Y48376
X28668Y66376
X28668Y30376
X39668Y48376
X39668Y66376
X39668Y30376
X48668Y58376
X48668Y76376
X48668Y40376
X59668Y58376
X59668Y76376
X59668Y40376
X68668Y48376
X68668Y66376
X68668Y30376
X79668Y48376
X79668Y66376
X79668Y30376
X88668Y25376
X88668Y43376
X88668Y61376
X96055Y4958
X99668Y25376
X99668Y43376
X99668Y61376
X106681Y2111
X121259Y-4303
X130270Y-10613
T3
X-1769Y44732
X3962Y12234
X44168Y66376
X44168Y38876
X89168Y9376
X103168Y58376
X107168Y26376
X113394Y-2459
X120168Y18876
T4
X-17800Y49267
X-14674Y31541
X-13258Y52302
X-11548Y13814
X-10132Y34576
X-7952Y51004
X-7006Y16849
X-4826Y33277
X-1700Y15551
X1028Y57664
X4154Y39938
X5570Y60699
X7279Y22211
X8696Y42973
X10876Y59401
X11821Y25246
X14002Y41674
X17128Y23948
X29168Y52126
X29168Y70126
X29168Y34126
X34168Y54326
X34168Y72326
X34168Y36326
X39168Y52126
X39168Y70126
X39168Y34126
X49168Y62126
X49168Y80126
X49168Y44126
X54168Y64326
X54168Y82326
X54168Y46326
X59168Y62126
X59168Y80126
X59168Y44126
X69168Y52126
X69168Y70126
X69168Y34126
X74168Y54326
X74168Y72326
X74168Y36326
X79168Y52126
X79168Y70126
X79168Y34126
X89168Y29126
X89168Y47126
X89168Y65126
X94168Y31326
X94168Y49326
X94168Y67326
X97509Y8451
X99168Y29126
X99168Y47126
X99168Y65126
X102908Y9282
X107168Y5863
X123819Y-1518
X129177Y-2584
X132011Y-7254
T5
X-12225Y46443
X-9099Y28716
X-5973Y10990
X6603Y54840
X9729Y37113
X12855Y19387
X34168Y48376
X34168Y66376
X34168Y30376
X54168Y58376
X54168Y76376
X54168Y40376
X74168Y48376
X74168Y66376
X74168Y30376
X94168Y25376
X94168Y43376
X94168Y61376
X101368Y3535
X125764Y-7458
M30
