%TF.GenerationSoftware,KiCad,Pcbnew,8.0.5*%
%TF.CreationDate,2024-10-13T17:07:22+02:00*%
%TF.ProjectId,BlockyTypeV0.2.3-rounded,426c6f63-6b79-4547-9970-6556302e322e,v1.0.0*%
%TF.SameCoordinates,Original*%
%TF.FileFunction,Soldermask,Bot*%
%TF.FilePolarity,Negative*%
%FSLAX46Y46*%
G04 Gerber Fmt 4.6, Leading zero omitted, Abs format (unit mm)*
G04 Created by KiCad (PCBNEW 8.0.5) date 2024-10-13 17:07:22*
%MOMM*%
%LPD*%
G01*
G04 APERTURE LIST*
G04 Aperture macros list*
%AMRoundRect*
0 Rectangle with rounded corners*
0 $1 Rounding radius*
0 $2 $3 $4 $5 $6 $7 $8 $9 X,Y pos of 4 corners*
0 Add a 4 corners polygon primitive as box body*
4,1,4,$2,$3,$4,$5,$6,$7,$8,$9,$2,$3,0*
0 Add four circle primitives for the rounded corners*
1,1,$1+$1,$2,$3*
1,1,$1+$1,$4,$5*
1,1,$1+$1,$6,$7*
1,1,$1+$1,$8,$9*
0 Add four rect primitives between the rounded corners*
20,1,$1+$1,$2,$3,$4,$5,0*
20,1,$1+$1,$4,$5,$6,$7,0*
20,1,$1+$1,$6,$7,$8,$9,0*
20,1,$1+$1,$8,$9,$2,$3,0*%
%AMFreePoly0*
4,1,15,1.335355,1.335355,1.350000,1.300000,1.350000,-1.300000,1.335355,-1.335355,1.300000,-1.350000,-0.050000,-1.350000,-0.082160,-1.338285,-1.332160,-0.288285,-1.349812,-0.254331,-1.350000,-0.250000,-1.350000,1.300000,-1.335355,1.335355,-1.300000,1.350000,1.300000,1.350000,1.335355,1.335355,1.335355,1.335355,$1*%
%AMFreePoly1*
4,1,16,0.635355,0.285355,0.650000,0.250000,0.650000,-1.000000,0.635355,-1.035355,0.600000,-1.050000,0.564645,-1.035355,0.000000,-0.470710,-0.564645,-1.035355,-0.600000,-1.050000,-0.635355,-1.035355,-0.650000,-1.000000,-0.650000,0.250000,-0.635355,0.285355,-0.600000,0.300000,0.600000,0.300000,0.635355,0.285355,0.635355,0.285355,$1*%
%AMFreePoly2*
4,1,14,0.035355,0.435355,0.635355,-0.164645,0.650000,-0.200000,0.650000,-0.400000,0.635355,-0.435355,0.600000,-0.450000,-0.600000,-0.450000,-0.635355,-0.435355,-0.650000,-0.400000,-0.650000,-0.200000,-0.635355,-0.164645,-0.035355,0.435355,0.000000,0.450000,0.035355,0.435355,0.035355,0.435355,$1*%
%AMFreePoly3*
4,1,16,-0.214645,0.660355,-0.210957,0.656235,0.289043,0.031235,0.299694,-0.005522,0.289043,-0.031235,-0.210957,-0.656235,-0.244478,-0.674694,-0.250000,-0.675000,-0.500000,-0.675000,-0.535355,-0.660355,-0.550000,-0.625000,-0.550000,0.625000,-0.535355,0.660355,-0.500000,0.675000,-0.250000,0.675000,-0.214645,0.660355,-0.214645,0.660355,$1*%
%AMFreePoly4*
4,1,16,0.535355,0.660355,0.550000,0.625000,0.550000,-0.625000,0.535355,-0.660355,0.500000,-0.675000,-0.650000,-0.675000,-0.685355,-0.660355,-0.700000,-0.625000,-0.689043,-0.593765,-0.214031,0.000000,-0.689043,0.593765,-0.699694,0.630522,-0.681235,0.664043,-0.650000,0.675000,0.500000,0.675000,0.535355,0.660355,0.535355,0.660355,$1*%
G04 Aperture macros list end*
%ADD10C,0.150000*%
%ADD11RoundRect,0.050000X0.669026X-0.338975X0.512743X0.547352X-0.669026X0.338975X-0.512743X-0.547352X0*%
%ADD12RoundRect,0.050000X0.600000X-0.450000X0.600000X0.450000X-0.600000X0.450000X-0.600000X-0.450000X0*%
%ADD13O,1.800000X1.800000*%
%ADD14C,1.800000*%
%ADD15RoundRect,0.050000X-0.600000X0.300000X-0.600000X-0.300000X0.600000X-0.300000X0.600000X0.300000X0*%
%ADD16C,1.801800*%
%ADD17C,3.100000*%
%ADD18C,3.529000*%
%ADD19FreePoly0,0.000000*%
%ADD20RoundRect,0.050000X-1.300000X-1.300000X1.300000X-1.300000X1.300000X1.300000X-1.300000X1.300000X0*%
%ADD21C,2.300000*%
%ADD22FreePoly1,0.000000*%
%ADD23O,1.300000X1.850000*%
%ADD24FreePoly2,0.000000*%
%ADD25RoundRect,0.050000X-0.400000X0.500000X-0.400000X-0.500000X0.400000X-0.500000X0.400000X0.500000X0*%
%ADD26C,1.000000*%
%ADD27RoundRect,0.050000X-0.750000X0.350000X-0.750000X-0.350000X0.750000X-0.350000X0.750000X0.350000X0*%
%ADD28FreePoly0,345.000000*%
%ADD29RoundRect,0.050000X-1.592168X-0.919239X0.919239X-1.592168X1.592168X0.919239X-0.919239X1.592168X0*%
%ADD30FreePoly0,10.000000*%
%ADD31RoundRect,0.050000X-1.054507X-1.505993X1.505993X-1.054507X1.054507X1.505993X-1.505993X1.054507X0*%
%ADD32RoundRect,0.050000X0.233382X-0.712764X0.749601X0.024473X-0.233382X0.712764X-0.749601X-0.024473X0*%
%ADD33FreePoly0,325.000000*%
%ADD34RoundRect,0.050000X-1.810547X-0.319248X0.319248X-1.810547X1.810547X0.319248X-0.319248X1.810547X0*%
%ADD35FreePoly3,180.000000*%
%ADD36FreePoly3,0.000000*%
%ADD37FreePoly4,0.000000*%
%ADD38C,0.900000*%
%ADD39FreePoly4,180.000000*%
%ADD40RoundRect,0.050000X-0.525000X0.700000X-0.525000X-0.700000X0.525000X-0.700000X0.525000X0.700000X0*%
%ADD41RoundRect,0.050000X0.463087X-0.589958X0.696024X0.279375X-0.463087X0.589958X-0.696024X-0.279375X0*%
%ADD42RoundRect,0.050000X-0.602541X-0.613958X0.776190X-0.370850X0.602541X0.613958X-0.776190X0.370850X0*%
%ADD43RoundRect,0.050000X-0.700000X-0.500000X0.700000X-0.500000X0.700000X0.500000X-0.700000X0.500000X0*%
%ADD44RoundRect,0.050000X-0.805558X-0.301790X0.546739X-0.664136X0.805558X0.301790X-0.546739X0.664136X0*%
%ADD45RoundRect,0.050000X-0.860195X-0.008073X0.286618X-0.811080X0.860195X0.008073X-0.286618X0.811080X0*%
G04 APERTURE END LIST*
D10*
G36*
X114378800Y17314833D02*
G01*
X113375060Y17314833D01*
X113137020Y17641629D01*
X113137020Y17695851D01*
X113636741Y17695851D01*
X113879616Y17695851D01*
X113879616Y18909250D01*
X113636741Y18909250D01*
X113636741Y17695851D01*
X113137020Y17695851D01*
X113137020Y18802271D01*
X113379358Y19121008D01*
X113261189Y19284407D01*
X113636741Y19284407D01*
X113879616Y19284407D01*
X113879616Y20540304D01*
X113636741Y20540304D01*
X113636741Y19284407D01*
X113261189Y19284407D01*
X113149379Y19439013D01*
X113149379Y20590129D01*
X113386881Y20925719D01*
X114378800Y20925719D01*
X114378800Y17314833D01*
G37*
G36*
X111859777Y17689990D02*
G01*
X112426665Y17689990D01*
X112426665Y20925719D01*
X112925848Y20925719D01*
X112925848Y17306772D01*
X111859777Y17306772D01*
X111859777Y17689990D01*
G37*
G36*
X111748011Y20628964D02*
G01*
X111748011Y17561029D01*
X111568542Y17314833D01*
X110685702Y17314833D01*
X110506232Y17561029D01*
X110506232Y17699515D01*
X111005953Y17699515D01*
X111248828Y17699515D01*
X111248828Y20550562D01*
X111005953Y20550562D01*
X111005953Y17699515D01*
X110506232Y17699515D01*
X110506232Y20628964D01*
X110684627Y20925719D01*
X111569616Y20925719D01*
X111748011Y20628964D01*
G37*
G36*
X109050056Y18956144D02*
G01*
X109549777Y18956144D01*
X109549777Y17689990D01*
X109792652Y17689990D01*
X109792652Y20550562D01*
X109549777Y20550562D01*
X109549777Y19425091D01*
X109050056Y19425091D01*
X109050056Y20630429D01*
X109251019Y20925719D01*
X110094634Y20925719D01*
X110295060Y20630429D01*
X110295060Y17583011D01*
X110094097Y17314833D01*
X109251556Y17314833D01*
X109050056Y17583011D01*
X109050056Y18956144D01*
G37*
G36*
X107896399Y19189152D02*
G01*
X107524564Y20925719D01*
X108053838Y20925719D01*
X108357970Y19236047D01*
X108340775Y20925719D01*
X108839958Y20925719D01*
X108839958Y17314833D01*
X108340775Y17314833D01*
X108357970Y19113681D01*
X108053838Y17314833D01*
X107525101Y17314833D01*
X107896399Y19189152D01*
G37*
G36*
X106179616Y20925719D02*
G01*
X106679337Y20925719D01*
X106679337Y19237512D01*
X106922212Y19237512D01*
X106922212Y20925719D01*
X107421396Y20925719D01*
X107421396Y19082174D01*
X107229030Y18862355D01*
X106679337Y18862355D01*
X106679337Y17689990D01*
X106922212Y17689990D01*
X106922212Y18674777D01*
X107421396Y18674777D01*
X107421396Y17591071D01*
X107217209Y17314833D01*
X106390251Y17314833D01*
X106179616Y17590338D01*
X106179616Y20925719D01*
G37*
G36*
X104751382Y20925719D02*
G01*
X106064090Y20925719D01*
X106064090Y20550562D01*
X105654104Y20550562D01*
X105654104Y17314833D01*
X105154920Y17314833D01*
X105154920Y20550562D01*
X104751382Y20550562D01*
X104751382Y20925719D01*
G37*
G36*
X103394076Y20925719D02*
G01*
X103893796Y20925719D01*
X103893796Y19237512D01*
X104136672Y19237512D01*
X104136672Y20925719D01*
X104635855Y20925719D01*
X104635855Y19082174D01*
X104443489Y18862355D01*
X103893796Y18862355D01*
X103893796Y17689990D01*
X104136672Y17689990D01*
X104136672Y18674777D01*
X104635855Y18674777D01*
X104635855Y17591071D01*
X104431668Y17314833D01*
X103604711Y17314833D01*
X103394076Y17590338D01*
X103394076Y20925719D01*
G37*
G36*
X103182903Y17314833D02*
G01*
X102683720Y17314833D01*
X102683720Y18815461D01*
X102145311Y18815461D01*
X101941124Y19090966D01*
X101941124Y19205272D01*
X102440845Y19205272D01*
X102683720Y19205272D01*
X102683720Y20550562D01*
X102440845Y20550562D01*
X102440845Y19205272D01*
X101941124Y19205272D01*
X101941124Y20657540D01*
X102145311Y20925719D01*
X103182903Y20925719D01*
X103182903Y17314833D01*
G37*
G36*
X101764341Y20630429D02*
G01*
X101764341Y17590338D01*
X101547795Y17314833D01*
X100729972Y17314833D01*
X100522561Y17591071D01*
X100522561Y18815461D01*
X101022282Y18815461D01*
X101022282Y17689990D01*
X101265157Y17689990D01*
X101265157Y18956144D01*
X100522561Y18956144D01*
X100522561Y19347421D01*
X101022282Y19347421D01*
X101265157Y19347421D01*
X101265157Y20550562D01*
X101022282Y20550562D01*
X101022282Y19347421D01*
X100522561Y19347421D01*
X100522561Y20630429D01*
X100729435Y20925719D01*
X101547795Y20925719D01*
X101764341Y20630429D01*
G37*
D11*
%TO.C,D4*%
X2095807Y17337552D03*
X1522771Y20587418D03*
%TD*%
D12*
%TO.C,D15*%
X62868129Y65609835D03*
X62868133Y68909835D03*
%TD*%
D13*
%TO.C,DISP1*%
X107388133Y33359830D03*
X109928133Y33359830D03*
X112468141Y33359828D03*
X115008133Y33359830D03*
D14*
X117548136Y33359834D03*
D15*
X117548133Y35709830D03*
X115008130Y35709829D03*
X109928133Y35709830D03*
X107388132Y35709829D03*
X117548133Y36609830D03*
X115008133Y36609830D03*
X109928133Y36609830D03*
X107388133Y36609830D03*
%TD*%
D16*
%TO.C,S16*%
X84968128Y27059830D03*
D17*
X85468125Y30809830D03*
X90468128Y33009832D03*
D18*
X90468128Y27059830D03*
D17*
X95468127Y30809831D03*
D16*
X95968128Y27059830D03*
D19*
X87193129Y33009827D03*
D20*
X98743128Y30809830D03*
%TD*%
D21*
%TO.C,MH7*%
X109694740Y-775521D03*
%TD*%
%TO.C,MH2*%
X261897Y13917137D03*
%TD*%
D12*
%TO.C,D13*%
X62868131Y29609829D03*
X62868135Y32909829D03*
%TD*%
%TO.C,D10*%
X42868137Y39609834D03*
X42868141Y42909834D03*
%TD*%
%TO.C,D18*%
X82868134Y60609838D03*
X82868138Y63909838D03*
%TD*%
D16*
%TO.C,S7*%
X24968136Y32059845D03*
D17*
X25468133Y35809845D03*
X30468136Y38009847D03*
D18*
X30468136Y32059845D03*
D17*
X35468135Y35809846D03*
D16*
X35968136Y32059845D03*
D19*
X27193137Y38009842D03*
D20*
X38743136Y35809845D03*
%TD*%
D16*
%TO.C,S18*%
X84968133Y63059834D03*
D17*
X85468130Y66809834D03*
X90468133Y69009836D03*
D18*
X90468133Y63059834D03*
D17*
X95468132Y66809835D03*
D16*
X95968133Y63059834D03*
D19*
X87193134Y69009831D03*
D20*
X98743133Y66809834D03*
%TD*%
D11*
%TO.C,D2*%
X-19857772Y26667089D03*
X-20430808Y29916955D03*
%TD*%
D12*
%TO.C,D17*%
X82868127Y42609831D03*
X82868131Y45909831D03*
%TD*%
D21*
%TO.C,MH6*%
X85468130Y11059839D03*
%TD*%
D12*
%TO.C,D16*%
X82868126Y24609845D03*
X82868130Y27909845D03*
%TD*%
D16*
%TO.C,S15*%
X64968136Y68059843D03*
D17*
X65468133Y71809843D03*
X70468136Y74009845D03*
D18*
X70468136Y68059843D03*
D17*
X75468135Y71809844D03*
D16*
X75968136Y68059843D03*
D19*
X67193137Y74009840D03*
D20*
X78743136Y71809843D03*
%TD*%
D11*
%TO.C,D5*%
X-1029856Y35064098D03*
X-1602892Y38313964D03*
%TD*%
D22*
%TO.C,JST1*%
X110868137Y5875843D03*
X112868137Y5875843D03*
D23*
X112868136Y3059839D03*
X110868138Y3059847D03*
D24*
X112868136Y4859841D03*
X110868137Y4859843D03*
%TD*%
D25*
%TO.C,SW3*%
X119883131Y28709832D03*
X119883131Y21409830D03*
D26*
X120993131Y26559830D03*
X120993131Y23559830D03*
D25*
X122093128Y21409831D03*
X122093131Y28709830D03*
D27*
X119233131Y22809830D03*
X119233131Y24309830D03*
X119233128Y27309826D03*
%TD*%
D16*
%TO.C,S14*%
X64968131Y50059836D03*
D17*
X65468128Y53809836D03*
X70468131Y56009838D03*
D18*
X70468131Y50059836D03*
D17*
X75468130Y53809837D03*
D16*
X75968131Y50059836D03*
D19*
X67193132Y56009833D03*
D20*
X78743131Y53809836D03*
%TD*%
D11*
%TO.C,D1*%
X-16732108Y8940543D03*
X-17305144Y12190409D03*
%TD*%
D16*
%TO.C,S19*%
X92355691Y6641861D03*
D17*
X93809222Y10134673D03*
X99208256Y10965615D03*
D18*
X97668283Y5218356D03*
D17*
X103468487Y7546481D03*
D16*
X102980875Y3794851D03*
D28*
X96044850Y11813243D03*
D29*
X106631891Y6698850D03*
%TD*%
D11*
%TO.C,D6*%
X-4155531Y52790630D03*
X-4728567Y56040496D03*
%TD*%
D12*
%TO.C,D12*%
X42868135Y75609838D03*
X42868139Y78909838D03*
%TD*%
D21*
%TO.C,MH8*%
X103468132Y28059839D03*
%TD*%
D16*
%TO.C,S11*%
X44968124Y60059836D03*
D17*
X45468121Y63809836D03*
X50468124Y66009838D03*
D18*
X50468124Y60059836D03*
D17*
X55468123Y63809837D03*
D16*
X55968124Y60059836D03*
D19*
X47193125Y66009833D03*
D20*
X58743124Y63809836D03*
%TD*%
D21*
%TO.C,MH3*%
X40468135Y68059834D03*
%TD*%
D16*
%TO.C,S12*%
X44968137Y78059839D03*
D17*
X45468134Y81809839D03*
X50468137Y84009841D03*
D18*
X50468137Y78059839D03*
D17*
X55468136Y81809840D03*
D16*
X55968137Y78059839D03*
D19*
X47193138Y84009836D03*
D20*
X58743137Y81809839D03*
%TD*%
D21*
%TO.C,MH5*%
X99468134Y60059834D03*
%TD*%
D16*
%TO.C,S6*%
X-2512871Y55568064D03*
D17*
X-2671651Y59347916D03*
X1870365Y62382737D03*
D18*
X2903572Y56523129D03*
D17*
X7176429Y61084400D03*
D16*
X8320015Y57478194D03*
D30*
X-1354878Y61814036D03*
D31*
X10401675Y61653097D03*
%TD*%
D16*
%TO.C,S2*%
X-18215110Y29444527D03*
D17*
X-18373890Y33224379D03*
X-13831874Y36259200D03*
D18*
X-12798667Y30399592D03*
D17*
X-8525810Y34960863D03*
D16*
X-7382224Y31354657D03*
D30*
X-17057117Y35690499D03*
D31*
X-5300564Y35529560D03*
%TD*%
D32*
%TO.C,D20*%
X114433637Y-3422306D03*
X116326439Y-719108D03*
%TD*%
D16*
%TO.C,S5*%
X612798Y37841522D03*
D17*
X454018Y41621374D03*
X4996034Y44656195D03*
D18*
X6029241Y38796587D03*
D17*
X10302098Y43357858D03*
D16*
X11445684Y39751652D03*
D30*
X1770791Y44087494D03*
D31*
X13527344Y43926555D03*
%TD*%
D12*
%TO.C,D14*%
X62868128Y47609836D03*
X62868132Y50909836D03*
%TD*%
D16*
%TO.C,S20*%
X117559117Y-2619891D03*
D17*
X120119604Y165142D03*
X125477232Y-900604D03*
D18*
X122064453Y-5774561D03*
D17*
X128311125Y-5570623D03*
D16*
X126569789Y-8929231D03*
D33*
X122794510Y977851D03*
D34*
X130993848Y-7449086D03*
%TD*%
D25*
%TO.C,SW1*%
X119883133Y19709848D03*
X119883133Y12409846D03*
D26*
X120993133Y17559846D03*
X120993133Y14559846D03*
D25*
X122093130Y12409847D03*
X122093133Y19709846D03*
D27*
X119233133Y13809846D03*
X119233133Y15309846D03*
X119233130Y18309842D03*
%TD*%
D21*
%TO.C,MH1*%
X-5468486Y46415785D03*
%TD*%
D16*
%TO.C,S9*%
X24968136Y68059841D03*
D17*
X25468133Y71809841D03*
X30468136Y74009843D03*
D18*
X30468136Y68059841D03*
D17*
X35468135Y71809842D03*
D16*
X35968136Y68059841D03*
D19*
X27193137Y74009838D03*
D20*
X38743136Y71809841D03*
%TD*%
D21*
%TO.C,MH9*%
X116468137Y20559846D03*
%TD*%
D11*
%TO.C,D3*%
X-22983445Y44393626D03*
X-23556481Y47643492D03*
%TD*%
D21*
%TO.C,MH4*%
X40468141Y40559839D03*
%TD*%
D12*
%TO.C,D8*%
X22868133Y47609828D03*
X22868137Y50909828D03*
%TD*%
D35*
%TO.C,MCU1*%
X117968129Y67259841D03*
D14*
X120088133Y67259842D03*
D35*
X117968136Y64719846D03*
D14*
X120088133Y64719842D03*
D35*
X117968133Y62179842D03*
D14*
X120088131Y62179837D03*
D35*
X117968133Y59639842D03*
D14*
X120088133Y59639842D03*
D35*
X117968135Y57099842D03*
D14*
X120088133Y57099842D03*
D35*
X117968133Y54559842D03*
D14*
X120088133Y54559842D03*
D35*
X117968133Y52019842D03*
D14*
X120088128Y52019844D03*
D35*
X117968133Y49479842D03*
D14*
X120088133Y49479842D03*
D35*
X117968133Y46939842D03*
D14*
X120088128Y46939844D03*
D35*
X117968133Y44399842D03*
D14*
X120088133Y44399843D03*
D35*
X117968133Y41859842D03*
D14*
X120088130Y41859840D03*
D35*
X117968131Y39319842D03*
D14*
X120088133Y39319842D03*
X104848133Y39319842D03*
D36*
X106968133Y39319842D03*
D14*
X104848133Y41859842D03*
D36*
X106968137Y41859843D03*
D14*
X104848133Y44399842D03*
D36*
X106968130Y44399838D03*
D14*
X104848135Y46939847D03*
D36*
X106968133Y46939842D03*
D14*
X104848133Y49479842D03*
D36*
X106968133Y49479842D03*
D14*
X104848133Y52019842D03*
D36*
X106968131Y52019842D03*
D14*
X104848133Y54559842D03*
D36*
X106968133Y54559842D03*
D14*
X104848138Y57099840D03*
D36*
X106968133Y57099842D03*
D14*
X104848133Y59639842D03*
D36*
X106968133Y59639842D03*
D14*
X104848138Y62179840D03*
D36*
X106968133Y62179842D03*
D14*
X104848133Y64719841D03*
D36*
X106968133Y64719842D03*
D14*
X104848136Y67259844D03*
D36*
X106968133Y67259842D03*
D37*
X107693133Y67259842D03*
D38*
X115868133Y67259842D03*
D37*
X107693133Y64719842D03*
D38*
X115868134Y64719842D03*
D37*
X107693133Y62179842D03*
D38*
X115868133Y62179842D03*
D37*
X107693130Y59639842D03*
D38*
X115868133Y59639842D03*
D37*
X107693133Y57099842D03*
D38*
X115868129Y57099844D03*
D37*
X107693133Y54559842D03*
D38*
X115868138Y54559841D03*
D37*
X107693133Y52019842D03*
D38*
X115868133Y52019842D03*
D37*
X107693130Y49479842D03*
D38*
X115868132Y49479844D03*
D37*
X107693133Y46939842D03*
D38*
X115868133Y46939842D03*
D37*
X107693133Y44399842D03*
D38*
X115868126Y44399843D03*
D37*
X107693133Y41859842D03*
D38*
X115868134Y41859845D03*
D37*
X107693134Y39319841D03*
D38*
X115868131Y39319842D03*
X109068135Y39319842D03*
D39*
X117243133Y39319842D03*
D38*
X109068133Y41859842D03*
D39*
X117243133Y41859842D03*
D38*
X109068132Y44399842D03*
D39*
X117243133Y44399842D03*
D38*
X109068133Y46939842D03*
D39*
X117243133Y46939842D03*
D38*
X109068133Y49479842D03*
D39*
X117243136Y49479842D03*
D38*
X109068137Y52019840D03*
D39*
X117243133Y52019842D03*
D38*
X109068128Y54559843D03*
D39*
X117243133Y54559842D03*
D38*
X109068133Y57099842D03*
D39*
X117243133Y57099842D03*
D38*
X109068134Y59639840D03*
D39*
X117243136Y59639842D03*
D38*
X109068133Y62179842D03*
D39*
X117243133Y62179842D03*
D38*
X109068140Y64719841D03*
D39*
X117243133Y64719842D03*
D38*
X109068132Y67259839D03*
D39*
X117243133Y67259842D03*
%TD*%
D16*
%TO.C,S1*%
X-15089441Y11717989D03*
D17*
X-15248221Y15497841D03*
X-10706205Y18532662D03*
D18*
X-9672998Y12673054D03*
D17*
X-5400141Y17234325D03*
D16*
X-4256555Y13628119D03*
D30*
X-13931448Y17963961D03*
D31*
X-2174895Y17803022D03*
%TD*%
D16*
%TO.C,S3*%
X-21340783Y47171072D03*
D17*
X-21499563Y50950924D03*
X-16957547Y53985745D03*
D18*
X-15924340Y48126137D03*
D17*
X-11651483Y52687408D03*
D16*
X-10507897Y49081202D03*
D30*
X-20182790Y53417044D03*
D31*
X-8426237Y53256105D03*
%TD*%
D12*
%TO.C,D11*%
X42868128Y57609829D03*
X42868132Y60909829D03*
%TD*%
D16*
%TO.C,S8*%
X24968128Y50059836D03*
D17*
X25468125Y53809836D03*
X30468128Y56009838D03*
D18*
X30468128Y50059836D03*
D17*
X35468127Y53809837D03*
D16*
X35968128Y50059836D03*
D19*
X27193129Y56009833D03*
D20*
X38743128Y53809836D03*
%TD*%
D40*
%TO.C,SW2*%
X119748131Y9859828D03*
X119748131Y6259828D03*
X121188135Y9859828D03*
X121188135Y6259828D03*
%TD*%
D16*
%TO.C,S10*%
X44968136Y42059854D03*
D17*
X45468133Y45809854D03*
X50468136Y48009856D03*
D18*
X50468136Y42059854D03*
D17*
X55468135Y45809855D03*
D16*
X55968136Y42059854D03*
D19*
X47193137Y48009851D03*
D20*
X58743136Y45809854D03*
%TD*%
D41*
%TO.C,D19*%
X89693145Y4818858D03*
X90547245Y8006414D03*
%TD*%
D16*
%TO.C,S13*%
X64968136Y32059839D03*
D17*
X65468133Y35809839D03*
X70468136Y38009841D03*
D18*
X70468136Y32059839D03*
D17*
X75468135Y35809840D03*
D16*
X75968136Y32059839D03*
D19*
X67193137Y38009836D03*
D20*
X78743136Y35809839D03*
%TD*%
D16*
%TO.C,S17*%
X84968138Y45059833D03*
D17*
X85468135Y48809833D03*
X90468138Y51009835D03*
D18*
X90468138Y45059833D03*
D17*
X95468137Y48809834D03*
D16*
X95968138Y45059833D03*
D19*
X87193139Y51009830D03*
D20*
X98743138Y48809833D03*
%TD*%
D16*
%TO.C,S4*%
X3738457Y20114992D03*
D17*
X3579677Y23894844D03*
X8121693Y26929665D03*
D18*
X9154900Y21070057D03*
D17*
X13427757Y25631328D03*
D16*
X14571343Y22025122D03*
D30*
X4896450Y26360964D03*
D31*
X16653003Y26200025D03*
%TD*%
D12*
%TO.C,D9*%
X22868122Y65609842D03*
X22868126Y68909842D03*
%TD*%
%TO.C,D7*%
X22868124Y29609834D03*
X22868128Y32909834D03*
%TD*%
D42*
%TO.C,LED1*%
X-6024225Y7528493D03*
X-6267333Y8907224D03*
X-11585295Y7969523D03*
X-11342187Y6590792D03*
%TD*%
%TO.C,LED3*%
X-12275567Y42981577D03*
X-12518675Y44360308D03*
X-17836637Y43422607D03*
X-17593529Y42043876D03*
%TD*%
D43*
%TO.C,LED8*%
X33168138Y44359829D03*
X33168138Y45759829D03*
X27768138Y45759829D03*
X27768138Y44359829D03*
%TD*%
%TO.C,LED14*%
X73168137Y44359834D03*
X73168137Y45759834D03*
X67768137Y45759834D03*
X67768137Y44359834D03*
%TD*%
%TO.C,LED16*%
X93168127Y21359842D03*
X93168127Y22759842D03*
X87768127Y22759842D03*
X87768127Y21359842D03*
%TD*%
%TO.C,LED12*%
X53168127Y72359844D03*
X53168127Y73759844D03*
X47768127Y73759844D03*
X47768127Y72359844D03*
%TD*%
%TO.C,LED15*%
X73168137Y62359838D03*
X73168137Y63759838D03*
X67768137Y63759838D03*
X67768137Y62359838D03*
%TD*%
D44*
%TO.C,LED19*%
X98801017Y-986237D03*
X99163364Y366060D03*
X93947365Y1763683D03*
X93585018Y411386D03*
%TD*%
D43*
%TO.C,LED10*%
X53168132Y36359837D03*
X53168132Y37759837D03*
X47768132Y37759837D03*
X47768132Y36359837D03*
%TD*%
%TO.C,LED9*%
X33168136Y62359840D03*
X33168136Y63759840D03*
X27768136Y63759840D03*
X27768136Y62359840D03*
%TD*%
D45*
%TO.C,LED20*%
X121006776Y-11992384D03*
X121809783Y-10845571D03*
X117386362Y-7748258D03*
X116583355Y-8895071D03*
%TD*%
D42*
%TO.C,LED5*%
X9678021Y33652039D03*
X9434913Y35030770D03*
X4116951Y34093069D03*
X4360059Y32714338D03*
%TD*%
%TO.C,LED6*%
X6552364Y51378587D03*
X6309256Y52757318D03*
X991294Y51819617D03*
X1234402Y50440886D03*
%TD*%
D43*
%TO.C,LED7*%
X33168149Y26359831D03*
X33168149Y27759831D03*
X27768149Y27759831D03*
X27768149Y26359831D03*
%TD*%
%TO.C,LED11*%
X53168138Y54359832D03*
X53168138Y55759832D03*
X47768138Y55759832D03*
X47768138Y54359832D03*
%TD*%
D42*
%TO.C,LED2*%
X-9149903Y25255053D03*
X-9393011Y26633784D03*
X-14710973Y25696083D03*
X-14467865Y24317352D03*
%TD*%
D43*
%TO.C,LED13*%
X73168130Y26359834D03*
X73168130Y27759834D03*
X67768130Y27759834D03*
X67768130Y26359834D03*
%TD*%
%TO.C,LED17*%
X93168143Y39359840D03*
X93168143Y40759840D03*
X87768143Y40759840D03*
X87768143Y39359840D03*
%TD*%
D42*
%TO.C,LED4*%
X12803681Y15925501D03*
X12560573Y17304232D03*
X7242611Y16366531D03*
X7485719Y14987800D03*
%TD*%
D43*
%TO.C,LED18*%
X93168139Y57359837D03*
X93168139Y58759837D03*
X87768139Y58759837D03*
X87768139Y57359837D03*
%TD*%
M02*
