M48
; DRILL file {KiCad 8.0.5} date 2024-10-12T16:26:51+0200
; FORMAT={-:-/ absolute / metric / decimal}
; #@! TF.CreationDate,2024-10-12T16:26:51+02:00
; #@! TF.GenerationSoftware,Kicad,Pcbnew,8.0.5
; #@! TF.FileFunction,NonPlated,1,2,NPTH
FMAT,2
METRIC
; #@! TA.AperFunction,NonPlated,NPTH,ComponentDrill
T1C0.900
; #@! TA.AperFunction,NonPlated,NPTH,ComponentDrill
T2C1.702
; #@! TA.AperFunction,NonPlated,NPTH,ComponentDrill
T3C2.200
; #@! TA.AperFunction,NonPlated,NPTH,ComponentDrill
T4C3.000
; #@! TA.AperFunction,NonPlated,NPTH,ComponentDrill
T5C3.429
%
G90
G05
T1
X124.693Y24.876
X124.693Y21.876
X124.693Y15.876
X124.693Y12.876
T2
X-17.641Y45.488
X-14.515Y27.761
X-11.39Y10.034
X-6.808Y47.398
X-3.682Y29.671
X-0.557Y11.945
X1.187Y53.885
X4.313Y36.158
X7.438Y18.431
X12.02Y55.795
X15.145Y38.068
X18.271Y20.342
X28.668Y48.376
X28.668Y66.376
X28.668Y30.376
X39.668Y48.376
X39.668Y66.376
X39.668Y30.376
X48.668Y58.376
X48.668Y76.376
X48.668Y40.376
X59.668Y58.376
X59.668Y76.376
X59.668Y40.376
X68.668Y48.376
X68.668Y66.376
X68.668Y30.376
X79.668Y48.376
X79.668Y66.376
X79.668Y30.376
X88.668Y25.376
X88.668Y43.376
X88.668Y61.376
X96.055Y4.958
X99.668Y25.376
X99.668Y43.376
X99.668Y61.376
X106.681Y2.111
X121.259Y-4.303
X130.27Y-10.613
T3
X-1.769Y44.732
X3.962Y12.234
X44.168Y66.376
X44.168Y38.876
X89.168Y9.376
X103.168Y58.376
X107.168Y26.376
X113.394Y-2.459
X120.168Y18.876
T4
X-17.8Y49.267
X-14.674Y31.541
X-13.258Y52.302
X-11.548Y13.814
X-10.132Y34.576
X-7.952Y51.004
X-7.006Y16.849
X-4.826Y33.277
X-1.7Y15.551
X1.028Y57.664
X4.154Y39.938
X5.57Y60.699
X7.279Y22.211
X8.696Y42.973
X10.876Y59.401
X11.821Y25.246
X14.002Y41.674
X17.128Y23.948
X29.168Y52.126
X29.168Y70.126
X29.168Y34.126
X34.168Y54.326
X34.168Y72.326
X34.168Y36.326
X39.168Y52.126
X39.168Y70.126
X39.168Y34.126
X49.168Y62.126
X49.168Y80.126
X49.168Y44.126
X54.168Y64.326
X54.168Y82.326
X54.168Y46.326
X59.168Y62.126
X59.168Y80.126
X59.168Y44.126
X69.168Y52.126
X69.168Y70.126
X69.168Y34.126
X74.168Y54.326
X74.168Y72.326
X74.168Y36.326
X79.168Y52.126
X79.168Y70.126
X79.168Y34.126
X89.168Y29.126
X89.168Y47.126
X89.168Y65.126
X94.168Y31.326
X94.168Y49.326
X94.168Y67.326
X97.509Y8.451
X99.168Y29.126
X99.168Y47.126
X99.168Y65.126
X102.908Y9.282
X107.168Y5.863
X123.819Y-1.518
X129.177Y-2.584
X132.011Y-7.254
T5
X-12.225Y46.443
X-9.099Y28.716
X-5.973Y10.99
X6.603Y54.84
X9.729Y37.113
X12.855Y19.387
X34.168Y48.376
X34.168Y66.376
X34.168Y30.376
X54.168Y58.376
X54.168Y76.376
X54.168Y40.376
X74.168Y48.376
X74.168Y66.376
X74.168Y30.376
X94.168Y25.376
X94.168Y43.376
X94.168Y61.376
X101.368Y3.535
X125.764Y-7.458
M30
