M48
METRIC,TZ
T1C0.400
T2C0.400
T3C0.750
T4C1.000
%
G90
G05
T1
X-23556Y47644
X-22983Y44394
X-20431Y29917
X-20052Y43032
X-19858Y26667
X-18933Y41808
X-17305Y12190
X-16927Y25305
X-16732Y8941
X-15807Y24081
X-14174Y52573
X-13801Y7579
X-12682Y6355
X-11048Y34846
X-10936Y43218
X-10303Y44751
X-7922Y17120
X-7922Y43749
X-7811Y25491
X-7177Y27024
X-6867Y42396
X-4793Y26026
X-4729Y56040
X-4685Y7765
X-4156Y52791
X-4052Y9298
X-3742Y24669
X-1603Y38314
X-1225Y51429
X-1030Y35064
X-105Y50205
X1523Y20587
X1901Y33702
X2096Y17338
X3021Y32478
X4654Y60970
X5027Y15976
X6146Y14752
X7780Y43243
X7892Y51615
X8525Y53148
X10906Y25517
X10906Y52146
X11017Y33888
X11651Y35421
X14032Y34420
X14143Y16162
X14776Y17695
X22868Y50910
X22868Y32910
X22868Y65610
X22868Y47610
X22868Y29610
X22868Y68910
X25518Y45760
X25518Y63760
X25518Y27760
X26408Y26360
X26408Y62360
X26408Y44360
X32989Y72135
X32989Y36135
X33027Y53973
X34528Y62360
X34528Y26360
X34528Y44360
X35418Y63760
X35418Y45760
X35418Y27760
X37614Y44360
X37614Y62360
X38427Y42884
X38427Y60884
X42868Y75610
X42868Y57610
X42868Y78910
X42868Y42910
X42868Y60910
X42868Y39610
X45518Y37760
X45518Y73760
X45518Y55760
X46408Y54360
X46408Y36360
X46408Y72360
X52989Y64135
X52989Y82135
X52989Y46135
X54528Y72360
X54528Y54360
X54528Y36360
X55418Y37760
X55418Y73760
X55418Y55760
X57614Y54360
X57614Y72360
X62868Y32910
X62868Y47610
X62868Y65610
X62868Y29610
X62868Y68910
X62868Y50910
X65518Y45760
X65518Y63760
X65518Y27760
X66408Y26360
X66408Y62360
X66408Y44360
X72989Y72135
X72989Y36135
X72989Y54135
X74528Y62360
X74528Y44360
X74528Y26360
X75418Y27760
X75418Y63760
X75418Y45760
X77614Y44360
X77614Y62360
X78427Y60884
X78427Y42884
X82868Y63910
X82868Y60610
X82868Y42610
X82868Y27910
X82868Y24610
X82868Y45910
X85518Y22760
X85518Y58760
X85518Y40760
X86408Y39360
X86408Y57360
X86408Y21360
X86810Y6395
X88724Y5882
X89693Y4819
X90547Y8006
X91774Y2346
X92271Y763
X92989Y49135
X92989Y67135
X92989Y31135
X94528Y57360
X94528Y39360
X94528Y21360
X95418Y58760
X95418Y22760
X95418Y40760
X95938Y15282
X97614Y39360
X97614Y57360
X99064Y22942
X100115Y-1338
X101212Y8474
X101300Y53384
X101337Y-216
X101530Y43035
X101571Y41693
X102627Y50673
X108627Y37173
X110145Y38346
X110868Y11377
X111575Y37465
X112627Y37773
X112868Y11377
X113527Y35873
X114227Y38365
X114434Y-3422
X114993Y26379
X115327Y37673
X115469Y-8115
X115543Y-6458
X116326Y-719
X116440Y37586
X116612Y18321
X116735Y13496
X117653Y22976
X117853Y29776
X117869Y9860
X117912Y18310
X117940Y16004
X118153Y8676
X122121Y-12772
X123653Y-12136
X126474Y-3888
T2
X109068Y54560
X109068Y67260
X109068Y44400
X109068Y62180
X109068Y57100
X109068Y49480
X109068Y46940
X109068Y41860
X109068Y59640
X109068Y39320
X109068Y52020
X109068Y64720
X115868Y44400
X115868Y57100
X115868Y39320
X115868Y49480
X115868Y67260
X115868Y62180
X115868Y59640
X115868Y52020
X115868Y46940
X115868Y64720
X115868Y41860
X115868Y54560
T3
X110868Y3060
X112868Y3060
T4
X104848Y64720
X104848Y59640
X104848Y54560
X104848Y52020
X104848Y49480
X104848Y44400
X104848Y41860
X104848Y39320
X104848Y46940
X104848Y67260
X104848Y62180
X104848Y57100
X107388Y33360
X109928Y33360
X112468Y33360
X115008Y33360
X117548Y33360
X120088Y52020
X120088Y46940
X120088Y41860
X120088Y62180
X120088Y67260
X120088Y64720
X120088Y59640
X120088Y57100
X120088Y54560
X120088Y49480
X120088Y44400
X120088Y39320
M30
