M48
METRIC,TZ
T1C0.900
T2C1.702
T3C2.200
T4C3.000
T5C3.429
%
G90
G05
T1
X120993Y26560
X120993Y23560
X120993Y17560
X120993Y14560
T2
X-21341Y47171
X-18215Y29445
X-15089Y11718
X-10508Y49081
X-7382Y31355
X-4257Y13628
X-2513Y55568
X613Y37842
X3738Y20115
X8320Y57478
X11446Y39752
X14571Y22025
X24968Y50060
X24968Y68060
X24968Y32060
X35968Y50060
X35968Y68060
X35968Y32060
X44968Y60060
X44968Y42060
X44968Y78060
X55968Y60060
X55968Y42060
X55968Y78060
X64968Y50060
X64968Y68060
X64968Y32060
X75968Y50060
X75968Y68060
X75968Y32060
X84968Y27060
X84968Y63060
X84968Y45060
X92356Y6642
X95968Y27060
X95968Y63060
X95968Y45060
X102981Y3795
X117559Y-2620
X126570Y-8929
T3
X-5468Y46416
X262Y13917
X40468Y68060
X40468Y40560
X85468Y11060
X99468Y60060
X103468Y28060
X109695Y-776
X116468Y20560
T4
X-21500Y50951
X-18374Y33224
X-16958Y53986
X-15248Y15498
X-13832Y36259
X-11651Y52687
X-10706Y18533
X-8526Y34961
X-5400Y17234
X-2672Y59348
X454Y41621
X1870Y62383
X3580Y23895
X4996Y44656
X7176Y61084
X8122Y26930
X10302Y43358
X13428Y25631
X25468Y53810
X25468Y71810
X25468Y35810
X30468Y56010
X30468Y74010
X30468Y38010
X35468Y53810
X35468Y71810
X35468Y35810
X45468Y63810
X45468Y45810
X45468Y81810
X50468Y66010
X50468Y48010
X50468Y84010
X55468Y63810
X55468Y45810
X55468Y81810
X65468Y53810
X65468Y71810
X65468Y35810
X70468Y56010
X70468Y74010
X70468Y38010
X75468Y53810
X75468Y71810
X75468Y35810
X85468Y30810
X85468Y66810
X85468Y48810
X90468Y33010
X90468Y69010
X90468Y51010
X93809Y10135
X95468Y30810
X95468Y66810
X95468Y48810
X99208Y10966
X103468Y7546
X120120Y165
X125477Y-901
X128311Y-5571
T5
X-15924Y48126
X-12799Y30400
X-9673Y12673
X2904Y56523
X6029Y38797
X9155Y21070
X30468Y50060
X30468Y68060
X30468Y32060
X50468Y60060
X50468Y42060
X50468Y78060
X70468Y50060
X70468Y68060
X70468Y32060
X90468Y27060
X90468Y63060
X90468Y45060
X97668Y5218
X122064Y-5775
M30
