%TF.GenerationSoftware,KiCad,Pcbnew,8.0.5*%
%TF.CreationDate,2024-10-12T16:26:50+02:00*%
%TF.ProjectId,BlockyTypeV0.2.3,426c6f63-6b79-4547-9970-6556302e322e,v1.0.0*%
%TF.SameCoordinates,Original*%
%TF.FileFunction,Legend,Bot*%
%TF.FilePolarity,Positive*%
%FSLAX46Y46*%
G04 Gerber Fmt 4.6, Leading zero omitted, Abs format (unit mm)*
G04 Created by KiCad (PCBNEW 8.0.5) date 2024-10-12 16:26:50*
%MOMM*%
%LPD*%
G01*
G04 APERTURE LIST*
%ADD10C,0.100000*%
%ADD11C,0.150000*%
%ADD12C,0.120000*%
%ADD13C,0.350000*%
G04 APERTURE END LIST*
D10*
X117251213Y34518898D02*
X117017880Y33518898D01*
X117017880Y33518898D02*
X116784546Y34518898D01*
X116151213Y33614137D02*
X116184546Y33566518D01*
X116184546Y33566518D02*
X116284546Y33518898D01*
X116284546Y33518898D02*
X116351213Y33518898D01*
X116351213Y33518898D02*
X116451213Y33566518D01*
X116451213Y33566518D02*
X116517880Y33661756D01*
X116517880Y33661756D02*
X116551213Y33756994D01*
X116551213Y33756994D02*
X116584546Y33947470D01*
X116584546Y33947470D02*
X116584546Y34090327D01*
X116584546Y34090327D02*
X116551213Y34280803D01*
X116551213Y34280803D02*
X116517880Y34376041D01*
X116517880Y34376041D02*
X116451213Y34471279D01*
X116451213Y34471279D02*
X116351213Y34518898D01*
X116351213Y34518898D02*
X116284546Y34518898D01*
X116284546Y34518898D02*
X116184546Y34471279D01*
X116184546Y34471279D02*
X116151213Y34423660D01*
X115451213Y33614137D02*
X115484546Y33566518D01*
X115484546Y33566518D02*
X115584546Y33518898D01*
X115584546Y33518898D02*
X115651213Y33518898D01*
X115651213Y33518898D02*
X115751213Y33566518D01*
X115751213Y33566518D02*
X115817880Y33661756D01*
X115817880Y33661756D02*
X115851213Y33756994D01*
X115851213Y33756994D02*
X115884546Y33947470D01*
X115884546Y33947470D02*
X115884546Y34090327D01*
X115884546Y34090327D02*
X115851213Y34280803D01*
X115851213Y34280803D02*
X115817880Y34376041D01*
X115817880Y34376041D02*
X115751213Y34471279D01*
X115751213Y34471279D02*
X115651213Y34518898D01*
X115651213Y34518898D02*
X115584546Y34518898D01*
X115584546Y34518898D02*
X115484546Y34471279D01*
X115484546Y34471279D02*
X115451213Y34423660D01*
X114321211Y36371283D02*
X114387878Y36418902D01*
X114387878Y36418902D02*
X114487878Y36418902D01*
X114487878Y36418902D02*
X114587878Y36371283D01*
X114587878Y36371283D02*
X114654545Y36276045D01*
X114654545Y36276045D02*
X114687878Y36180807D01*
X114687878Y36180807D02*
X114721211Y35990331D01*
X114721211Y35990331D02*
X114721211Y35847474D01*
X114721211Y35847474D02*
X114687878Y35656998D01*
X114687878Y35656998D02*
X114654545Y35561760D01*
X114654545Y35561760D02*
X114587878Y35466522D01*
X114587878Y35466522D02*
X114487878Y35418902D01*
X114487878Y35418902D02*
X114421211Y35418902D01*
X114421211Y35418902D02*
X114321211Y35466522D01*
X114321211Y35466522D02*
X114287878Y35514141D01*
X114287878Y35514141D02*
X114287878Y35847474D01*
X114287878Y35847474D02*
X114421211Y35847474D01*
X113987878Y35418902D02*
X113987878Y36418902D01*
X113987878Y36418902D02*
X113587878Y35418902D01*
X113587878Y35418902D02*
X113587878Y36418902D01*
X113254545Y35418902D02*
X113254545Y36418902D01*
X113254545Y36418902D02*
X113087878Y36418902D01*
X113087878Y36418902D02*
X112987878Y36371283D01*
X112987878Y36371283D02*
X112921212Y36276045D01*
X112921212Y36276045D02*
X112887878Y36180807D01*
X112887878Y36180807D02*
X112854545Y35990331D01*
X112854545Y35990331D02*
X112854545Y35847474D01*
X112854545Y35847474D02*
X112887878Y35656998D01*
X112887878Y35656998D02*
X112921212Y35561760D01*
X112921212Y35561760D02*
X112987878Y35466522D01*
X112987878Y35466522D02*
X113087878Y35418902D01*
X113087878Y35418902D02*
X113254545Y35418902D01*
X118954546Y35514137D02*
X118987879Y35466518D01*
X118987879Y35466518D02*
X119087879Y35418898D01*
X119087879Y35418898D02*
X119154546Y35418898D01*
X119154546Y35418898D02*
X119254546Y35466518D01*
X119254546Y35466518D02*
X119321213Y35561756D01*
X119321213Y35561756D02*
X119354546Y35656994D01*
X119354546Y35656994D02*
X119387879Y35847470D01*
X119387879Y35847470D02*
X119387879Y35990327D01*
X119387879Y35990327D02*
X119354546Y36180803D01*
X119354546Y36180803D02*
X119321213Y36276041D01*
X119321213Y36276041D02*
X119254546Y36371279D01*
X119254546Y36371279D02*
X119154546Y36418898D01*
X119154546Y36418898D02*
X119087879Y36418898D01*
X119087879Y36418898D02*
X118987879Y36371279D01*
X118987879Y36371279D02*
X118954546Y36323660D01*
X118321213Y35418898D02*
X118654546Y35418898D01*
X118654546Y35418898D02*
X118654546Y36418898D01*
X111304546Y35514137D02*
X111337879Y35466518D01*
X111337879Y35466518D02*
X111437879Y35418898D01*
X111437879Y35418898D02*
X111504546Y35418898D01*
X111504546Y35418898D02*
X111604546Y35466518D01*
X111604546Y35466518D02*
X111671213Y35561756D01*
X111671213Y35561756D02*
X111704546Y35656994D01*
X111704546Y35656994D02*
X111737879Y35847470D01*
X111737879Y35847470D02*
X111737879Y35990327D01*
X111737879Y35990327D02*
X111704546Y36180803D01*
X111704546Y36180803D02*
X111671213Y36276041D01*
X111671213Y36276041D02*
X111604546Y36371279D01*
X111604546Y36371279D02*
X111504546Y36418898D01*
X111504546Y36418898D02*
X111437879Y36418898D01*
X111437879Y36418898D02*
X111337879Y36371279D01*
X111337879Y36371279D02*
X111304546Y36323660D01*
X111037879Y35466518D02*
X110937879Y35418898D01*
X110937879Y35418898D02*
X110771213Y35418898D01*
X110771213Y35418898D02*
X110704546Y35466518D01*
X110704546Y35466518D02*
X110671213Y35514137D01*
X110671213Y35514137D02*
X110637879Y35609375D01*
X110637879Y35609375D02*
X110637879Y35704613D01*
X110637879Y35704613D02*
X110671213Y35799851D01*
X110671213Y35799851D02*
X110704546Y35847470D01*
X110704546Y35847470D02*
X110771213Y35895089D01*
X110771213Y35895089D02*
X110904546Y35942708D01*
X110904546Y35942708D02*
X110971213Y35990327D01*
X110971213Y35990327D02*
X111004546Y36037946D01*
X111004546Y36037946D02*
X111037879Y36133184D01*
X111037879Y36133184D02*
X111037879Y36228422D01*
X111037879Y36228422D02*
X111004546Y36323660D01*
X111004546Y36323660D02*
X110971213Y36371279D01*
X110971213Y36371279D02*
X110904546Y36418898D01*
X110904546Y36418898D02*
X110737879Y36418898D01*
X110737879Y36418898D02*
X110637879Y36371279D01*
X121871213Y35418898D02*
X121871213Y36418898D01*
X121871213Y36418898D02*
X121704546Y36418898D01*
X121704546Y36418898D02*
X121604546Y36371279D01*
X121604546Y36371279D02*
X121537880Y36276041D01*
X121537880Y36276041D02*
X121504546Y36180803D01*
X121504546Y36180803D02*
X121471213Y35990327D01*
X121471213Y35990327D02*
X121471213Y35847470D01*
X121471213Y35847470D02*
X121504546Y35656994D01*
X121504546Y35656994D02*
X121537880Y35561756D01*
X121537880Y35561756D02*
X121604546Y35466518D01*
X121604546Y35466518D02*
X121704546Y35418898D01*
X121704546Y35418898D02*
X121871213Y35418898D01*
X121204546Y35704613D02*
X120871213Y35704613D01*
X121271213Y35418898D02*
X121037880Y36418898D01*
X121037880Y36418898D02*
X120804546Y35418898D01*
D11*
X116051213Y58501508D02*
X115717880Y57501508D01*
X115717880Y57501508D02*
X115384547Y58501508D01*
X114479785Y57596747D02*
X114527404Y57549128D01*
X114527404Y57549128D02*
X114670261Y57501508D01*
X114670261Y57501508D02*
X114765499Y57501508D01*
X114765499Y57501508D02*
X114908356Y57549128D01*
X114908356Y57549128D02*
X115003594Y57644366D01*
X115003594Y57644366D02*
X115051213Y57739604D01*
X115051213Y57739604D02*
X115098832Y57930080D01*
X115098832Y57930080D02*
X115098832Y58072937D01*
X115098832Y58072937D02*
X115051213Y58263413D01*
X115051213Y58263413D02*
X115003594Y58358651D01*
X115003594Y58358651D02*
X114908356Y58453889D01*
X114908356Y58453889D02*
X114765499Y58501508D01*
X114765499Y58501508D02*
X114670261Y58501508D01*
X114670261Y58501508D02*
X114527404Y58453889D01*
X114527404Y58453889D02*
X114479785Y58406270D01*
X113479785Y57596747D02*
X113527404Y57549128D01*
X113527404Y57549128D02*
X113670261Y57501508D01*
X113670261Y57501508D02*
X113765499Y57501508D01*
X113765499Y57501508D02*
X113908356Y57549128D01*
X113908356Y57549128D02*
X114003594Y57644366D01*
X114003594Y57644366D02*
X114051213Y57739604D01*
X114051213Y57739604D02*
X114098832Y57930080D01*
X114098832Y57930080D02*
X114098832Y58072937D01*
X114098832Y58072937D02*
X114051213Y58263413D01*
X114051213Y58263413D02*
X114003594Y58358651D01*
X114003594Y58358651D02*
X113908356Y58453889D01*
X113908356Y58453889D02*
X113765499Y58501508D01*
X113765499Y58501508D02*
X113670261Y58501508D01*
X113670261Y58501508D02*
X113527404Y58453889D01*
X113527404Y58453889D02*
X113479785Y58406270D01*
X115932166Y42261508D02*
X115932166Y43261508D01*
X115932166Y43261508D02*
X115551214Y43261508D01*
X115551214Y43261508D02*
X115455976Y43213889D01*
X115455976Y43213889D02*
X115408357Y43166270D01*
X115408357Y43166270D02*
X115360738Y43071032D01*
X115360738Y43071032D02*
X115360738Y42928175D01*
X115360738Y42928175D02*
X115408357Y42832937D01*
X115408357Y42832937D02*
X115455976Y42785318D01*
X115455976Y42785318D02*
X115551214Y42737699D01*
X115551214Y42737699D02*
X115932166Y42737699D01*
X114408357Y42261508D02*
X114979785Y42261508D01*
X114694071Y42261508D02*
X114694071Y43261508D01*
X114694071Y43261508D02*
X114789309Y43118651D01*
X114789309Y43118651D02*
X114884547Y43023413D01*
X114884547Y43023413D02*
X114979785Y42975794D01*
X113551214Y42928175D02*
X113551214Y42261508D01*
X113789309Y43309128D02*
X114027404Y42594842D01*
X114027404Y42594842D02*
X113408357Y42594842D01*
X118945975Y39721508D02*
X118945975Y40721508D01*
X118945975Y40721508D02*
X118565023Y40721508D01*
X118565023Y40721508D02*
X118469785Y40673889D01*
X118469785Y40673889D02*
X118422166Y40626270D01*
X118422166Y40626270D02*
X118374547Y40531032D01*
X118374547Y40531032D02*
X118374547Y40388175D01*
X118374547Y40388175D02*
X118422166Y40292937D01*
X118422166Y40292937D02*
X118469785Y40245318D01*
X118469785Y40245318D02*
X118565023Y40197699D01*
X118565023Y40197699D02*
X118945975Y40197699D01*
X117803118Y40292937D02*
X117898356Y40340556D01*
X117898356Y40340556D02*
X117945975Y40388175D01*
X117945975Y40388175D02*
X117993594Y40483413D01*
X117993594Y40483413D02*
X117993594Y40531032D01*
X117993594Y40531032D02*
X117945975Y40626270D01*
X117945975Y40626270D02*
X117898356Y40673889D01*
X117898356Y40673889D02*
X117803118Y40721508D01*
X117803118Y40721508D02*
X117612642Y40721508D01*
X117612642Y40721508D02*
X117517404Y40673889D01*
X117517404Y40673889D02*
X117469785Y40626270D01*
X117469785Y40626270D02*
X117422166Y40531032D01*
X117422166Y40531032D02*
X117422166Y40483413D01*
X117422166Y40483413D02*
X117469785Y40388175D01*
X117469785Y40388175D02*
X117517404Y40340556D01*
X117517404Y40340556D02*
X117612642Y40292937D01*
X117612642Y40292937D02*
X117803118Y40292937D01*
X117803118Y40292937D02*
X117898356Y40245318D01*
X117898356Y40245318D02*
X117945975Y40197699D01*
X117945975Y40197699D02*
X117993594Y40102461D01*
X117993594Y40102461D02*
X117993594Y39911985D01*
X117993594Y39911985D02*
X117945975Y39816747D01*
X117945975Y39816747D02*
X117898356Y39769128D01*
X117898356Y39769128D02*
X117803118Y39721508D01*
X117803118Y39721508D02*
X117612642Y39721508D01*
X117612642Y39721508D02*
X117517404Y39769128D01*
X117517404Y39769128D02*
X117469785Y39816747D01*
X117469785Y39816747D02*
X117422166Y39911985D01*
X117422166Y39911985D02*
X117422166Y40102461D01*
X117422166Y40102461D02*
X117469785Y40197699D01*
X117469785Y40197699D02*
X117517404Y40245318D01*
X117517404Y40245318D02*
X117612642Y40292937D01*
X115408356Y65121504D02*
X115741689Y65597695D01*
X115979784Y65121504D02*
X115979784Y66121504D01*
X115979784Y66121504D02*
X115598832Y66121504D01*
X115598832Y66121504D02*
X115503594Y66073885D01*
X115503594Y66073885D02*
X115455975Y66026266D01*
X115455975Y66026266D02*
X115408356Y65931028D01*
X115408356Y65931028D02*
X115408356Y65788171D01*
X115408356Y65788171D02*
X115455975Y65692933D01*
X115455975Y65692933D02*
X115503594Y65645314D01*
X115503594Y65645314D02*
X115598832Y65597695D01*
X115598832Y65597695D02*
X115979784Y65597695D01*
X115027403Y65407219D02*
X114551213Y65407219D01*
X115122641Y65121504D02*
X114789308Y66121504D01*
X114789308Y66121504D02*
X114455975Y65121504D01*
X114217879Y66121504D02*
X113979784Y65121504D01*
X113979784Y65121504D02*
X113789308Y65835790D01*
X113789308Y65835790D02*
X113598832Y65121504D01*
X113598832Y65121504D02*
X113360737Y66121504D01*
X115932166Y39721508D02*
X115932166Y40721508D01*
X115932166Y40721508D02*
X115551214Y40721508D01*
X115551214Y40721508D02*
X115455976Y40673889D01*
X115455976Y40673889D02*
X115408357Y40626270D01*
X115408357Y40626270D02*
X115360738Y40531032D01*
X115360738Y40531032D02*
X115360738Y40388175D01*
X115360738Y40388175D02*
X115408357Y40292937D01*
X115408357Y40292937D02*
X115455976Y40245318D01*
X115455976Y40245318D02*
X115551214Y40197699D01*
X115551214Y40197699D02*
X115932166Y40197699D01*
X114408357Y39721508D02*
X114979785Y39721508D01*
X114694071Y39721508D02*
X114694071Y40721508D01*
X114694071Y40721508D02*
X114789309Y40578651D01*
X114789309Y40578651D02*
X114884547Y40483413D01*
X114884547Y40483413D02*
X114979785Y40435794D01*
X113551214Y40721508D02*
X113741690Y40721508D01*
X113741690Y40721508D02*
X113836928Y40673889D01*
X113836928Y40673889D02*
X113884547Y40626270D01*
X113884547Y40626270D02*
X113979785Y40483413D01*
X113979785Y40483413D02*
X114027404Y40292937D01*
X114027404Y40292937D02*
X114027404Y39911985D01*
X114027404Y39911985D02*
X113979785Y39816747D01*
X113979785Y39816747D02*
X113932166Y39769128D01*
X113932166Y39769128D02*
X113836928Y39721508D01*
X113836928Y39721508D02*
X113646452Y39721508D01*
X113646452Y39721508D02*
X113551214Y39769128D01*
X113551214Y39769128D02*
X113503595Y39816747D01*
X113503595Y39816747D02*
X113455976Y39911985D01*
X113455976Y39911985D02*
X113455976Y40150080D01*
X113455976Y40150080D02*
X113503595Y40245318D01*
X113503595Y40245318D02*
X113551214Y40292937D01*
X113551214Y40292937D02*
X113646452Y40340556D01*
X113646452Y40340556D02*
X113836928Y40340556D01*
X113836928Y40340556D02*
X113932166Y40292937D01*
X113932166Y40292937D02*
X113979785Y40245318D01*
X113979785Y40245318D02*
X114027404Y40150080D01*
X115265500Y60041508D02*
X115598833Y60517699D01*
X115836928Y60041508D02*
X115836928Y61041508D01*
X115836928Y61041508D02*
X115455976Y61041508D01*
X115455976Y61041508D02*
X115360738Y60993889D01*
X115360738Y60993889D02*
X115313119Y60946270D01*
X115313119Y60946270D02*
X115265500Y60851032D01*
X115265500Y60851032D02*
X115265500Y60708175D01*
X115265500Y60708175D02*
X115313119Y60612937D01*
X115313119Y60612937D02*
X115360738Y60565318D01*
X115360738Y60565318D02*
X115455976Y60517699D01*
X115455976Y60517699D02*
X115836928Y60517699D01*
X114884547Y60089128D02*
X114741690Y60041508D01*
X114741690Y60041508D02*
X114503595Y60041508D01*
X114503595Y60041508D02*
X114408357Y60089128D01*
X114408357Y60089128D02*
X114360738Y60136747D01*
X114360738Y60136747D02*
X114313119Y60231985D01*
X114313119Y60231985D02*
X114313119Y60327223D01*
X114313119Y60327223D02*
X114360738Y60422461D01*
X114360738Y60422461D02*
X114408357Y60470080D01*
X114408357Y60470080D02*
X114503595Y60517699D01*
X114503595Y60517699D02*
X114694071Y60565318D01*
X114694071Y60565318D02*
X114789309Y60612937D01*
X114789309Y60612937D02*
X114836928Y60660556D01*
X114836928Y60660556D02*
X114884547Y60755794D01*
X114884547Y60755794D02*
X114884547Y60851032D01*
X114884547Y60851032D02*
X114836928Y60946270D01*
X114836928Y60946270D02*
X114789309Y60993889D01*
X114789309Y60993889D02*
X114694071Y61041508D01*
X114694071Y61041508D02*
X114455976Y61041508D01*
X114455976Y61041508D02*
X114313119Y60993889D01*
X114027404Y61041508D02*
X113455976Y61041508D01*
X113741690Y60041508D02*
X113741690Y61041508D01*
X118945975Y44801508D02*
X118945975Y45801508D01*
X118945975Y45801508D02*
X118565023Y45801508D01*
X118565023Y45801508D02*
X118469785Y45753889D01*
X118469785Y45753889D02*
X118422166Y45706270D01*
X118422166Y45706270D02*
X118374547Y45611032D01*
X118374547Y45611032D02*
X118374547Y45468175D01*
X118374547Y45468175D02*
X118422166Y45372937D01*
X118422166Y45372937D02*
X118469785Y45325318D01*
X118469785Y45325318D02*
X118565023Y45277699D01*
X118565023Y45277699D02*
X118945975Y45277699D01*
X117517404Y45801508D02*
X117707880Y45801508D01*
X117707880Y45801508D02*
X117803118Y45753889D01*
X117803118Y45753889D02*
X117850737Y45706270D01*
X117850737Y45706270D02*
X117945975Y45563413D01*
X117945975Y45563413D02*
X117993594Y45372937D01*
X117993594Y45372937D02*
X117993594Y44991985D01*
X117993594Y44991985D02*
X117945975Y44896747D01*
X117945975Y44896747D02*
X117898356Y44849128D01*
X117898356Y44849128D02*
X117803118Y44801508D01*
X117803118Y44801508D02*
X117612642Y44801508D01*
X117612642Y44801508D02*
X117517404Y44849128D01*
X117517404Y44849128D02*
X117469785Y44896747D01*
X117469785Y44896747D02*
X117422166Y44991985D01*
X117422166Y44991985D02*
X117422166Y45230080D01*
X117422166Y45230080D02*
X117469785Y45325318D01*
X117469785Y45325318D02*
X117517404Y45372937D01*
X117517404Y45372937D02*
X117612642Y45420556D01*
X117612642Y45420556D02*
X117803118Y45420556D01*
X117803118Y45420556D02*
X117898356Y45372937D01*
X117898356Y45372937D02*
X117945975Y45325318D01*
X117945975Y45325318D02*
X117993594Y45230080D01*
X118945977Y42261508D02*
X118945977Y43261508D01*
X118945977Y43261508D02*
X118565025Y43261508D01*
X118565025Y43261508D02*
X118469787Y43213889D01*
X118469787Y43213889D02*
X118422168Y43166270D01*
X118422168Y43166270D02*
X118374549Y43071032D01*
X118374549Y43071032D02*
X118374549Y42928175D01*
X118374549Y42928175D02*
X118422168Y42832937D01*
X118422168Y42832937D02*
X118469787Y42785318D01*
X118469787Y42785318D02*
X118565025Y42737699D01*
X118565025Y42737699D02*
X118945977Y42737699D01*
X118041215Y43261508D02*
X117374549Y43261508D01*
X117374549Y43261508D02*
X117803120Y42261508D01*
X118945975Y54961508D02*
X118945975Y55961508D01*
X118945975Y55961508D02*
X118565023Y55961508D01*
X118565023Y55961508D02*
X118469785Y55913889D01*
X118469785Y55913889D02*
X118422166Y55866270D01*
X118422166Y55866270D02*
X118374547Y55771032D01*
X118374547Y55771032D02*
X118374547Y55628175D01*
X118374547Y55628175D02*
X118422166Y55532937D01*
X118422166Y55532937D02*
X118469785Y55485318D01*
X118469785Y55485318D02*
X118565023Y55437699D01*
X118565023Y55437699D02*
X118945975Y55437699D01*
X117993594Y55866270D02*
X117945975Y55913889D01*
X117945975Y55913889D02*
X117850737Y55961508D01*
X117850737Y55961508D02*
X117612642Y55961508D01*
X117612642Y55961508D02*
X117517404Y55913889D01*
X117517404Y55913889D02*
X117469785Y55866270D01*
X117469785Y55866270D02*
X117422166Y55771032D01*
X117422166Y55771032D02*
X117422166Y55675794D01*
X117422166Y55675794D02*
X117469785Y55532937D01*
X117469785Y55532937D02*
X118041213Y54961508D01*
X118041213Y54961508D02*
X117422166Y54961508D01*
X118945975Y37181508D02*
X118945975Y38181508D01*
X118945975Y38181508D02*
X118565023Y38181508D01*
X118565023Y38181508D02*
X118469785Y38133889D01*
X118469785Y38133889D02*
X118422166Y38086270D01*
X118422166Y38086270D02*
X118374547Y37991032D01*
X118374547Y37991032D02*
X118374547Y37848175D01*
X118374547Y37848175D02*
X118422166Y37752937D01*
X118422166Y37752937D02*
X118469785Y37705318D01*
X118469785Y37705318D02*
X118565023Y37657699D01*
X118565023Y37657699D02*
X118945975Y37657699D01*
X117898356Y37181508D02*
X117707880Y37181508D01*
X117707880Y37181508D02*
X117612642Y37229128D01*
X117612642Y37229128D02*
X117565023Y37276747D01*
X117565023Y37276747D02*
X117469785Y37419604D01*
X117469785Y37419604D02*
X117422166Y37610080D01*
X117422166Y37610080D02*
X117422166Y37991032D01*
X117422166Y37991032D02*
X117469785Y38086270D01*
X117469785Y38086270D02*
X117517404Y38133889D01*
X117517404Y38133889D02*
X117612642Y38181508D01*
X117612642Y38181508D02*
X117803118Y38181508D01*
X117803118Y38181508D02*
X117898356Y38133889D01*
X117898356Y38133889D02*
X117945975Y38086270D01*
X117945975Y38086270D02*
X117993594Y37991032D01*
X117993594Y37991032D02*
X117993594Y37752937D01*
X117993594Y37752937D02*
X117945975Y37657699D01*
X117945975Y37657699D02*
X117898356Y37610080D01*
X117898356Y37610080D02*
X117803118Y37562461D01*
X117803118Y37562461D02*
X117612642Y37562461D01*
X117612642Y37562461D02*
X117517404Y37610080D01*
X117517404Y37610080D02*
X117469785Y37657699D01*
X117469785Y37657699D02*
X117422166Y37752937D01*
X115932166Y52421510D02*
X115932166Y53421510D01*
X115932166Y53421510D02*
X115551214Y53421510D01*
X115551214Y53421510D02*
X115455976Y53373891D01*
X115455976Y53373891D02*
X115408357Y53326272D01*
X115408357Y53326272D02*
X115360738Y53231034D01*
X115360738Y53231034D02*
X115360738Y53088177D01*
X115360738Y53088177D02*
X115408357Y52992939D01*
X115408357Y52992939D02*
X115455976Y52945320D01*
X115455976Y52945320D02*
X115551214Y52897701D01*
X115551214Y52897701D02*
X115932166Y52897701D01*
X114979785Y53326272D02*
X114932166Y53373891D01*
X114932166Y53373891D02*
X114836928Y53421510D01*
X114836928Y53421510D02*
X114598833Y53421510D01*
X114598833Y53421510D02*
X114503595Y53373891D01*
X114503595Y53373891D02*
X114455976Y53326272D01*
X114455976Y53326272D02*
X114408357Y53231034D01*
X114408357Y53231034D02*
X114408357Y53135796D01*
X114408357Y53135796D02*
X114455976Y52992939D01*
X114455976Y52992939D02*
X115027404Y52421510D01*
X115027404Y52421510D02*
X114408357Y52421510D01*
X113789309Y53421510D02*
X113694071Y53421510D01*
X113694071Y53421510D02*
X113598833Y53373891D01*
X113598833Y53373891D02*
X113551214Y53326272D01*
X113551214Y53326272D02*
X113503595Y53231034D01*
X113503595Y53231034D02*
X113455976Y53040558D01*
X113455976Y53040558D02*
X113455976Y52802463D01*
X113455976Y52802463D02*
X113503595Y52611987D01*
X113503595Y52611987D02*
X113551214Y52516749D01*
X113551214Y52516749D02*
X113598833Y52469130D01*
X113598833Y52469130D02*
X113694071Y52421510D01*
X113694071Y52421510D02*
X113789309Y52421510D01*
X113789309Y52421510D02*
X113884547Y52469130D01*
X113884547Y52469130D02*
X113932166Y52516749D01*
X113932166Y52516749D02*
X113979785Y52611987D01*
X113979785Y52611987D02*
X114027404Y52802463D01*
X114027404Y52802463D02*
X114027404Y53040558D01*
X114027404Y53040558D02*
X113979785Y53231034D01*
X113979785Y53231034D02*
X113932166Y53326272D01*
X113932166Y53326272D02*
X113884547Y53373891D01*
X113884547Y53373891D02*
X113789309Y53421510D01*
X118945975Y52421508D02*
X118945975Y53421508D01*
X118945975Y53421508D02*
X118565023Y53421508D01*
X118565023Y53421508D02*
X118469785Y53373889D01*
X118469785Y53373889D02*
X118422166Y53326270D01*
X118422166Y53326270D02*
X118374547Y53231032D01*
X118374547Y53231032D02*
X118374547Y53088175D01*
X118374547Y53088175D02*
X118422166Y52992937D01*
X118422166Y52992937D02*
X118469785Y52945318D01*
X118469785Y52945318D02*
X118565023Y52897699D01*
X118565023Y52897699D02*
X118945975Y52897699D01*
X118041213Y53421508D02*
X117422166Y53421508D01*
X117422166Y53421508D02*
X117755499Y53040556D01*
X117755499Y53040556D02*
X117612642Y53040556D01*
X117612642Y53040556D02*
X117517404Y52992937D01*
X117517404Y52992937D02*
X117469785Y52945318D01*
X117469785Y52945318D02*
X117422166Y52850080D01*
X117422166Y52850080D02*
X117422166Y52611985D01*
X117422166Y52611985D02*
X117469785Y52516747D01*
X117469785Y52516747D02*
X117517404Y52469128D01*
X117517404Y52469128D02*
X117612642Y52421508D01*
X117612642Y52421508D02*
X117898356Y52421508D01*
X117898356Y52421508D02*
X117993594Y52469128D01*
X117993594Y52469128D02*
X118041213Y52516747D01*
X115932166Y54961508D02*
X115932166Y55961508D01*
X115932166Y55961508D02*
X115551214Y55961508D01*
X115551214Y55961508D02*
X115455976Y55913889D01*
X115455976Y55913889D02*
X115408357Y55866270D01*
X115408357Y55866270D02*
X115360738Y55771032D01*
X115360738Y55771032D02*
X115360738Y55628175D01*
X115360738Y55628175D02*
X115408357Y55532937D01*
X115408357Y55532937D02*
X115455976Y55485318D01*
X115455976Y55485318D02*
X115551214Y55437699D01*
X115551214Y55437699D02*
X115932166Y55437699D01*
X114979785Y55866270D02*
X114932166Y55913889D01*
X114932166Y55913889D02*
X114836928Y55961508D01*
X114836928Y55961508D02*
X114598833Y55961508D01*
X114598833Y55961508D02*
X114503595Y55913889D01*
X114503595Y55913889D02*
X114455976Y55866270D01*
X114455976Y55866270D02*
X114408357Y55771032D01*
X114408357Y55771032D02*
X114408357Y55675794D01*
X114408357Y55675794D02*
X114455976Y55532937D01*
X114455976Y55532937D02*
X115027404Y54961508D01*
X115027404Y54961508D02*
X114408357Y54961508D01*
X113455976Y54961508D02*
X114027404Y54961508D01*
X113741690Y54961508D02*
X113741690Y55961508D01*
X113741690Y55961508D02*
X113836928Y55818651D01*
X113836928Y55818651D02*
X113932166Y55723413D01*
X113932166Y55723413D02*
X114027404Y55675794D01*
X118945975Y47341508D02*
X118945975Y48341508D01*
X118945975Y48341508D02*
X118565023Y48341508D01*
X118565023Y48341508D02*
X118469785Y48293889D01*
X118469785Y48293889D02*
X118422166Y48246270D01*
X118422166Y48246270D02*
X118374547Y48151032D01*
X118374547Y48151032D02*
X118374547Y48008175D01*
X118374547Y48008175D02*
X118422166Y47912937D01*
X118422166Y47912937D02*
X118469785Y47865318D01*
X118469785Y47865318D02*
X118565023Y47817699D01*
X118565023Y47817699D02*
X118945975Y47817699D01*
X117469785Y48341508D02*
X117945975Y48341508D01*
X117945975Y48341508D02*
X117993594Y47865318D01*
X117993594Y47865318D02*
X117945975Y47912937D01*
X117945975Y47912937D02*
X117850737Y47960556D01*
X117850737Y47960556D02*
X117612642Y47960556D01*
X117612642Y47960556D02*
X117517404Y47912937D01*
X117517404Y47912937D02*
X117469785Y47865318D01*
X117469785Y47865318D02*
X117422166Y47770080D01*
X117422166Y47770080D02*
X117422166Y47531985D01*
X117422166Y47531985D02*
X117469785Y47436747D01*
X117469785Y47436747D02*
X117517404Y47389128D01*
X117517404Y47389128D02*
X117612642Y47341508D01*
X117612642Y47341508D02*
X117850737Y47341508D01*
X117850737Y47341508D02*
X117945975Y47389128D01*
X117945975Y47389128D02*
X117993594Y47436747D01*
X118379785Y60993889D02*
X118475023Y61041508D01*
X118475023Y61041508D02*
X118617880Y61041508D01*
X118617880Y61041508D02*
X118760737Y60993889D01*
X118760737Y60993889D02*
X118855975Y60898651D01*
X118855975Y60898651D02*
X118903594Y60803413D01*
X118903594Y60803413D02*
X118951213Y60612937D01*
X118951213Y60612937D02*
X118951213Y60470080D01*
X118951213Y60470080D02*
X118903594Y60279604D01*
X118903594Y60279604D02*
X118855975Y60184366D01*
X118855975Y60184366D02*
X118760737Y60089128D01*
X118760737Y60089128D02*
X118617880Y60041508D01*
X118617880Y60041508D02*
X118522642Y60041508D01*
X118522642Y60041508D02*
X118379785Y60089128D01*
X118379785Y60089128D02*
X118332166Y60136747D01*
X118332166Y60136747D02*
X118332166Y60470080D01*
X118332166Y60470080D02*
X118522642Y60470080D01*
X117903594Y60041508D02*
X117903594Y61041508D01*
X117903594Y61041508D02*
X117332166Y60041508D01*
X117332166Y60041508D02*
X117332166Y61041508D01*
X116855975Y60041508D02*
X116855975Y61041508D01*
X116855975Y61041508D02*
X116617880Y61041508D01*
X116617880Y61041508D02*
X116475023Y60993889D01*
X116475023Y60993889D02*
X116379785Y60898651D01*
X116379785Y60898651D02*
X116332166Y60803413D01*
X116332166Y60803413D02*
X116284547Y60612937D01*
X116284547Y60612937D02*
X116284547Y60470080D01*
X116284547Y60470080D02*
X116332166Y60279604D01*
X116332166Y60279604D02*
X116379785Y60184366D01*
X116379785Y60184366D02*
X116475023Y60089128D01*
X116475023Y60089128D02*
X116617880Y60041508D01*
X116617880Y60041508D02*
X116855975Y60041508D01*
X115932166Y47341508D02*
X115932166Y48341508D01*
X115932166Y48341508D02*
X115551214Y48341508D01*
X115551214Y48341508D02*
X115455976Y48293889D01*
X115455976Y48293889D02*
X115408357Y48246270D01*
X115408357Y48246270D02*
X115360738Y48151032D01*
X115360738Y48151032D02*
X115360738Y48008175D01*
X115360738Y48008175D02*
X115408357Y47912937D01*
X115408357Y47912937D02*
X115455976Y47865318D01*
X115455976Y47865318D02*
X115551214Y47817699D01*
X115551214Y47817699D02*
X115932166Y47817699D01*
X114408357Y47341508D02*
X114979785Y47341508D01*
X114694071Y47341508D02*
X114694071Y48341508D01*
X114694071Y48341508D02*
X114789309Y48198651D01*
X114789309Y48198651D02*
X114884547Y48103413D01*
X114884547Y48103413D02*
X114979785Y48055794D01*
X113836928Y47912937D02*
X113932166Y47960556D01*
X113932166Y47960556D02*
X113979785Y48008175D01*
X113979785Y48008175D02*
X114027404Y48103413D01*
X114027404Y48103413D02*
X114027404Y48151032D01*
X114027404Y48151032D02*
X113979785Y48246270D01*
X113979785Y48246270D02*
X113932166Y48293889D01*
X113932166Y48293889D02*
X113836928Y48341508D01*
X113836928Y48341508D02*
X113646452Y48341508D01*
X113646452Y48341508D02*
X113551214Y48293889D01*
X113551214Y48293889D02*
X113503595Y48246270D01*
X113503595Y48246270D02*
X113455976Y48151032D01*
X113455976Y48151032D02*
X113455976Y48103413D01*
X113455976Y48103413D02*
X113503595Y48008175D01*
X113503595Y48008175D02*
X113551214Y47960556D01*
X113551214Y47960556D02*
X113646452Y47912937D01*
X113646452Y47912937D02*
X113836928Y47912937D01*
X113836928Y47912937D02*
X113932166Y47865318D01*
X113932166Y47865318D02*
X113979785Y47817699D01*
X113979785Y47817699D02*
X114027404Y47722461D01*
X114027404Y47722461D02*
X114027404Y47531985D01*
X114027404Y47531985D02*
X113979785Y47436747D01*
X113979785Y47436747D02*
X113932166Y47389128D01*
X113932166Y47389128D02*
X113836928Y47341508D01*
X113836928Y47341508D02*
X113646452Y47341508D01*
X113646452Y47341508D02*
X113551214Y47389128D01*
X113551214Y47389128D02*
X113503595Y47436747D01*
X113503595Y47436747D02*
X113455976Y47531985D01*
X113455976Y47531985D02*
X113455976Y47722461D01*
X113455976Y47722461D02*
X113503595Y47817699D01*
X113503595Y47817699D02*
X113551214Y47865318D01*
X113551214Y47865318D02*
X113646452Y47912937D01*
X118379785Y58453889D02*
X118475023Y58501508D01*
X118475023Y58501508D02*
X118617880Y58501508D01*
X118617880Y58501508D02*
X118760737Y58453889D01*
X118760737Y58453889D02*
X118855975Y58358651D01*
X118855975Y58358651D02*
X118903594Y58263413D01*
X118903594Y58263413D02*
X118951213Y58072937D01*
X118951213Y58072937D02*
X118951213Y57930080D01*
X118951213Y57930080D02*
X118903594Y57739604D01*
X118903594Y57739604D02*
X118855975Y57644366D01*
X118855975Y57644366D02*
X118760737Y57549128D01*
X118760737Y57549128D02*
X118617880Y57501508D01*
X118617880Y57501508D02*
X118522642Y57501508D01*
X118522642Y57501508D02*
X118379785Y57549128D01*
X118379785Y57549128D02*
X118332166Y57596747D01*
X118332166Y57596747D02*
X118332166Y57930080D01*
X118332166Y57930080D02*
X118522642Y57930080D01*
X117903594Y57501508D02*
X117903594Y58501508D01*
X117903594Y58501508D02*
X117332166Y57501508D01*
X117332166Y57501508D02*
X117332166Y58501508D01*
X116855975Y57501508D02*
X116855975Y58501508D01*
X116855975Y58501508D02*
X116617880Y58501508D01*
X116617880Y58501508D02*
X116475023Y58453889D01*
X116475023Y58453889D02*
X116379785Y58358651D01*
X116379785Y58358651D02*
X116332166Y58263413D01*
X116332166Y58263413D02*
X116284547Y58072937D01*
X116284547Y58072937D02*
X116284547Y57930080D01*
X116284547Y57930080D02*
X116332166Y57739604D01*
X116332166Y57739604D02*
X116379785Y57644366D01*
X116379785Y57644366D02*
X116475023Y57549128D01*
X116475023Y57549128D02*
X116617880Y57501508D01*
X116617880Y57501508D02*
X116855975Y57501508D01*
X115479785Y63533889D02*
X115575023Y63581508D01*
X115575023Y63581508D02*
X115717880Y63581508D01*
X115717880Y63581508D02*
X115860737Y63533889D01*
X115860737Y63533889D02*
X115955975Y63438651D01*
X115955975Y63438651D02*
X116003594Y63343413D01*
X116003594Y63343413D02*
X116051213Y63152937D01*
X116051213Y63152937D02*
X116051213Y63010080D01*
X116051213Y63010080D02*
X116003594Y62819604D01*
X116003594Y62819604D02*
X115955975Y62724366D01*
X115955975Y62724366D02*
X115860737Y62629128D01*
X115860737Y62629128D02*
X115717880Y62581508D01*
X115717880Y62581508D02*
X115622642Y62581508D01*
X115622642Y62581508D02*
X115479785Y62629128D01*
X115479785Y62629128D02*
X115432166Y62676747D01*
X115432166Y62676747D02*
X115432166Y63010080D01*
X115432166Y63010080D02*
X115622642Y63010080D01*
X115003594Y62581508D02*
X115003594Y63581508D01*
X115003594Y63581508D02*
X114432166Y62581508D01*
X114432166Y62581508D02*
X114432166Y63581508D01*
X113955975Y62581508D02*
X113955975Y63581508D01*
X113955975Y63581508D02*
X113717880Y63581508D01*
X113717880Y63581508D02*
X113575023Y63533889D01*
X113575023Y63533889D02*
X113479785Y63438651D01*
X113479785Y63438651D02*
X113432166Y63343413D01*
X113432166Y63343413D02*
X113384547Y63152937D01*
X113384547Y63152937D02*
X113384547Y63010080D01*
X113384547Y63010080D02*
X113432166Y62819604D01*
X113432166Y62819604D02*
X113479785Y62724366D01*
X113479785Y62724366D02*
X113575023Y62629128D01*
X113575023Y62629128D02*
X113717880Y62581508D01*
X113717880Y62581508D02*
X113955975Y62581508D01*
X118945976Y62581509D02*
X118945976Y63581509D01*
X118945976Y63581509D02*
X118565024Y63581509D01*
X118565024Y63581509D02*
X118469786Y63533890D01*
X118469786Y63533890D02*
X118422167Y63486271D01*
X118422167Y63486271D02*
X118374548Y63391033D01*
X118374548Y63391033D02*
X118374548Y63248176D01*
X118374548Y63248176D02*
X118422167Y63152938D01*
X118422167Y63152938D02*
X118469786Y63105319D01*
X118469786Y63105319D02*
X118565024Y63057700D01*
X118565024Y63057700D02*
X118945976Y63057700D01*
X117755500Y63581509D02*
X117660262Y63581509D01*
X117660262Y63581509D02*
X117565024Y63533890D01*
X117565024Y63533890D02*
X117517405Y63486271D01*
X117517405Y63486271D02*
X117469786Y63391033D01*
X117469786Y63391033D02*
X117422167Y63200557D01*
X117422167Y63200557D02*
X117422167Y62962462D01*
X117422167Y62962462D02*
X117469786Y62771986D01*
X117469786Y62771986D02*
X117517405Y62676748D01*
X117517405Y62676748D02*
X117565024Y62629129D01*
X117565024Y62629129D02*
X117660262Y62581509D01*
X117660262Y62581509D02*
X117755500Y62581509D01*
X117755500Y62581509D02*
X117850738Y62629129D01*
X117850738Y62629129D02*
X117898357Y62676748D01*
X117898357Y62676748D02*
X117945976Y62771986D01*
X117945976Y62771986D02*
X117993595Y62962462D01*
X117993595Y62962462D02*
X117993595Y63200557D01*
X117993595Y63200557D02*
X117945976Y63391033D01*
X117945976Y63391033D02*
X117898357Y63486271D01*
X117898357Y63486271D02*
X117850738Y63533890D01*
X117850738Y63533890D02*
X117755500Y63581509D01*
X115932166Y37181508D02*
X115932166Y38181508D01*
X115932166Y38181508D02*
X115551214Y38181508D01*
X115551214Y38181508D02*
X115455976Y38133889D01*
X115455976Y38133889D02*
X115408357Y38086270D01*
X115408357Y38086270D02*
X115360738Y37991032D01*
X115360738Y37991032D02*
X115360738Y37848175D01*
X115360738Y37848175D02*
X115408357Y37752937D01*
X115408357Y37752937D02*
X115455976Y37705318D01*
X115455976Y37705318D02*
X115551214Y37657699D01*
X115551214Y37657699D02*
X115932166Y37657699D01*
X114408357Y37181508D02*
X114979785Y37181508D01*
X114694071Y37181508D02*
X114694071Y38181508D01*
X114694071Y38181508D02*
X114789309Y38038651D01*
X114789309Y38038651D02*
X114884547Y37943413D01*
X114884547Y37943413D02*
X114979785Y37895794D01*
X113789309Y38181508D02*
X113694071Y38181508D01*
X113694071Y38181508D02*
X113598833Y38133889D01*
X113598833Y38133889D02*
X113551214Y38086270D01*
X113551214Y38086270D02*
X113503595Y37991032D01*
X113503595Y37991032D02*
X113455976Y37800556D01*
X113455976Y37800556D02*
X113455976Y37562461D01*
X113455976Y37562461D02*
X113503595Y37371985D01*
X113503595Y37371985D02*
X113551214Y37276747D01*
X113551214Y37276747D02*
X113598833Y37229128D01*
X113598833Y37229128D02*
X113694071Y37181508D01*
X113694071Y37181508D02*
X113789309Y37181508D01*
X113789309Y37181508D02*
X113884547Y37229128D01*
X113884547Y37229128D02*
X113932166Y37276747D01*
X113932166Y37276747D02*
X113979785Y37371985D01*
X113979785Y37371985D02*
X114027404Y37562461D01*
X114027404Y37562461D02*
X114027404Y37800556D01*
X114027404Y37800556D02*
X113979785Y37991032D01*
X113979785Y37991032D02*
X113932166Y38086270D01*
X113932166Y38086270D02*
X113884547Y38133889D01*
X113884547Y38133889D02*
X113789309Y38181508D01*
X118945975Y65121508D02*
X118945975Y66121508D01*
X118945975Y66121508D02*
X118565023Y66121508D01*
X118565023Y66121508D02*
X118469785Y66073889D01*
X118469785Y66073889D02*
X118422166Y66026270D01*
X118422166Y66026270D02*
X118374547Y65931032D01*
X118374547Y65931032D02*
X118374547Y65788175D01*
X118374547Y65788175D02*
X118422166Y65692937D01*
X118422166Y65692937D02*
X118469785Y65645318D01*
X118469785Y65645318D02*
X118565023Y65597699D01*
X118565023Y65597699D02*
X118945975Y65597699D01*
X117422166Y65121508D02*
X117993594Y65121508D01*
X117707880Y65121508D02*
X117707880Y66121508D01*
X117707880Y66121508D02*
X117803118Y65978651D01*
X117803118Y65978651D02*
X117898356Y65883413D01*
X117898356Y65883413D02*
X117993594Y65835794D01*
X115932163Y49881509D02*
X115932163Y50881509D01*
X115932163Y50881509D02*
X115551211Y50881509D01*
X115551211Y50881509D02*
X115455973Y50833890D01*
X115455973Y50833890D02*
X115408354Y50786271D01*
X115408354Y50786271D02*
X115360735Y50691033D01*
X115360735Y50691033D02*
X115360735Y50548176D01*
X115360735Y50548176D02*
X115408354Y50452938D01*
X115408354Y50452938D02*
X115455973Y50405319D01*
X115455973Y50405319D02*
X115551211Y50357700D01*
X115551211Y50357700D02*
X115932163Y50357700D01*
X114408354Y49881509D02*
X114979782Y49881509D01*
X114694068Y49881509D02*
X114694068Y50881509D01*
X114694068Y50881509D02*
X114789306Y50738652D01*
X114789306Y50738652D02*
X114884544Y50643414D01*
X114884544Y50643414D02*
X114979782Y50595795D01*
X113932163Y49881509D02*
X113741687Y49881509D01*
X113741687Y49881509D02*
X113646449Y49929129D01*
X113646449Y49929129D02*
X113598830Y49976748D01*
X113598830Y49976748D02*
X113503592Y50119605D01*
X113503592Y50119605D02*
X113455973Y50310081D01*
X113455973Y50310081D02*
X113455973Y50691033D01*
X113455973Y50691033D02*
X113503592Y50786271D01*
X113503592Y50786271D02*
X113551211Y50833890D01*
X113551211Y50833890D02*
X113646449Y50881509D01*
X113646449Y50881509D02*
X113836925Y50881509D01*
X113836925Y50881509D02*
X113932163Y50833890D01*
X113932163Y50833890D02*
X113979782Y50786271D01*
X113979782Y50786271D02*
X114027401Y50691033D01*
X114027401Y50691033D02*
X114027401Y50452938D01*
X114027401Y50452938D02*
X113979782Y50357700D01*
X113979782Y50357700D02*
X113932163Y50310081D01*
X113932163Y50310081D02*
X113836925Y50262462D01*
X113836925Y50262462D02*
X113646449Y50262462D01*
X113646449Y50262462D02*
X113551211Y50310081D01*
X113551211Y50310081D02*
X113503592Y50357700D01*
X113503592Y50357700D02*
X113455973Y50452938D01*
X118945975Y49881508D02*
X118945975Y50881508D01*
X118945975Y50881508D02*
X118565023Y50881508D01*
X118565023Y50881508D02*
X118469785Y50833889D01*
X118469785Y50833889D02*
X118422166Y50786270D01*
X118422166Y50786270D02*
X118374547Y50691032D01*
X118374547Y50691032D02*
X118374547Y50548175D01*
X118374547Y50548175D02*
X118422166Y50452937D01*
X118422166Y50452937D02*
X118469785Y50405318D01*
X118469785Y50405318D02*
X118565023Y50357699D01*
X118565023Y50357699D02*
X118945975Y50357699D01*
X117517404Y50548175D02*
X117517404Y49881508D01*
X117755499Y50929128D02*
X117993594Y50214842D01*
X117993594Y50214842D02*
X117374547Y50214842D01*
X123858357Y67666508D02*
X124334547Y67666508D01*
X124334547Y67666508D02*
X124334547Y68666508D01*
X122477404Y68666508D02*
X122477404Y67952223D01*
X122477404Y67952223D02*
X122525023Y67809366D01*
X122525023Y67809366D02*
X122620261Y67714128D01*
X122620261Y67714128D02*
X122763118Y67666508D01*
X122763118Y67666508D02*
X122858356Y67666508D01*
X121572642Y68333175D02*
X121572642Y67666508D01*
X122001213Y68333175D02*
X122001213Y67809366D01*
X122001213Y67809366D02*
X121953594Y67714128D01*
X121953594Y67714128D02*
X121858356Y67666508D01*
X121858356Y67666508D02*
X121715499Y67666508D01*
X121715499Y67666508D02*
X121620261Y67714128D01*
X121620261Y67714128D02*
X121572642Y67761747D01*
X121096451Y67666508D02*
X121096451Y68333175D01*
X121096451Y68237937D02*
X121048832Y68285556D01*
X121048832Y68285556D02*
X120953594Y68333175D01*
X120953594Y68333175D02*
X120810737Y68333175D01*
X120810737Y68333175D02*
X120715499Y68285556D01*
X120715499Y68285556D02*
X120667880Y68190318D01*
X120667880Y68190318D02*
X120667880Y67666508D01*
X120667880Y68190318D02*
X120620261Y68285556D01*
X120620261Y68285556D02*
X120525023Y68333175D01*
X120525023Y68333175D02*
X120382166Y68333175D01*
X120382166Y68333175D02*
X120286927Y68285556D01*
X120286927Y68285556D02*
X120239308Y68190318D01*
X120239308Y68190318D02*
X120239308Y67666508D01*
X119763118Y68333175D02*
X119763118Y67333175D01*
X119763118Y68285556D02*
X119667880Y68333175D01*
X119667880Y68333175D02*
X119477404Y68333175D01*
X119477404Y68333175D02*
X119382166Y68285556D01*
X119382166Y68285556D02*
X119334547Y68237937D01*
X119334547Y68237937D02*
X119286928Y68142699D01*
X119286928Y68142699D02*
X119286928Y67856985D01*
X119286928Y67856985D02*
X119334547Y67761747D01*
X119334547Y67761747D02*
X119382166Y67714128D01*
X119382166Y67714128D02*
X119477404Y67666508D01*
X119477404Y67666508D02*
X119667880Y67666508D01*
X119667880Y67666508D02*
X119763118Y67714128D01*
X118477404Y67714128D02*
X118572642Y67666508D01*
X118572642Y67666508D02*
X118763118Y67666508D01*
X118763118Y67666508D02*
X118858356Y67714128D01*
X118858356Y67714128D02*
X118905975Y67809366D01*
X118905975Y67809366D02*
X118905975Y68190318D01*
X118905975Y68190318D02*
X118858356Y68285556D01*
X118858356Y68285556D02*
X118763118Y68333175D01*
X118763118Y68333175D02*
X118572642Y68333175D01*
X118572642Y68333175D02*
X118477404Y68285556D01*
X118477404Y68285556D02*
X118429785Y68190318D01*
X118429785Y68190318D02*
X118429785Y68095080D01*
X118429785Y68095080D02*
X118905975Y67999842D01*
X118001213Y67666508D02*
X118001213Y68333175D01*
X118001213Y68142699D02*
X117953594Y68237937D01*
X117953594Y68237937D02*
X117905975Y68285556D01*
X117905975Y68285556D02*
X117810737Y68333175D01*
X117810737Y68333175D02*
X117715499Y68333175D01*
X117429784Y67714128D02*
X117334546Y67666508D01*
X117334546Y67666508D02*
X117144070Y67666508D01*
X117144070Y67666508D02*
X117048832Y67714128D01*
X117048832Y67714128D02*
X117001213Y67809366D01*
X117001213Y67809366D02*
X117001213Y67856985D01*
X117001213Y67856985D02*
X117048832Y67952223D01*
X117048832Y67952223D02*
X117144070Y67999842D01*
X117144070Y67999842D02*
X117286927Y67999842D01*
X117286927Y67999842D02*
X117382165Y68047461D01*
X117382165Y68047461D02*
X117429784Y68142699D01*
X117429784Y68142699D02*
X117429784Y68190318D01*
X117429784Y68190318D02*
X117382165Y68285556D01*
X117382165Y68285556D02*
X117286927Y68333175D01*
X117286927Y68333175D02*
X117144070Y68333175D01*
X117144070Y68333175D02*
X117048832Y68285556D01*
X116525022Y67714128D02*
X116525022Y67666508D01*
X116525022Y67666508D02*
X116572641Y67571270D01*
X116572641Y67571270D02*
X116620260Y67523651D01*
X115334546Y67666508D02*
X115334546Y68666508D01*
X115334546Y68666508D02*
X115001213Y67952223D01*
X115001213Y67952223D02*
X114667880Y68666508D01*
X114667880Y68666508D02*
X114667880Y67666508D01*
X113620261Y67761747D02*
X113667880Y67714128D01*
X113667880Y67714128D02*
X113810737Y67666508D01*
X113810737Y67666508D02*
X113905975Y67666508D01*
X113905975Y67666508D02*
X114048832Y67714128D01*
X114048832Y67714128D02*
X114144070Y67809366D01*
X114144070Y67809366D02*
X114191689Y67904604D01*
X114191689Y67904604D02*
X114239308Y68095080D01*
X114239308Y68095080D02*
X114239308Y68237937D01*
X114239308Y68237937D02*
X114191689Y68428413D01*
X114191689Y68428413D02*
X114144070Y68523651D01*
X114144070Y68523651D02*
X114048832Y68618889D01*
X114048832Y68618889D02*
X113905975Y68666508D01*
X113905975Y68666508D02*
X113810737Y68666508D01*
X113810737Y68666508D02*
X113667880Y68618889D01*
X113667880Y68618889D02*
X113620261Y68571270D01*
X113191689Y68666508D02*
X113191689Y67856985D01*
X113191689Y67856985D02*
X113144070Y67761747D01*
X113144070Y67761747D02*
X113096451Y67714128D01*
X113096451Y67714128D02*
X113001213Y67666508D01*
X113001213Y67666508D02*
X112810737Y67666508D01*
X112810737Y67666508D02*
X112715499Y67714128D01*
X112715499Y67714128D02*
X112667880Y67761747D01*
X112667880Y67761747D02*
X112620261Y67856985D01*
X112620261Y67856985D02*
X112620261Y68666508D01*
X111382165Y67666508D02*
X111382165Y68666508D01*
X111382165Y68666508D02*
X111144070Y68666508D01*
X111144070Y68666508D02*
X111001213Y68618889D01*
X111001213Y68618889D02*
X110905975Y68523651D01*
X110905975Y68523651D02*
X110858356Y68428413D01*
X110858356Y68428413D02*
X110810737Y68237937D01*
X110810737Y68237937D02*
X110810737Y68095080D01*
X110810737Y68095080D02*
X110858356Y67904604D01*
X110858356Y67904604D02*
X110905975Y67809366D01*
X110905975Y67809366D02*
X111001213Y67714128D01*
X111001213Y67714128D02*
X111144070Y67666508D01*
X111144070Y67666508D02*
X111382165Y67666508D01*
X110239308Y67666508D02*
X110334546Y67714128D01*
X110334546Y67714128D02*
X110382165Y67761747D01*
X110382165Y67761747D02*
X110429784Y67856985D01*
X110429784Y67856985D02*
X110429784Y68142699D01*
X110429784Y68142699D02*
X110382165Y68237937D01*
X110382165Y68237937D02*
X110334546Y68285556D01*
X110334546Y68285556D02*
X110239308Y68333175D01*
X110239308Y68333175D02*
X110096451Y68333175D01*
X110096451Y68333175D02*
X110001213Y68285556D01*
X110001213Y68285556D02*
X109953594Y68237937D01*
X109953594Y68237937D02*
X109905975Y68142699D01*
X109905975Y68142699D02*
X109905975Y67856985D01*
X109905975Y67856985D02*
X109953594Y67761747D01*
X109953594Y67761747D02*
X110001213Y67714128D01*
X110001213Y67714128D02*
X110096451Y67666508D01*
X110096451Y67666508D02*
X110239308Y67666508D01*
X109572641Y68333175D02*
X109382165Y67666508D01*
X109382165Y67666508D02*
X109191689Y68142699D01*
X109191689Y68142699D02*
X109001213Y67666508D01*
X109001213Y67666508D02*
X108810737Y68333175D01*
X108429784Y68333175D02*
X108429784Y67666508D01*
X108429784Y68237937D02*
X108382165Y68285556D01*
X108382165Y68285556D02*
X108286927Y68333175D01*
X108286927Y68333175D02*
X108144070Y68333175D01*
X108144070Y68333175D02*
X108048832Y68285556D01*
X108048832Y68285556D02*
X108001213Y68190318D01*
X108001213Y68190318D02*
X108001213Y67666508D01*
X115932166Y44801508D02*
X115932166Y45801508D01*
X115932166Y45801508D02*
X115551214Y45801508D01*
X115551214Y45801508D02*
X115455976Y45753889D01*
X115455976Y45753889D02*
X115408357Y45706270D01*
X115408357Y45706270D02*
X115360738Y45611032D01*
X115360738Y45611032D02*
X115360738Y45468175D01*
X115360738Y45468175D02*
X115408357Y45372937D01*
X115408357Y45372937D02*
X115455976Y45325318D01*
X115455976Y45325318D02*
X115551214Y45277699D01*
X115551214Y45277699D02*
X115932166Y45277699D01*
X114408357Y44801508D02*
X114979785Y44801508D01*
X114694071Y44801508D02*
X114694071Y45801508D01*
X114694071Y45801508D02*
X114789309Y45658651D01*
X114789309Y45658651D02*
X114884547Y45563413D01*
X114884547Y45563413D02*
X114979785Y45515794D01*
X113503595Y45801508D02*
X113979785Y45801508D01*
X113979785Y45801508D02*
X114027404Y45325318D01*
X114027404Y45325318D02*
X113979785Y45372937D01*
X113979785Y45372937D02*
X113884547Y45420556D01*
X113884547Y45420556D02*
X113646452Y45420556D01*
X113646452Y45420556D02*
X113551214Y45372937D01*
X113551214Y45372937D02*
X113503595Y45325318D01*
X113503595Y45325318D02*
X113455976Y45230080D01*
X113455976Y45230080D02*
X113455976Y44991985D01*
X113455976Y44991985D02*
X113503595Y44896747D01*
X113503595Y44896747D02*
X113551214Y44849128D01*
X113551214Y44849128D02*
X113646452Y44801508D01*
X113646452Y44801508D02*
X113884547Y44801508D01*
X113884547Y44801508D02*
X113979785Y44849128D01*
X113979785Y44849128D02*
X114027404Y44896747D01*
D10*
%TO.C,D4*%
X5071704Y17455713D02*
X5859550Y17594631D01*
X5465627Y17525173D02*
X5378803Y18017576D01*
X5569816Y16934288D02*
X5028172Y16838781D01*
X5569816Y16934288D02*
X5071704Y17455713D01*
X5569816Y16934288D02*
X6111460Y17029791D01*
X5639275Y16540364D02*
X5569816Y16934288D01*
X5859550Y17594631D02*
X5569816Y16934288D01*
%TO.C,D15*%
X66167883Y65826321D02*
X66967883Y65826321D01*
X66567881Y65826323D02*
X66567883Y66326321D01*
X66567883Y64826321D02*
X66567884Y65226322D01*
X66567884Y65226322D02*
X66017887Y65226322D01*
X66567884Y65226322D02*
X66167883Y65826321D01*
X66567884Y65226322D02*
X67117880Y65226318D01*
X66967883Y65826321D02*
X66567884Y65226322D01*
D12*
%TO.C,DISP1*%
X109757880Y33006318D02*
X109757880Y30346317D01*
X122577880Y33006318D02*
X109757880Y33006318D01*
X122577880Y33006318D02*
X122577880Y30346319D01*
X122577880Y30346319D02*
X109757880Y30346317D01*
D11*
%TO.C,S16*%
X87167878Y31376318D02*
X87167880Y32376315D01*
X87167881Y18376320D02*
X87167878Y19376318D01*
X87167881Y18376320D02*
X88167878Y18376318D01*
X88167878Y32376318D02*
X87167880Y32376315D01*
X92167876Y29576318D02*
X92667878Y29076318D01*
X92167878Y33076318D02*
X92667878Y33576318D01*
X92667878Y33576318D02*
X95667878Y33576318D01*
X92667878Y29076318D02*
X95167878Y29076318D01*
X95667878Y33576318D02*
X96167878Y33076318D01*
X96167878Y32076315D02*
X96167878Y33076318D01*
X96667878Y26876318D02*
X101167878Y26876318D01*
X96667880Y27576318D02*
X96667878Y26876318D01*
X100167878Y18376318D02*
X101167876Y18376321D01*
X101167875Y32376316D02*
X100167878Y32376318D01*
X101167875Y32376316D02*
X100167878Y32376318D01*
X101167875Y32376316D02*
X101167878Y31376318D01*
X101167875Y32376316D02*
X101167878Y31376318D01*
X101167878Y31576318D02*
X96667878Y31576318D01*
X101167878Y30976318D02*
X101167878Y31576318D01*
X101167878Y26876318D02*
X101167878Y27376318D01*
X101167878Y19376318D02*
X101167876Y18376321D01*
X95137877Y29076319D02*
G75*
G02*
X96667879Y27546318I1J-1530001D01*
G01*
X96668275Y31576218D02*
G75*
G02*
X96167878Y32066319I-397J500100D01*
G01*
D10*
%TO.C,D13*%
X66167882Y29826315D02*
X66967882Y29826315D01*
X66567880Y29826317D02*
X66567882Y30326315D01*
X66567882Y28826315D02*
X66567883Y29226316D01*
X66567883Y29226316D02*
X66017886Y29226316D01*
X66567883Y29226316D02*
X66167882Y29826315D01*
X66567883Y29226316D02*
X67117879Y29226312D01*
X66967882Y29826315D02*
X66567883Y29226316D01*
%TO.C,D10*%
X46167885Y39826322D02*
X46967885Y39826322D01*
X46567883Y39826324D02*
X46567885Y40326322D01*
X46567885Y38826322D02*
X46567886Y39226323D01*
X46567886Y39226323D02*
X46017889Y39226323D01*
X46567886Y39226323D02*
X46167885Y39826322D01*
X46567886Y39226323D02*
X47117882Y39226319D01*
X46967885Y39826322D02*
X46567886Y39226323D01*
%TO.C,D18*%
X86167885Y60826323D02*
X86967885Y60826323D01*
X86567883Y60826325D02*
X86567885Y61326323D01*
X86567885Y59826323D02*
X86567886Y60226324D01*
X86567886Y60226324D02*
X86017889Y60226324D01*
X86567886Y60226324D02*
X86167885Y60826323D01*
X86567886Y60226324D02*
X87117882Y60226320D01*
X86967885Y60826323D02*
X86567886Y60226324D01*
D11*
%TO.C,S7*%
X27167884Y36376331D02*
X27167886Y37376328D01*
X27167887Y23376333D02*
X27167884Y24376331D01*
X27167887Y23376333D02*
X28167884Y23376331D01*
X28167884Y37376331D02*
X27167886Y37376328D01*
X32167882Y34576331D02*
X32667884Y34076331D01*
X32167884Y38076331D02*
X32667884Y38576331D01*
X32667884Y38576331D02*
X35667884Y38576331D01*
X32667884Y34076331D02*
X35167884Y34076331D01*
X35667884Y38576331D02*
X36167884Y38076331D01*
X36167884Y37076328D02*
X36167884Y38076331D01*
X36667884Y31876331D02*
X41167884Y31876331D01*
X36667886Y32576331D02*
X36667884Y31876331D01*
X40167884Y23376331D02*
X41167882Y23376334D01*
X41167881Y37376329D02*
X40167884Y37376331D01*
X41167881Y37376329D02*
X40167884Y37376331D01*
X41167881Y37376329D02*
X41167884Y36376331D01*
X41167881Y37376329D02*
X41167884Y36376331D01*
X41167884Y36576331D02*
X36667884Y36576331D01*
X41167884Y35976331D02*
X41167884Y36576331D01*
X41167884Y31876331D02*
X41167884Y32376331D01*
X41167884Y24376331D02*
X41167882Y23376334D01*
X35137883Y34076332D02*
G75*
G02*
X36667885Y32546331I1J-1530001D01*
G01*
X36668281Y36576231D02*
G75*
G02*
X36167884Y37066332I-397J500100D01*
G01*
%TO.C,S18*%
X87167884Y67376320D02*
X87167886Y68376317D01*
X87167887Y54376322D02*
X87167884Y55376320D01*
X87167887Y54376322D02*
X88167884Y54376320D01*
X88167884Y68376320D02*
X87167886Y68376317D01*
X92167882Y65576320D02*
X92667884Y65076320D01*
X92167884Y69076320D02*
X92667884Y69576320D01*
X92667884Y69576320D02*
X95667884Y69576320D01*
X92667884Y65076320D02*
X95167884Y65076320D01*
X95667884Y69576320D02*
X96167884Y69076320D01*
X96167884Y68076317D02*
X96167884Y69076320D01*
X96667884Y62876320D02*
X101167884Y62876320D01*
X96667886Y63576320D02*
X96667884Y62876320D01*
X100167884Y54376320D02*
X101167882Y54376323D01*
X101167881Y68376318D02*
X100167884Y68376320D01*
X101167881Y68376318D02*
X100167884Y68376320D01*
X101167881Y68376318D02*
X101167884Y67376320D01*
X101167881Y68376318D02*
X101167884Y67376320D01*
X101167884Y67576320D02*
X96667884Y67576320D01*
X101167884Y66976320D02*
X101167884Y67576320D01*
X101167884Y62876320D02*
X101167884Y63376320D01*
X101167884Y55376320D02*
X101167882Y54376323D01*
X95137883Y65076321D02*
G75*
G02*
X96667885Y63546320I1J-1530001D01*
G01*
X96668281Y67576220D02*
G75*
G02*
X96167884Y68066321I-397J500100D01*
G01*
D10*
%TO.C,D2*%
X-16881875Y26785251D02*
X-16094029Y26924169D01*
X-16487952Y26854711D02*
X-16574776Y27347114D01*
X-16383763Y26263826D02*
X-16925407Y26168319D01*
X-16383763Y26263826D02*
X-16881875Y26785251D01*
X-16383763Y26263826D02*
X-15842119Y26359329D01*
X-16314304Y25869902D02*
X-16383763Y26263826D01*
X-16094029Y26924169D02*
X-16383763Y26263826D01*
%TO.C,D17*%
X86167875Y42826313D02*
X86967875Y42826313D01*
X86567873Y42826315D02*
X86567875Y43326313D01*
X86567875Y41826313D02*
X86567876Y42226314D01*
X86567876Y42226314D02*
X86017879Y42226314D01*
X86567876Y42226314D02*
X86167875Y42826313D01*
X86567876Y42226314D02*
X87117872Y42226310D01*
X86967875Y42826313D02*
X86567876Y42226314D01*
%TO.C,D16*%
X86167878Y24826327D02*
X86967878Y24826327D01*
X86567876Y24826329D02*
X86567878Y25326327D01*
X86567878Y23826327D02*
X86567879Y24226328D01*
X86567879Y24226328D02*
X86017882Y24226328D01*
X86567879Y24226328D02*
X86167878Y24826327D01*
X86567879Y24226328D02*
X87117875Y24226324D01*
X86967878Y24826327D02*
X86567879Y24226328D01*
D11*
%TO.C,S15*%
X67167879Y72376328D02*
X67167881Y73376325D01*
X67167882Y59376330D02*
X67167879Y60376328D01*
X67167882Y59376330D02*
X68167879Y59376328D01*
X68167879Y73376328D02*
X67167881Y73376325D01*
X72167877Y70576328D02*
X72667879Y70076328D01*
X72167879Y74076328D02*
X72667879Y74576328D01*
X72667879Y74576328D02*
X75667879Y74576328D01*
X72667879Y70076328D02*
X75167879Y70076328D01*
X75667879Y74576328D02*
X76167879Y74076328D01*
X76167879Y73076325D02*
X76167879Y74076328D01*
X76667879Y67876328D02*
X81167879Y67876328D01*
X76667881Y68576328D02*
X76667879Y67876328D01*
X80167879Y59376328D02*
X81167877Y59376331D01*
X81167876Y73376326D02*
X80167879Y73376328D01*
X81167876Y73376326D02*
X80167879Y73376328D01*
X81167876Y73376326D02*
X81167879Y72376328D01*
X81167876Y73376326D02*
X81167879Y72376328D01*
X81167879Y72576328D02*
X76667879Y72576328D01*
X81167879Y71976328D02*
X81167879Y72576328D01*
X81167879Y67876328D02*
X81167879Y68376328D01*
X81167879Y60376328D02*
X81167877Y59376331D01*
X75137878Y70076329D02*
G75*
G02*
X76667880Y68546328I1J-1530001D01*
G01*
X76668276Y72576228D02*
G75*
G02*
X76167879Y73066329I-397J500100D01*
G01*
D10*
%TO.C,D5*%
X1946040Y35182257D02*
X2733886Y35321175D01*
X2339963Y35251717D02*
X2253139Y35744120D01*
X2444152Y34660832D02*
X1902508Y34565325D01*
X2444152Y34660832D02*
X1946040Y35182257D01*
X2444152Y34660832D02*
X2985796Y34756335D01*
X2513611Y34266908D02*
X2444152Y34660832D01*
X2733886Y35321175D02*
X2444152Y34660832D01*
D12*
%TO.C,JST1*%
X112507888Y7736330D02*
X112507885Y6736328D01*
X112507888Y-83670D02*
X112507888Y916330D01*
X113427888Y7736330D02*
X112507888Y7736330D01*
X113427888Y-83670D02*
X112507888Y-83670D01*
D10*
X114067884Y8776330D02*
X115067888Y8776330D01*
X116567887Y8276332D02*
X116567888Y9276330D01*
X117067888Y8776330D02*
X116067888Y8776330D01*
D12*
X117627889Y-83669D02*
X118627888Y-83670D01*
X117707888Y7736331D02*
X118627888Y7736330D01*
X118627888Y7736330D02*
X118627886Y6736328D01*
X118627888Y-83670D02*
X118627888Y916330D01*
%TO.C,SW3*%
X123242881Y24976315D02*
X123242881Y23276315D01*
X123242881Y21976312D02*
X123242881Y21776315D01*
X124292880Y26826315D02*
X125082877Y26826315D01*
X125082877Y19926315D02*
X124292881Y19926315D01*
X126092881Y26226315D02*
X126092881Y20526315D01*
D11*
%TO.C,S14*%
X67167876Y54376320D02*
X67167878Y55376317D01*
X67167879Y41376322D02*
X67167876Y42376320D01*
X67167879Y41376322D02*
X68167876Y41376320D01*
X68167876Y55376320D02*
X67167878Y55376317D01*
X72167874Y52576320D02*
X72667876Y52076320D01*
X72167876Y56076320D02*
X72667876Y56576320D01*
X72667876Y56576320D02*
X75667876Y56576320D01*
X72667876Y52076320D02*
X75167876Y52076320D01*
X75667876Y56576320D02*
X76167876Y56076320D01*
X76167876Y55076317D02*
X76167876Y56076320D01*
X76667876Y49876320D02*
X81167876Y49876320D01*
X76667878Y50576320D02*
X76667876Y49876320D01*
X80167876Y41376320D02*
X81167874Y41376323D01*
X81167873Y55376318D02*
X80167876Y55376320D01*
X81167873Y55376318D02*
X80167876Y55376320D01*
X81167873Y55376318D02*
X81167876Y54376320D01*
X81167873Y55376318D02*
X81167876Y54376320D01*
X81167876Y54576320D02*
X76667876Y54576320D01*
X81167876Y53976320D02*
X81167876Y54576320D01*
X81167876Y49876320D02*
X81167876Y50376320D01*
X81167876Y42376320D02*
X81167874Y41376323D01*
X75137875Y52076321D02*
G75*
G02*
X76667877Y50546320I1J-1530001D01*
G01*
X76668273Y54576220D02*
G75*
G02*
X76167876Y55066321I-397J500100D01*
G01*
D10*
%TO.C,D1*%
X-13756215Y9058706D02*
X-12968369Y9197624D01*
X-13362292Y9128166D02*
X-13449116Y9620569D01*
X-13258103Y8537281D02*
X-13799747Y8441774D01*
X-13258103Y8537281D02*
X-13756215Y9058706D01*
X-13258103Y8537281D02*
X-12716459Y8632784D01*
X-13188644Y8143357D02*
X-13258103Y8537281D01*
X-12968369Y9197624D02*
X-13258103Y8537281D01*
D11*
%TO.C,S19*%
X92794818Y-1414906D02*
X93053637Y-448981D01*
X92794818Y-1414906D02*
X93760744Y-1673726D01*
X96159465Y11142129D02*
X96418285Y12108055D01*
X97384210Y11849236D02*
X96418285Y12108055D01*
X100523219Y8109368D02*
X100876774Y7496995D01*
X100876774Y7496995D02*
X103291588Y6849948D01*
X101429087Y11490108D02*
X102041459Y11843661D01*
X102041459Y11843661D02*
X104939237Y11067204D01*
X104171075Y4336682D02*
X108517741Y3171995D01*
X104352248Y5012830D02*
X104171075Y4336682D01*
X104939237Y11067204D02*
X105292790Y10454832D01*
X105033971Y9488905D02*
X105292790Y10454832D01*
X105351854Y-4779554D02*
X106317779Y-5038373D01*
X106576599Y-4072447D02*
X106317779Y-5038373D01*
X108517741Y3171995D02*
X108647151Y3654958D01*
X109578899Y7132292D02*
X109734191Y7711848D01*
X109734191Y7711848D02*
X105387525Y8876534D01*
X109941246Y8484588D02*
X108975320Y8743408D01*
X109941246Y8484588D02*
X108975320Y8743408D01*
X109941246Y8484588D02*
X109682427Y7518663D01*
X109941246Y8484588D02*
X109682427Y7518663D01*
X103262611Y6857712D02*
G75*
G02*
X104344483Y4983852I-395994J-1477866D01*
G01*
X105387883Y8876328D02*
G75*
G02*
X105031378Y9479249I129051J483168D01*
G01*
D10*
%TO.C,D6*%
X-1179635Y52908792D02*
X-391789Y53047710D01*
X-785712Y52978252D02*
X-872536Y53470655D01*
X-681523Y52387367D02*
X-1223167Y52291860D01*
X-681523Y52387367D02*
X-1179635Y52908792D01*
X-681523Y52387367D02*
X-139879Y52482870D01*
X-612064Y51993443D02*
X-681523Y52387367D01*
X-391789Y53047710D02*
X-681523Y52387367D01*
%TO.C,D12*%
X46167881Y75826321D02*
X46967881Y75826321D01*
X46567879Y75826323D02*
X46567881Y76326321D01*
X46567881Y74826321D02*
X46567882Y75226322D01*
X46567882Y75226322D02*
X46017885Y75226322D01*
X46567882Y75226322D02*
X46167881Y75826321D01*
X46567882Y75226322D02*
X47117878Y75226318D01*
X46967881Y75826321D02*
X46567882Y75226322D01*
D11*
%TO.C,S11*%
X47167870Y64376323D02*
X47167872Y65376320D01*
X47167873Y51376325D02*
X47167870Y52376323D01*
X47167873Y51376325D02*
X48167870Y51376323D01*
X48167870Y65376323D02*
X47167872Y65376320D01*
X52167868Y62576323D02*
X52667870Y62076323D01*
X52167870Y66076323D02*
X52667870Y66576323D01*
X52667870Y66576323D02*
X55667870Y66576323D01*
X52667870Y62076323D02*
X55167870Y62076323D01*
X55667870Y66576323D02*
X56167870Y66076323D01*
X56167870Y65076320D02*
X56167870Y66076323D01*
X56667870Y59876323D02*
X61167870Y59876323D01*
X56667872Y60576323D02*
X56667870Y59876323D01*
X60167870Y51376323D02*
X61167868Y51376326D01*
X61167867Y65376321D02*
X60167870Y65376323D01*
X61167867Y65376321D02*
X60167870Y65376323D01*
X61167867Y65376321D02*
X61167870Y64376323D01*
X61167867Y65376321D02*
X61167870Y64376323D01*
X61167870Y64576323D02*
X56667870Y64576323D01*
X61167870Y63976323D02*
X61167870Y64576323D01*
X61167870Y59876323D02*
X61167870Y60376323D01*
X61167870Y52376323D02*
X61167868Y51376326D01*
X55137869Y62076324D02*
G75*
G02*
X56667871Y60546323I1J-1530001D01*
G01*
X56668267Y64576223D02*
G75*
G02*
X56167870Y65066324I-397J500100D01*
G01*
%TO.C,S12*%
X47167882Y82376324D02*
X47167884Y83376321D01*
X47167885Y69376326D02*
X47167882Y70376324D01*
X47167885Y69376326D02*
X48167882Y69376324D01*
X48167882Y83376324D02*
X47167884Y83376321D01*
X52167880Y80576324D02*
X52667882Y80076324D01*
X52167882Y84076324D02*
X52667882Y84576324D01*
X52667882Y84576324D02*
X55667882Y84576324D01*
X52667882Y80076324D02*
X55167882Y80076324D01*
X55667882Y84576324D02*
X56167882Y84076324D01*
X56167882Y83076321D02*
X56167882Y84076324D01*
X56667882Y77876324D02*
X61167882Y77876324D01*
X56667884Y78576324D02*
X56667882Y77876324D01*
X60167882Y69376324D02*
X61167880Y69376327D01*
X61167879Y83376322D02*
X60167882Y83376324D01*
X61167879Y83376322D02*
X60167882Y83376324D01*
X61167879Y83376322D02*
X61167882Y82376324D01*
X61167879Y83376322D02*
X61167882Y82376324D01*
X61167882Y82576324D02*
X56667882Y82576324D01*
X61167882Y81976324D02*
X61167882Y82576324D01*
X61167882Y77876324D02*
X61167882Y78376324D01*
X61167882Y70376324D02*
X61167880Y69376327D01*
X55137881Y80076325D02*
G75*
G02*
X56667883Y78546324I1J-1530001D01*
G01*
X56668279Y82576224D02*
G75*
G02*
X56167882Y83066325I-397J500100D01*
G01*
%TO.C,S6*%
X-1332221Y59532925D02*
X-1505870Y60517733D01*
X-521062Y60691381D02*
X-1505870Y60517733D01*
X925205Y46730424D02*
X751557Y47715232D01*
X925205Y46730424D02*
X1910013Y46904073D01*
X3296616Y62075339D02*
X3702195Y62654567D01*
X3702195Y62654567D02*
X6656619Y63175512D01*
X3904382Y58628512D02*
X4483612Y58222934D01*
X4483612Y58222934D02*
X6945631Y58657053D01*
X6656619Y63175512D02*
X7235847Y62769932D01*
X7409493Y61785120D02*
X7235847Y62769932D01*
X8683317Y57440314D02*
X8804869Y56750948D01*
X8804869Y56750948D02*
X13236506Y57532365D01*
X12281439Y62948808D02*
X11296631Y62775159D01*
X12281439Y62948808D02*
X11296631Y62775159D01*
X12281439Y62948808D02*
X12455087Y61964000D01*
X12281439Y62948808D02*
X12455087Y61964000D01*
X12420358Y62160961D02*
X7988722Y61379547D01*
X12524546Y61570077D02*
X12420358Y62160961D01*
X13236506Y57532365D02*
X13149680Y58024769D01*
X13727706Y48987851D02*
X14712514Y49161499D01*
X14538865Y50146307D02*
X14712514Y49161499D01*
X6916087Y58651843D02*
G75*
G02*
X8688524Y57410769I265682J-1506755D01*
G01*
X7989131Y61379514D02*
G75*
G02*
X7411231Y61775277I-87232J492434D01*
G01*
%TO.C,S2*%
X-17034461Y33409386D02*
X-17208110Y34394194D01*
X-16223302Y34567842D02*
X-17208110Y34394194D01*
X-14777035Y20606885D02*
X-14950683Y21591693D01*
X-14777035Y20606885D02*
X-13792227Y20780534D01*
X-12405624Y35951800D02*
X-12000045Y36531028D01*
X-12000045Y36531028D02*
X-9045621Y37051973D01*
X-11797858Y32504973D02*
X-11218628Y32099395D01*
X-11218628Y32099395D02*
X-8756609Y32533514D01*
X-9045621Y37051973D02*
X-8466393Y36646393D01*
X-8292747Y35661581D02*
X-8466393Y36646393D01*
X-7018923Y31316775D02*
X-6897371Y30627409D01*
X-6897371Y30627409D02*
X-2465734Y31408826D01*
X-3420801Y36825269D02*
X-4405609Y36651620D01*
X-3420801Y36825269D02*
X-4405609Y36651620D01*
X-3420801Y36825269D02*
X-3247153Y35840461D01*
X-3420801Y36825269D02*
X-3247153Y35840461D01*
X-3281882Y36037422D02*
X-7713518Y35256008D01*
X-3177694Y35446538D02*
X-3281882Y36037422D01*
X-2465734Y31408826D02*
X-2552560Y31901230D01*
X-1974534Y22864312D02*
X-989726Y23037960D01*
X-1163375Y24022768D02*
X-989726Y23037960D01*
X-8786153Y32528304D02*
G75*
G02*
X-7013716Y31287230I265682J-1506755D01*
G01*
X-7713109Y35255975D02*
G75*
G02*
X-8291009Y35651738I-87232J492434D01*
G01*
D10*
%TO.C,D20*%
X118649601Y-4368587D02*
X118879031Y-4040926D01*
X118879031Y-4040926D02*
X118428498Y-3725459D01*
X118879031Y-4040926D02*
X118895517Y-3320002D01*
X118879031Y-4040926D02*
X119329564Y-4356391D01*
X118895517Y-3320002D02*
X119550838Y-3778866D01*
X119223180Y-3549434D02*
X119509965Y-3139859D01*
X119550838Y-3778866D02*
X118879031Y-4040926D01*
D11*
%TO.C,S5*%
X1793445Y41806383D02*
X1619796Y42791191D01*
X2604604Y42964839D02*
X1619796Y42791191D01*
X4050871Y29003882D02*
X3877223Y29988690D01*
X4050871Y29003882D02*
X5035679Y29177531D01*
X6422282Y44348797D02*
X6827861Y44928025D01*
X6827861Y44928025D02*
X9782285Y45448970D01*
X7030048Y40901970D02*
X7609278Y40496392D01*
X7609278Y40496392D02*
X10071297Y40930511D01*
X9782285Y45448970D02*
X10361513Y45043390D01*
X10535159Y44058578D02*
X10361513Y45043390D01*
X11808983Y39713772D02*
X11930535Y39024406D01*
X11930535Y39024406D02*
X16362172Y39805823D01*
X15407105Y45222266D02*
X14422297Y45048617D01*
X15407105Y45222266D02*
X14422297Y45048617D01*
X15407105Y45222266D02*
X15580753Y44237458D01*
X15407105Y45222266D02*
X15580753Y44237458D01*
X15546024Y44434419D02*
X11114388Y43653005D01*
X15650212Y43843535D02*
X15546024Y44434419D01*
X16362172Y39805823D02*
X16275346Y40298227D01*
X16853372Y31261309D02*
X17838180Y31434957D01*
X17664531Y32419765D02*
X17838180Y31434957D01*
X10041753Y40925301D02*
G75*
G02*
X11814190Y39684227I265682J-1506755D01*
G01*
X11114797Y43652972D02*
G75*
G02*
X10536897Y44048735I-87232J492434D01*
G01*
D10*
%TO.C,D14*%
X66167878Y47826322D02*
X66967878Y47826322D01*
X66567876Y47826324D02*
X66567878Y48326322D01*
X66567878Y46826322D02*
X66567879Y47226323D01*
X66567879Y47226323D02*
X66017882Y47226323D01*
X66567879Y47226323D02*
X66167878Y47826322D01*
X66567879Y47226323D02*
X67117875Y47226319D01*
X66967878Y47826322D02*
X66567879Y47226323D01*
D11*
%TO.C,S20*%
X116015102Y-9177101D02*
X116588679Y-8357949D01*
X116015102Y-9177101D02*
X116834255Y-9750678D01*
X123471596Y1471875D02*
X124045173Y2291028D01*
X124864325Y1717451D02*
X124045173Y2291028D01*
X126534919Y-2870481D02*
X126657707Y-3566845D01*
X126657707Y-3566845D02*
X128705587Y-5000786D01*
X126664079Y-16633595D02*
X127483231Y-17207172D01*
X128056808Y-16388019D02*
X127483231Y-17207172D01*
X128542436Y-3448D02*
X129238801Y119339D01*
X128672447Y-7663285D02*
X132358631Y-10244379D01*
X129073950Y-7089879D02*
X128672447Y-7663285D01*
X129238801Y119339D02*
X131696257Y-1601390D01*
X131245468Y-3116906D02*
X131819045Y-2297754D01*
X131696257Y-1601390D02*
X131819045Y-2297754D01*
X132358631Y-10244379D02*
X132645420Y-9834800D01*
X134710295Y-6885856D02*
X135054440Y-6394364D01*
X135054440Y-6394364D02*
X131368256Y-3813270D01*
X135513302Y-5739043D02*
X134694149Y-5165466D01*
X135513302Y-5739043D02*
X134694149Y-5165466D01*
X135513302Y-5739043D02*
X134939725Y-6558195D01*
X135513302Y-5739043D02*
X134939725Y-6558195D01*
X128681012Y-4983579D02*
G75*
G02*
X129056742Y-7114453I-877572J-1253302D01*
G01*
X131368524Y-3813579D02*
G75*
G02*
X131239733Y-3125097I286520J409885D01*
G01*
D12*
%TO.C,SW1*%
X123242881Y15976330D02*
X123242881Y14276330D01*
X123242881Y12976327D02*
X123242881Y12776330D01*
X124292880Y17826330D02*
X125082877Y17826330D01*
X125082877Y10926330D02*
X124292881Y10926330D01*
X126092881Y17226330D02*
X126092881Y11526330D01*
D11*
%TO.C,S9*%
X27167881Y72376325D02*
X27167883Y73376322D01*
X27167884Y59376327D02*
X27167881Y60376325D01*
X27167884Y59376327D02*
X28167881Y59376325D01*
X28167881Y73376325D02*
X27167883Y73376322D01*
X32167879Y70576325D02*
X32667881Y70076325D01*
X32167881Y74076325D02*
X32667881Y74576325D01*
X32667881Y74576325D02*
X35667881Y74576325D01*
X32667881Y70076325D02*
X35167881Y70076325D01*
X35667881Y74576325D02*
X36167881Y74076325D01*
X36167881Y73076322D02*
X36167881Y74076325D01*
X36667881Y67876325D02*
X41167881Y67876325D01*
X36667883Y68576325D02*
X36667881Y67876325D01*
X40167881Y59376325D02*
X41167879Y59376328D01*
X41167878Y73376323D02*
X40167881Y73376325D01*
X41167878Y73376323D02*
X40167881Y73376325D01*
X41167878Y73376323D02*
X41167881Y72376325D01*
X41167878Y73376323D02*
X41167881Y72376325D01*
X41167881Y72576325D02*
X36667881Y72576325D01*
X41167881Y71976325D02*
X41167881Y72576325D01*
X41167881Y67876325D02*
X41167881Y68376325D01*
X41167881Y60376325D02*
X41167879Y59376328D01*
X35137880Y70076326D02*
G75*
G02*
X36667882Y68546325I1J-1530001D01*
G01*
X36668278Y72576225D02*
G75*
G02*
X36167881Y73066326I-397J500100D01*
G01*
D10*
%TO.C,D3*%
X-20007549Y44511788D02*
X-19219703Y44650706D01*
X-19613626Y44581248D02*
X-19700450Y45073651D01*
X-19509437Y43990363D02*
X-20051081Y43894856D01*
X-19509437Y43990363D02*
X-20007549Y44511788D01*
X-19509437Y43990363D02*
X-18967793Y44085866D01*
X-19439978Y43596439D02*
X-19509437Y43990363D01*
X-19219703Y44650706D02*
X-19509437Y43990363D01*
%TO.C,D8*%
X26167883Y47826313D02*
X26967883Y47826313D01*
X26567881Y47826315D02*
X26567883Y48326313D01*
X26567883Y46826313D02*
X26567884Y47226314D01*
X26567884Y47226314D02*
X26017887Y47226314D01*
X26567884Y47226314D02*
X26167883Y47826313D01*
X26567884Y47226314D02*
X27117880Y47226310D01*
X26967883Y47826313D02*
X26567884Y47226314D01*
D12*
%TO.C,MCU1*%
X107217881Y66906332D02*
X107217881Y36306328D01*
X107217881Y64306329D02*
X109877881Y64306328D01*
X109877881Y66906328D02*
X107217881Y66906332D01*
X109877881Y66906328D02*
X109877882Y36306328D01*
X109877882Y36306328D02*
X107217881Y36306328D01*
X122457881Y66906328D02*
X122457881Y36306328D01*
X125117881Y66906332D02*
X122457881Y66906328D01*
X125117881Y66906332D02*
X125117881Y36306328D01*
X125117881Y36306328D02*
X122457881Y36306328D01*
D11*
%TO.C,S1*%
X-13908795Y15682849D02*
X-14082444Y16667657D01*
X-13097636Y16841305D02*
X-14082444Y16667657D01*
X-11651369Y2880348D02*
X-11825017Y3865156D01*
X-11651369Y2880348D02*
X-10666561Y3053997D01*
X-9279958Y18225263D02*
X-8874379Y18804491D01*
X-8874379Y18804491D02*
X-5919955Y19325436D01*
X-8672192Y14778436D02*
X-8092962Y14372858D01*
X-8092962Y14372858D02*
X-5630943Y14806977D01*
X-5919955Y19325436D02*
X-5340727Y18919856D01*
X-5167081Y17935044D02*
X-5340727Y18919856D01*
X-3893257Y13590238D02*
X-3771705Y12900872D01*
X-3771705Y12900872D02*
X659932Y13682289D01*
X-295135Y19098732D02*
X-1279943Y18925083D01*
X-295135Y19098732D02*
X-1279943Y18925083D01*
X-295135Y19098732D02*
X-121487Y18113924D01*
X-295135Y19098732D02*
X-121487Y18113924D01*
X-156216Y18310885D02*
X-4587852Y17529471D01*
X-52028Y17720001D02*
X-156216Y18310885D01*
X659932Y13682289D02*
X573106Y14174693D01*
X1151132Y5137775D02*
X2135940Y5311423D01*
X1962291Y6296231D02*
X2135940Y5311423D01*
X-5660487Y14801767D02*
G75*
G02*
X-3888050Y13560693I265682J-1506755D01*
G01*
X-4587443Y17529438D02*
G75*
G02*
X-5165343Y17925201I-87232J492434D01*
G01*
%TO.C,S3*%
X-20160135Y51135931D02*
X-20333784Y52120739D01*
X-19348976Y52294387D02*
X-20333784Y52120739D01*
X-17902709Y38333430D02*
X-18076357Y39318238D01*
X-17902709Y38333430D02*
X-16917901Y38507079D01*
X-15531298Y53678345D02*
X-15125719Y54257573D01*
X-15125719Y54257573D02*
X-12171295Y54778518D01*
X-14923532Y50231518D02*
X-14344302Y49825940D01*
X-14344302Y49825940D02*
X-11882283Y50260059D01*
X-12171295Y54778518D02*
X-11592067Y54372938D01*
X-11418421Y53388126D02*
X-11592067Y54372938D01*
X-10144597Y49043320D02*
X-10023045Y48353954D01*
X-10023045Y48353954D02*
X-5591408Y49135371D01*
X-6546475Y54551814D02*
X-7531283Y54378165D01*
X-6546475Y54551814D02*
X-7531283Y54378165D01*
X-6546475Y54551814D02*
X-6372827Y53567006D01*
X-6546475Y54551814D02*
X-6372827Y53567006D01*
X-6407556Y53763967D02*
X-10839192Y52982553D01*
X-6303368Y53173083D02*
X-6407556Y53763967D01*
X-5591408Y49135371D02*
X-5678234Y49627775D01*
X-5100208Y40590857D02*
X-4115400Y40764505D01*
X-4289049Y41749313D02*
X-4115400Y40764505D01*
X-11911827Y50254849D02*
G75*
G02*
X-10139390Y49013775I265682J-1506755D01*
G01*
X-10838783Y52982520D02*
G75*
G02*
X-11416683Y53378283I-87232J492434D01*
G01*
D10*
%TO.C,D11*%
X46167881Y57826313D02*
X46967881Y57826313D01*
X46567879Y57826315D02*
X46567881Y58326313D01*
X46567881Y56826313D02*
X46567882Y57226314D01*
X46567882Y57226314D02*
X46017885Y57226314D01*
X46567882Y57226314D02*
X46167881Y57826313D01*
X46567882Y57226314D02*
X47117878Y57226310D01*
X46967881Y57826313D02*
X46567882Y57226314D01*
D11*
%TO.C,S8*%
X27167875Y54376321D02*
X27167877Y55376318D01*
X27167878Y41376323D02*
X27167875Y42376321D01*
X27167878Y41376323D02*
X28167875Y41376321D01*
X28167875Y55376321D02*
X27167877Y55376318D01*
X32167873Y52576321D02*
X32667875Y52076321D01*
X32167875Y56076321D02*
X32667875Y56576321D01*
X32667875Y56576321D02*
X35667875Y56576321D01*
X32667875Y52076321D02*
X35167875Y52076321D01*
X35667875Y56576321D02*
X36167875Y56076321D01*
X36167875Y55076318D02*
X36167875Y56076321D01*
X36667875Y49876321D02*
X41167875Y49876321D01*
X36667877Y50576321D02*
X36667875Y49876321D01*
X40167875Y41376321D02*
X41167873Y41376324D01*
X41167872Y55376319D02*
X40167875Y55376321D01*
X41167872Y55376319D02*
X40167875Y55376321D01*
X41167872Y55376319D02*
X41167875Y54376321D01*
X41167872Y55376319D02*
X41167875Y54376321D01*
X41167875Y54576321D02*
X36667875Y54576321D01*
X41167875Y53976321D02*
X41167875Y54576321D01*
X41167875Y49876321D02*
X41167875Y50376321D01*
X41167875Y42376321D02*
X41167873Y41376324D01*
X35137874Y52076322D02*
G75*
G02*
X36667876Y50546321I1J-1530001D01*
G01*
X36668272Y54576221D02*
G75*
G02*
X36167875Y55066322I-397J500100D01*
G01*
D12*
%TO.C,SW2*%
X122617883Y8126315D02*
X122617881Y4626313D01*
X125717881Y4626313D02*
X125717883Y8126315D01*
D11*
%TO.C,S10*%
X47167887Y46376337D02*
X47167889Y47376334D01*
X47167890Y33376339D02*
X47167887Y34376337D01*
X47167890Y33376339D02*
X48167887Y33376337D01*
X48167887Y47376337D02*
X47167889Y47376334D01*
X52167885Y44576337D02*
X52667887Y44076337D01*
X52167887Y48076337D02*
X52667887Y48576337D01*
X52667887Y48576337D02*
X55667887Y48576337D01*
X52667887Y44076337D02*
X55167887Y44076337D01*
X55667887Y48576337D02*
X56167887Y48076337D01*
X56167887Y47076334D02*
X56167887Y48076337D01*
X56667887Y41876337D02*
X61167887Y41876337D01*
X56667889Y42576337D02*
X56667887Y41876337D01*
X60167887Y33376337D02*
X61167885Y33376340D01*
X61167884Y47376335D02*
X60167887Y47376337D01*
X61167884Y47376335D02*
X60167887Y47376337D01*
X61167884Y47376335D02*
X61167887Y46376337D01*
X61167884Y47376335D02*
X61167887Y46376337D01*
X61167887Y46576337D02*
X56667887Y46576337D01*
X61167887Y45976337D02*
X61167887Y46576337D01*
X61167887Y41876337D02*
X61167887Y42376337D01*
X61167887Y34376337D02*
X61167885Y33376340D01*
X55137886Y44076338D02*
G75*
G02*
X56667888Y42546337I1J-1530001D01*
G01*
X56668284Y46576237D02*
G75*
G02*
X56167887Y47066338I-397J500100D01*
G01*
D10*
%TO.C,D19*%
X93498274Y5074129D02*
X94271015Y4867074D01*
X93625826Y4004676D02*
X93729353Y4391046D01*
X93729353Y4391046D02*
X93198094Y4533396D01*
X93729353Y4391046D02*
X93498274Y5074129D01*
X93729353Y4391046D02*
X94260614Y4248695D01*
X93884645Y4970603D02*
X94014054Y5453564D01*
X94271015Y4867074D02*
X93729353Y4391046D01*
D11*
%TO.C,S13*%
X67167882Y36376324D02*
X67167884Y37376321D01*
X67167885Y23376326D02*
X67167882Y24376324D01*
X67167885Y23376326D02*
X68167882Y23376324D01*
X68167882Y37376324D02*
X67167884Y37376321D01*
X72167880Y34576324D02*
X72667882Y34076324D01*
X72167882Y38076324D02*
X72667882Y38576324D01*
X72667882Y38576324D02*
X75667882Y38576324D01*
X72667882Y34076324D02*
X75167882Y34076324D01*
X75667882Y38576324D02*
X76167882Y38076324D01*
X76167882Y37076321D02*
X76167882Y38076324D01*
X76667882Y31876324D02*
X81167882Y31876324D01*
X76667884Y32576324D02*
X76667882Y31876324D01*
X80167882Y23376324D02*
X81167880Y23376327D01*
X81167879Y37376322D02*
X80167882Y37376324D01*
X81167879Y37376322D02*
X80167882Y37376324D01*
X81167879Y37376322D02*
X81167882Y36376324D01*
X81167879Y37376322D02*
X81167882Y36376324D01*
X81167882Y36576324D02*
X76667882Y36576324D01*
X81167882Y35976324D02*
X81167882Y36576324D01*
X81167882Y31876324D02*
X81167882Y32376324D01*
X81167882Y24376324D02*
X81167880Y23376327D01*
X75137881Y34076325D02*
G75*
G02*
X76667883Y32546324I1J-1530001D01*
G01*
X76668279Y36576224D02*
G75*
G02*
X76167882Y37066325I-397J500100D01*
G01*
%TO.C,S17*%
X87167883Y49376318D02*
X87167885Y50376315D01*
X87167886Y36376320D02*
X87167883Y37376318D01*
X87167886Y36376320D02*
X88167883Y36376318D01*
X88167883Y50376318D02*
X87167885Y50376315D01*
X92167881Y47576318D02*
X92667883Y47076318D01*
X92167883Y51076318D02*
X92667883Y51576318D01*
X92667883Y51576318D02*
X95667883Y51576318D01*
X92667883Y47076318D02*
X95167883Y47076318D01*
X95667883Y51576318D02*
X96167883Y51076318D01*
X96167883Y50076315D02*
X96167883Y51076318D01*
X96667883Y44876318D02*
X101167883Y44876318D01*
X96667885Y45576318D02*
X96667883Y44876318D01*
X100167883Y36376318D02*
X101167881Y36376321D01*
X101167880Y50376316D02*
X100167883Y50376318D01*
X101167880Y50376316D02*
X100167883Y50376318D01*
X101167880Y50376316D02*
X101167883Y49376318D01*
X101167880Y50376316D02*
X101167883Y49376318D01*
X101167883Y49576318D02*
X96667883Y49576318D01*
X101167883Y48976318D02*
X101167883Y49576318D01*
X101167883Y44876318D02*
X101167883Y45376318D01*
X101167883Y37376318D02*
X101167881Y36376321D01*
X95137882Y47076319D02*
G75*
G02*
X96667884Y45546318I1J-1530001D01*
G01*
X96668280Y49576218D02*
G75*
G02*
X96167883Y50066319I-397J500100D01*
G01*
%TO.C,S4*%
X4919104Y24079851D02*
X4745455Y25064659D01*
X5730263Y25238307D02*
X4745455Y25064659D01*
X7176530Y11277350D02*
X7002882Y12262158D01*
X7176530Y11277350D02*
X8161338Y11450999D01*
X9547941Y26622265D02*
X9953520Y27201493D01*
X9953520Y27201493D02*
X12907944Y27722438D01*
X10155707Y23175438D02*
X10734937Y22769860D01*
X10734937Y22769860D02*
X13196956Y23203979D01*
X12907944Y27722438D02*
X13487172Y27316858D01*
X13660818Y26332046D02*
X13487172Y27316858D01*
X14934642Y21987240D02*
X15056194Y21297874D01*
X15056194Y21297874D02*
X19487831Y22079291D01*
X18532764Y27495734D02*
X17547956Y27322085D01*
X18532764Y27495734D02*
X17547956Y27322085D01*
X18532764Y27495734D02*
X18706412Y26510926D01*
X18532764Y27495734D02*
X18706412Y26510926D01*
X18671683Y26707887D02*
X14240047Y25926473D01*
X18775871Y26117003D02*
X18671683Y26707887D01*
X19487831Y22079291D02*
X19401005Y22571695D01*
X19979031Y13534777D02*
X20963839Y13708425D01*
X20790190Y14693233D02*
X20963839Y13708425D01*
X13167412Y23198769D02*
G75*
G02*
X14939849Y21957695I265682J-1506755D01*
G01*
X14240456Y25926440D02*
G75*
G02*
X13662556Y26322203I-87232J492434D01*
G01*
D10*
%TO.C,D9*%
X26167869Y65826325D02*
X26967869Y65826325D01*
X26567867Y65826327D02*
X26567869Y66326325D01*
X26567869Y64826325D02*
X26567870Y65226326D01*
X26567870Y65226326D02*
X26017873Y65226326D01*
X26567870Y65226326D02*
X26167869Y65826325D01*
X26567870Y65226326D02*
X27117866Y65226322D01*
X26967869Y65826325D02*
X26567870Y65226326D01*
%TO.C,D7*%
X26167876Y29826319D02*
X26967876Y29826319D01*
X26567874Y29826321D02*
X26567876Y30326319D01*
X26567876Y28826319D02*
X26567877Y29226320D01*
X26567877Y29226320D02*
X26017880Y29226320D01*
X26567877Y29226320D02*
X26167876Y29826319D01*
X26567877Y29226320D02*
X27117873Y29226316D01*
X26967876Y29826319D02*
X26567877Y29226320D01*
D12*
%TO.C,LED1*%
X-9125124Y6981322D02*
X-7549430Y7259159D01*
X-8847285Y5405630D02*
X-9125124Y6981322D01*
%TO.C,LED3*%
X-15376459Y42434409D02*
X-13800765Y42712246D01*
X-15098620Y40858717D02*
X-15376459Y42434409D01*
%TO.C,LED8*%
X30367886Y44976316D02*
X31967886Y44976316D01*
X30367886Y43376316D02*
X30367886Y44976316D01*
%TO.C,LED14*%
X70367885Y44976316D02*
X71967885Y44976316D01*
X70367885Y43376316D02*
X70367885Y44976316D01*
%TO.C,LED16*%
X90367877Y21976326D02*
X91967877Y21976326D01*
X90367877Y20376326D02*
X90367877Y21976326D01*
%TO.C,LED12*%
X50367877Y72976330D02*
X51967877Y72976330D01*
X50367877Y71376330D02*
X50367877Y72976330D01*
%TO.C,LED15*%
X70367884Y62976324D02*
X71967884Y62976324D01*
X70367884Y61376324D02*
X70367884Y62976324D01*
%TO.C,LED19*%
X96403424Y-311278D02*
X96817534Y1234204D01*
X96817534Y1234204D02*
X98363016Y820093D01*
%TO.C,LED10*%
X50367880Y36976325D02*
X51967880Y36976325D01*
X50367880Y35376325D02*
X50367880Y36976325D01*
%TO.C,LED9*%
X30367885Y62976324D02*
X31967885Y62976324D01*
X30367885Y61376324D02*
X30367885Y62976324D01*
%TO.C,LED20*%
X119783539Y-9374246D02*
X120701262Y-8063602D01*
X120701262Y-8063602D02*
X122011905Y-8981325D01*
%TO.C,LED5*%
X6577121Y33104870D02*
X8152815Y33382707D01*
X6854960Y31529178D02*
X6577121Y33104870D01*
%TO.C,LED6*%
X3451466Y50831418D02*
X5027160Y51109255D01*
X3729305Y49255726D02*
X3451466Y50831418D01*
%TO.C,LED7*%
X30367894Y26976315D02*
X31967894Y26976315D01*
X30367894Y25376315D02*
X30367894Y26976315D01*
%TO.C,LED11*%
X50367885Y54976314D02*
X51967885Y54976314D01*
X50367885Y53376314D02*
X50367885Y54976314D01*
%TO.C,LED2*%
X-12250795Y24707880D02*
X-10675101Y24985717D01*
X-11972956Y23132188D02*
X-12250795Y24707880D01*
%TO.C,LED13*%
X70367879Y26976322D02*
X71967879Y26976322D01*
X70367879Y25376322D02*
X70367879Y26976322D01*
%TO.C,LED17*%
X90367891Y39976325D02*
X91967891Y39976325D01*
X90367891Y38376325D02*
X90367891Y39976325D01*
%TO.C,LED4*%
X9702788Y15378330D02*
X11278482Y15656167D01*
X9980627Y13802638D02*
X9702788Y15378330D01*
%TO.C,LED18*%
X90367886Y57976322D02*
X91967886Y57976322D01*
X90367886Y56376322D02*
X90367886Y57976322D01*
%TD*%
D13*
X111087880Y31676318D03*
X113627880Y31676318D03*
X116167887Y31676316D03*
X118707880Y31676318D03*
X121247879Y31676322D03*
X88667878Y25376318D03*
X89167875Y29126318D03*
X94167878Y31326320D03*
X94167878Y25376318D03*
X99167877Y29126319D03*
X99667878Y25376318D03*
X113394487Y-2459037D03*
X3961644Y12233623D03*
X28667884Y30376331D03*
X29167881Y34126331D03*
X34167884Y36326333D03*
X34167884Y30376331D03*
X39167883Y34126332D03*
X39667884Y30376331D03*
X88667884Y61376320D03*
X89167881Y65126320D03*
X94167884Y67326322D03*
X94167884Y61376320D03*
X99167883Y65126321D03*
X99667884Y61376320D03*
X89167878Y9376318D03*
X68667879Y66376328D03*
X69167876Y70126328D03*
X74167879Y72326330D03*
X74167879Y66376328D03*
X79167878Y70126329D03*
X79667879Y66376328D03*
X116567887Y1376326D03*
X114567889Y1376334D03*
X124692881Y24876315D03*
X124692881Y21876315D03*
X68667876Y48376320D03*
X69167873Y52126320D03*
X74167876Y54326322D03*
X74167876Y48376320D03*
X79167875Y52126321D03*
X79667876Y48376320D03*
X96055440Y4958346D03*
X97508971Y8451158D03*
X102908005Y9282100D03*
X101368032Y3534841D03*
X107168236Y5862966D03*
X106680624Y2111336D03*
X107167881Y26376321D03*
X48667870Y58376323D03*
X49167867Y62126323D03*
X54167870Y64326325D03*
X54167870Y58376323D03*
X59167869Y62126324D03*
X59667870Y58376323D03*
X44167882Y66376320D03*
X48667882Y76376324D03*
X49167879Y80126324D03*
X54167882Y82326326D03*
X54167882Y76376324D03*
X59167881Y80126325D03*
X59667882Y76376324D03*
X103167879Y58376320D03*
X1186879Y53884551D03*
X1028099Y57664403D03*
X5570115Y60699224D03*
X6603322Y54839616D03*
X10876179Y59400887D03*
X12019765Y55794681D03*
X-14515361Y27761012D03*
X-14674141Y31540864D03*
X-10132125Y34575685D03*
X-9098918Y28716077D03*
X-4826061Y33277348D03*
X-3682475Y29671142D03*
X4312545Y36158009D03*
X4153765Y39937861D03*
X8695781Y42972682D03*
X9728988Y37113074D03*
X14001845Y41674345D03*
X15145431Y38068139D03*
X121258866Y-4303402D03*
X123819353Y-1518369D03*
X129176981Y-2584115D03*
X125764202Y-7458072D03*
X132010874Y-7254134D03*
X130269538Y-10612742D03*
X124692881Y15876330D03*
X124692881Y12876330D03*
X-1768741Y44732272D03*
X28667881Y66376325D03*
X29167878Y70126325D03*
X34167881Y72326327D03*
X34167881Y66376325D03*
X39167880Y70126326D03*
X39667881Y66376325D03*
X120167882Y18876329D03*
X44167891Y38876324D03*
X123787881Y65576328D03*
X123787881Y63036328D03*
X123787879Y60496323D03*
X123787881Y57956328D03*
X123787881Y55416328D03*
X123787881Y52876328D03*
X123787876Y50336330D03*
X123787881Y47796328D03*
X123787876Y45256330D03*
X123787881Y42716329D03*
X123787878Y40176326D03*
X123787881Y37636328D03*
X108547881Y37636328D03*
X108547881Y40176328D03*
X108547881Y42716328D03*
X108547883Y45256333D03*
X108547881Y47796328D03*
X108547881Y50336328D03*
X108547881Y52876328D03*
X108547886Y55416326D03*
X108547881Y57956328D03*
X108547886Y60496326D03*
X108547881Y63036327D03*
X108547884Y65576330D03*
X119567881Y65576328D03*
X119567882Y63036328D03*
X119567881Y60496328D03*
X119567881Y57956328D03*
X119567877Y55416330D03*
X119567886Y52876327D03*
X119567881Y50336328D03*
X119567880Y47796330D03*
X119567881Y45256328D03*
X119567874Y42716329D03*
X119567882Y40176331D03*
X119567879Y37636328D03*
X112767883Y37636328D03*
X112767881Y40176328D03*
X112767880Y42716328D03*
X112767881Y45256328D03*
X112767881Y47796328D03*
X112767885Y50336326D03*
X112767876Y52876329D03*
X112767881Y55416328D03*
X112767882Y57956326D03*
X112767881Y60496328D03*
X112767888Y63036327D03*
X112767880Y65576325D03*
X-11389695Y10034475D03*
X-11548475Y13814327D03*
X-7006459Y16849148D03*
X-5973252Y10989540D03*
X-1700395Y15550811D03*
X-556809Y11944605D03*
X-17641035Y45487557D03*
X-17799815Y49267409D03*
X-13257799Y52302230D03*
X-12224592Y46442622D03*
X-7951735Y51003893D03*
X-6808149Y47397687D03*
X28667875Y48376321D03*
X29167872Y52126321D03*
X34167875Y54326323D03*
X34167875Y48376321D03*
X39167874Y52126322D03*
X39667875Y48376321D03*
X48667887Y40376337D03*
X49167884Y44126337D03*
X54167887Y46326339D03*
X54167887Y40376337D03*
X59167886Y44126338D03*
X59667887Y40376337D03*
X68667882Y30376324D03*
X69167879Y34126324D03*
X74167882Y36326326D03*
X74167882Y30376324D03*
X79167881Y34126325D03*
X79667882Y30376324D03*
X88667883Y43376318D03*
X89167880Y47126318D03*
X94167883Y49326320D03*
X94167883Y43376318D03*
X99167882Y47126319D03*
X99667883Y43376318D03*
X7438204Y18431477D03*
X7279424Y22211329D03*
X11821440Y25246150D03*
X12854647Y19386542D03*
X17127504Y23947813D03*
X18271090Y20341607D03*
M02*
