0
SECTION
2
HEADER
9
$INSUNITS
70
4
0
ENDSEC
0
SECTION
2
TABLES
0
TABLE
2
LTYPE
0
LTYPE
72
65
70
64
2
CONTINUOUS
3
______
73
0
40
0
0
ENDTAB
0
TABLE
2
LAYER
0
ENDTAB
0
ENDSEC
0
SECTION
2
ENTITIES
0
LINE
8
0
10
-9.1832276
20
-11.2658036
11
-18.7338773
21
42.8986228
0
LINE
8
0
10
-17.9227177
20
44.0570788
11
-0.1961783
21
47.1827459
0
LINE
8
0
10
0.6149813
20
48.3412019
11
0.0940369
21
51.2956251
0
LINE
8
0
10
0.9051965
20
52.4540811
11
21.2048554
21
56.0334586
0
LINE
8
0
10
21.822766
20
56.4071734
11
28.8408975
21
65.4978743
0
LINE
8
0
10
29.6324563
20
65.8867813
11
48.1411384
21
65.8867813
0
LINE
8
0
10
49.1411384
20
66.8867813
11
49.1411384
21
74.8867813
0
LINE
8
0
10
50.1411384
20
75.8867813
11
70.1411383
21
75.8867813
0
LINE
8
0
10
71.1411383
20
74.8867813
11
71.1411383
21
66.8867813
0
LINE
8
0
10
72.1411383
20
65.8867813
11
90.1411383
21
65.8867813
0
LINE
8
0
10
91.1411383
20
64.8867813
11
91.1411383
21
61.8867813
0
LINE
8
0
10
92.1411383
20
60.8867813
11
132.142817
21
60.8867813
0
LINE
8
0
10
133.1428156
20
59.8884613
11
133.2538011
21
-6.1723511
0
LINE
8
0
10
133.6802233
20
-6.9898231
11
145.9515307
21
-15.582285
0
LINE
8
0
10
146.1971063
20
-16.9750134
11
135.2991539
21
-32.5389024
0
LINE
8
0
10
133.9064255
20
-32.784478
11
117.166012
21
-21.0627142
0
LINE
8
0
10
116.874829
20
-20.9225675
11
115.2606195
21
-20.4473849
0
LINE
8
0
10
115.2370451
20
-20.4407578
11
89.9091064
21
-13.6541571
0
LINE
8
0
10
89.1679262
20
-12.6894728
11
89.1423783
21
7.8880227
0
LINE
8
0
10
88.1423791
20
8.8867812
11
70.1411383
21
8.8867812
0
LINE
8
0
10
69.1411383
20
9.8867812
11
69.1411383
21
17.8867812
0
LINE
8
0
10
68.1411383
20
18.8867812
11
52.1411383
21
18.8867812
0
LINE
8
0
10
51.1411383
20
17.8867812
11
51.1411383
21
9.8867812
0
LINE
8
0
10
50.1411383
20
8.8867812
11
32.180326
21
8.8867812
0
LINE
8
0
10
31.1810643
20
7.8483609
11
31.4505881
21
0.838391
0
LINE
8
0
10
30.6249746
20
-0.1848371
11
12.7727581
21
-3.3326645
0
LINE
8
0
10
11.9615985
20
-4.4911205
11
12.4825429
21
-7.4455437
0
LINE
8
0
10
11.6713833
20
-8.6039997
11
-8.0247716
21
-12.0769632
0
ARC
8
0
10
-17.7490695
20
43.072271
40
1
50
100.0000008
51
190.0000008
0
ARC
8
0
10
-0.3698265
20
48.1675537
40
1
50
280.0000008
51
10.0000008
0
ARC
8
0
10
1.0788447
20
51.4692733
40
1
50
100.0000008
51
190.0000008
0
ARC
8
0
10
21.0312072
20
57.0182664
40
1
50
280.0000008
51
322.3314237
0
ARC
8
0
10
29.6324563
20
64.8867813
40
1
50
90
51
142.3314237
0
ARC
8
0
10
48.1411384
20
66.8867813
40
1
50
270
51
0
0
ARC
8
0
10
50.1411384
20
74.8867813
40
1
50
90
51
180
0
ARC
8
0
10
70.1411383
20
74.8867813
40
1
50
0
51
90
0
ARC
8
0
10
72.1411383
20
66.8867813
40
1
50
180
51
270
0
ARC
8
0
10
90.1411383
20
64.8867813
40
1
50
0
51
90
0
ARC
8
0
10
92.1411383
20
61.8867813
40
1
50
180
51
270
0
ARC
8
0
10
132.142817
20
59.8867813
40
1
50
0.096257
51
90
0
ARC
8
0
10
134.2537997
20
-6.1706711
40
1
50
180.096257
51
235.0000003
0
ARC
8
0
10
145.3779543
20
-16.401437
40
1
50
325.0000003
51
55.0000003
0
ARC
8
0
10
134.4800019
20
-31.965326
40
1
50
235.0000003
51
325.0000003
0
ARC
8
0
10
116.5924356
20
-21.8818662
40
1
50
55.0000003
51
73.5968979
0
ARC
8
0
10
114.9782261
20
-21.4066836
40
1
50
73.5968979
51
75.0000021
0
ARC
8
0
10
90.1679254
20
-12.6882313
40
1
50
180.0711327
51
255.0000021
0
ARC
8
0
10
88.1423791
20
7.8867812
40
1
50
0.0711327
51
90
0
ARC
8
0
10
70.1411383
20
9.8867812
40
1
50
180
51
270
0
ARC
8
0
10
68.1411383
20
17.8867812
40
1
50
0
51
90
0
ARC
8
0
10
52.1411383
20
17.8867812
40
1
50
90
51
180
0
ARC
8
0
10
50.1411383
20
9.8867812
40
1
50
270
51
0
0
ARC
8
0
10
32.180326
20
7.8867812
40
1
50
90
51
182.2018629
0
ARC
8
0
10
30.4513264
20
0.7999707
40
1
50
280.0000008
51
2.2018629
0
ARC
8
0
10
12.9464063
20
-4.3174723
40
1
50
100.0000008
51
190.0000008
0
ARC
8
0
10
11.4977351
20
-7.6191919
40
1
50
280.0000008
51
10.0000008
0
ARC
8
0
10
-8.1984198
20
-11.0921554
40
1
50
190.0000008
51
280.0000008
0
ENDSEC
0
EOF