0
SECTION
2
HEADER
9
$INSUNITS
70
4
0
ENDSEC
0
SECTION
2
TABLES
0
TABLE
2
LTYPE
0
LTYPE
72
65
70
64
2
CONTINUOUS
3
______
73
0
40
0
0
ENDTAB
0
TABLE
2
LAYER
0
ENDTAB
0
ENDSEC
0
SECTION
2
ENTITIES
0
LINE
8
0
10
-9.1832276
20
-11.2658036
11
-18.7338773
21
42.8986228
0
LINE
8
0
10
-17.9227177
20
44.0570788
11
-0.1961783
21
47.1827459
0
LINE
8
0
10
0.6149813
20
48.3412019
11
0.0940369
21
51.2956251
0
LINE
8
0
10
0.9051965
20
52.4540811
11
21.2048554
21
56.0334586
0
LINE
8
0
10
21.822766
20
56.4071734
11
28.8408975
21
65.4978743
0
LINE
8
0
10
29.6324563
20
65.8867813
11
48.1411384
21
65.8867813
0
LINE
8
0
10
49.1411384
20
66.8867813
11
49.1411384
21
74.8867813
0
LINE
8
0
10
50.1411384
20
75.8867813
11
70.1411383
21
75.8867813
0
LINE
8
0
10
71.1411383
20
74.8867813
11
71.1411383
21
66.8867813
0
LINE
8
0
10
72.1411383
20
65.8867813
11
90.1411383
21
65.8867813
0
LINE
8
0
10
91.1411383
20
64.8867813
11
91.1411383
21
61.8867813
0
LINE
8
0
10
92.1411383
20
60.8867813
11
132.142817
21
60.8867813
0
LINE
8
0
10
133.1428156
20
59.8884613
11
133.2538011
21
-6.1723511
0
LINE
8
0
10
133.6802233
20
-6.9898231
11
145.9515307
21
-15.582285
0
LINE
8
0
10
146.1971063
20
-16.9750134
11
135.2991539
21
-32.5389024
0
LINE
8
0
10
133.9064255
20
-32.784478
11
117.166012
21
-21.0627142
0
LINE
8
0
10
116.874829
20
-20.9225675
11
115.2606195
21
-20.4473849
0
LINE
8
0
10
115.2370451
20
-20.4407578
11
89.9091064
21
-13.6541571
0
LINE
8
0
10
89.1679262
20
-12.6894728
11
89.1423783
21
7.8880227
0
LINE
8
0
10
88.1423791
20
8.8867812
11
70.1411383
21
8.8867812
0
LINE
8
0
10
69.1411383
20
9.8867812
11
69.1411383
21
17.8867812
0
LINE
8
0
10
68.1411383
20
18.8867812
11
52.1411383
21
18.8867812
0
LINE
8
0
10
51.1411383
20
17.8867812
11
51.1411383
21
9.8867812
0
LINE
8
0
10
50.1411383
20
8.8867812
11
32.180326
21
8.8867812
0
LINE
8
0
10
31.1810643
20
7.8483609
11
31.4505881
21
0.838391
0
LINE
8
0
10
30.6249746
20
-0.1848371
11
12.7727581
21
-3.3326645
0
LINE
8
0
10
11.9615985
20
-4.4911205
11
12.4825429
21
-7.4455437
0
LINE
8
0
10
11.6713833
20
-8.6039997
11
-8.0247716
21
-12.0769632
0
ARC
8
0
10
-17.7490695
20
43.072271
40
1
50
100.0000008
51
190.0000008
0
ARC
8
0
10
-0.3698265
20
48.1675537
40
1
50
280.0000008
51
10.0000008
0
ARC
8
0
10
1.0788447
20
51.4692733
40
1
50
100.0000008
51
190.0000008
0
ARC
8
0
10
21.0312072
20
57.0182664
40
1
50
280.0000008
51
322.3314237
0
ARC
8
0
10
29.6324563
20
64.8867813
40
1
50
90
51
142.3314237
0
ARC
8
0
10
48.1411384
20
66.8867813
40
1
50
270
51
0
0
ARC
8
0
10
50.1411384
20
74.8867813
40
1
50
90
51
180
0
ARC
8
0
10
70.1411383
20
74.8867813
40
1
50
0
51
90
0
ARC
8
0
10
72.1411383
20
66.8867813
40
1
50
180
51
270
0
ARC
8
0
10
90.1411383
20
64.8867813
40
1
50
0
51
90
0
ARC
8
0
10
92.1411383
20
61.8867813
40
1
50
180
51
270
0
ARC
8
0
10
132.142817
20
59.8867813
40
1
50
0.096257
51
90
0
ARC
8
0
10
134.2537997
20
-6.1706711
40
1
50
180.096257
51
235.0000003
0
ARC
8
0
10
145.3779543
20
-16.401437
40
1
50
325.0000003
51
55.0000003
0
ARC
8
0
10
134.4800019
20
-31.965326
40
1
50
235.0000003
51
325.0000003
0
ARC
8
0
10
116.5924356
20
-21.8818662
40
1
50
55.0000003
51
73.5968979
0
ARC
8
0
10
114.9782261
20
-21.4066836
40
1
50
73.5968979
51
75.0000021
0
ARC
8
0
10
90.1679254
20
-12.6882313
40
1
50
180.0711327
51
255.0000021
0
ARC
8
0
10
88.1423791
20
7.8867812
40
1
50
0.0711327
51
90
0
ARC
8
0
10
70.1411383
20
9.8867812
40
1
50
180
51
270
0
ARC
8
0
10
68.1411383
20
17.8867812
40
1
50
0
51
90
0
ARC
8
0
10
52.1411383
20
17.8867812
40
1
50
90
51
180
0
ARC
8
0
10
50.1411383
20
9.8867812
40
1
50
270
51
0
0
ARC
8
0
10
32.180326
20
7.8867812
40
1
50
90
51
182.2018629
0
ARC
8
0
10
30.4513264
20
0.7999707
40
1
50
280.0000008
51
2.2018629
0
ARC
8
0
10
12.9464063
20
-4.3174723
40
1
50
100.0000008
51
190.0000008
0
ARC
8
0
10
11.4977351
20
-7.6191919
40
1
50
280.0000008
51
10.0000008
0
ARC
8
0
10
-8.1984198
20
-11.0921554
40
1
50
190.0000008
51
280.0000008
0
LINE
8
0
10
-7.1844704
20
-9.6440855
11
10.0496653
21
-6.6052424
0
LINE
8
0
10
10.0496653
20
-6.6052424
11
7.1844704
21
9.6440855
0
LINE
8
0
10
7.1844704
20
9.6440855
11
-10.0496653
21
6.6052424
0
LINE
8
0
10
-10.0496653
20
6.6052424
11
-7.1844704
21
-9.6440855
0
LINE
8
0
10
-10.3101376
20
8.0824541
11
6.9239981
21
11.1212972
0
LINE
8
0
10
6.9239981
20
11.1212972
11
4.0588032
21
27.3706251
0
LINE
8
0
10
4.0588032
20
27.3706251
11
-13.1753325
21
24.331782
0
LINE
8
0
10
-13.1753325
20
24.331782
11
-10.3101376
21
8.0824541
0
LINE
8
0
10
-13.4358048
20
25.8089936
11
3.7983309
21
28.8478367
0
LINE
8
0
10
3.7983309
20
28.8478367
11
0.933136
21
45.0971646
0
LINE
8
0
10
0.933136
20
45.0971646
11
-16.3009997
21
42.0583215
0
LINE
8
0
10
-16.3009997
20
42.0583215
11
-13.4358048
21
25.8089936
0
LINE
8
0
10
11.6434438
20
-1.2470832
11
28.8775795
21
1.7917599
0
LINE
8
0
10
28.8775795
20
1.7917599
11
26.0123846
21
18.0410878
0
LINE
8
0
10
26.0123846
20
18.0410878
11
8.7782489
21
15.0022447
0
LINE
8
0
10
8.7782489
20
15.0022447
11
11.6434438
21
-1.2470832
0
LINE
8
0
10
8.5177766
20
16.4794564
11
25.7519123
21
19.5182995
0
LINE
8
0
10
25.7519123
20
19.5182995
11
22.8867174
21
35.7676274
0
LINE
8
0
10
22.8867174
20
35.7676274
11
5.6525817
21
32.7287843
0
LINE
8
0
10
5.6525817
20
32.7287843
11
8.5177766
21
16.4794564
0
LINE
8
0
10
5.3921094
20
34.2059959
11
22.6262451
21
37.244839
0
LINE
8
0
10
22.6262451
20
37.244839
11
19.7610502
21
53.4941669
0
LINE
8
0
10
19.7610502
20
53.4941669
11
2.5269145
21
50.4553238
0
LINE
8
0
10
2.5269145
20
50.4553238
11
5.3921094
21
34.2059959
0
LINE
8
0
10
31.3911384
20
11.1367812
11
48.8911384
21
11.1367812
0
LINE
8
0
10
48.8911384
20
11.1367812
11
48.8911384
21
27.6367812
0
LINE
8
0
10
48.8911384
20
27.6367812
11
31.3911384
21
27.6367812
0
LINE
8
0
10
31.3911384
20
27.6367812
11
31.3911384
21
11.1367812
0
LINE
8
0
10
31.3911384
20
29.1367812
11
48.8911384
21
29.1367812
0
LINE
8
0
10
48.8911384
20
29.1367812
11
48.8911384
21
45.6367812
0
LINE
8
0
10
48.8911384
20
45.6367812
11
31.3911384
21
45.6367812
0
LINE
8
0
10
31.3911384
20
45.6367812
11
31.3911384
21
29.1367812
0
LINE
8
0
10
31.3911384
20
47.1367813
11
48.8911384
21
47.1367813
0
LINE
8
0
10
48.8911384
20
47.1367813
11
48.8911384
21
63.6367813
0
LINE
8
0
10
48.8911384
20
63.6367813
11
31.3911384
21
63.6367813
0
LINE
8
0
10
31.3911384
20
63.6367813
11
31.3911384
21
47.1367813
0
LINE
8
0
10
51.3911383
20
21.1367812
11
68.8911383
21
21.1367812
0
LINE
8
0
10
68.8911383
20
21.1367812
11
68.8911383
21
37.6367812
0
LINE
8
0
10
68.8911383
20
37.6367812
11
51.3911383
21
37.6367812
0
LINE
8
0
10
51.3911383
20
37.6367812
11
51.3911383
21
21.1367812
0
LINE
8
0
10
51.3911383
20
39.1367813
11
68.8911383
21
39.1367813
0
LINE
8
0
10
68.8911383
20
39.1367813
11
68.8911383
21
55.6367813
0
LINE
8
0
10
68.8911383
20
55.6367813
11
51.3911383
21
55.6367813
0
LINE
8
0
10
51.3911383
20
55.6367813
11
51.3911383
21
39.1367813
0
LINE
8
0
10
51.3911383
20
57.1367813
11
68.8911383
21
57.1367813
0
LINE
8
0
10
68.8911383
20
57.1367813
11
68.8911383
21
73.6367813
0
LINE
8
0
10
68.8911383
20
73.6367813
11
51.3911383
21
73.6367813
0
LINE
8
0
10
51.3911383
20
73.6367813
11
51.3911383
21
57.1367813
0
LINE
8
0
10
71.3911383
20
11.1367812
11
88.8911383
21
11.1367812
0
LINE
8
0
10
88.8911383
20
11.1367812
11
88.8911383
21
27.6367812
0
LINE
8
0
10
88.8911383
20
27.6367812
11
71.3911383
21
27.6367812
0
LINE
8
0
10
71.3911383
20
27.6367812
11
71.3911383
21
11.1367812
0
LINE
8
0
10
71.3911383
20
29.1367812
11
88.8911383
21
29.1367812
0
LINE
8
0
10
88.8911383
20
29.1367812
11
88.8911383
21
45.6367812
0
LINE
8
0
10
88.8911383
20
45.6367812
11
71.3911383
21
45.6367812
0
LINE
8
0
10
71.3911383
20
45.6367812
11
71.3911383
21
29.1367812
0
LINE
8
0
10
71.3911383
20
47.1367813
11
88.8911383
21
47.1367813
0
LINE
8
0
10
88.8911383
20
47.1367813
11
88.8911383
21
63.6367813
0
LINE
8
0
10
88.8911383
20
63.6367813
11
71.3911383
21
63.6367813
0
LINE
8
0
10
71.3911383
20
63.6367813
11
71.3911383
21
47.1367813
0
LINE
8
0
10
91.3911384
20
6.1367812
11
108.8911384
21
6.1367812
0
LINE
8
0
10
108.8911384
20
6.1367812
11
108.8911384
21
22.6367812
0
LINE
8
0
10
108.8911384
20
22.6367812
11
91.3911384
21
22.6367812
0
LINE
8
0
10
91.3911384
20
22.6367812
11
91.3911384
21
6.1367812
0
LINE
8
0
10
91.3911384
20
24.1367813
11
108.8911384
21
24.1367813
0
LINE
8
0
10
108.8911384
20
24.1367813
11
108.8911384
21
40.6367813
0
LINE
8
0
10
108.8911384
20
40.6367813
11
91.3911384
21
40.6367813
0
LINE
8
0
10
91.3911384
20
40.6367813
11
91.3911384
21
24.1367813
0
LINE
8
0
10
91.3911384
20
42.1367813
11
108.8911384
21
42.1367813
0
LINE
8
0
10
108.8911384
20
42.1367813
11
108.8911384
21
58.6367813
0
LINE
8
0
10
108.8911384
20
58.6367813
11
91.3911384
21
58.6367813
0
LINE
8
0
10
91.3911384
20
58.6367813
11
91.3911384
21
42.1367813
0
LINE
8
0
10
96.7541827
20
-13.1589183
11
113.6578847
21
-17.6882516
0
LINE
8
0
10
113.6578847
20
-17.6882516
11
117.9283989
21
-1.7504755
0
LINE
8
0
10
117.9283989
20
-1.7504755
11
101.0246969
21
2.7788578
0
LINE
8
0
10
101.0246969
20
2.7788578
11
96.7541827
21
-13.1589183
0
LINE
8
0
10
119.8378716
20
-20.1868276
11
134.1730324
21
-30.2244153
0
LINE
8
0
10
134.1730324
20
-30.2244153
11
143.6370436
21
-16.7084066
0
LINE
8
0
10
143.6370436
20
-16.7084066
11
129.3018828
21
-6.6708189
0
LINE
8
0
10
129.3018828
20
-6.6708189
11
119.8378716
21
-20.1868276
0
ENDSEC
0
EOF