0
SECTION
2
HEADER
9
$INSUNITS
70
4
0
ENDSEC
0
SECTION
2
TABLES
0
TABLE
2
LTYPE
0
LTYPE
72
65
70
64
2
CONTINUOUS
3
______
73
0
40
0
0
ENDTAB
0
TABLE
2
LAYER
0
ENDTAB
0
ENDSEC
0
SECTION
2
ENTITIES
0
LINE
8
0
10
-7.1844704
20
-9.6440855
11
10.0496653
21
-6.6052424
0
LINE
8
0
10
10.0496653
20
-6.6052424
11
7.1844704
21
9.6440855
0
LINE
8
0
10
7.1844704
20
9.6440855
11
-10.0496653
21
6.6052424
0
LINE
8
0
10
-10.0496653
20
6.6052424
11
-7.1844704
21
-9.6440855
0
LINE
8
0
10
-10.3101376
20
8.0824541
11
6.9239981
21
11.1212972
0
LINE
8
0
10
6.9239981
20
11.1212972
11
4.0588032
21
27.3706251
0
LINE
8
0
10
4.0588032
20
27.3706251
11
-13.1753325
21
24.331782
0
LINE
8
0
10
-13.1753325
20
24.331782
11
-10.3101376
21
8.0824541
0
LINE
8
0
10
-13.4358048
20
25.8089936
11
3.7983309
21
28.8478367
0
LINE
8
0
10
3.7983309
20
28.8478367
11
0.933136
21
45.0971646
0
LINE
8
0
10
0.933136
20
45.0971646
11
-16.3009997
21
42.0583215
0
LINE
8
0
10
-16.3009997
20
42.0583215
11
-13.4358048
21
25.8089936
0
LINE
8
0
10
11.6434438
20
-1.2470832
11
28.8775795
21
1.7917599
0
LINE
8
0
10
28.8775795
20
1.7917599
11
26.0123846
21
18.0410878
0
LINE
8
0
10
26.0123846
20
18.0410878
11
8.7782489
21
15.0022447
0
LINE
8
0
10
8.7782489
20
15.0022447
11
11.6434438
21
-1.2470832
0
LINE
8
0
10
8.5177766
20
16.4794564
11
25.7519123
21
19.5182995
0
LINE
8
0
10
25.7519123
20
19.5182995
11
22.8867174
21
35.7676274
0
LINE
8
0
10
22.8867174
20
35.7676274
11
5.6525817
21
32.7287843
0
LINE
8
0
10
5.6525817
20
32.7287843
11
8.5177766
21
16.4794564
0
LINE
8
0
10
5.3921094
20
34.2059959
11
22.6262451
21
37.244839
0
LINE
8
0
10
22.6262451
20
37.244839
11
19.7610502
21
53.4941669
0
LINE
8
0
10
19.7610502
20
53.4941669
11
2.5269145
21
50.4553238
0
LINE
8
0
10
2.5269145
20
50.4553238
11
5.3921094
21
34.2059959
0
LINE
8
0
10
31.3911384
20
11.1367812
11
48.8911384
21
11.1367812
0
LINE
8
0
10
48.8911384
20
11.1367812
11
48.8911384
21
27.6367812
0
LINE
8
0
10
48.8911384
20
27.6367812
11
31.3911384
21
27.6367812
0
LINE
8
0
10
31.3911384
20
27.6367812
11
31.3911384
21
11.1367812
0
LINE
8
0
10
31.3911384
20
29.1367812
11
48.8911384
21
29.1367812
0
LINE
8
0
10
48.8911384
20
29.1367812
11
48.8911384
21
45.6367812
0
LINE
8
0
10
48.8911384
20
45.6367812
11
31.3911384
21
45.6367812
0
LINE
8
0
10
31.3911384
20
45.6367812
11
31.3911384
21
29.1367812
0
LINE
8
0
10
31.3911384
20
47.1367813
11
48.8911384
21
47.1367813
0
LINE
8
0
10
48.8911384
20
47.1367813
11
48.8911384
21
63.6367813
0
LINE
8
0
10
48.8911384
20
63.6367813
11
31.3911384
21
63.6367813
0
LINE
8
0
10
31.3911384
20
63.6367813
11
31.3911384
21
47.1367813
0
LINE
8
0
10
51.3911383
20
21.1367812
11
68.8911383
21
21.1367812
0
LINE
8
0
10
68.8911383
20
21.1367812
11
68.8911383
21
37.6367812
0
LINE
8
0
10
68.8911383
20
37.6367812
11
51.3911383
21
37.6367812
0
LINE
8
0
10
51.3911383
20
37.6367812
11
51.3911383
21
21.1367812
0
LINE
8
0
10
51.3911383
20
39.1367813
11
68.8911383
21
39.1367813
0
LINE
8
0
10
68.8911383
20
39.1367813
11
68.8911383
21
55.6367813
0
LINE
8
0
10
68.8911383
20
55.6367813
11
51.3911383
21
55.6367813
0
LINE
8
0
10
51.3911383
20
55.6367813
11
51.3911383
21
39.1367813
0
LINE
8
0
10
51.3911383
20
57.1367813
11
68.8911383
21
57.1367813
0
LINE
8
0
10
68.8911383
20
57.1367813
11
68.8911383
21
73.6367813
0
LINE
8
0
10
68.8911383
20
73.6367813
11
51.3911383
21
73.6367813
0
LINE
8
0
10
51.3911383
20
73.6367813
11
51.3911383
21
57.1367813
0
LINE
8
0
10
71.3911383
20
11.1367812
11
88.8911383
21
11.1367812
0
LINE
8
0
10
88.8911383
20
11.1367812
11
88.8911383
21
27.6367812
0
LINE
8
0
10
88.8911383
20
27.6367812
11
71.3911383
21
27.6367812
0
LINE
8
0
10
71.3911383
20
27.6367812
11
71.3911383
21
11.1367812
0
LINE
8
0
10
71.3911383
20
29.1367812
11
88.8911383
21
29.1367812
0
LINE
8
0
10
88.8911383
20
29.1367812
11
88.8911383
21
45.6367812
0
LINE
8
0
10
88.8911383
20
45.6367812
11
71.3911383
21
45.6367812
0
LINE
8
0
10
71.3911383
20
45.6367812
11
71.3911383
21
29.1367812
0
LINE
8
0
10
71.3911383
20
47.1367813
11
88.8911383
21
47.1367813
0
LINE
8
0
10
88.8911383
20
47.1367813
11
88.8911383
21
63.6367813
0
LINE
8
0
10
88.8911383
20
63.6367813
11
71.3911383
21
63.6367813
0
LINE
8
0
10
71.3911383
20
63.6367813
11
71.3911383
21
47.1367813
0
LINE
8
0
10
91.3911384
20
6.1367812
11
108.8911384
21
6.1367812
0
LINE
8
0
10
108.8911384
20
6.1367812
11
108.8911384
21
22.6367812
0
LINE
8
0
10
108.8911384
20
22.6367812
11
91.3911384
21
22.6367812
0
LINE
8
0
10
91.3911384
20
22.6367812
11
91.3911384
21
6.1367812
0
LINE
8
0
10
91.3911384
20
24.1367813
11
108.8911384
21
24.1367813
0
LINE
8
0
10
108.8911384
20
24.1367813
11
108.8911384
21
40.6367813
0
LINE
8
0
10
108.8911384
20
40.6367813
11
91.3911384
21
40.6367813
0
LINE
8
0
10
91.3911384
20
40.6367813
11
91.3911384
21
24.1367813
0
LINE
8
0
10
91.3911384
20
42.1367813
11
108.8911384
21
42.1367813
0
LINE
8
0
10
108.8911384
20
42.1367813
11
108.8911384
21
58.6367813
0
LINE
8
0
10
108.8911384
20
58.6367813
11
91.3911384
21
58.6367813
0
LINE
8
0
10
91.3911384
20
58.6367813
11
91.3911384
21
42.1367813
0
LINE
8
0
10
96.7541827
20
-13.1589183
11
113.6578847
21
-17.6882516
0
LINE
8
0
10
113.6578847
20
-17.6882516
11
117.9283989
21
-1.7504755
0
LINE
8
0
10
117.9283989
20
-1.7504755
11
101.0246969
21
2.7788578
0
LINE
8
0
10
101.0246969
20
2.7788578
11
96.7541827
21
-13.1589183
0
LINE
8
0
10
119.8378716
20
-20.1868276
11
134.1730324
21
-30.2244153
0
LINE
8
0
10
134.1730324
20
-30.2244153
11
143.6370436
21
-16.7084066
0
LINE
8
0
10
143.6370436
20
-16.7084066
11
129.3018828
21
-6.6708189
0
LINE
8
0
10
129.3018828
20
-6.6708189
11
119.8378716
21
-20.1868276
0
ENDSEC
0
EOF