%TF.GenerationSoftware,KiCad,Pcbnew,8.0.5*%
%TF.CreationDate,2024-10-13T17:07:22+02:00*%
%TF.ProjectId,BlockyTypeV0.2.3-rounded,426c6f63-6b79-4547-9970-6556302e322e,v1.0.0*%
%TF.SameCoordinates,Original*%
%TF.FileFunction,Profile,NP*%
%FSLAX46Y46*%
G04 Gerber Fmt 4.6, Leading zero omitted, Abs format (unit mm)*
G04 Created by KiCad (PCBNEW 8.0.5) date 2024-10-13 17:07:22*
%MOMM*%
%LPD*%
G01*
G04 APERTURE LIST*
%TA.AperFunction,Profile*%
%ADD10C,0.150000*%
%TD*%
%TA.AperFunction,Profile*%
%ADD11C,0.120000*%
%TD*%
%ADD12C,0.350000*%
G04 APERTURE END LIST*
D10*
X40468139Y88559844D02*
X60468137Y88559838D01*
X19167897Y78170934D02*
G75*
G02*
X19959449Y78559860I791603J-611134D01*
G01*
X136278535Y-2909236D02*
G75*
G02*
X136524133Y-4301980I-573535J-819164D01*
G01*
X60468138Y21559831D02*
G75*
G02*
X59468131Y22559847I62J1000069D01*
G01*
X-9578963Y63968678D02*
G75*
G02*
X-8767817Y65127138I984820J173645D01*
G01*
X79494926Y-16419D02*
X79469372Y20561078D01*
X21508077Y20521413D02*
G75*
G02*
X22507316Y21559860I999323J38387D01*
G01*
X-17697770Y596093D02*
G75*
G02*
X-18856224Y1407252I-173647J984807D01*
G01*
X105564045Y-7767705D02*
X80236100Y-981108D01*
X12149762Y69080238D02*
X19167897Y78170934D01*
X12149762Y69080230D02*
G75*
G02*
X11531858Y68706493I-791462J610870D01*
G01*
X2809545Y5227519D02*
G75*
G02*
X1998381Y4069048I-984795J-173669D01*
G01*
X61468136Y87559836D02*
X61468138Y79559839D01*
X41468135Y22559840D02*
G75*
G02*
X40468127Y21559865I-999935J-40D01*
G01*
X21777588Y13511451D02*
G75*
G02*
X20951977Y12488169I-999288J-38451D01*
G01*
X78469370Y21559838D02*
X60468138Y21559831D01*
X-28406880Y55571680D02*
G75*
G02*
X-27595709Y56730140I984811J173648D01*
G01*
X40468127Y21559839D02*
X22507316Y21559837D01*
X62468136Y78559842D02*
G75*
G02*
X61468142Y79559839I64J1000058D01*
G01*
X58468147Y31559834D02*
G75*
G02*
X59468134Y30559839I53J-999934D01*
G01*
X39468142Y79559833D02*
G75*
G02*
X38468134Y78559858I-999942J-33D01*
G01*
X124233420Y-20111425D02*
X107493014Y-8389665D01*
X136524102Y-4301958D02*
X125626149Y-19865842D01*
X81468136Y77559838D02*
X81468129Y74559839D01*
X80468131Y78559834D02*
G75*
G02*
X81468134Y77559838I69J-999934D01*
G01*
X107201830Y-8249517D02*
X105587618Y-7774325D01*
X125626149Y-19865842D02*
G75*
G02*
X124233407Y-20111443I-819149J573442D01*
G01*
X122469808Y73559847D02*
G75*
G02*
X123469846Y72561515I92J-999947D01*
G01*
X58468147Y31559834D02*
X42468130Y31559838D01*
X80236108Y-981101D02*
G75*
G02*
X79494909Y-16419I258892J966001D01*
G01*
X2288596Y8181926D02*
X2809545Y5227519D01*
X41468125Y30559839D02*
G75*
G02*
X42468130Y31559875I1000075J-39D01*
G01*
X82468144Y73559840D02*
X122469808Y73559847D01*
X-27595709Y56730140D02*
X-9869174Y59855800D01*
X41468125Y30559839D02*
X41468135Y22559840D01*
X-18856223Y1407252D02*
X-28406880Y55571676D01*
X82468144Y73559840D02*
G75*
G02*
X81468140Y74559839I56J1000060D01*
G01*
X62468136Y78559842D02*
X80468131Y78559834D01*
X107201834Y-8249509D02*
G75*
G02*
X107493014Y-8389665I-282134J-958691D01*
G01*
X124007218Y5683234D02*
X136278532Y-2909226D01*
X-8767817Y65127138D02*
X11531854Y68706518D01*
X19959449Y78559837D02*
X38468134Y78559830D01*
X105564039Y-7767706D02*
G75*
G02*
X105587618Y-7774326I-277739J-1034594D01*
G01*
X39468142Y79559833D02*
X39468129Y87559836D01*
X123469820Y72561515D02*
X123580800Y6500711D01*
X59468132Y22559847D02*
X59468132Y30559839D01*
X-9058017Y61014256D02*
G75*
G02*
X-9869174Y59855800I-984816J-173643D01*
G01*
X21508077Y20521413D02*
X21777580Y13511452D01*
X2288592Y8181928D02*
G75*
G02*
X3099744Y9340392I984828J173642D01*
G01*
X124007218Y5683234D02*
G75*
G02*
X123580783Y6500711I573382J819066D01*
G01*
X1998381Y4069048D02*
X-17697774Y596096D01*
X-9058022Y61014252D02*
X-9578961Y63968678D01*
X78469368Y21559840D02*
G75*
G02*
X79469439Y20561078I32J-1000040D01*
G01*
X60468137Y88559838D02*
G75*
G02*
X61468138Y87559836I63J-999938D01*
G01*
X20951967Y12488225D02*
X3099744Y9340393D01*
X39468129Y87559836D02*
G75*
G02*
X40468139Y88559871I1000071J-36D01*
G01*
D11*
%TO.C,LED1*%
X-6762951Y6535123D02*
X-10308260Y5909986D01*
X-10846569Y8962893D01*
X-7301260Y9588030D01*
X-6762951Y6535123D01*
%TO.C,LED3*%
X-13014293Y41988207D02*
X-16559602Y41363070D01*
X-17097911Y44415977D01*
X-13552602Y45041114D01*
X-13014293Y41988207D01*
%TO.C,LED8*%
X32268138Y43509829D02*
X28668137Y43509826D01*
X28668138Y46609829D01*
X32268139Y46609832D01*
X32268138Y43509829D01*
%TO.C,LED14*%
X72268137Y43509834D02*
X68668136Y43509831D01*
X68668137Y46609834D01*
X72268138Y46609837D01*
X72268137Y43509834D01*
%TO.C,LED16*%
X92268127Y20509842D02*
X88668126Y20509839D01*
X88668127Y23609842D01*
X92268128Y23609845D01*
X92268127Y20509842D01*
%TO.C,LED12*%
X52268127Y71509844D02*
X48668126Y71509841D01*
X48668127Y74609844D01*
X52268128Y74609847D01*
X52268127Y71509844D01*
%TO.C,LED15*%
X72268137Y61509838D02*
X68668136Y61509835D01*
X68668137Y64609838D01*
X72268138Y64609841D01*
X72268137Y61509838D01*
%TO.C,LED19*%
X98514031Y1420035D02*
X97711688Y-1574336D01*
X94234351Y-642589D01*
X95036694Y2351782D01*
X98514031Y1420035D01*
%TO.C,LED10*%
X52268132Y35509837D02*
X48668131Y35509834D01*
X48668132Y38609837D01*
X52268133Y38609840D01*
X52268132Y35509837D01*
%TO.C,LED9*%
X32268136Y61509840D02*
X28668135Y61509837D01*
X28668136Y64609840D01*
X32268137Y64609843D01*
X32268136Y61509840D01*
%TO.C,LED20*%
X121560086Y-9633073D02*
X119782001Y-12172444D01*
X116833052Y-10107569D01*
X118611137Y-7568198D01*
X121560086Y-9633073D01*
%TO.C,LED5*%
X8939295Y32658669D02*
X5393986Y32033532D01*
X4855677Y35086439D01*
X8400986Y35711576D01*
X8939295Y32658669D01*
%TO.C,LED6*%
X5813638Y50385217D02*
X2268329Y49760080D01*
X1730020Y52812987D01*
X5275329Y53438124D01*
X5813638Y50385217D01*
%TO.C,LED7*%
X32268149Y25509831D02*
X28668148Y25509828D01*
X28668149Y28609831D01*
X32268150Y28609834D01*
X32268149Y25509831D01*
%TO.C,LED11*%
X52268138Y53509832D02*
X48668137Y53509829D01*
X48668138Y56609832D01*
X52268139Y56609835D01*
X52268138Y53509832D01*
%TO.C,LED2*%
X-9888629Y24261683D02*
X-13433938Y23636546D01*
X-13972247Y26689453D01*
X-10426938Y27314590D01*
X-9888629Y24261683D01*
%TO.C,LED13*%
X72268130Y25509834D02*
X68668129Y25509831D01*
X68668130Y28609834D01*
X72268131Y28609837D01*
X72268130Y25509834D01*
%TO.C,LED17*%
X92268143Y38509840D02*
X88668142Y38509837D01*
X88668143Y41609840D01*
X92268144Y41609843D01*
X92268143Y38509840D01*
%TO.C,LED4*%
X12064955Y14932131D02*
X8519646Y14306994D01*
X7981337Y17359901D01*
X11526646Y17985038D01*
X12064955Y14932131D01*
%TO.C,LED18*%
X92268139Y56509837D02*
X88668138Y56509834D01*
X88668139Y59609837D01*
X92268140Y59609840D01*
X92268139Y56509837D01*
%TD*%
D12*
X107388133Y33359830D03*
X109928133Y33359830D03*
X112468141Y33359828D03*
X115008133Y33359830D03*
X117548136Y33359834D03*
X84968128Y27059830D03*
X85468125Y30809830D03*
X90468128Y33009832D03*
X90468128Y27059830D03*
X95468127Y30809831D03*
X95968128Y27059830D03*
X109694740Y-775521D03*
X261897Y13917137D03*
X24968136Y32059845D03*
X25468133Y35809845D03*
X30468136Y38009847D03*
X30468136Y32059845D03*
X35468135Y35809846D03*
X35968136Y32059845D03*
X84968133Y63059834D03*
X85468130Y66809834D03*
X90468133Y69009836D03*
X90468133Y63059834D03*
X95468132Y66809835D03*
X95968133Y63059834D03*
X85468130Y11059839D03*
X64968136Y68059843D03*
X65468133Y71809843D03*
X70468136Y74009845D03*
X70468136Y68059843D03*
X75468135Y71809844D03*
X75968136Y68059843D03*
X112868136Y3059839D03*
X110868138Y3059847D03*
X120993131Y26559830D03*
X120993131Y23559830D03*
X64968131Y50059836D03*
X65468128Y53809836D03*
X70468131Y56009838D03*
X70468131Y50059836D03*
X75468130Y53809837D03*
X75968131Y50059836D03*
X92355691Y6641861D03*
X93809222Y10134673D03*
X99208256Y10965615D03*
X97668283Y5218356D03*
X103468487Y7546481D03*
X102980875Y3794851D03*
X103468132Y28059839D03*
X44968124Y60059836D03*
X45468121Y63809836D03*
X50468124Y66009838D03*
X50468124Y60059836D03*
X55468123Y63809837D03*
X55968124Y60059836D03*
X40468135Y68059834D03*
X44968137Y78059839D03*
X45468134Y81809839D03*
X50468137Y84009841D03*
X50468137Y78059839D03*
X55468136Y81809840D03*
X55968137Y78059839D03*
X99468134Y60059834D03*
X-2512871Y55568064D03*
X-2671651Y59347916D03*
X1870365Y62382737D03*
X2903572Y56523129D03*
X7176429Y61084400D03*
X8320015Y57478194D03*
X-18215110Y29444527D03*
X-18373890Y33224379D03*
X-13831874Y36259200D03*
X-12798667Y30399592D03*
X-8525810Y34960863D03*
X-7382224Y31354657D03*
X612798Y37841522D03*
X454018Y41621374D03*
X4996034Y44656195D03*
X6029241Y38796587D03*
X10302098Y43357858D03*
X11445684Y39751652D03*
X117559117Y-2619891D03*
X120119604Y165142D03*
X125477232Y-900604D03*
X122064453Y-5774561D03*
X128311125Y-5570623D03*
X126569789Y-8929231D03*
X120993133Y17559846D03*
X120993133Y14559846D03*
X-5468486Y46415785D03*
X24968136Y68059841D03*
X25468133Y71809841D03*
X30468136Y74009843D03*
X30468136Y68059841D03*
X35468135Y71809842D03*
X35968136Y68059841D03*
X116468137Y20559846D03*
X40468141Y40559839D03*
X120088133Y67259842D03*
X120088133Y64719842D03*
X120088131Y62179837D03*
X120088133Y59639842D03*
X120088133Y57099842D03*
X120088133Y54559842D03*
X120088128Y52019844D03*
X120088133Y49479842D03*
X120088128Y46939844D03*
X120088133Y44399843D03*
X120088130Y41859840D03*
X120088133Y39319842D03*
X104848133Y39319842D03*
X104848133Y41859842D03*
X104848133Y44399842D03*
X104848135Y46939847D03*
X104848133Y49479842D03*
X104848133Y52019842D03*
X104848133Y54559842D03*
X104848138Y57099840D03*
X104848133Y59639842D03*
X104848138Y62179840D03*
X104848133Y64719841D03*
X104848136Y67259844D03*
X115868133Y67259842D03*
X115868134Y64719842D03*
X115868133Y62179842D03*
X115868133Y59639842D03*
X115868129Y57099844D03*
X115868138Y54559841D03*
X115868133Y52019842D03*
X115868132Y49479844D03*
X115868133Y46939842D03*
X115868126Y44399843D03*
X115868134Y41859845D03*
X115868131Y39319842D03*
X109068135Y39319842D03*
X109068133Y41859842D03*
X109068132Y44399842D03*
X109068133Y46939842D03*
X109068133Y49479842D03*
X109068137Y52019840D03*
X109068128Y54559843D03*
X109068133Y57099842D03*
X109068134Y59639840D03*
X109068133Y62179842D03*
X109068140Y64719841D03*
X109068132Y67259839D03*
X-15089441Y11717989D03*
X-15248221Y15497841D03*
X-10706205Y18532662D03*
X-9672998Y12673054D03*
X-5400141Y17234325D03*
X-4256555Y13628119D03*
X-21340783Y47171072D03*
X-21499563Y50950924D03*
X-16957547Y53985745D03*
X-15924340Y48126137D03*
X-11651483Y52687408D03*
X-10507897Y49081202D03*
X24968128Y50059836D03*
X25468125Y53809836D03*
X30468128Y56009838D03*
X30468128Y50059836D03*
X35468127Y53809837D03*
X35968128Y50059836D03*
X44968136Y42059854D03*
X45468133Y45809854D03*
X50468136Y48009856D03*
X50468136Y42059854D03*
X55468135Y45809855D03*
X55968136Y42059854D03*
X64968136Y32059839D03*
X65468133Y35809839D03*
X70468136Y38009841D03*
X70468136Y32059839D03*
X75468135Y35809840D03*
X75968136Y32059839D03*
X84968138Y45059833D03*
X85468135Y48809833D03*
X90468138Y51009835D03*
X90468138Y45059833D03*
X95468137Y48809834D03*
X95968138Y45059833D03*
X3738457Y20114992D03*
X3579677Y23894844D03*
X8121693Y26929665D03*
X9154900Y21070057D03*
X13427757Y25631328D03*
X14571343Y22025122D03*
M02*
