M48
; DRILL file {KiCad 8.0.5} date 2024-10-13T17:07:22+0200
; FORMAT={-:-/ absolute / metric / decimal}
; #@! TF.CreationDate,2024-10-13T17:07:22+02:00
; #@! TF.GenerationSoftware,Kicad,Pcbnew,8.0.5
; #@! TF.FileFunction,MixedPlating,1,2
FMAT,2
METRIC
; #@! TA.AperFunction,Plated,PTH,ViaDrill
T1C0.400
; #@! TA.AperFunction,Plated,PTH,ComponentDrill
T2C0.400
; #@! TA.AperFunction,Plated,PTH,ComponentDrill
T3C0.750
; #@! TA.AperFunction,Plated,PTH,ComponentDrill
T4C1.000
; #@! TA.AperFunction,NonPlated,NPTH,ComponentDrill
T5C0.900
; #@! TA.AperFunction,NonPlated,NPTH,ComponentDrill
T6C1.702
; #@! TA.AperFunction,NonPlated,NPTH,ComponentDrill
T7C2.200
; #@! TA.AperFunction,NonPlated,NPTH,ComponentDrill
T8C3.000
; #@! TA.AperFunction,NonPlated,NPTH,ComponentDrill
T9C3.429
%
G90
G05
T1
X-23.556Y47.644
X-22.983Y44.394
X-20.431Y29.917
X-20.052Y43.032
X-19.858Y26.667
X-18.933Y41.808
X-17.305Y12.19
X-16.927Y25.305
X-16.732Y8.941
X-15.807Y24.081
X-14.174Y52.573
X-13.801Y7.579
X-12.682Y6.355
X-11.048Y34.846
X-10.936Y43.218
X-10.303Y44.751
X-7.922Y17.12
X-7.922Y43.749
X-7.811Y25.491
X-7.177Y27.024
X-6.867Y42.396
X-4.793Y26.026
X-4.729Y56.04
X-4.685Y7.765
X-4.156Y52.791
X-4.052Y9.298
X-3.742Y24.669
X-1.603Y38.314
X-1.225Y51.429
X-1.03Y35.064
X-0.105Y50.205
X1.523Y20.587
X1.901Y33.702
X2.096Y17.338
X3.021Y32.478
X4.654Y60.97
X5.027Y15.976
X6.146Y14.752
X7.78Y43.243
X7.892Y51.615
X8.525Y53.148
X10.906Y25.517
X10.906Y52.146
X11.017Y33.888
X11.651Y35.421
X14.032Y34.42
X14.143Y16.162
X14.776Y17.695
X22.868Y50.91
X22.868Y32.91
X22.868Y65.61
X22.868Y47.61
X22.868Y29.61
X22.868Y68.91
X25.518Y45.76
X25.518Y63.76
X25.518Y27.76
X26.408Y26.36
X26.408Y62.36
X26.408Y44.36
X32.989Y72.135
X32.989Y36.135
X33.027Y53.973
X34.528Y62.36
X34.528Y26.36
X34.528Y44.36
X35.418Y63.76
X35.418Y45.76
X35.418Y27.76
X37.614Y44.36
X37.614Y62.36
X38.427Y42.884
X38.427Y60.884
X42.868Y75.61
X42.868Y57.61
X42.868Y78.91
X42.868Y42.91
X42.868Y60.91
X42.868Y39.61
X45.518Y37.76
X45.518Y73.76
X45.518Y55.76
X46.408Y54.36
X46.408Y36.36
X46.408Y72.36
X52.989Y64.135
X52.989Y82.135
X52.989Y46.135
X54.528Y72.36
X54.528Y54.36
X54.528Y36.36
X55.418Y37.76
X55.418Y73.76
X55.418Y55.76
X57.614Y54.36
X57.614Y72.36
X62.868Y32.91
X62.868Y47.61
X62.868Y65.61
X62.868Y29.61
X62.868Y68.91
X62.868Y50.91
X65.518Y45.76
X65.518Y63.76
X65.518Y27.76
X66.408Y26.36
X66.408Y62.36
X66.408Y44.36
X72.989Y72.135
X72.989Y36.135
X72.989Y54.135
X74.528Y62.36
X74.528Y44.36
X74.528Y26.36
X75.418Y27.76
X75.418Y63.76
X75.418Y45.76
X77.614Y44.36
X77.614Y62.36
X78.427Y60.884
X78.427Y42.884
X82.868Y63.91
X82.868Y60.61
X82.868Y42.61
X82.868Y27.91
X82.868Y24.61
X82.868Y45.91
X85.518Y22.76
X85.518Y58.76
X85.518Y40.76
X86.408Y39.36
X86.408Y57.36
X86.408Y21.36
X86.81Y6.395
X88.724Y5.882
X89.693Y4.819
X90.547Y8.006
X91.774Y2.346
X92.271Y0.763
X92.989Y49.135
X92.989Y67.135
X92.989Y31.135
X94.528Y57.36
X94.528Y39.36
X94.528Y21.36
X95.418Y58.76
X95.418Y22.76
X95.418Y40.76
X95.938Y15.282
X97.614Y39.36
X97.614Y57.36
X99.064Y22.942
X100.115Y-1.338
X101.212Y8.474
X101.3Y53.384
X101.337Y-0.216
X101.53Y43.035
X101.571Y41.693
X102.627Y50.673
X108.627Y37.173
X110.145Y38.346
X110.868Y11.377
X111.575Y37.465
X112.627Y37.773
X112.868Y11.377
X113.527Y35.873
X114.227Y38.365
X114.434Y-3.422
X114.993Y26.379
X115.327Y37.673
X115.469Y-8.115
X115.543Y-6.458
X116.326Y-0.719
X116.44Y37.586
X116.612Y18.321
X116.735Y13.496
X117.653Y22.976
X117.853Y29.776
X117.869Y9.86
X117.912Y18.31
X117.94Y16.004
X118.153Y8.676
X122.121Y-12.772
X123.653Y-12.136
X126.474Y-3.888
T2
X109.068Y54.56
X109.068Y67.26
X109.068Y44.4
X109.068Y62.18
X109.068Y57.1
X109.068Y49.48
X109.068Y46.94
X109.068Y41.86
X109.068Y59.64
X109.068Y39.32
X109.068Y52.02
X109.068Y64.72
X115.868Y44.4
X115.868Y57.1
X115.868Y39.32
X115.868Y49.48
X115.868Y67.26
X115.868Y62.18
X115.868Y59.64
X115.868Y52.02
X115.868Y46.94
X115.868Y64.72
X115.868Y41.86
X115.868Y54.56
T3
X110.868Y3.06
X112.868Y3.06
T4
X104.848Y64.72
X104.848Y59.64
X104.848Y54.56
X104.848Y52.02
X104.848Y49.48
X104.848Y44.4
X104.848Y41.86
X104.848Y39.32
X104.848Y46.94
X104.848Y67.26
X104.848Y62.18
X104.848Y57.1
X107.388Y33.36
X109.928Y33.36
X112.468Y33.36
X115.008Y33.36
X117.548Y33.36
X120.088Y52.02
X120.088Y46.94
X120.088Y41.86
X120.088Y62.18
X120.088Y67.26
X120.088Y64.72
X120.088Y59.64
X120.088Y57.1
X120.088Y54.56
X120.088Y49.48
X120.088Y44.4
X120.088Y39.32
T5
X120.993Y26.56
X120.993Y23.56
X120.993Y17.56
X120.993Y14.56
T6
X-21.341Y47.171
X-18.215Y29.445
X-15.089Y11.718
X-10.508Y49.081
X-7.382Y31.355
X-4.257Y13.628
X-2.513Y55.568
X0.613Y37.842
X3.738Y20.115
X8.32Y57.478
X11.446Y39.752
X14.571Y22.025
X24.968Y50.06
X24.968Y68.06
X24.968Y32.06
X35.968Y50.06
X35.968Y68.06
X35.968Y32.06
X44.968Y60.06
X44.968Y42.06
X44.968Y78.06
X55.968Y60.06
X55.968Y42.06
X55.968Y78.06
X64.968Y50.06
X64.968Y68.06
X64.968Y32.06
X75.968Y50.06
X75.968Y68.06
X75.968Y32.06
X84.968Y27.06
X84.968Y63.06
X84.968Y45.06
X92.356Y6.642
X95.968Y27.06
X95.968Y63.06
X95.968Y45.06
X102.981Y3.795
X117.559Y-2.62
X126.57Y-8.929
T7
X-5.468Y46.416
X0.262Y13.917
X40.468Y68.06
X40.468Y40.56
X85.468Y11.06
X99.468Y60.06
X103.468Y28.06
X109.695Y-0.776
X116.468Y20.56
T8
X-21.5Y50.951
X-18.374Y33.224
X-16.958Y53.986
X-15.248Y15.498
X-13.832Y36.259
X-11.651Y52.687
X-10.706Y18.533
X-8.526Y34.961
X-5.4Y17.234
X-2.672Y59.348
X0.454Y41.621
X1.87Y62.383
X3.58Y23.895
X4.996Y44.656
X7.176Y61.084
X8.122Y26.93
X10.302Y43.358
X13.428Y25.631
X25.468Y53.81
X25.468Y71.81
X25.468Y35.81
X30.468Y56.01
X30.468Y74.01
X30.468Y38.01
X35.468Y53.81
X35.468Y71.81
X35.468Y35.81
X45.468Y63.81
X45.468Y45.81
X45.468Y81.81
X50.468Y66.01
X50.468Y48.01
X50.468Y84.01
X55.468Y63.81
X55.468Y45.81
X55.468Y81.81
X65.468Y53.81
X65.468Y71.81
X65.468Y35.81
X70.468Y56.01
X70.468Y74.01
X70.468Y38.01
X75.468Y53.81
X75.468Y71.81
X75.468Y35.81
X85.468Y30.81
X85.468Y66.81
X85.468Y48.81
X90.468Y33.01
X90.468Y69.01
X90.468Y51.01
X93.809Y10.135
X95.468Y30.81
X95.468Y66.81
X95.468Y48.81
X99.208Y10.966
X103.468Y7.546
X120.12Y0.165
X125.477Y-0.901
X128.311Y-5.571
T9
X-15.924Y48.126
X-12.799Y30.4
X-9.673Y12.673
X2.904Y56.523
X6.029Y38.797
X9.155Y21.07
X30.468Y50.06
X30.468Y68.06
X30.468Y32.06
X50.468Y60.06
X50.468Y42.06
X50.468Y78.06
X70.468Y50.06
X70.468Y68.06
X70.468Y32.06
X90.468Y27.06
X90.468Y63.06
X90.468Y45.06
X97.668Y5.218
X122.064Y-5.775
M30
