%TF.GenerationSoftware,KiCad,Pcbnew,8.0.5*%
%TF.CreationDate,2024-10-13T17:07:22+02:00*%
%TF.ProjectId,BlockyTypeV0.2.3-rounded,426c6f63-6b79-4547-9970-6556302e322e,v1.0.0*%
%TF.SameCoordinates,Original*%
%TF.FileFunction,Legend,Top*%
%TF.FilePolarity,Positive*%
%FSLAX46Y46*%
G04 Gerber Fmt 4.6, Leading zero omitted, Abs format (unit mm)*
G04 Created by KiCad (PCBNEW 8.0.5) date 2024-10-13 17:07:22*
%MOMM*%
%LPD*%
G01*
G04 APERTURE LIST*
%ADD10C,0.100000*%
%ADD11C,0.150000*%
%ADD12C,0.120000*%
%ADD13C,0.350000*%
G04 APERTURE END LIST*
D10*
X106904799Y37102411D02*
X106904799Y38102411D01*
X106904799Y38102411D02*
X107071466Y38102411D01*
X107071466Y38102411D02*
X107171466Y38054792D01*
X107171466Y38054792D02*
X107238133Y37959554D01*
X107238133Y37959554D02*
X107271466Y37864316D01*
X107271466Y37864316D02*
X107304799Y37673840D01*
X107304799Y37673840D02*
X107304799Y37530983D01*
X107304799Y37530983D02*
X107271466Y37340507D01*
X107271466Y37340507D02*
X107238133Y37245269D01*
X107238133Y37245269D02*
X107171466Y37150031D01*
X107171466Y37150031D02*
X107071466Y37102411D01*
X107071466Y37102411D02*
X106904799Y37102411D01*
X107571466Y37388126D02*
X107904799Y37388126D01*
X107504799Y37102411D02*
X107738133Y38102411D01*
X107738133Y38102411D02*
X107971466Y37102411D01*
X111684799Y36202410D02*
X111918133Y35202410D01*
X111918133Y35202410D02*
X112151466Y36202410D01*
X112784799Y35297649D02*
X112751466Y35250030D01*
X112751466Y35250030D02*
X112651466Y35202410D01*
X112651466Y35202410D02*
X112584799Y35202410D01*
X112584799Y35202410D02*
X112484799Y35250030D01*
X112484799Y35250030D02*
X112418133Y35345268D01*
X112418133Y35345268D02*
X112384799Y35440506D01*
X112384799Y35440506D02*
X112351466Y35630982D01*
X112351466Y35630982D02*
X112351466Y35773839D01*
X112351466Y35773839D02*
X112384799Y35964315D01*
X112384799Y35964315D02*
X112418133Y36059553D01*
X112418133Y36059553D02*
X112484799Y36154791D01*
X112484799Y36154791D02*
X112584799Y36202410D01*
X112584799Y36202410D02*
X112651466Y36202410D01*
X112651466Y36202410D02*
X112751466Y36154791D01*
X112751466Y36154791D02*
X112784799Y36107172D01*
X113484799Y35297649D02*
X113451466Y35250030D01*
X113451466Y35250030D02*
X113351466Y35202410D01*
X113351466Y35202410D02*
X113284799Y35202410D01*
X113284799Y35202410D02*
X113184799Y35250030D01*
X113184799Y35250030D02*
X113118133Y35345268D01*
X113118133Y35345268D02*
X113084799Y35440506D01*
X113084799Y35440506D02*
X113051466Y35630982D01*
X113051466Y35630982D02*
X113051466Y35773839D01*
X113051466Y35773839D02*
X113084799Y35964315D01*
X113084799Y35964315D02*
X113118133Y36059553D01*
X113118133Y36059553D02*
X113184799Y36154791D01*
X113184799Y36154791D02*
X113284799Y36202410D01*
X113284799Y36202410D02*
X113351466Y36202410D01*
X113351466Y36202410D02*
X113451466Y36154791D01*
X113451466Y36154791D02*
X113484799Y36107172D01*
X117471466Y37197649D02*
X117438133Y37150030D01*
X117438133Y37150030D02*
X117338133Y37102410D01*
X117338133Y37102410D02*
X117271466Y37102410D01*
X117271466Y37102410D02*
X117171466Y37150030D01*
X117171466Y37150030D02*
X117104800Y37245268D01*
X117104800Y37245268D02*
X117071466Y37340506D01*
X117071466Y37340506D02*
X117038133Y37530982D01*
X117038133Y37530982D02*
X117038133Y37673839D01*
X117038133Y37673839D02*
X117071466Y37864315D01*
X117071466Y37864315D02*
X117104800Y37959553D01*
X117104800Y37959553D02*
X117171466Y38054791D01*
X117171466Y38054791D02*
X117271466Y38102410D01*
X117271466Y38102410D02*
X117338133Y38102410D01*
X117338133Y38102410D02*
X117438133Y38054791D01*
X117438133Y38054791D02*
X117471466Y38007172D01*
X117738133Y37150030D02*
X117838133Y37102410D01*
X117838133Y37102410D02*
X118004800Y37102410D01*
X118004800Y37102410D02*
X118071466Y37150030D01*
X118071466Y37150030D02*
X118104800Y37197649D01*
X118104800Y37197649D02*
X118138133Y37292887D01*
X118138133Y37292887D02*
X118138133Y37388125D01*
X118138133Y37388125D02*
X118104800Y37483363D01*
X118104800Y37483363D02*
X118071466Y37530982D01*
X118071466Y37530982D02*
X118004800Y37578601D01*
X118004800Y37578601D02*
X117871466Y37626220D01*
X117871466Y37626220D02*
X117804800Y37673839D01*
X117804800Y37673839D02*
X117771466Y37721458D01*
X117771466Y37721458D02*
X117738133Y37816696D01*
X117738133Y37816696D02*
X117738133Y37911934D01*
X117738133Y37911934D02*
X117771466Y38007172D01*
X117771466Y38007172D02*
X117804800Y38054791D01*
X117804800Y38054791D02*
X117871466Y38102410D01*
X117871466Y38102410D02*
X118038133Y38102410D01*
X118038133Y38102410D02*
X118138133Y38054791D01*
X109921466Y37197649D02*
X109888133Y37150030D01*
X109888133Y37150030D02*
X109788133Y37102410D01*
X109788133Y37102410D02*
X109721466Y37102410D01*
X109721466Y37102410D02*
X109621466Y37150030D01*
X109621466Y37150030D02*
X109554800Y37245268D01*
X109554800Y37245268D02*
X109521466Y37340506D01*
X109521466Y37340506D02*
X109488133Y37530982D01*
X109488133Y37530982D02*
X109488133Y37673839D01*
X109488133Y37673839D02*
X109521466Y37864315D01*
X109521466Y37864315D02*
X109554800Y37959553D01*
X109554800Y37959553D02*
X109621466Y38054791D01*
X109621466Y38054791D02*
X109721466Y38102410D01*
X109721466Y38102410D02*
X109788133Y38102410D01*
X109788133Y38102410D02*
X109888133Y38054791D01*
X109888133Y38054791D02*
X109921466Y38007172D01*
X110554800Y37102410D02*
X110221466Y37102410D01*
X110221466Y37102410D02*
X110221466Y38102410D01*
X114554800Y38054791D02*
X114488133Y38102410D01*
X114488133Y38102410D02*
X114388133Y38102410D01*
X114388133Y38102410D02*
X114288133Y38054791D01*
X114288133Y38054791D02*
X114221467Y37959553D01*
X114221467Y37959553D02*
X114188133Y37864315D01*
X114188133Y37864315D02*
X114154800Y37673839D01*
X114154800Y37673839D02*
X114154800Y37530982D01*
X114154800Y37530982D02*
X114188133Y37340506D01*
X114188133Y37340506D02*
X114221467Y37245268D01*
X114221467Y37245268D02*
X114288133Y37150030D01*
X114288133Y37150030D02*
X114388133Y37102410D01*
X114388133Y37102410D02*
X114454800Y37102410D01*
X114454800Y37102410D02*
X114554800Y37150030D01*
X114554800Y37150030D02*
X114588133Y37197649D01*
X114588133Y37197649D02*
X114588133Y37530982D01*
X114588133Y37530982D02*
X114454800Y37530982D01*
X114888133Y37102410D02*
X114888133Y38102410D01*
X114888133Y38102410D02*
X115288133Y37102410D01*
X115288133Y37102410D02*
X115288133Y38102410D01*
X115621466Y37102410D02*
X115621466Y38102410D01*
X115621466Y38102410D02*
X115788133Y38102410D01*
X115788133Y38102410D02*
X115888133Y38054791D01*
X115888133Y38054791D02*
X115954800Y37959553D01*
X115954800Y37959553D02*
X115988133Y37864315D01*
X115988133Y37864315D02*
X116021466Y37673839D01*
X116021466Y37673839D02*
X116021466Y37530982D01*
X116021466Y37530982D02*
X115988133Y37340506D01*
X115988133Y37340506D02*
X115954800Y37245268D01*
X115954800Y37245268D02*
X115888133Y37150030D01*
X115888133Y37150030D02*
X115788133Y37102410D01*
X115788133Y37102410D02*
X115621466Y37102410D01*
D11*
X109690038Y49025022D02*
X109690038Y50025022D01*
X109690038Y50025022D02*
X110070990Y50025022D01*
X110070990Y50025022D02*
X110166228Y49977403D01*
X110166228Y49977403D02*
X110213847Y49929784D01*
X110213847Y49929784D02*
X110261466Y49834546D01*
X110261466Y49834546D02*
X110261466Y49691689D01*
X110261466Y49691689D02*
X110213847Y49596451D01*
X110213847Y49596451D02*
X110166228Y49548832D01*
X110166228Y49548832D02*
X110070990Y49501213D01*
X110070990Y49501213D02*
X109690038Y49501213D01*
X111166228Y50025022D02*
X110690038Y50025022D01*
X110690038Y50025022D02*
X110642419Y49548832D01*
X110642419Y49548832D02*
X110690038Y49596451D01*
X110690038Y49596451D02*
X110785276Y49644070D01*
X110785276Y49644070D02*
X111023371Y49644070D01*
X111023371Y49644070D02*
X111118609Y49596451D01*
X111118609Y49596451D02*
X111166228Y49548832D01*
X111166228Y49548832D02*
X111213847Y49453594D01*
X111213847Y49453594D02*
X111213847Y49215499D01*
X111213847Y49215499D02*
X111166228Y49120261D01*
X111166228Y49120261D02*
X111118609Y49072642D01*
X111118609Y49072642D02*
X111023371Y49025022D01*
X111023371Y49025022D02*
X110785276Y49025022D01*
X110785276Y49025022D02*
X110690038Y49072642D01*
X110690038Y49072642D02*
X110642419Y49120261D01*
X109690038Y51565022D02*
X109690038Y52565022D01*
X109690038Y52565022D02*
X110070990Y52565022D01*
X110070990Y52565022D02*
X110166228Y52517403D01*
X110166228Y52517403D02*
X110213847Y52469784D01*
X110213847Y52469784D02*
X110261466Y52374546D01*
X110261466Y52374546D02*
X110261466Y52231689D01*
X110261466Y52231689D02*
X110213847Y52136451D01*
X110213847Y52136451D02*
X110166228Y52088832D01*
X110166228Y52088832D02*
X110070990Y52041213D01*
X110070990Y52041213D02*
X109690038Y52041213D01*
X111118609Y52231689D02*
X111118609Y51565022D01*
X110880514Y52612642D02*
X110642419Y51898356D01*
X110642419Y51898356D02*
X111261466Y51898356D01*
X113227656Y66805022D02*
X112894323Y67281213D01*
X112656228Y66805022D02*
X112656228Y67805022D01*
X112656228Y67805022D02*
X113037180Y67805022D01*
X113037180Y67805022D02*
X113132418Y67757403D01*
X113132418Y67757403D02*
X113180037Y67709784D01*
X113180037Y67709784D02*
X113227656Y67614546D01*
X113227656Y67614546D02*
X113227656Y67471689D01*
X113227656Y67471689D02*
X113180037Y67376451D01*
X113180037Y67376451D02*
X113132418Y67328832D01*
X113132418Y67328832D02*
X113037180Y67281213D01*
X113037180Y67281213D02*
X112656228Y67281213D01*
X113608609Y67090737D02*
X114084799Y67090737D01*
X113513371Y66805022D02*
X113846704Y67805022D01*
X113846704Y67805022D02*
X114180037Y66805022D01*
X114418133Y67805022D02*
X114656228Y66805022D01*
X114656228Y66805022D02*
X114846704Y67519308D01*
X114846704Y67519308D02*
X115037180Y66805022D01*
X115037180Y66805022D02*
X115275276Y67805022D01*
X112703847Y43945022D02*
X112703847Y44945022D01*
X112703847Y44945022D02*
X113084799Y44945022D01*
X113084799Y44945022D02*
X113180037Y44897403D01*
X113180037Y44897403D02*
X113227656Y44849784D01*
X113227656Y44849784D02*
X113275275Y44754546D01*
X113275275Y44754546D02*
X113275275Y44611689D01*
X113275275Y44611689D02*
X113227656Y44516451D01*
X113227656Y44516451D02*
X113180037Y44468832D01*
X113180037Y44468832D02*
X113084799Y44421213D01*
X113084799Y44421213D02*
X112703847Y44421213D01*
X114227656Y43945022D02*
X113656228Y43945022D01*
X113941942Y43945022D02*
X113941942Y44945022D01*
X113941942Y44945022D02*
X113846704Y44802165D01*
X113846704Y44802165D02*
X113751466Y44706927D01*
X113751466Y44706927D02*
X113656228Y44659308D01*
X115084799Y44611689D02*
X115084799Y43945022D01*
X114846704Y44992642D02*
X114608609Y44278356D01*
X114608609Y44278356D02*
X115227656Y44278356D01*
X112703847Y46485022D02*
X112703847Y47485022D01*
X112703847Y47485022D02*
X113084799Y47485022D01*
X113084799Y47485022D02*
X113180037Y47437403D01*
X113180037Y47437403D02*
X113227656Y47389784D01*
X113227656Y47389784D02*
X113275275Y47294546D01*
X113275275Y47294546D02*
X113275275Y47151689D01*
X113275275Y47151689D02*
X113227656Y47056451D01*
X113227656Y47056451D02*
X113180037Y47008832D01*
X113180037Y47008832D02*
X113084799Y46961213D01*
X113084799Y46961213D02*
X112703847Y46961213D01*
X114227656Y46485022D02*
X113656228Y46485022D01*
X113941942Y46485022D02*
X113941942Y47485022D01*
X113941942Y47485022D02*
X113846704Y47342165D01*
X113846704Y47342165D02*
X113751466Y47246927D01*
X113751466Y47246927D02*
X113656228Y47199308D01*
X115132418Y47485022D02*
X114656228Y47485022D01*
X114656228Y47485022D02*
X114608609Y47008832D01*
X114608609Y47008832D02*
X114656228Y47056451D01*
X114656228Y47056451D02*
X114751466Y47104070D01*
X114751466Y47104070D02*
X114989561Y47104070D01*
X114989561Y47104070D02*
X115084799Y47056451D01*
X115084799Y47056451D02*
X115132418Y47008832D01*
X115132418Y47008832D02*
X115180037Y46913594D01*
X115180037Y46913594D02*
X115180037Y46675499D01*
X115180037Y46675499D02*
X115132418Y46580261D01*
X115132418Y46580261D02*
X115084799Y46532642D01*
X115084799Y46532642D02*
X114989561Y46485022D01*
X114989561Y46485022D02*
X114751466Y46485022D01*
X114751466Y46485022D02*
X114656228Y46532642D01*
X114656228Y46532642D02*
X114608609Y46580261D01*
X109690036Y64265022D02*
X109690036Y65265022D01*
X109690036Y65265022D02*
X110070988Y65265022D01*
X110070988Y65265022D02*
X110166226Y65217403D01*
X110166226Y65217403D02*
X110213845Y65169784D01*
X110213845Y65169784D02*
X110261464Y65074546D01*
X110261464Y65074546D02*
X110261464Y64931689D01*
X110261464Y64931689D02*
X110213845Y64836451D01*
X110213845Y64836451D02*
X110166226Y64788832D01*
X110166226Y64788832D02*
X110070988Y64741213D01*
X110070988Y64741213D02*
X109690036Y64741213D01*
X110880512Y65265022D02*
X110975750Y65265022D01*
X110975750Y65265022D02*
X111070988Y65217403D01*
X111070988Y65217403D02*
X111118607Y65169784D01*
X111118607Y65169784D02*
X111166226Y65074546D01*
X111166226Y65074546D02*
X111213845Y64884070D01*
X111213845Y64884070D02*
X111213845Y64645975D01*
X111213845Y64645975D02*
X111166226Y64455499D01*
X111166226Y64455499D02*
X111118607Y64360261D01*
X111118607Y64360261D02*
X111070988Y64312642D01*
X111070988Y64312642D02*
X110975750Y64265022D01*
X110975750Y64265022D02*
X110880512Y64265022D01*
X110880512Y64265022D02*
X110785274Y64312642D01*
X110785274Y64312642D02*
X110737655Y64360261D01*
X110737655Y64360261D02*
X110690036Y64455499D01*
X110690036Y64455499D02*
X110642417Y64645975D01*
X110642417Y64645975D02*
X110642417Y64884070D01*
X110642417Y64884070D02*
X110690036Y65074546D01*
X110690036Y65074546D02*
X110737655Y65169784D01*
X110737655Y65169784D02*
X110785274Y65217403D01*
X110785274Y65217403D02*
X110880512Y65265022D01*
X109690038Y38865022D02*
X109690038Y39865022D01*
X109690038Y39865022D02*
X110070990Y39865022D01*
X110070990Y39865022D02*
X110166228Y39817403D01*
X110166228Y39817403D02*
X110213847Y39769784D01*
X110213847Y39769784D02*
X110261466Y39674546D01*
X110261466Y39674546D02*
X110261466Y39531689D01*
X110261466Y39531689D02*
X110213847Y39436451D01*
X110213847Y39436451D02*
X110166228Y39388832D01*
X110166228Y39388832D02*
X110070990Y39341213D01*
X110070990Y39341213D02*
X109690038Y39341213D01*
X110737657Y38865022D02*
X110928133Y38865022D01*
X110928133Y38865022D02*
X111023371Y38912642D01*
X111023371Y38912642D02*
X111070990Y38960261D01*
X111070990Y38960261D02*
X111166228Y39103118D01*
X111166228Y39103118D02*
X111213847Y39293594D01*
X111213847Y39293594D02*
X111213847Y39674546D01*
X111213847Y39674546D02*
X111166228Y39769784D01*
X111166228Y39769784D02*
X111118609Y39817403D01*
X111118609Y39817403D02*
X111023371Y39865022D01*
X111023371Y39865022D02*
X110832895Y39865022D01*
X110832895Y39865022D02*
X110737657Y39817403D01*
X110737657Y39817403D02*
X110690038Y39769784D01*
X110690038Y39769784D02*
X110642419Y39674546D01*
X110642419Y39674546D02*
X110642419Y39436451D01*
X110642419Y39436451D02*
X110690038Y39341213D01*
X110690038Y39341213D02*
X110737657Y39293594D01*
X110737657Y39293594D02*
X110832895Y39245975D01*
X110832895Y39245975D02*
X111023371Y39245975D01*
X111023371Y39245975D02*
X111118609Y39293594D01*
X111118609Y39293594D02*
X111166228Y39341213D01*
X111166228Y39341213D02*
X111213847Y39436451D01*
X112703849Y38865021D02*
X112703849Y39865021D01*
X112703849Y39865021D02*
X113084801Y39865021D01*
X113084801Y39865021D02*
X113180039Y39817402D01*
X113180039Y39817402D02*
X113227658Y39769783D01*
X113227658Y39769783D02*
X113275277Y39674545D01*
X113275277Y39674545D02*
X113275277Y39531688D01*
X113275277Y39531688D02*
X113227658Y39436450D01*
X113227658Y39436450D02*
X113180039Y39388831D01*
X113180039Y39388831D02*
X113084801Y39341212D01*
X113084801Y39341212D02*
X112703849Y39341212D01*
X114227658Y38865021D02*
X113656230Y38865021D01*
X113941944Y38865021D02*
X113941944Y39865021D01*
X113941944Y39865021D02*
X113846706Y39722164D01*
X113846706Y39722164D02*
X113751468Y39626926D01*
X113751468Y39626926D02*
X113656230Y39579307D01*
X114846706Y39865021D02*
X114941944Y39865021D01*
X114941944Y39865021D02*
X115037182Y39817402D01*
X115037182Y39817402D02*
X115084801Y39769783D01*
X115084801Y39769783D02*
X115132420Y39674545D01*
X115132420Y39674545D02*
X115180039Y39484069D01*
X115180039Y39484069D02*
X115180039Y39245974D01*
X115180039Y39245974D02*
X115132420Y39055498D01*
X115132420Y39055498D02*
X115084801Y38960260D01*
X115084801Y38960260D02*
X115037182Y38912641D01*
X115037182Y38912641D02*
X114941944Y38865021D01*
X114941944Y38865021D02*
X114846706Y38865021D01*
X114846706Y38865021D02*
X114751468Y38912641D01*
X114751468Y38912641D02*
X114703849Y38960260D01*
X114703849Y38960260D02*
X114656230Y39055498D01*
X114656230Y39055498D02*
X114608611Y39245974D01*
X114608611Y39245974D02*
X114608611Y39484069D01*
X114608611Y39484069D02*
X114656230Y39674545D01*
X114656230Y39674545D02*
X114703849Y39769783D01*
X114703849Y39769783D02*
X114751468Y39817402D01*
X114751468Y39817402D02*
X114846706Y39865021D01*
X112703847Y51565022D02*
X112703847Y52565022D01*
X112703847Y52565022D02*
X113084799Y52565022D01*
X113084799Y52565022D02*
X113180037Y52517403D01*
X113180037Y52517403D02*
X113227656Y52469784D01*
X113227656Y52469784D02*
X113275275Y52374546D01*
X113275275Y52374546D02*
X113275275Y52231689D01*
X113275275Y52231689D02*
X113227656Y52136451D01*
X113227656Y52136451D02*
X113180037Y52088832D01*
X113180037Y52088832D02*
X113084799Y52041213D01*
X113084799Y52041213D02*
X112703847Y52041213D01*
X114227656Y51565022D02*
X113656228Y51565022D01*
X113941942Y51565022D02*
X113941942Y52565022D01*
X113941942Y52565022D02*
X113846704Y52422165D01*
X113846704Y52422165D02*
X113751466Y52326927D01*
X113751466Y52326927D02*
X113656228Y52279308D01*
X114703847Y51565022D02*
X114894323Y51565022D01*
X114894323Y51565022D02*
X114989561Y51612642D01*
X114989561Y51612642D02*
X115037180Y51660261D01*
X115037180Y51660261D02*
X115132418Y51803118D01*
X115132418Y51803118D02*
X115180037Y51993594D01*
X115180037Y51993594D02*
X115180037Y52374546D01*
X115180037Y52374546D02*
X115132418Y52469784D01*
X115132418Y52469784D02*
X115084799Y52517403D01*
X115084799Y52517403D02*
X114989561Y52565022D01*
X114989561Y52565022D02*
X114799085Y52565022D01*
X114799085Y52565022D02*
X114703847Y52517403D01*
X114703847Y52517403D02*
X114656228Y52469784D01*
X114656228Y52469784D02*
X114608609Y52374546D01*
X114608609Y52374546D02*
X114608609Y52136451D01*
X114608609Y52136451D02*
X114656228Y52041213D01*
X114656228Y52041213D02*
X114703847Y51993594D01*
X114703847Y51993594D02*
X114799085Y51945975D01*
X114799085Y51945975D02*
X114989561Y51945975D01*
X114989561Y51945975D02*
X115084799Y51993594D01*
X115084799Y51993594D02*
X115132418Y52041213D01*
X115132418Y52041213D02*
X115180037Y52136451D01*
X109690038Y46485022D02*
X109690038Y47485022D01*
X109690038Y47485022D02*
X110070990Y47485022D01*
X110070990Y47485022D02*
X110166228Y47437403D01*
X110166228Y47437403D02*
X110213847Y47389784D01*
X110213847Y47389784D02*
X110261466Y47294546D01*
X110261466Y47294546D02*
X110261466Y47151689D01*
X110261466Y47151689D02*
X110213847Y47056451D01*
X110213847Y47056451D02*
X110166228Y47008832D01*
X110166228Y47008832D02*
X110070990Y46961213D01*
X110070990Y46961213D02*
X109690038Y46961213D01*
X111118609Y47485022D02*
X110928133Y47485022D01*
X110928133Y47485022D02*
X110832895Y47437403D01*
X110832895Y47437403D02*
X110785276Y47389784D01*
X110785276Y47389784D02*
X110690038Y47246927D01*
X110690038Y47246927D02*
X110642419Y47056451D01*
X110642419Y47056451D02*
X110642419Y46675499D01*
X110642419Y46675499D02*
X110690038Y46580261D01*
X110690038Y46580261D02*
X110737657Y46532642D01*
X110737657Y46532642D02*
X110832895Y46485022D01*
X110832895Y46485022D02*
X111023371Y46485022D01*
X111023371Y46485022D02*
X111118609Y46532642D01*
X111118609Y46532642D02*
X111166228Y46580261D01*
X111166228Y46580261D02*
X111213847Y46675499D01*
X111213847Y46675499D02*
X111213847Y46913594D01*
X111213847Y46913594D02*
X111166228Y47008832D01*
X111166228Y47008832D02*
X111118609Y47056451D01*
X111118609Y47056451D02*
X111023371Y47104070D01*
X111023371Y47104070D02*
X110832895Y47104070D01*
X110832895Y47104070D02*
X110737657Y47056451D01*
X110737657Y47056451D02*
X110690038Y47008832D01*
X110690038Y47008832D02*
X110642419Y46913594D01*
X113156228Y65217403D02*
X113060990Y65265022D01*
X113060990Y65265022D02*
X112918133Y65265022D01*
X112918133Y65265022D02*
X112775276Y65217403D01*
X112775276Y65217403D02*
X112680038Y65122165D01*
X112680038Y65122165D02*
X112632419Y65026927D01*
X112632419Y65026927D02*
X112584800Y64836451D01*
X112584800Y64836451D02*
X112584800Y64693594D01*
X112584800Y64693594D02*
X112632419Y64503118D01*
X112632419Y64503118D02*
X112680038Y64407880D01*
X112680038Y64407880D02*
X112775276Y64312642D01*
X112775276Y64312642D02*
X112918133Y64265022D01*
X112918133Y64265022D02*
X113013371Y64265022D01*
X113013371Y64265022D02*
X113156228Y64312642D01*
X113156228Y64312642D02*
X113203847Y64360261D01*
X113203847Y64360261D02*
X113203847Y64693594D01*
X113203847Y64693594D02*
X113013371Y64693594D01*
X113632419Y64265022D02*
X113632419Y65265022D01*
X113632419Y65265022D02*
X114203847Y64265022D01*
X114203847Y64265022D02*
X114203847Y65265022D01*
X114680038Y64265022D02*
X114680038Y65265022D01*
X114680038Y65265022D02*
X114918133Y65265022D01*
X114918133Y65265022D02*
X115060990Y65217403D01*
X115060990Y65217403D02*
X115156228Y65122165D01*
X115156228Y65122165D02*
X115203847Y65026927D01*
X115203847Y65026927D02*
X115251466Y64836451D01*
X115251466Y64836451D02*
X115251466Y64693594D01*
X115251466Y64693594D02*
X115203847Y64503118D01*
X115203847Y64503118D02*
X115156228Y64407880D01*
X115156228Y64407880D02*
X115060990Y64312642D01*
X115060990Y64312642D02*
X114918133Y64265022D01*
X114918133Y64265022D02*
X114680038Y64265022D01*
X110256228Y62677403D02*
X110160990Y62725022D01*
X110160990Y62725022D02*
X110018133Y62725022D01*
X110018133Y62725022D02*
X109875276Y62677403D01*
X109875276Y62677403D02*
X109780038Y62582165D01*
X109780038Y62582165D02*
X109732419Y62486927D01*
X109732419Y62486927D02*
X109684800Y62296451D01*
X109684800Y62296451D02*
X109684800Y62153594D01*
X109684800Y62153594D02*
X109732419Y61963118D01*
X109732419Y61963118D02*
X109780038Y61867880D01*
X109780038Y61867880D02*
X109875276Y61772642D01*
X109875276Y61772642D02*
X110018133Y61725022D01*
X110018133Y61725022D02*
X110113371Y61725022D01*
X110113371Y61725022D02*
X110256228Y61772642D01*
X110256228Y61772642D02*
X110303847Y61820261D01*
X110303847Y61820261D02*
X110303847Y62153594D01*
X110303847Y62153594D02*
X110113371Y62153594D01*
X110732419Y61725022D02*
X110732419Y62725022D01*
X110732419Y62725022D02*
X111303847Y61725022D01*
X111303847Y61725022D02*
X111303847Y62725022D01*
X111780038Y61725022D02*
X111780038Y62725022D01*
X111780038Y62725022D02*
X112018133Y62725022D01*
X112018133Y62725022D02*
X112160990Y62677403D01*
X112160990Y62677403D02*
X112256228Y62582165D01*
X112256228Y62582165D02*
X112303847Y62486927D01*
X112303847Y62486927D02*
X112351466Y62296451D01*
X112351466Y62296451D02*
X112351466Y62153594D01*
X112351466Y62153594D02*
X112303847Y61963118D01*
X112303847Y61963118D02*
X112256228Y61867880D01*
X112256228Y61867880D02*
X112160990Y61772642D01*
X112160990Y61772642D02*
X112018133Y61725022D01*
X112018133Y61725022D02*
X111780038Y61725022D01*
X109690037Y43945021D02*
X109690037Y44945021D01*
X109690037Y44945021D02*
X110070989Y44945021D01*
X110070989Y44945021D02*
X110166227Y44897402D01*
X110166227Y44897402D02*
X110213846Y44849783D01*
X110213846Y44849783D02*
X110261465Y44754545D01*
X110261465Y44754545D02*
X110261465Y44611688D01*
X110261465Y44611688D02*
X110213846Y44516450D01*
X110213846Y44516450D02*
X110166227Y44468831D01*
X110166227Y44468831D02*
X110070989Y44421212D01*
X110070989Y44421212D02*
X109690037Y44421212D01*
X110594799Y44945021D02*
X111261465Y44945021D01*
X111261465Y44945021D02*
X110832894Y43945021D01*
X112703847Y49025022D02*
X112703847Y50025022D01*
X112703847Y50025022D02*
X113084799Y50025022D01*
X113084799Y50025022D02*
X113180037Y49977403D01*
X113180037Y49977403D02*
X113227656Y49929784D01*
X113227656Y49929784D02*
X113275275Y49834546D01*
X113275275Y49834546D02*
X113275275Y49691689D01*
X113275275Y49691689D02*
X113227656Y49596451D01*
X113227656Y49596451D02*
X113180037Y49548832D01*
X113180037Y49548832D02*
X113084799Y49501213D01*
X113084799Y49501213D02*
X112703847Y49501213D01*
X114227656Y49025022D02*
X113656228Y49025022D01*
X113941942Y49025022D02*
X113941942Y50025022D01*
X113941942Y50025022D02*
X113846704Y49882165D01*
X113846704Y49882165D02*
X113751466Y49786927D01*
X113751466Y49786927D02*
X113656228Y49739308D01*
X114799085Y49596451D02*
X114703847Y49644070D01*
X114703847Y49644070D02*
X114656228Y49691689D01*
X114656228Y49691689D02*
X114608609Y49786927D01*
X114608609Y49786927D02*
X114608609Y49834546D01*
X114608609Y49834546D02*
X114656228Y49929784D01*
X114656228Y49929784D02*
X114703847Y49977403D01*
X114703847Y49977403D02*
X114799085Y50025022D01*
X114799085Y50025022D02*
X114989561Y50025022D01*
X114989561Y50025022D02*
X115084799Y49977403D01*
X115084799Y49977403D02*
X115132418Y49929784D01*
X115132418Y49929784D02*
X115180037Y49834546D01*
X115180037Y49834546D02*
X115180037Y49786927D01*
X115180037Y49786927D02*
X115132418Y49691689D01*
X115132418Y49691689D02*
X115084799Y49644070D01*
X115084799Y49644070D02*
X114989561Y49596451D01*
X114989561Y49596451D02*
X114799085Y49596451D01*
X114799085Y49596451D02*
X114703847Y49548832D01*
X114703847Y49548832D02*
X114656228Y49501213D01*
X114656228Y49501213D02*
X114608609Y49405975D01*
X114608609Y49405975D02*
X114608609Y49215499D01*
X114608609Y49215499D02*
X114656228Y49120261D01*
X114656228Y49120261D02*
X114703847Y49072642D01*
X114703847Y49072642D02*
X114799085Y49025022D01*
X114799085Y49025022D02*
X114989561Y49025022D01*
X114989561Y49025022D02*
X115084799Y49072642D01*
X115084799Y49072642D02*
X115132418Y49120261D01*
X115132418Y49120261D02*
X115180037Y49215499D01*
X115180037Y49215499D02*
X115180037Y49405975D01*
X115180037Y49405975D02*
X115132418Y49501213D01*
X115132418Y49501213D02*
X115084799Y49548832D01*
X115084799Y49548832D02*
X114989561Y49596451D01*
X113370513Y61725022D02*
X113037180Y62201213D01*
X112799085Y61725022D02*
X112799085Y62725022D01*
X112799085Y62725022D02*
X113180037Y62725022D01*
X113180037Y62725022D02*
X113275275Y62677403D01*
X113275275Y62677403D02*
X113322894Y62629784D01*
X113322894Y62629784D02*
X113370513Y62534546D01*
X113370513Y62534546D02*
X113370513Y62391689D01*
X113370513Y62391689D02*
X113322894Y62296451D01*
X113322894Y62296451D02*
X113275275Y62248832D01*
X113275275Y62248832D02*
X113180037Y62201213D01*
X113180037Y62201213D02*
X112799085Y62201213D01*
X113751466Y61772642D02*
X113894323Y61725022D01*
X113894323Y61725022D02*
X114132418Y61725022D01*
X114132418Y61725022D02*
X114227656Y61772642D01*
X114227656Y61772642D02*
X114275275Y61820261D01*
X114275275Y61820261D02*
X114322894Y61915499D01*
X114322894Y61915499D02*
X114322894Y62010737D01*
X114322894Y62010737D02*
X114275275Y62105975D01*
X114275275Y62105975D02*
X114227656Y62153594D01*
X114227656Y62153594D02*
X114132418Y62201213D01*
X114132418Y62201213D02*
X113941942Y62248832D01*
X113941942Y62248832D02*
X113846704Y62296451D01*
X113846704Y62296451D02*
X113799085Y62344070D01*
X113799085Y62344070D02*
X113751466Y62439308D01*
X113751466Y62439308D02*
X113751466Y62534546D01*
X113751466Y62534546D02*
X113799085Y62629784D01*
X113799085Y62629784D02*
X113846704Y62677403D01*
X113846704Y62677403D02*
X113941942Y62725022D01*
X113941942Y62725022D02*
X114180037Y62725022D01*
X114180037Y62725022D02*
X114322894Y62677403D01*
X114608609Y62725022D02*
X115180037Y62725022D01*
X114894323Y61725022D02*
X114894323Y62725022D01*
X109690038Y66805022D02*
X109690038Y67805022D01*
X109690038Y67805022D02*
X110070990Y67805022D01*
X110070990Y67805022D02*
X110166228Y67757403D01*
X110166228Y67757403D02*
X110213847Y67709784D01*
X110213847Y67709784D02*
X110261466Y67614546D01*
X110261466Y67614546D02*
X110261466Y67471689D01*
X110261466Y67471689D02*
X110213847Y67376451D01*
X110213847Y67376451D02*
X110166228Y67328832D01*
X110166228Y67328832D02*
X110070990Y67281213D01*
X110070990Y67281213D02*
X109690038Y67281213D01*
X111213847Y66805022D02*
X110642419Y66805022D01*
X110928133Y66805022D02*
X110928133Y67805022D01*
X110928133Y67805022D02*
X110832895Y67662165D01*
X110832895Y67662165D02*
X110737657Y67566927D01*
X110737657Y67566927D02*
X110642419Y67519308D01*
X104777656Y69350022D02*
X104444323Y69826213D01*
X104206228Y69350022D02*
X104206228Y70350022D01*
X104206228Y70350022D02*
X104587180Y70350022D01*
X104587180Y70350022D02*
X104682418Y70302403D01*
X104682418Y70302403D02*
X104730037Y70254784D01*
X104730037Y70254784D02*
X104777656Y70159546D01*
X104777656Y70159546D02*
X104777656Y70016689D01*
X104777656Y70016689D02*
X104730037Y69921451D01*
X104730037Y69921451D02*
X104682418Y69873832D01*
X104682418Y69873832D02*
X104587180Y69826213D01*
X104587180Y69826213D02*
X104206228Y69826213D01*
X106253847Y70350022D02*
X106253847Y69635737D01*
X106253847Y69635737D02*
X106206228Y69492880D01*
X106206228Y69492880D02*
X106110990Y69397642D01*
X106110990Y69397642D02*
X105968133Y69350022D01*
X105968133Y69350022D02*
X105872895Y69350022D01*
X107158609Y70016689D02*
X107158609Y69350022D01*
X106730038Y70016689D02*
X106730038Y69492880D01*
X106730038Y69492880D02*
X106777657Y69397642D01*
X106777657Y69397642D02*
X106872895Y69350022D01*
X106872895Y69350022D02*
X107015752Y69350022D01*
X107015752Y69350022D02*
X107110990Y69397642D01*
X107110990Y69397642D02*
X107158609Y69445261D01*
X107634800Y69350022D02*
X107634800Y70016689D01*
X107634800Y69921451D02*
X107682419Y69969070D01*
X107682419Y69969070D02*
X107777657Y70016689D01*
X107777657Y70016689D02*
X107920514Y70016689D01*
X107920514Y70016689D02*
X108015752Y69969070D01*
X108015752Y69969070D02*
X108063371Y69873832D01*
X108063371Y69873832D02*
X108063371Y69350022D01*
X108063371Y69873832D02*
X108110990Y69969070D01*
X108110990Y69969070D02*
X108206228Y70016689D01*
X108206228Y70016689D02*
X108349085Y70016689D01*
X108349085Y70016689D02*
X108444324Y69969070D01*
X108444324Y69969070D02*
X108491943Y69873832D01*
X108491943Y69873832D02*
X108491943Y69350022D01*
X108968133Y70016689D02*
X108968133Y69016689D01*
X108968133Y69969070D02*
X109063371Y70016689D01*
X109063371Y70016689D02*
X109253847Y70016689D01*
X109253847Y70016689D02*
X109349085Y69969070D01*
X109349085Y69969070D02*
X109396704Y69921451D01*
X109396704Y69921451D02*
X109444323Y69826213D01*
X109444323Y69826213D02*
X109444323Y69540499D01*
X109444323Y69540499D02*
X109396704Y69445261D01*
X109396704Y69445261D02*
X109349085Y69397642D01*
X109349085Y69397642D02*
X109253847Y69350022D01*
X109253847Y69350022D02*
X109063371Y69350022D01*
X109063371Y69350022D02*
X108968133Y69397642D01*
X110253847Y69397642D02*
X110158609Y69350022D01*
X110158609Y69350022D02*
X109968133Y69350022D01*
X109968133Y69350022D02*
X109872895Y69397642D01*
X109872895Y69397642D02*
X109825276Y69492880D01*
X109825276Y69492880D02*
X109825276Y69873832D01*
X109825276Y69873832D02*
X109872895Y69969070D01*
X109872895Y69969070D02*
X109968133Y70016689D01*
X109968133Y70016689D02*
X110158609Y70016689D01*
X110158609Y70016689D02*
X110253847Y69969070D01*
X110253847Y69969070D02*
X110301466Y69873832D01*
X110301466Y69873832D02*
X110301466Y69778594D01*
X110301466Y69778594D02*
X109825276Y69683356D01*
X110730038Y69350022D02*
X110730038Y70016689D01*
X110730038Y69826213D02*
X110777657Y69921451D01*
X110777657Y69921451D02*
X110825276Y69969070D01*
X110825276Y69969070D02*
X110920514Y70016689D01*
X110920514Y70016689D02*
X111015752Y70016689D01*
X111301467Y69397642D02*
X111396705Y69350022D01*
X111396705Y69350022D02*
X111587181Y69350022D01*
X111587181Y69350022D02*
X111682419Y69397642D01*
X111682419Y69397642D02*
X111730038Y69492880D01*
X111730038Y69492880D02*
X111730038Y69540499D01*
X111730038Y69540499D02*
X111682419Y69635737D01*
X111682419Y69635737D02*
X111587181Y69683356D01*
X111587181Y69683356D02*
X111444324Y69683356D01*
X111444324Y69683356D02*
X111349086Y69730975D01*
X111349086Y69730975D02*
X111301467Y69826213D01*
X111301467Y69826213D02*
X111301467Y69873832D01*
X111301467Y69873832D02*
X111349086Y69969070D01*
X111349086Y69969070D02*
X111444324Y70016689D01*
X111444324Y70016689D02*
X111587181Y70016689D01*
X111587181Y70016689D02*
X111682419Y69969070D01*
X112206229Y69397642D02*
X112206229Y69350022D01*
X112206229Y69350022D02*
X112158610Y69254784D01*
X112158610Y69254784D02*
X112110991Y69207165D01*
X113396705Y69350022D02*
X113396705Y70350022D01*
X113396705Y70350022D02*
X113730038Y69635737D01*
X113730038Y69635737D02*
X114063371Y70350022D01*
X114063371Y70350022D02*
X114063371Y69350022D01*
X115110990Y69445261D02*
X115063371Y69397642D01*
X115063371Y69397642D02*
X114920514Y69350022D01*
X114920514Y69350022D02*
X114825276Y69350022D01*
X114825276Y69350022D02*
X114682419Y69397642D01*
X114682419Y69397642D02*
X114587181Y69492880D01*
X114587181Y69492880D02*
X114539562Y69588118D01*
X114539562Y69588118D02*
X114491943Y69778594D01*
X114491943Y69778594D02*
X114491943Y69921451D01*
X114491943Y69921451D02*
X114539562Y70111927D01*
X114539562Y70111927D02*
X114587181Y70207165D01*
X114587181Y70207165D02*
X114682419Y70302403D01*
X114682419Y70302403D02*
X114825276Y70350022D01*
X114825276Y70350022D02*
X114920514Y70350022D01*
X114920514Y70350022D02*
X115063371Y70302403D01*
X115063371Y70302403D02*
X115110990Y70254784D01*
X115539562Y70350022D02*
X115539562Y69540499D01*
X115539562Y69540499D02*
X115587181Y69445261D01*
X115587181Y69445261D02*
X115634800Y69397642D01*
X115634800Y69397642D02*
X115730038Y69350022D01*
X115730038Y69350022D02*
X115920514Y69350022D01*
X115920514Y69350022D02*
X116015752Y69397642D01*
X116015752Y69397642D02*
X116063371Y69445261D01*
X116063371Y69445261D02*
X116110990Y69540499D01*
X116110990Y69540499D02*
X116110990Y70350022D01*
X117349086Y69350022D02*
X117349086Y70350022D01*
X117349086Y70350022D02*
X117587181Y70350022D01*
X117587181Y70350022D02*
X117730038Y70302403D01*
X117730038Y70302403D02*
X117825276Y70207165D01*
X117825276Y70207165D02*
X117872895Y70111927D01*
X117872895Y70111927D02*
X117920514Y69921451D01*
X117920514Y69921451D02*
X117920514Y69778594D01*
X117920514Y69778594D02*
X117872895Y69588118D01*
X117872895Y69588118D02*
X117825276Y69492880D01*
X117825276Y69492880D02*
X117730038Y69397642D01*
X117730038Y69397642D02*
X117587181Y69350022D01*
X117587181Y69350022D02*
X117349086Y69350022D01*
X118491943Y69350022D02*
X118396705Y69397642D01*
X118396705Y69397642D02*
X118349086Y69445261D01*
X118349086Y69445261D02*
X118301467Y69540499D01*
X118301467Y69540499D02*
X118301467Y69826213D01*
X118301467Y69826213D02*
X118349086Y69921451D01*
X118349086Y69921451D02*
X118396705Y69969070D01*
X118396705Y69969070D02*
X118491943Y70016689D01*
X118491943Y70016689D02*
X118634800Y70016689D01*
X118634800Y70016689D02*
X118730038Y69969070D01*
X118730038Y69969070D02*
X118777657Y69921451D01*
X118777657Y69921451D02*
X118825276Y69826213D01*
X118825276Y69826213D02*
X118825276Y69540499D01*
X118825276Y69540499D02*
X118777657Y69445261D01*
X118777657Y69445261D02*
X118730038Y69397642D01*
X118730038Y69397642D02*
X118634800Y69350022D01*
X118634800Y69350022D02*
X118491943Y69350022D01*
X119158610Y70016689D02*
X119349086Y69350022D01*
X119349086Y69350022D02*
X119539562Y69826213D01*
X119539562Y69826213D02*
X119730038Y69350022D01*
X119730038Y69350022D02*
X119920514Y70016689D01*
X120301467Y70016689D02*
X120301467Y69350022D01*
X120301467Y69921451D02*
X120349086Y69969070D01*
X120349086Y69969070D02*
X120444324Y70016689D01*
X120444324Y70016689D02*
X120587181Y70016689D01*
X120587181Y70016689D02*
X120682419Y69969070D01*
X120682419Y69969070D02*
X120730038Y69873832D01*
X120730038Y69873832D02*
X120730038Y69350022D01*
X109690038Y54105022D02*
X109690038Y55105022D01*
X109690038Y55105022D02*
X110070990Y55105022D01*
X110070990Y55105022D02*
X110166228Y55057403D01*
X110166228Y55057403D02*
X110213847Y55009784D01*
X110213847Y55009784D02*
X110261466Y54914546D01*
X110261466Y54914546D02*
X110261466Y54771689D01*
X110261466Y54771689D02*
X110213847Y54676451D01*
X110213847Y54676451D02*
X110166228Y54628832D01*
X110166228Y54628832D02*
X110070990Y54581213D01*
X110070990Y54581213D02*
X109690038Y54581213D01*
X110594800Y55105022D02*
X111213847Y55105022D01*
X111213847Y55105022D02*
X110880514Y54724070D01*
X110880514Y54724070D02*
X111023371Y54724070D01*
X111023371Y54724070D02*
X111118609Y54676451D01*
X111118609Y54676451D02*
X111166228Y54628832D01*
X111166228Y54628832D02*
X111213847Y54533594D01*
X111213847Y54533594D02*
X111213847Y54295499D01*
X111213847Y54295499D02*
X111166228Y54200261D01*
X111166228Y54200261D02*
X111118609Y54152642D01*
X111118609Y54152642D02*
X111023371Y54105022D01*
X111023371Y54105022D02*
X110737657Y54105022D01*
X110737657Y54105022D02*
X110642419Y54152642D01*
X110642419Y54152642D02*
X110594800Y54200261D01*
X112703847Y54105020D02*
X112703847Y55105020D01*
X112703847Y55105020D02*
X113084799Y55105020D01*
X113084799Y55105020D02*
X113180037Y55057401D01*
X113180037Y55057401D02*
X113227656Y55009782D01*
X113227656Y55009782D02*
X113275275Y54914544D01*
X113275275Y54914544D02*
X113275275Y54771687D01*
X113275275Y54771687D02*
X113227656Y54676449D01*
X113227656Y54676449D02*
X113180037Y54628830D01*
X113180037Y54628830D02*
X113084799Y54581211D01*
X113084799Y54581211D02*
X112703847Y54581211D01*
X113656228Y55009782D02*
X113703847Y55057401D01*
X113703847Y55057401D02*
X113799085Y55105020D01*
X113799085Y55105020D02*
X114037180Y55105020D01*
X114037180Y55105020D02*
X114132418Y55057401D01*
X114132418Y55057401D02*
X114180037Y55009782D01*
X114180037Y55009782D02*
X114227656Y54914544D01*
X114227656Y54914544D02*
X114227656Y54819306D01*
X114227656Y54819306D02*
X114180037Y54676449D01*
X114180037Y54676449D02*
X113608609Y54105020D01*
X113608609Y54105020D02*
X114227656Y54105020D01*
X114846704Y55105020D02*
X114941942Y55105020D01*
X114941942Y55105020D02*
X115037180Y55057401D01*
X115037180Y55057401D02*
X115084799Y55009782D01*
X115084799Y55009782D02*
X115132418Y54914544D01*
X115132418Y54914544D02*
X115180037Y54724068D01*
X115180037Y54724068D02*
X115180037Y54485973D01*
X115180037Y54485973D02*
X115132418Y54295497D01*
X115132418Y54295497D02*
X115084799Y54200259D01*
X115084799Y54200259D02*
X115037180Y54152640D01*
X115037180Y54152640D02*
X114941942Y54105020D01*
X114941942Y54105020D02*
X114846704Y54105020D01*
X114846704Y54105020D02*
X114751466Y54152640D01*
X114751466Y54152640D02*
X114703847Y54200259D01*
X114703847Y54200259D02*
X114656228Y54295497D01*
X114656228Y54295497D02*
X114608609Y54485973D01*
X114608609Y54485973D02*
X114608609Y54724068D01*
X114608609Y54724068D02*
X114656228Y54914544D01*
X114656228Y54914544D02*
X114703847Y55009782D01*
X114703847Y55009782D02*
X114751466Y55057401D01*
X114751466Y55057401D02*
X114846704Y55105020D01*
X112703850Y56645021D02*
X112703850Y57645021D01*
X112703850Y57645021D02*
X113084802Y57645021D01*
X113084802Y57645021D02*
X113180040Y57597402D01*
X113180040Y57597402D02*
X113227659Y57549783D01*
X113227659Y57549783D02*
X113275278Y57454545D01*
X113275278Y57454545D02*
X113275278Y57311688D01*
X113275278Y57311688D02*
X113227659Y57216450D01*
X113227659Y57216450D02*
X113180040Y57168831D01*
X113180040Y57168831D02*
X113084802Y57121212D01*
X113084802Y57121212D02*
X112703850Y57121212D01*
X113656231Y57549783D02*
X113703850Y57597402D01*
X113703850Y57597402D02*
X113799088Y57645021D01*
X113799088Y57645021D02*
X114037183Y57645021D01*
X114037183Y57645021D02*
X114132421Y57597402D01*
X114132421Y57597402D02*
X114180040Y57549783D01*
X114180040Y57549783D02*
X114227659Y57454545D01*
X114227659Y57454545D02*
X114227659Y57359307D01*
X114227659Y57359307D02*
X114180040Y57216450D01*
X114180040Y57216450D02*
X113608612Y56645021D01*
X113608612Y56645021D02*
X114227659Y56645021D01*
X115180040Y56645021D02*
X114608612Y56645021D01*
X114894326Y56645021D02*
X114894326Y57645021D01*
X114894326Y57645021D02*
X114799088Y57502164D01*
X114799088Y57502164D02*
X114703850Y57406926D01*
X114703850Y57406926D02*
X114608612Y57359307D01*
X112703848Y41405026D02*
X112703848Y42405026D01*
X112703848Y42405026D02*
X113084800Y42405026D01*
X113084800Y42405026D02*
X113180038Y42357407D01*
X113180038Y42357407D02*
X113227657Y42309788D01*
X113227657Y42309788D02*
X113275276Y42214550D01*
X113275276Y42214550D02*
X113275276Y42071693D01*
X113275276Y42071693D02*
X113227657Y41976455D01*
X113227657Y41976455D02*
X113180038Y41928836D01*
X113180038Y41928836D02*
X113084800Y41881217D01*
X113084800Y41881217D02*
X112703848Y41881217D01*
X114227657Y41405026D02*
X113656229Y41405026D01*
X113941943Y41405026D02*
X113941943Y42405026D01*
X113941943Y42405026D02*
X113846705Y42262169D01*
X113846705Y42262169D02*
X113751467Y42166931D01*
X113751467Y42166931D02*
X113656229Y42119312D01*
X115084800Y42405026D02*
X114894324Y42405026D01*
X114894324Y42405026D02*
X114799086Y42357407D01*
X114799086Y42357407D02*
X114751467Y42309788D01*
X114751467Y42309788D02*
X114656229Y42166931D01*
X114656229Y42166931D02*
X114608610Y41976455D01*
X114608610Y41976455D02*
X114608610Y41595503D01*
X114608610Y41595503D02*
X114656229Y41500265D01*
X114656229Y41500265D02*
X114703848Y41452646D01*
X114703848Y41452646D02*
X114799086Y41405026D01*
X114799086Y41405026D02*
X114989562Y41405026D01*
X114989562Y41405026D02*
X115084800Y41452646D01*
X115084800Y41452646D02*
X115132419Y41500265D01*
X115132419Y41500265D02*
X115180038Y41595503D01*
X115180038Y41595503D02*
X115180038Y41833598D01*
X115180038Y41833598D02*
X115132419Y41928836D01*
X115132419Y41928836D02*
X115084800Y41976455D01*
X115084800Y41976455D02*
X114989562Y42024074D01*
X114989562Y42024074D02*
X114799086Y42024074D01*
X114799086Y42024074D02*
X114703848Y41976455D01*
X114703848Y41976455D02*
X114656229Y41928836D01*
X114656229Y41928836D02*
X114608610Y41833598D01*
X110256228Y60137403D02*
X110160990Y60185022D01*
X110160990Y60185022D02*
X110018133Y60185022D01*
X110018133Y60185022D02*
X109875276Y60137403D01*
X109875276Y60137403D02*
X109780038Y60042165D01*
X109780038Y60042165D02*
X109732419Y59946927D01*
X109732419Y59946927D02*
X109684800Y59756451D01*
X109684800Y59756451D02*
X109684800Y59613594D01*
X109684800Y59613594D02*
X109732419Y59423118D01*
X109732419Y59423118D02*
X109780038Y59327880D01*
X109780038Y59327880D02*
X109875276Y59232642D01*
X109875276Y59232642D02*
X110018133Y59185022D01*
X110018133Y59185022D02*
X110113371Y59185022D01*
X110113371Y59185022D02*
X110256228Y59232642D01*
X110256228Y59232642D02*
X110303847Y59280261D01*
X110303847Y59280261D02*
X110303847Y59613594D01*
X110303847Y59613594D02*
X110113371Y59613594D01*
X110732419Y59185022D02*
X110732419Y60185022D01*
X110732419Y60185022D02*
X111303847Y59185022D01*
X111303847Y59185022D02*
X111303847Y60185022D01*
X111780038Y59185022D02*
X111780038Y60185022D01*
X111780038Y60185022D02*
X112018133Y60185022D01*
X112018133Y60185022D02*
X112160990Y60137403D01*
X112160990Y60137403D02*
X112256228Y60042165D01*
X112256228Y60042165D02*
X112303847Y59946927D01*
X112303847Y59946927D02*
X112351466Y59756451D01*
X112351466Y59756451D02*
X112351466Y59613594D01*
X112351466Y59613594D02*
X112303847Y59423118D01*
X112303847Y59423118D02*
X112256228Y59327880D01*
X112256228Y59327880D02*
X112160990Y59232642D01*
X112160990Y59232642D02*
X112018133Y59185022D01*
X112018133Y59185022D02*
X111780038Y59185022D01*
X109690038Y41405022D02*
X109690038Y42405022D01*
X109690038Y42405022D02*
X110070990Y42405022D01*
X110070990Y42405022D02*
X110166228Y42357403D01*
X110166228Y42357403D02*
X110213847Y42309784D01*
X110213847Y42309784D02*
X110261466Y42214546D01*
X110261466Y42214546D02*
X110261466Y42071689D01*
X110261466Y42071689D02*
X110213847Y41976451D01*
X110213847Y41976451D02*
X110166228Y41928832D01*
X110166228Y41928832D02*
X110070990Y41881213D01*
X110070990Y41881213D02*
X109690038Y41881213D01*
X110832895Y41976451D02*
X110737657Y42024070D01*
X110737657Y42024070D02*
X110690038Y42071689D01*
X110690038Y42071689D02*
X110642419Y42166927D01*
X110642419Y42166927D02*
X110642419Y42214546D01*
X110642419Y42214546D02*
X110690038Y42309784D01*
X110690038Y42309784D02*
X110737657Y42357403D01*
X110737657Y42357403D02*
X110832895Y42405022D01*
X110832895Y42405022D02*
X111023371Y42405022D01*
X111023371Y42405022D02*
X111118609Y42357403D01*
X111118609Y42357403D02*
X111166228Y42309784D01*
X111166228Y42309784D02*
X111213847Y42214546D01*
X111213847Y42214546D02*
X111213847Y42166927D01*
X111213847Y42166927D02*
X111166228Y42071689D01*
X111166228Y42071689D02*
X111118609Y42024070D01*
X111118609Y42024070D02*
X111023371Y41976451D01*
X111023371Y41976451D02*
X110832895Y41976451D01*
X110832895Y41976451D02*
X110737657Y41928832D01*
X110737657Y41928832D02*
X110690038Y41881213D01*
X110690038Y41881213D02*
X110642419Y41785975D01*
X110642419Y41785975D02*
X110642419Y41595499D01*
X110642419Y41595499D02*
X110690038Y41500261D01*
X110690038Y41500261D02*
X110737657Y41452642D01*
X110737657Y41452642D02*
X110832895Y41405022D01*
X110832895Y41405022D02*
X111023371Y41405022D01*
X111023371Y41405022D02*
X111118609Y41452642D01*
X111118609Y41452642D02*
X111166228Y41500261D01*
X111166228Y41500261D02*
X111213847Y41595499D01*
X111213847Y41595499D02*
X111213847Y41785975D01*
X111213847Y41785975D02*
X111166228Y41881213D01*
X111166228Y41881213D02*
X111118609Y41928832D01*
X111118609Y41928832D02*
X111023371Y41976451D01*
X112584800Y60185022D02*
X112918133Y59185022D01*
X112918133Y59185022D02*
X113251466Y60185022D01*
X114156228Y59280261D02*
X114108609Y59232642D01*
X114108609Y59232642D02*
X113965752Y59185022D01*
X113965752Y59185022D02*
X113870514Y59185022D01*
X113870514Y59185022D02*
X113727657Y59232642D01*
X113727657Y59232642D02*
X113632419Y59327880D01*
X113632419Y59327880D02*
X113584800Y59423118D01*
X113584800Y59423118D02*
X113537181Y59613594D01*
X113537181Y59613594D02*
X113537181Y59756451D01*
X113537181Y59756451D02*
X113584800Y59946927D01*
X113584800Y59946927D02*
X113632419Y60042165D01*
X113632419Y60042165D02*
X113727657Y60137403D01*
X113727657Y60137403D02*
X113870514Y60185022D01*
X113870514Y60185022D02*
X113965752Y60185022D01*
X113965752Y60185022D02*
X114108609Y60137403D01*
X114108609Y60137403D02*
X114156228Y60089784D01*
X115156228Y59280261D02*
X115108609Y59232642D01*
X115108609Y59232642D02*
X114965752Y59185022D01*
X114965752Y59185022D02*
X114870514Y59185022D01*
X114870514Y59185022D02*
X114727657Y59232642D01*
X114727657Y59232642D02*
X114632419Y59327880D01*
X114632419Y59327880D02*
X114584800Y59423118D01*
X114584800Y59423118D02*
X114537181Y59613594D01*
X114537181Y59613594D02*
X114537181Y59756451D01*
X114537181Y59756451D02*
X114584800Y59946927D01*
X114584800Y59946927D02*
X114632419Y60042165D01*
X114632419Y60042165D02*
X114727657Y60137403D01*
X114727657Y60137403D02*
X114870514Y60185022D01*
X114870514Y60185022D02*
X114965752Y60185022D01*
X114965752Y60185022D02*
X115108609Y60137403D01*
X115108609Y60137403D02*
X115156228Y60089784D01*
X109690038Y56645022D02*
X109690038Y57645022D01*
X109690038Y57645022D02*
X110070990Y57645022D01*
X110070990Y57645022D02*
X110166228Y57597403D01*
X110166228Y57597403D02*
X110213847Y57549784D01*
X110213847Y57549784D02*
X110261466Y57454546D01*
X110261466Y57454546D02*
X110261466Y57311689D01*
X110261466Y57311689D02*
X110213847Y57216451D01*
X110213847Y57216451D02*
X110166228Y57168832D01*
X110166228Y57168832D02*
X110070990Y57121213D01*
X110070990Y57121213D02*
X109690038Y57121213D01*
X110642419Y57549784D02*
X110690038Y57597403D01*
X110690038Y57597403D02*
X110785276Y57645022D01*
X110785276Y57645022D02*
X111023371Y57645022D01*
X111023371Y57645022D02*
X111118609Y57597403D01*
X111118609Y57597403D02*
X111166228Y57549784D01*
X111166228Y57549784D02*
X111213847Y57454546D01*
X111213847Y57454546D02*
X111213847Y57359308D01*
X111213847Y57359308D02*
X111166228Y57216451D01*
X111166228Y57216451D02*
X110594800Y56645022D01*
X110594800Y56645022D02*
X111213847Y56645022D01*
D10*
%TO.C,D4*%
X1371954Y19139228D02*
X2159800Y19278146D01*
X1765877Y19208688D02*
X1679053Y19701091D01*
X1870066Y18617803D02*
X1328422Y18522296D01*
X1870066Y18617803D02*
X1371954Y19139228D01*
X1870066Y18617803D02*
X2411710Y18713306D01*
X1939525Y18223879D02*
X1870066Y18617803D01*
X2159800Y19278146D02*
X1870066Y18617803D01*
%TO.C,D15*%
X62468131Y67509835D02*
X63268131Y67509835D01*
X62868129Y67509837D02*
X62868131Y68009835D01*
X62868131Y66509835D02*
X62868132Y66909836D01*
X62868132Y66909836D02*
X62318135Y66909836D01*
X62868132Y66909836D02*
X62468131Y67509835D01*
X62868132Y66909836D02*
X63418128Y66909832D01*
X63268131Y67509835D02*
X62868132Y66909836D01*
D12*
%TO.C,DISP1*%
X106058133Y34689830D02*
X106058133Y32029829D01*
X118878133Y34689830D02*
X106058133Y34689830D01*
X118878133Y34689830D02*
X118878133Y32029831D01*
X118878133Y32029831D02*
X106058133Y32029829D01*
D11*
%TO.C,S16*%
X83468128Y33259830D02*
X87968128Y33259831D01*
X83468128Y33059830D02*
X83468130Y34059827D01*
X83468128Y32659830D02*
X83468128Y33259830D01*
X83468128Y28559830D02*
X83468128Y29059830D01*
X83468131Y20059832D02*
X83468128Y21059830D01*
X83468131Y20059832D02*
X84468128Y20059830D01*
X84468128Y34059830D02*
X83468130Y34059827D01*
X87968128Y29259830D02*
X87968128Y28559830D01*
X87968128Y28559830D02*
X83468128Y28559830D01*
X88468128Y33759830D02*
X88468128Y34759830D01*
X88968128Y35259830D02*
X88468128Y34759830D01*
X91968128Y35259830D02*
X88968128Y35259830D01*
X91968128Y30759830D02*
X89468128Y30759830D01*
X92468128Y34759830D02*
X91968128Y35259830D01*
X92468129Y31259829D02*
X91968128Y30759830D01*
X96468128Y20059830D02*
X97468126Y20059833D01*
X97468125Y34059828D02*
X96468128Y34059830D01*
X97468125Y34059828D02*
X97468128Y33059830D01*
X97468128Y21059830D02*
X97468126Y20059833D01*
X87968129Y29279830D02*
G75*
G02*
X89668128Y30759830I1590001J-110001D01*
G01*
X88468128Y33839830D02*
G75*
G02*
X87948128Y33259830I-549999J-30001D01*
G01*
D10*
%TO.C,D13*%
X62468133Y31509829D02*
X63268133Y31509829D01*
X62868131Y31509831D02*
X62868133Y32009829D01*
X62868133Y30509829D02*
X62868134Y30909830D01*
X62868134Y30909830D02*
X62318137Y30909830D01*
X62868134Y30909830D02*
X62468133Y31509829D01*
X62868134Y30909830D02*
X63418130Y30909826D01*
X63268133Y31509829D02*
X62868134Y30909830D01*
%TO.C,D10*%
X42468139Y41509834D02*
X43268139Y41509834D01*
X42868137Y41509836D02*
X42868139Y42009834D01*
X42868139Y40509834D02*
X42868140Y40909835D01*
X42868140Y40909835D02*
X42318143Y40909835D01*
X42868140Y40909835D02*
X42468139Y41509834D01*
X42868140Y40909835D02*
X43418136Y40909831D01*
X43268139Y41509834D02*
X42868140Y40909835D01*
%TO.C,D18*%
X82468136Y62509838D02*
X83268136Y62509838D01*
X82868134Y62509840D02*
X82868136Y63009838D01*
X82868136Y61509838D02*
X82868137Y61909839D01*
X82868137Y61909839D02*
X82318140Y61909839D01*
X82868137Y61909839D02*
X82468136Y62509838D01*
X82868137Y61909839D02*
X83418133Y61909835D01*
X83268136Y62509838D02*
X82868137Y61909839D01*
D11*
%TO.C,S7*%
X23468136Y38259845D02*
X27968136Y38259846D01*
X23468136Y38059845D02*
X23468138Y39059842D01*
X23468136Y37659845D02*
X23468136Y38259845D01*
X23468136Y33559845D02*
X23468136Y34059845D01*
X23468139Y25059847D02*
X23468136Y26059845D01*
X23468139Y25059847D02*
X24468136Y25059845D01*
X24468136Y39059845D02*
X23468138Y39059842D01*
X27968136Y34259845D02*
X27968136Y33559845D01*
X27968136Y33559845D02*
X23468136Y33559845D01*
X28468136Y38759845D02*
X28468136Y39759845D01*
X28968136Y40259845D02*
X28468136Y39759845D01*
X31968136Y40259845D02*
X28968136Y40259845D01*
X31968136Y35759845D02*
X29468136Y35759845D01*
X32468136Y39759845D02*
X31968136Y40259845D01*
X32468137Y36259844D02*
X31968136Y35759845D01*
X36468136Y25059845D02*
X37468134Y25059848D01*
X37468133Y39059843D02*
X36468136Y39059845D01*
X37468133Y39059843D02*
X37468136Y38059845D01*
X37468136Y26059845D02*
X37468134Y25059848D01*
X27968137Y34279845D02*
G75*
G02*
X29668136Y35759845I1590001J-110001D01*
G01*
X28468136Y38839845D02*
G75*
G02*
X27948136Y38259845I-549999J-30001D01*
G01*
%TO.C,S18*%
X83468133Y69259834D02*
X87968133Y69259835D01*
X83468133Y69059834D02*
X83468135Y70059831D01*
X83468133Y68659834D02*
X83468133Y69259834D01*
X83468133Y64559834D02*
X83468133Y65059834D01*
X83468136Y56059836D02*
X83468133Y57059834D01*
X83468136Y56059836D02*
X84468133Y56059834D01*
X84468133Y70059834D02*
X83468135Y70059831D01*
X87968133Y65259834D02*
X87968133Y64559834D01*
X87968133Y64559834D02*
X83468133Y64559834D01*
X88468133Y69759834D02*
X88468133Y70759834D01*
X88968133Y71259834D02*
X88468133Y70759834D01*
X91968133Y71259834D02*
X88968133Y71259834D01*
X91968133Y66759834D02*
X89468133Y66759834D01*
X92468133Y70759834D02*
X91968133Y71259834D01*
X92468134Y67259833D02*
X91968133Y66759834D01*
X96468133Y56059834D02*
X97468131Y56059837D01*
X97468130Y70059832D02*
X96468133Y70059834D01*
X97468130Y70059832D02*
X97468133Y69059834D01*
X97468133Y57059834D02*
X97468131Y56059837D01*
X87968134Y65279834D02*
G75*
G02*
X89668133Y66759834I1590001J-110001D01*
G01*
X88468133Y69839834D02*
G75*
G02*
X87948133Y69259834I-549999J-30001D01*
G01*
D10*
%TO.C,D2*%
X-20581625Y28468765D02*
X-19793779Y28607683D01*
X-20187702Y28538225D02*
X-20274526Y29030628D01*
X-20083513Y27947340D02*
X-20625157Y27851833D01*
X-20083513Y27947340D02*
X-20581625Y28468765D01*
X-20083513Y27947340D02*
X-19541869Y28042843D01*
X-20014054Y27553416D02*
X-20083513Y27947340D01*
X-19793779Y28607683D02*
X-20083513Y27947340D01*
%TO.C,D17*%
X82468129Y44509831D02*
X83268129Y44509831D01*
X82868127Y44509833D02*
X82868129Y45009831D01*
X82868129Y43509831D02*
X82868130Y43909832D01*
X82868130Y43909832D02*
X82318133Y43909832D01*
X82868130Y43909832D02*
X82468129Y44509831D01*
X82868130Y43909832D02*
X83418126Y43909828D01*
X83268129Y44509831D02*
X82868130Y43909832D01*
%TO.C,D16*%
X82468128Y26509845D02*
X83268128Y26509845D01*
X82868126Y26509847D02*
X82868128Y27009845D01*
X82868128Y25509845D02*
X82868129Y25909846D01*
X82868129Y25909846D02*
X82318132Y25909846D01*
X82868129Y25909846D02*
X82468128Y26509845D01*
X82868129Y25909846D02*
X83418125Y25909842D01*
X83268128Y26509845D02*
X82868129Y25909846D01*
D11*
%TO.C,S15*%
X63468136Y74259843D02*
X67968136Y74259844D01*
X63468136Y74059843D02*
X63468138Y75059840D01*
X63468136Y73659843D02*
X63468136Y74259843D01*
X63468136Y69559843D02*
X63468136Y70059843D01*
X63468139Y61059845D02*
X63468136Y62059843D01*
X63468139Y61059845D02*
X64468136Y61059843D01*
X64468136Y75059843D02*
X63468138Y75059840D01*
X67968136Y70259843D02*
X67968136Y69559843D01*
X67968136Y69559843D02*
X63468136Y69559843D01*
X68468136Y74759843D02*
X68468136Y75759843D01*
X68968136Y76259843D02*
X68468136Y75759843D01*
X71968136Y76259843D02*
X68968136Y76259843D01*
X71968136Y71759843D02*
X69468136Y71759843D01*
X72468136Y75759843D02*
X71968136Y76259843D01*
X72468137Y72259842D02*
X71968136Y71759843D01*
X76468136Y61059843D02*
X77468134Y61059846D01*
X77468133Y75059841D02*
X76468136Y75059843D01*
X77468133Y75059841D02*
X77468136Y74059843D01*
X77468136Y62059843D02*
X77468134Y61059846D01*
X67968137Y70279843D02*
G75*
G02*
X69668136Y71759843I1590001J-110001D01*
G01*
X68468136Y74839843D02*
G75*
G02*
X67948136Y74259843I-549999J-30001D01*
G01*
D10*
%TO.C,D5*%
X-1753709Y36865774D02*
X-965863Y37004692D01*
X-1359786Y36935234D02*
X-1446610Y37427637D01*
X-1255597Y36344349D02*
X-1797241Y36248842D01*
X-1255597Y36344349D02*
X-1753709Y36865774D01*
X-1255597Y36344349D02*
X-713953Y36439852D01*
X-1186138Y35950425D02*
X-1255597Y36344349D01*
X-965863Y37004692D02*
X-1255597Y36344349D01*
D12*
%TO.C,JST1*%
X108808137Y9419843D02*
X108808134Y8419841D01*
X108808137Y1599843D02*
X108808137Y2599843D01*
X109728137Y9419843D02*
X108808137Y9419843D01*
X109728137Y1599843D02*
X108808137Y1599843D01*
D10*
X110368133Y10459843D02*
X111368137Y10459843D01*
X110868134Y9959845D02*
X110868139Y10959842D01*
X113368137Y10459843D02*
X112368137Y10459843D01*
D12*
X113928138Y1599844D02*
X114928137Y1599843D01*
X114008137Y9419844D02*
X114928137Y9419843D01*
X114928137Y9419843D02*
X114928135Y8419841D01*
X114928137Y1599843D02*
X114928137Y2599843D01*
%TO.C,SW3*%
X119543131Y23459830D02*
X119543131Y25159830D01*
X119543135Y26459830D02*
X119543131Y26659830D01*
X120593131Y21609830D02*
X121383127Y21609830D01*
X121383127Y28509830D02*
X120593130Y28509830D01*
X122393131Y22209830D02*
X122393131Y27909830D01*
D11*
%TO.C,S14*%
X63468131Y56259836D02*
X67968131Y56259837D01*
X63468131Y56059836D02*
X63468133Y57059833D01*
X63468131Y55659836D02*
X63468131Y56259836D01*
X63468131Y51559836D02*
X63468131Y52059836D01*
X63468134Y43059838D02*
X63468131Y44059836D01*
X63468134Y43059838D02*
X64468131Y43059836D01*
X64468131Y57059836D02*
X63468133Y57059833D01*
X67968131Y52259836D02*
X67968131Y51559836D01*
X67968131Y51559836D02*
X63468131Y51559836D01*
X68468131Y56759836D02*
X68468131Y57759836D01*
X68968131Y58259836D02*
X68468131Y57759836D01*
X71968131Y58259836D02*
X68968131Y58259836D01*
X71968131Y53759836D02*
X69468131Y53759836D01*
X72468131Y57759836D02*
X71968131Y58259836D01*
X72468132Y54259835D02*
X71968131Y53759836D01*
X76468131Y43059836D02*
X77468129Y43059839D01*
X77468128Y57059834D02*
X76468131Y57059836D01*
X77468128Y57059834D02*
X77468131Y56059836D01*
X77468131Y44059836D02*
X77468129Y43059839D01*
X67968132Y52279836D02*
G75*
G02*
X69668131Y53759836I1590001J-110001D01*
G01*
X68468131Y56839836D02*
G75*
G02*
X67948131Y56259836I-549999J-30001D01*
G01*
D10*
%TO.C,D1*%
X-17455961Y10742219D02*
X-16668115Y10881137D01*
X-17062038Y10811679D02*
X-17148862Y11304082D01*
X-16957849Y10220794D02*
X-17499493Y10125287D01*
X-16957849Y10220794D02*
X-17455961Y10742219D01*
X-16957849Y10220794D02*
X-16416205Y10316297D01*
X-16888390Y9826870D02*
X-16957849Y10220794D01*
X-16668115Y10881137D02*
X-16957849Y10220794D01*
D11*
%TO.C,S19*%
X89095069Y268609D02*
X89353888Y1234534D01*
X89095069Y268609D02*
X90060995Y9789D01*
X91295031Y8478978D02*
X91424439Y8961940D01*
X92356189Y12439274D02*
X92511480Y13018828D01*
X92459716Y12825644D02*
X92718536Y13791570D01*
X92511480Y13018828D02*
X96858147Y11854144D01*
X93684461Y13532751D02*
X92718536Y13791570D01*
X95641697Y7314292D02*
X91295031Y8478978D01*
X95822870Y7990439D02*
X95641697Y7314292D01*
X97470519Y12207697D02*
X97729338Y13173623D01*
X98341710Y13527176D02*
X97729338Y13173623D01*
X100074802Y8404053D02*
X97659988Y9051101D01*
X100687177Y8757606D02*
X100074802Y8404053D01*
X101239488Y12750719D02*
X98341710Y13527176D01*
X101593041Y12138347D02*
X101239488Y12750719D01*
X101652105Y-3096039D02*
X102618030Y-3354858D01*
X102876850Y-2388932D02*
X102618030Y-3354858D01*
X106241497Y10168103D02*
X105275571Y10426923D01*
X106241497Y10168103D02*
X105982678Y9202178D01*
X95828047Y8009758D02*
G75*
G02*
X97853173Y8999337I1507354J-517777D01*
G01*
X97491227Y12284973D02*
G75*
G02*
X96838828Y11859319I-539027J113373D01*
G01*
D10*
%TO.C,D6*%
X-4879384Y54592306D02*
X-4091538Y54731224D01*
X-4485461Y54661766D02*
X-4572285Y55154169D01*
X-4381272Y54070881D02*
X-4922916Y53975374D01*
X-4381272Y54070881D02*
X-4879384Y54592306D01*
X-4381272Y54070881D02*
X-3839628Y54166384D01*
X-4311813Y53676957D02*
X-4381272Y54070881D01*
X-4091538Y54731224D02*
X-4381272Y54070881D01*
%TO.C,D12*%
X42468137Y77509838D02*
X43268137Y77509838D01*
X42868135Y77509840D02*
X42868137Y78009838D01*
X42868137Y76509838D02*
X42868138Y76909839D01*
X42868138Y76909839D02*
X42318141Y76909839D01*
X42868138Y76909839D02*
X42468137Y77509838D01*
X42868138Y76909839D02*
X43418134Y76909835D01*
X43268137Y77509838D02*
X42868138Y76909839D01*
D11*
%TO.C,S11*%
X43468124Y66259836D02*
X47968124Y66259837D01*
X43468124Y66059836D02*
X43468126Y67059833D01*
X43468124Y65659836D02*
X43468124Y66259836D01*
X43468124Y61559836D02*
X43468124Y62059836D01*
X43468127Y53059838D02*
X43468124Y54059836D01*
X43468127Y53059838D02*
X44468124Y53059836D01*
X44468124Y67059836D02*
X43468126Y67059833D01*
X47968124Y62259836D02*
X47968124Y61559836D01*
X47968124Y61559836D02*
X43468124Y61559836D01*
X48468124Y66759836D02*
X48468124Y67759836D01*
X48968124Y68259836D02*
X48468124Y67759836D01*
X51968124Y68259836D02*
X48968124Y68259836D01*
X51968124Y63759836D02*
X49468124Y63759836D01*
X52468124Y67759836D02*
X51968124Y68259836D01*
X52468125Y64259835D02*
X51968124Y63759836D01*
X56468124Y53059836D02*
X57468122Y53059839D01*
X57468121Y67059834D02*
X56468124Y67059836D01*
X57468121Y67059834D02*
X57468124Y66059836D01*
X57468124Y54059836D02*
X57468122Y53059839D01*
X47968125Y62279836D02*
G75*
G02*
X49668124Y63759836I1590001J-110001D01*
G01*
X48468124Y66839836D02*
G75*
G02*
X47948124Y66259836I-549999J-30001D01*
G01*
%TO.C,S12*%
X43468137Y84259839D02*
X47968137Y84259840D01*
X43468137Y84059839D02*
X43468139Y85059836D01*
X43468137Y83659839D02*
X43468137Y84259839D01*
X43468137Y79559839D02*
X43468137Y80059839D01*
X43468140Y71059841D02*
X43468137Y72059839D01*
X43468140Y71059841D02*
X44468137Y71059839D01*
X44468137Y85059839D02*
X43468139Y85059836D01*
X47968137Y80259839D02*
X47968137Y79559839D01*
X47968137Y79559839D02*
X43468137Y79559839D01*
X48468137Y84759839D02*
X48468137Y85759839D01*
X48968137Y86259839D02*
X48468137Y85759839D01*
X51968137Y86259839D02*
X48968137Y86259839D01*
X51968137Y81759839D02*
X49468137Y81759839D01*
X52468137Y85759839D02*
X51968137Y86259839D01*
X52468138Y82259838D02*
X51968137Y81759839D01*
X56468137Y71059839D02*
X57468135Y71059842D01*
X57468134Y85059837D02*
X56468137Y85059839D01*
X57468134Y85059837D02*
X57468137Y84059839D01*
X57468137Y72059839D02*
X57468135Y71059842D01*
X47968138Y80279839D02*
G75*
G02*
X49668137Y81759839I1590001J-110001D01*
G01*
X48468137Y84839839D02*
G75*
G02*
X47948137Y84259839I-549999J-30001D01*
G01*
%TO.C,S6*%
X-5066701Y61413400D02*
X-635066Y62194818D01*
X-5031971Y61216438D02*
X-5205620Y62201246D01*
X-4962512Y60822515D02*
X-5066701Y61413400D01*
X-4250557Y56784803D02*
X-4337375Y57277207D01*
X-4220812Y62374894D02*
X-5205620Y62201246D01*
X-2774545Y48413937D02*
X-2948193Y49398745D01*
X-2774545Y48413937D02*
X-1789737Y48587586D01*
X-229486Y62774045D02*
X-403134Y63758852D01*
X2445Y64338080D02*
X-403134Y63758852D01*
X59527Y58255586D02*
X181080Y57566220D01*
X181080Y57566220D02*
X-4250557Y56784803D01*
X2956869Y64859025D02*
X2445Y64338080D01*
X3536097Y64453445D02*
X2956869Y64859025D01*
X3738285Y60427390D02*
X1276266Y59993270D01*
X4143865Y61006618D02*
X3738285Y60427390D01*
X8581689Y64632321D02*
X7596881Y64458672D01*
X8581689Y64632321D02*
X8755337Y63647513D01*
X10027956Y50671364D02*
X11012764Y50845012D01*
X10839115Y51829820D02*
X11012764Y50845012D01*
X-243378Y62852829D02*
G75*
G02*
X-654762Y62191344I-536434J-125051D01*
G01*
X56055Y58275282D02*
G75*
G02*
X1473228Y60027999I1584946J167771D01*
G01*
%TO.C,S2*%
X-20768940Y35289863D02*
X-16337305Y36071281D01*
X-20734210Y35092901D02*
X-20907859Y36077709D01*
X-20664751Y34698978D02*
X-20768940Y35289863D01*
X-19952796Y30661266D02*
X-20039614Y31153670D01*
X-19923051Y36251357D02*
X-20907859Y36077709D01*
X-18476784Y22290400D02*
X-18650432Y23275208D01*
X-18476784Y22290400D02*
X-17491976Y22464049D01*
X-15931725Y36650508D02*
X-16105373Y37635315D01*
X-15699794Y38214543D02*
X-16105373Y37635315D01*
X-15642712Y32132049D02*
X-15521159Y31442683D01*
X-15521159Y31442683D02*
X-19952796Y30661266D01*
X-12745370Y38735488D02*
X-15699794Y38214543D01*
X-12166142Y38329908D02*
X-12745370Y38735488D01*
X-11963954Y34303853D02*
X-14425973Y33869733D01*
X-11558374Y34883081D02*
X-11963954Y34303853D01*
X-7120550Y38508784D02*
X-8105358Y38335135D01*
X-7120550Y38508784D02*
X-6946902Y37523976D01*
X-5674283Y24547827D02*
X-4689475Y24721475D01*
X-4863124Y25706283D02*
X-4689475Y24721475D01*
X-15945617Y36729292D02*
G75*
G02*
X-16357001Y36067807I-536434J-125051D01*
G01*
X-15646184Y32151745D02*
G75*
G02*
X-14229011Y33904462I1584946J167771D01*
G01*
D10*
%TO.C,D20*%
X114949856Y-2685071D02*
X115179286Y-2357410D01*
X115179286Y-2357410D02*
X114728753Y-2041943D01*
X115179286Y-2357410D02*
X115195772Y-1636486D01*
X115179286Y-2357410D02*
X115629819Y-2672875D01*
X115195772Y-1636486D02*
X115851093Y-2095350D01*
X115523435Y-1865918D02*
X115810220Y-1456343D01*
X115851093Y-2095350D02*
X115179286Y-2357410D01*
D11*
%TO.C,S5*%
X-1941032Y43686858D02*
X2490603Y44468276D01*
X-1906302Y43489896D02*
X-2079951Y44474704D01*
X-1836843Y43095973D02*
X-1941032Y43686858D01*
X-1124888Y39058261D02*
X-1211706Y39550665D01*
X-1095143Y44648352D02*
X-2079951Y44474704D01*
X351124Y30687395D02*
X177476Y31672203D01*
X351124Y30687395D02*
X1335932Y30861044D01*
X2896183Y45047503D02*
X2722535Y46032310D01*
X3128114Y46611538D02*
X2722535Y46032310D01*
X3185196Y40529044D02*
X3306749Y39839678D01*
X3306749Y39839678D02*
X-1124888Y39058261D01*
X6082538Y47132483D02*
X3128114Y46611538D01*
X6661766Y46726903D02*
X6082538Y47132483D01*
X6863954Y42700848D02*
X4401935Y42266728D01*
X7269534Y43280076D02*
X6863954Y42700848D01*
X11707358Y46905779D02*
X10722550Y46732130D01*
X11707358Y46905779D02*
X11881006Y45920971D01*
X13153625Y32944822D02*
X14138433Y33118470D01*
X13964784Y34103278D02*
X14138433Y33118470D01*
X2882291Y45126287D02*
G75*
G02*
X2470907Y44464802I-536434J-125051D01*
G01*
X3181724Y40548740D02*
G75*
G02*
X4598897Y42301457I1584946J167771D01*
G01*
D10*
%TO.C,D14*%
X62468130Y49509836D02*
X63268130Y49509836D01*
X62868128Y49509838D02*
X62868130Y50009836D01*
X62868130Y48509836D02*
X62868131Y48909837D01*
X62868131Y48909837D02*
X62318134Y48909837D01*
X62868131Y48909837D02*
X62468130Y49509836D01*
X62868131Y48909837D02*
X63418127Y48909833D01*
X63268130Y49509836D02*
X62868131Y48909837D01*
D11*
%TO.C,S20*%
X112315353Y-7493590D02*
X112888930Y-6674438D01*
X112315353Y-7493590D02*
X113134506Y-8067167D01*
X117190753Y-530798D02*
X117477542Y-121222D01*
X119542417Y2827726D02*
X119886563Y3319217D01*
X119771847Y3155386D02*
X120345424Y3974539D01*
X119886563Y3319217D02*
X123572747Y738123D01*
X120876938Y-3111892D02*
X117190753Y-530798D01*
X121164576Y3400962D02*
X120345424Y3974539D01*
X121278441Y-2538485D02*
X120876938Y-3111892D01*
X122964330Y-14950084D02*
X123783482Y-15523661D01*
X124269111Y860907D02*
X124842687Y1680063D01*
X124357059Y-14704508D02*
X123783482Y-15523661D01*
X125415414Y-3604063D02*
X123367534Y-2170122D01*
X125539052Y1802850D02*
X124842687Y1680063D01*
X126111782Y-3481273D02*
X125415414Y-3604063D01*
X127996508Y82121D02*
X125539052Y1802850D01*
X128119296Y-614243D02*
X127996508Y82121D01*
X131813553Y-4055532D02*
X130994400Y-3481955D01*
X131813553Y-4055532D02*
X131239976Y-4874684D01*
X121289915Y-2522102D02*
G75*
G02*
X123531363Y-2284838I1239357J-1002098D01*
G01*
X124315001Y926444D02*
G75*
G02*
X123556364Y749594I-467741J290884D01*
G01*
D12*
%TO.C,SW1*%
X119543133Y14459846D02*
X119543133Y16159846D01*
X119543137Y17459846D02*
X119543133Y17659846D01*
X120593133Y12609846D02*
X121383129Y12609846D01*
X121383129Y19509846D02*
X120593132Y19509846D01*
X122393133Y13209846D02*
X122393133Y18909846D01*
D11*
%TO.C,S9*%
X23468136Y74259841D02*
X27968136Y74259842D01*
X23468136Y74059841D02*
X23468138Y75059838D01*
X23468136Y73659841D02*
X23468136Y74259841D01*
X23468136Y69559841D02*
X23468136Y70059841D01*
X23468139Y61059843D02*
X23468136Y62059841D01*
X23468139Y61059843D02*
X24468136Y61059841D01*
X24468136Y75059841D02*
X23468138Y75059838D01*
X27968136Y70259841D02*
X27968136Y69559841D01*
X27968136Y69559841D02*
X23468136Y69559841D01*
X28468136Y74759841D02*
X28468136Y75759841D01*
X28968136Y76259841D02*
X28468136Y75759841D01*
X31968136Y76259841D02*
X28968136Y76259841D01*
X31968136Y71759841D02*
X29468136Y71759841D01*
X32468136Y75759841D02*
X31968136Y76259841D01*
X32468137Y72259840D02*
X31968136Y71759841D01*
X36468136Y61059841D02*
X37468134Y61059844D01*
X37468133Y75059839D02*
X36468136Y75059841D01*
X37468133Y75059839D02*
X37468136Y74059841D01*
X37468136Y62059841D02*
X37468134Y61059844D01*
X27968137Y70279841D02*
G75*
G02*
X29668136Y71759841I1590001J-110001D01*
G01*
X28468136Y74839841D02*
G75*
G02*
X27948136Y74259841I-549999J-30001D01*
G01*
D10*
%TO.C,D3*%
X-23707298Y46195302D02*
X-22919452Y46334220D01*
X-23313375Y46264762D02*
X-23400199Y46757165D01*
X-23209186Y45673877D02*
X-23750830Y45578370D01*
X-23209186Y45673877D02*
X-23707298Y46195302D01*
X-23209186Y45673877D02*
X-22667542Y45769380D01*
X-23139727Y45279953D02*
X-23209186Y45673877D01*
X-22919452Y46334220D02*
X-23209186Y45673877D01*
%TO.C,D8*%
X22468135Y49509828D02*
X23268135Y49509828D01*
X22868133Y49509830D02*
X22868135Y50009828D01*
X22868135Y48509828D02*
X22868136Y48909829D01*
X22868136Y48909829D02*
X22318139Y48909829D01*
X22868136Y48909829D02*
X22468135Y49509828D01*
X22868136Y48909829D02*
X23418132Y48909825D01*
X23268135Y49509828D02*
X22868136Y48909829D01*
D12*
%TO.C,MCU1*%
X103518133Y68589846D02*
X103518133Y37989842D01*
X103518133Y68589846D02*
X106178133Y68589842D01*
X103518133Y37989842D02*
X106178134Y37989842D01*
X106178133Y68589842D02*
X106178134Y37989842D01*
X118758131Y65989840D02*
X121418131Y65989841D01*
X118758133Y68589842D02*
X118758133Y37989842D01*
X118758133Y68589842D02*
X121418133Y68589846D01*
X118758133Y37989842D02*
X121418133Y37989842D01*
X121418133Y68589846D02*
X121418133Y37989842D01*
D11*
%TO.C,S1*%
X-17643271Y17563325D02*
X-13211636Y18344743D01*
X-17608541Y17366363D02*
X-17782190Y18351171D01*
X-17539082Y16972440D02*
X-17643271Y17563325D01*
X-16827127Y12934728D02*
X-16913945Y13427132D01*
X-16797382Y18524819D02*
X-17782190Y18351171D01*
X-15351115Y4563862D02*
X-15524763Y5548670D01*
X-15351115Y4563862D02*
X-14366307Y4737511D01*
X-12806056Y18923970D02*
X-12979704Y19908777D01*
X-12574125Y20488005D02*
X-12979704Y19908777D01*
X-12517043Y14405511D02*
X-12395490Y13716145D01*
X-12395490Y13716145D02*
X-16827127Y12934728D01*
X-9619701Y21008950D02*
X-12574125Y20488005D01*
X-9040473Y20603370D02*
X-9619701Y21008950D01*
X-8838285Y16577315D02*
X-11300304Y16143195D01*
X-8432705Y17156543D02*
X-8838285Y16577315D01*
X-3994881Y20782246D02*
X-4979689Y20608597D01*
X-3994881Y20782246D02*
X-3821233Y19797438D01*
X-2548614Y6821289D02*
X-1563806Y6994937D01*
X-1737455Y7979745D02*
X-1563806Y6994937D01*
X-12819948Y19002754D02*
G75*
G02*
X-13231332Y18341269I-536434J-125051D01*
G01*
X-12520515Y14425207D02*
G75*
G02*
X-11103342Y16177924I1584946J167771D01*
G01*
%TO.C,S3*%
X-23894613Y53016408D02*
X-19462978Y53797826D01*
X-23859883Y52819446D02*
X-24033532Y53804254D01*
X-23790424Y52425523D02*
X-23894613Y53016408D01*
X-23078469Y48387811D02*
X-23165287Y48880215D01*
X-23048724Y53977902D02*
X-24033532Y53804254D01*
X-21602457Y40016945D02*
X-21776105Y41001753D01*
X-21602457Y40016945D02*
X-20617649Y40190594D01*
X-19057398Y54377053D02*
X-19231046Y55361860D01*
X-18825467Y55941088D02*
X-19231046Y55361860D01*
X-18768385Y49858594D02*
X-18646832Y49169228D01*
X-18646832Y49169228D02*
X-23078469Y48387811D01*
X-15871043Y56462033D02*
X-18825467Y55941088D01*
X-15291815Y56056453D02*
X-15871043Y56462033D01*
X-15089627Y52030398D02*
X-17551646Y51596278D01*
X-14684047Y52609626D02*
X-15089627Y52030398D01*
X-10246223Y56235329D02*
X-11231031Y56061680D01*
X-10246223Y56235329D02*
X-10072575Y55250521D01*
X-8799956Y42274372D02*
X-7815148Y42448020D01*
X-7988797Y43432828D02*
X-7815148Y42448020D01*
X-19071290Y54455837D02*
G75*
G02*
X-19482674Y53794352I-536434J-125051D01*
G01*
X-18771857Y49878290D02*
G75*
G02*
X-17354684Y51631007I1584946J167771D01*
G01*
D10*
%TO.C,D11*%
X42468130Y59509829D02*
X43268130Y59509829D01*
X42868128Y59509831D02*
X42868130Y60009829D01*
X42868130Y58509829D02*
X42868131Y58909830D01*
X42868131Y58909830D02*
X42318134Y58909830D01*
X42868131Y58909830D02*
X42468130Y59509829D01*
X42868131Y58909830D02*
X43418127Y58909826D01*
X43268130Y59509829D02*
X42868131Y58909830D01*
D11*
%TO.C,S8*%
X23468128Y56259836D02*
X27968128Y56259837D01*
X23468128Y56059836D02*
X23468130Y57059833D01*
X23468128Y55659836D02*
X23468128Y56259836D01*
X23468128Y51559836D02*
X23468128Y52059836D01*
X23468131Y43059838D02*
X23468128Y44059836D01*
X23468131Y43059838D02*
X24468128Y43059836D01*
X24468128Y57059836D02*
X23468130Y57059833D01*
X27968128Y52259836D02*
X27968128Y51559836D01*
X27968128Y51559836D02*
X23468128Y51559836D01*
X28468128Y56759836D02*
X28468128Y57759836D01*
X28968128Y58259836D02*
X28468128Y57759836D01*
X31968128Y58259836D02*
X28968128Y58259836D01*
X31968128Y53759836D02*
X29468128Y53759836D01*
X32468128Y57759836D02*
X31968128Y58259836D01*
X32468129Y54259835D02*
X31968128Y53759836D01*
X36468128Y43059836D02*
X37468126Y43059839D01*
X37468125Y57059834D02*
X36468128Y57059836D01*
X37468125Y57059834D02*
X37468128Y56059836D01*
X37468128Y44059836D02*
X37468126Y43059839D01*
X27968129Y52279836D02*
G75*
G02*
X29668128Y53759836I1590001J-110001D01*
G01*
X28468128Y56839836D02*
G75*
G02*
X27948128Y56259836I-549999J-30001D01*
G01*
D12*
%TO.C,SW2*%
X118918132Y6309827D02*
X118918134Y9809829D01*
X122018134Y9809829D02*
X122018132Y6309827D01*
D11*
%TO.C,S10*%
X43468136Y48259854D02*
X47968136Y48259855D01*
X43468136Y48059854D02*
X43468138Y49059851D01*
X43468136Y47659854D02*
X43468136Y48259854D01*
X43468136Y43559854D02*
X43468136Y44059854D01*
X43468139Y35059856D02*
X43468136Y36059854D01*
X43468139Y35059856D02*
X44468136Y35059854D01*
X44468136Y49059854D02*
X43468138Y49059851D01*
X47968136Y44259854D02*
X47968136Y43559854D01*
X47968136Y43559854D02*
X43468136Y43559854D01*
X48468136Y48759854D02*
X48468136Y49759854D01*
X48968136Y50259854D02*
X48468136Y49759854D01*
X51968136Y50259854D02*
X48968136Y50259854D01*
X51968136Y45759854D02*
X49468136Y45759854D01*
X52468136Y49759854D02*
X51968136Y50259854D01*
X52468137Y46259853D02*
X51968136Y45759854D01*
X56468136Y35059854D02*
X57468134Y35059857D01*
X57468133Y49059852D02*
X56468136Y49059854D01*
X57468133Y49059852D02*
X57468136Y48059854D01*
X57468136Y36059854D02*
X57468134Y35059857D01*
X47968137Y44279854D02*
G75*
G02*
X49668136Y45759854I1590001J-110001D01*
G01*
X48468136Y48839854D02*
G75*
G02*
X47948136Y48259854I-549999J-30001D01*
G01*
D10*
%TO.C,D19*%
X89798529Y6757645D02*
X90571270Y6550590D01*
X89926081Y5688192D02*
X90029607Y6074563D01*
X90029607Y6074563D02*
X89498349Y6216912D01*
X90029607Y6074563D02*
X89798529Y6757645D01*
X90029607Y6074563D02*
X90560869Y5932211D01*
X90184900Y6654119D02*
X90314309Y7137080D01*
X90571270Y6550590D02*
X90029607Y6074563D01*
D11*
%TO.C,S13*%
X63468136Y38259839D02*
X67968136Y38259840D01*
X63468136Y38059839D02*
X63468138Y39059836D01*
X63468136Y37659839D02*
X63468136Y38259839D01*
X63468136Y33559839D02*
X63468136Y34059839D01*
X63468139Y25059841D02*
X63468136Y26059839D01*
X63468139Y25059841D02*
X64468136Y25059839D01*
X64468136Y39059839D02*
X63468138Y39059836D01*
X67968136Y34259839D02*
X67968136Y33559839D01*
X67968136Y33559839D02*
X63468136Y33559839D01*
X68468136Y38759839D02*
X68468136Y39759839D01*
X68968136Y40259839D02*
X68468136Y39759839D01*
X71968136Y40259839D02*
X68968136Y40259839D01*
X71968136Y35759839D02*
X69468136Y35759839D01*
X72468136Y39759839D02*
X71968136Y40259839D01*
X72468137Y36259838D02*
X71968136Y35759839D01*
X76468136Y25059839D02*
X77468134Y25059842D01*
X77468133Y39059837D02*
X76468136Y39059839D01*
X77468133Y39059837D02*
X77468136Y38059839D01*
X77468136Y26059839D02*
X77468134Y25059842D01*
X67968137Y34279839D02*
G75*
G02*
X69668136Y35759839I1590001J-110001D01*
G01*
X68468136Y38839839D02*
G75*
G02*
X67948136Y38259839I-549999J-30001D01*
G01*
%TO.C,S17*%
X83468138Y51259833D02*
X87968138Y51259834D01*
X83468138Y51059833D02*
X83468140Y52059830D01*
X83468138Y50659833D02*
X83468138Y51259833D01*
X83468138Y46559833D02*
X83468138Y47059833D01*
X83468141Y38059835D02*
X83468138Y39059833D01*
X83468141Y38059835D02*
X84468138Y38059833D01*
X84468138Y52059833D02*
X83468140Y52059830D01*
X87968138Y47259833D02*
X87968138Y46559833D01*
X87968138Y46559833D02*
X83468138Y46559833D01*
X88468138Y51759833D02*
X88468138Y52759833D01*
X88968138Y53259833D02*
X88468138Y52759833D01*
X91968138Y53259833D02*
X88968138Y53259833D01*
X91968138Y48759833D02*
X89468138Y48759833D01*
X92468138Y52759833D02*
X91968138Y53259833D01*
X92468139Y49259832D02*
X91968138Y48759833D01*
X96468138Y38059833D02*
X97468136Y38059836D01*
X97468135Y52059831D02*
X96468138Y52059833D01*
X97468135Y52059831D02*
X97468138Y51059833D01*
X97468138Y39059833D02*
X97468136Y38059836D01*
X87968139Y47279833D02*
G75*
G02*
X89668138Y48759833I1590001J-110001D01*
G01*
X88468138Y51839833D02*
G75*
G02*
X87948138Y51259833I-549999J-30001D01*
G01*
%TO.C,S4*%
X1184627Y25960328D02*
X5616262Y26741746D01*
X1219357Y25763366D02*
X1045708Y26748174D01*
X1288816Y25369443D02*
X1184627Y25960328D01*
X2000771Y21331731D02*
X1913953Y21824135D01*
X2030516Y26921822D02*
X1045708Y26748174D01*
X3476783Y12960865D02*
X3303135Y13945673D01*
X3476783Y12960865D02*
X4461591Y13134514D01*
X6021842Y27320973D02*
X5848194Y28305780D01*
X6253773Y28885008D02*
X5848194Y28305780D01*
X6310855Y22802514D02*
X6432408Y22113148D01*
X6432408Y22113148D02*
X2000771Y21331731D01*
X9208197Y29405953D02*
X6253773Y28885008D01*
X9787425Y29000373D02*
X9208197Y29405953D01*
X9989613Y24974318D02*
X7527594Y24540198D01*
X10395193Y25553546D02*
X9989613Y24974318D01*
X14833017Y29179249D02*
X13848209Y29005600D01*
X14833017Y29179249D02*
X15006665Y28194441D01*
X16279284Y15218292D02*
X17264092Y15391940D01*
X17090443Y16376748D02*
X17264092Y15391940D01*
X6007950Y27399757D02*
G75*
G02*
X5596566Y26738272I-536434J-125051D01*
G01*
X6307383Y22822210D02*
G75*
G02*
X7724556Y24574927I1584946J167771D01*
G01*
D10*
%TO.C,D9*%
X22468124Y67509842D02*
X23268124Y67509842D01*
X22868122Y67509844D02*
X22868124Y68009842D01*
X22868124Y66509842D02*
X22868125Y66909843D01*
X22868125Y66909843D02*
X22318128Y66909843D01*
X22868125Y66909843D02*
X22468124Y67509842D01*
X22868125Y66909843D02*
X23418121Y66909839D01*
X23268124Y67509842D02*
X22868125Y66909843D01*
%TO.C,D7*%
X22468126Y31509834D02*
X23268126Y31509834D01*
X22868124Y31509836D02*
X22868126Y32009834D01*
X22868126Y30509834D02*
X22868127Y30909835D01*
X22868127Y30909835D02*
X22318130Y30909835D01*
X22868127Y30909835D02*
X22468126Y31509834D01*
X22868127Y30909835D02*
X23418123Y30909831D01*
X23268126Y31509834D02*
X22868127Y30909835D01*
D12*
%TO.C,LED1*%
X-12547029Y7089145D02*
X-12269192Y5513453D01*
X-12269192Y5513453D02*
X-10693500Y5791290D01*
%TO.C,LED3*%
X-18798371Y42542229D02*
X-18520534Y40966537D01*
X-18520534Y40966537D02*
X-16944842Y41244374D01*
%TO.C,LED8*%
X26668138Y45059829D02*
X26668138Y43459829D01*
X26668138Y43459829D02*
X28268138Y43459829D01*
%TO.C,LED14*%
X66668137Y45059834D02*
X66668137Y43459834D01*
X66668137Y43459834D02*
X68268137Y43459834D01*
%TO.C,LED16*%
X86668127Y22059842D02*
X86668127Y20459842D01*
X86668127Y20459842D02*
X88268127Y20459842D01*
%TO.C,LED12*%
X46668127Y73059844D02*
X46668127Y71459844D01*
X46668127Y71459844D02*
X48268127Y71459844D01*
%TO.C,LED15*%
X66668137Y63059838D02*
X66668137Y61459838D01*
X66668137Y61459838D02*
X68268137Y61459838D01*
%TO.C,LED19*%
X92289562Y-173246D02*
X93835044Y-587356D01*
X92703673Y1372235D02*
X92289562Y-173246D01*
%TO.C,LED10*%
X46668132Y37059837D02*
X46668132Y35459837D01*
X46668132Y35459837D02*
X48268132Y35459837D01*
%TO.C,LED9*%
X26668136Y63059840D02*
X26668136Y61459840D01*
X26668136Y61459840D02*
X28268136Y61459840D01*
%TO.C,LED20*%
X115166070Y-9001378D02*
X116476712Y-9919096D01*
X116083791Y-7690731D02*
X115166070Y-9001378D01*
%TO.C,LED5*%
X3155217Y33212691D02*
X3433054Y31636999D01*
X3433054Y31636999D02*
X5008746Y31914836D01*
%TO.C,LED6*%
X29560Y50939239D02*
X307397Y49363547D01*
X307397Y49363547D02*
X1883089Y49641384D01*
%TO.C,LED7*%
X26668149Y27059831D02*
X26668149Y25459831D01*
X26668149Y25459831D02*
X28268149Y25459831D01*
%TO.C,LED11*%
X46668138Y55059832D02*
X46668138Y53459832D01*
X46668138Y53459832D02*
X48268138Y53459832D01*
%TO.C,LED2*%
X-15672707Y24815705D02*
X-15394870Y23240013D01*
X-15394870Y23240013D02*
X-13819178Y23517850D01*
%TO.C,LED13*%
X66668130Y27059834D02*
X66668130Y25459834D01*
X66668130Y25459834D02*
X68268130Y25459834D01*
%TO.C,LED17*%
X86668143Y40059840D02*
X86668143Y38459840D01*
X86668143Y38459840D02*
X88268143Y38459840D01*
%TO.C,LED4*%
X6280877Y15486153D02*
X6558714Y13910461D01*
X6558714Y13910461D02*
X8134406Y14188298D01*
%TO.C,LED18*%
X86668139Y58059837D02*
X86668139Y56459837D01*
X86668139Y56459837D02*
X88268139Y56459837D01*
%TD*%
D13*
X107388133Y33359830D03*
X109928133Y33359830D03*
X112468141Y33359828D03*
X115008133Y33359830D03*
X117548136Y33359834D03*
X84968128Y27059830D03*
X85468125Y30809830D03*
X90468128Y33009832D03*
X90468128Y27059830D03*
X95468127Y30809831D03*
X95968128Y27059830D03*
X109694740Y-775521D03*
X261897Y13917137D03*
X24968136Y32059845D03*
X25468133Y35809845D03*
X30468136Y38009847D03*
X30468136Y32059845D03*
X35468135Y35809846D03*
X35968136Y32059845D03*
X84968133Y63059834D03*
X85468130Y66809834D03*
X90468133Y69009836D03*
X90468133Y63059834D03*
X95468132Y66809835D03*
X95968133Y63059834D03*
X85468130Y11059839D03*
X64968136Y68059843D03*
X65468133Y71809843D03*
X70468136Y74009845D03*
X70468136Y68059843D03*
X75468135Y71809844D03*
X75968136Y68059843D03*
X112868136Y3059839D03*
X110868138Y3059847D03*
X120993131Y26559830D03*
X120993131Y23559830D03*
X64968131Y50059836D03*
X65468128Y53809836D03*
X70468131Y56009838D03*
X70468131Y50059836D03*
X75468130Y53809837D03*
X75968131Y50059836D03*
X92355691Y6641861D03*
X93809222Y10134673D03*
X99208256Y10965615D03*
X97668283Y5218356D03*
X103468487Y7546481D03*
X102980875Y3794851D03*
X103468132Y28059839D03*
X44968124Y60059836D03*
X45468121Y63809836D03*
X50468124Y66009838D03*
X50468124Y60059836D03*
X55468123Y63809837D03*
X55968124Y60059836D03*
X40468135Y68059834D03*
X44968137Y78059839D03*
X45468134Y81809839D03*
X50468137Y84009841D03*
X50468137Y78059839D03*
X55468136Y81809840D03*
X55968137Y78059839D03*
X99468134Y60059834D03*
X-2512871Y55568064D03*
X-2671651Y59347916D03*
X1870365Y62382737D03*
X2903572Y56523129D03*
X7176429Y61084400D03*
X8320015Y57478194D03*
X-18215110Y29444527D03*
X-18373890Y33224379D03*
X-13831874Y36259200D03*
X-12798667Y30399592D03*
X-8525810Y34960863D03*
X-7382224Y31354657D03*
X612798Y37841522D03*
X454018Y41621374D03*
X4996034Y44656195D03*
X6029241Y38796587D03*
X10302098Y43357858D03*
X11445684Y39751652D03*
X117559117Y-2619891D03*
X120119604Y165142D03*
X125477232Y-900604D03*
X122064453Y-5774561D03*
X128311125Y-5570623D03*
X126569789Y-8929231D03*
X120993133Y17559846D03*
X120993133Y14559846D03*
X-5468486Y46415785D03*
X24968136Y68059841D03*
X25468133Y71809841D03*
X30468136Y74009843D03*
X30468136Y68059841D03*
X35468135Y71809842D03*
X35968136Y68059841D03*
X116468137Y20559846D03*
X40468141Y40559839D03*
X120088133Y67259842D03*
X120088133Y64719842D03*
X120088131Y62179837D03*
X120088133Y59639842D03*
X120088133Y57099842D03*
X120088133Y54559842D03*
X120088128Y52019844D03*
X120088133Y49479842D03*
X120088128Y46939844D03*
X120088133Y44399843D03*
X120088130Y41859840D03*
X120088133Y39319842D03*
X104848133Y39319842D03*
X104848133Y41859842D03*
X104848133Y44399842D03*
X104848135Y46939847D03*
X104848133Y49479842D03*
X104848133Y52019842D03*
X104848133Y54559842D03*
X104848138Y57099840D03*
X104848133Y59639842D03*
X104848138Y62179840D03*
X104848133Y64719841D03*
X104848136Y67259844D03*
X115868133Y67259842D03*
X115868134Y64719842D03*
X115868133Y62179842D03*
X115868133Y59639842D03*
X115868129Y57099844D03*
X115868138Y54559841D03*
X115868133Y52019842D03*
X115868132Y49479844D03*
X115868133Y46939842D03*
X115868126Y44399843D03*
X115868134Y41859845D03*
X115868131Y39319842D03*
X109068135Y39319842D03*
X109068133Y41859842D03*
X109068132Y44399842D03*
X109068133Y46939842D03*
X109068133Y49479842D03*
X109068137Y52019840D03*
X109068128Y54559843D03*
X109068133Y57099842D03*
X109068134Y59639840D03*
X109068133Y62179842D03*
X109068140Y64719841D03*
X109068132Y67259839D03*
X-15089441Y11717989D03*
X-15248221Y15497841D03*
X-10706205Y18532662D03*
X-9672998Y12673054D03*
X-5400141Y17234325D03*
X-4256555Y13628119D03*
X-21340783Y47171072D03*
X-21499563Y50950924D03*
X-16957547Y53985745D03*
X-15924340Y48126137D03*
X-11651483Y52687408D03*
X-10507897Y49081202D03*
X24968128Y50059836D03*
X25468125Y53809836D03*
X30468128Y56009838D03*
X30468128Y50059836D03*
X35468127Y53809837D03*
X35968128Y50059836D03*
X44968136Y42059854D03*
X45468133Y45809854D03*
X50468136Y48009856D03*
X50468136Y42059854D03*
X55468135Y45809855D03*
X55968136Y42059854D03*
X64968136Y32059839D03*
X65468133Y35809839D03*
X70468136Y38009841D03*
X70468136Y32059839D03*
X75468135Y35809840D03*
X75968136Y32059839D03*
X84968138Y45059833D03*
X85468135Y48809833D03*
X90468138Y51009835D03*
X90468138Y45059833D03*
X95468137Y48809834D03*
X95968138Y45059833D03*
X3738457Y20114992D03*
X3579677Y23894844D03*
X8121693Y26929665D03*
X9154900Y21070057D03*
X13427757Y25631328D03*
X14571343Y22025122D03*
M02*
