M48
; DRILL file {KiCad 8.0.5} date 2024-10-12T16:26:51+0200
; FORMAT={-:-/ absolute / metric / decimal}
; #@! TF.CreationDate,2024-10-12T16:26:51+02:00
; #@! TF.GenerationSoftware,Kicad,Pcbnew,8.0.5
; #@! TF.FileFunction,MixedPlating,1,2
FMAT,2
METRIC
; #@! TA.AperFunction,Plated,PTH,ViaDrill
T1C0.400
; #@! TA.AperFunction,Plated,PTH,ComponentDrill
T2C0.400
; #@! TA.AperFunction,Plated,PTH,ComponentDrill
T3C0.750
; #@! TA.AperFunction,Plated,PTH,ComponentDrill
T4C1.000
; #@! TA.AperFunction,NonPlated,NPTH,ComponentDrill
T5C0.900
; #@! TA.AperFunction,NonPlated,NPTH,ComponentDrill
T6C1.702
; #@! TA.AperFunction,NonPlated,NPTH,ComponentDrill
T7C2.200
; #@! TA.AperFunction,NonPlated,NPTH,ComponentDrill
T8C3.000
; #@! TA.AperFunction,NonPlated,NPTH,ComponentDrill
T9C3.429
%
G90
G05
T1
X-19.857Y45.96
X-19.284Y42.71
X-16.731Y28.233
X-16.353Y41.348
X-16.158Y24.984
X-15.233Y40.124
X-13.605Y10.507
X-13.227Y23.622
X-13.032Y7.257
X-12.107Y22.398
X-10.474Y50.889
X-10.101Y5.895
X-8.982Y4.671
X-7.348Y33.163
X-7.236Y41.534
X-6.603Y43.068
X-4.223Y15.436
X-4.222Y42.066
X-4.111Y23.808
X-3.477Y25.341
X-3.24Y41.125
X-1.094Y24.343
X-1.029Y54.357
X-0.985Y6.081
X-0.456Y51.107
X-0.352Y7.614
X-0.115Y23.398
X2.097Y36.63
X2.475Y49.745
X2.67Y33.381
X3.595Y48.521
X5.223Y18.904
X5.601Y32.019
X5.796Y15.654
X6.72Y30.795
X8.354Y59.286
X8.727Y14.292
X9.846Y13.068
X11.48Y41.56
X11.591Y49.931
X12.225Y51.464
X14.605Y23.833
X14.606Y50.463
X14.717Y32.205
X15.35Y33.738
X17.732Y32.736
X17.843Y14.478
X18.476Y16.011
X26.568Y49.226
X26.568Y31.226
X26.568Y63.926
X26.568Y45.926
X26.568Y27.926
X26.568Y67.226
X29.218Y44.076
X29.218Y62.076
X29.218Y26.076
X30.108Y60.676
X30.108Y24.676
X30.108Y42.676
X36.689Y70.451
X36.689Y34.451
X36.727Y52.29
X38.228Y60.676
X38.228Y24.676
X38.228Y42.676
X39.118Y62.076
X39.118Y44.076
X39.118Y26.076
X41.314Y60.676
X41.314Y42.676
X42.127Y41.59
X42.127Y59.59
X46.568Y73.926
X46.568Y55.926
X46.568Y77.226
X46.568Y41.226
X46.568Y59.226
X46.568Y37.926
X49.218Y72.076
X49.218Y36.076
X49.218Y54.076
X50.108Y34.676
X50.108Y52.676
X50.108Y70.676
X56.689Y62.451
X56.689Y80.451
X56.689Y44.451
X58.228Y52.676
X58.228Y34.676
X58.228Y70.676
X59.118Y36.076
X59.118Y72.076
X59.118Y54.076
X61.314Y52.676
X61.314Y70.676
X66.568Y31.226
X66.568Y63.926
X66.568Y45.926
X66.568Y27.926
X66.568Y67.226
X66.568Y49.226
X69.218Y44.076
X69.218Y62.076
X69.218Y26.076
X70.108Y42.676
X70.108Y24.676
X70.108Y60.676
X76.689Y70.451
X76.689Y34.451
X76.689Y52.451
X78.228Y60.676
X78.228Y42.676
X78.228Y24.676
X79.118Y62.076
X79.118Y26.076
X79.118Y44.076
X81.314Y42.676
X81.314Y60.676
X82.127Y41.59
X82.127Y59.59
X86.568Y62.226
X86.568Y58.926
X86.568Y26.226
X86.568Y40.926
X86.568Y44.226
X86.568Y22.926
X89.218Y21.076
X89.218Y57.076
X89.218Y39.076
X90.108Y37.676
X90.108Y55.676
X90.108Y19.676
X90.509Y4.712
X92.423Y4.199
X93.393Y3.135
X94.247Y6.323
X95.474Y0.663
X95.971Y-0.92
X96.689Y47.451
X96.689Y29.451
X96.689Y65.451
X98.228Y55.676
X98.228Y37.676
X98.228Y19.676
X99.118Y57.076
X99.118Y21.076
X99.118Y39.076
X99.637Y13.598
X101.314Y37.676
X101.314Y55.676
X102.764Y21.258
X102.872Y51.375
X103.814Y-3.022
X104.912Y6.79
X105.036Y-1.9
X105.23Y41.351
X105.271Y40.01
X106.327Y48.99
X112.327Y35.49
X113.845Y36.663
X114.568Y9.694
X115.275Y35.781
X116.327Y36.09
X116.568Y9.694
X117.227Y34.19
X117.927Y36.681
X118.133Y-5.106
X118.693Y24.695
X119.027Y35.99
X119.169Y-9.799
X119.243Y-8.141
X120.026Y-2.403
X120.139Y35.902
X120.312Y16.637
X120.435Y11.812
X121.353Y21.292
X121.553Y28.092
X121.569Y8.176
X121.612Y16.626
X121.64Y14.321
X121.853Y6.992
X125.821Y-14.456
X127.353Y-13.82
X130.174Y-5.571
T2
X112.768Y52.876
X112.768Y65.576
X112.768Y42.716
X112.768Y60.496
X112.768Y55.416
X112.768Y47.796
X112.768Y45.256
X112.768Y40.176
X112.768Y57.956
X112.768Y37.636
X112.768Y50.336
X112.768Y63.036
X119.568Y42.716
X119.568Y55.416
X119.568Y37.636
X119.568Y47.796
X119.568Y65.576
X119.568Y60.496
X119.568Y57.956
X119.568Y50.336
X119.568Y45.256
X119.568Y63.036
X119.568Y40.176
X119.568Y52.876
T3
X114.568Y1.376
X116.568Y1.376
T4
X108.548Y63.036
X108.548Y57.956
X108.548Y52.876
X108.548Y50.336
X108.548Y47.796
X108.548Y42.716
X108.548Y40.176
X108.548Y37.636
X108.548Y45.256
X108.548Y65.576
X108.548Y60.496
X108.548Y55.416
X111.088Y31.676
X113.628Y31.676
X116.168Y31.676
X118.708Y31.676
X121.248Y31.676
X123.788Y50.336
X123.788Y45.256
X123.788Y40.176
X123.788Y60.496
X123.788Y65.576
X123.788Y63.036
X123.788Y57.956
X123.788Y55.416
X123.788Y52.876
X123.788Y47.796
X123.788Y42.716
X123.788Y37.636
T5
X124.693Y24.876
X124.693Y21.876
X124.693Y15.876
X124.693Y12.876
T6
X-17.641Y45.488
X-14.515Y27.761
X-11.39Y10.034
X-6.808Y47.398
X-3.682Y29.671
X-0.557Y11.945
X1.187Y53.885
X4.313Y36.158
X7.438Y18.431
X12.02Y55.795
X15.145Y38.068
X18.271Y20.342
X28.668Y48.376
X28.668Y66.376
X28.668Y30.376
X39.668Y48.376
X39.668Y66.376
X39.668Y30.376
X48.668Y58.376
X48.668Y76.376
X48.668Y40.376
X59.668Y58.376
X59.668Y76.376
X59.668Y40.376
X68.668Y48.376
X68.668Y66.376
X68.668Y30.376
X79.668Y48.376
X79.668Y66.376
X79.668Y30.376
X88.668Y25.376
X88.668Y43.376
X88.668Y61.376
X96.055Y4.958
X99.668Y25.376
X99.668Y43.376
X99.668Y61.376
X106.681Y2.111
X121.259Y-4.303
X130.27Y-10.613
T7
X-1.769Y44.732
X3.962Y12.234
X44.168Y66.376
X44.168Y38.876
X89.168Y9.376
X103.168Y58.376
X107.168Y26.376
X113.394Y-2.459
X120.168Y18.876
T8
X-17.8Y49.267
X-14.674Y31.541
X-13.258Y52.302
X-11.548Y13.814
X-10.132Y34.576
X-7.952Y51.004
X-7.006Y16.849
X-4.826Y33.277
X-1.7Y15.551
X1.028Y57.664
X4.154Y39.938
X5.57Y60.699
X7.279Y22.211
X8.696Y42.973
X10.876Y59.401
X11.821Y25.246
X14.002Y41.674
X17.128Y23.948
X29.168Y52.126
X29.168Y70.126
X29.168Y34.126
X34.168Y54.326
X34.168Y72.326
X34.168Y36.326
X39.168Y52.126
X39.168Y70.126
X39.168Y34.126
X49.168Y62.126
X49.168Y80.126
X49.168Y44.126
X54.168Y64.326
X54.168Y82.326
X54.168Y46.326
X59.168Y62.126
X59.168Y80.126
X59.168Y44.126
X69.168Y52.126
X69.168Y70.126
X69.168Y34.126
X74.168Y54.326
X74.168Y72.326
X74.168Y36.326
X79.168Y52.126
X79.168Y70.126
X79.168Y34.126
X89.168Y29.126
X89.168Y47.126
X89.168Y65.126
X94.168Y31.326
X94.168Y49.326
X94.168Y67.326
X97.509Y8.451
X99.168Y29.126
X99.168Y47.126
X99.168Y65.126
X102.908Y9.282
X107.168Y5.863
X123.819Y-1.518
X129.177Y-2.584
X132.011Y-7.254
T9
X-12.225Y46.443
X-9.099Y28.716
X-5.973Y10.99
X6.603Y54.84
X9.729Y37.113
X12.855Y19.387
X34.168Y48.376
X34.168Y66.376
X34.168Y30.376
X54.168Y58.376
X54.168Y76.376
X54.168Y40.376
X74.168Y48.376
X74.168Y66.376
X74.168Y30.376
X94.168Y25.376
X94.168Y43.376
X94.168Y61.376
X101.368Y3.535
X125.764Y-7.458
M30
